<?xml version="1.0" encoding="UTF-8" standalone="no"?>
<!-- Created with Inkscape (http://www.inkscape.org/) -->

<svg
   xmlns:dc="http://purl.org/dc/elements/1.1/"
   xmlns:cc="http://creativecommons.org/ns#"
   xmlns:rdf="http://www.w3.org/1999/02/22-rdf-syntax-ns#"
   xmlns:svg="http://www.w3.org/2000/svg"
   xmlns="http://www.w3.org/2000/svg"
   xmlns:sodipodi="http://sodipodi.sourceforge.net/DTD/sodipodi-0.dtd"
   xmlns:inkscape="http://www.inkscape.org/namespaces/inkscape"
   width="500"
   height="500"
   viewBox="0 0 500.00001 500.00001"
   id="svg2"
   version="1.1"
   inkscape:version="0.91 r13725"
   sodipodi:docname="Otokogumi-x.svg">
  <defs
     id="defs4" />
  <sodipodi:namedview
     id="base"
     pagecolor="#ffffff"
     bordercolor="#666666"
     borderopacity="1.0"
     inkscape:pageopacity="0.0"
     inkscape:pageshadow="2"
     inkscape:zoom="0.35355339"
     inkscape:cx="-670.32679"
     inkscape:cy="458.0581"
     inkscape:document-units="px"
     inkscape:current-layer="layer1"
     showgrid="false"
     units="px"
     inkscape:window-width="1920"
     inkscape:window-height="965"
     inkscape:window-x="-8"
     inkscape:window-y="-8"
     inkscape:window-maximized="1" />
  <metadata
     id="metadata7">
    <rdf:RDF>
      <cc:Work
         rdf:about="">
        <dc:format>image/svg+xml</dc:format>
        <dc:type
           rdf:resource="http://purl.org/dc/dcmitype/StillImage" />
        <dc:title></dc:title>
      </cc:Work>
    </rdf:RDF>
  </metadata>
  <g
     inkscape:label="レイヤー 1"
     inkscape:groupmode="layer"
     id="layer1"
     transform="translate(0,-552.36216)">
    <path
       style="font-style:normal;font-variant:normal;font-weight:normal;font-stretch:normal;font-size:375px;line-height:125%;font-family:HakusyuKaisyoExtraBold_kk;-inkscape-font-specification:HakusyuKaisyoExtraBold_kk;letter-spacing:0px;word-spacing:0px;fill:#000000;fill-opacity:1;stroke:none;stroke-width:1px;stroke-linecap:butt;stroke-linejoin:miter;stroke-opacity:1"
       d="M 253.62305 2.9609375 C 243.36914 2.9609375 234.58007 3.4492213 227.25586 4.4257812 L 227.25586 8.8203125 C 229.94141 11.750002 231.65039 16.144536 232.38281 22.003906 L 227.98828 38.484375 C 211.14257 41.658205 194.41992 44.587887 177.81836 47.273438 C 177.08594 38.240237 173.05664 31.281247 165.73242 26.398438 C 158.4082 21.515626 150.23047 19.318361 141.19727 19.806641 L 137.16797 19.806641 L 135.70312 23.46875 C 142.05079 33.72266 145.46875 43.732417 145.95703 53.498047 C 136.1914 59.113277 126.30469 61.921875 116.29492 61.921875 C 114.58594 61.921875 112.02149 61.433591 108.60352 60.457031 C 104.45313 59.480461 101.76758 58.86914 100.54688 58.625 L 99.814453 61.554688 C 108.11523 77.667968 116.05078 88.289066 123.61914 93.416016 C 126.30469 92.927736 130.82031 91.462894 137.16797 89.021484 C 142.7832 86.824214 147.30078 85.480467 150.71875 84.992188 C 155.11328 95.490238 161.33789 101.22852 169.39453 102.20508 C 175.00976 96.589846 178.1836 88.044922 178.91602 76.570312 C 190.87891 73.152343 203.81837 70.955076 217.73438 69.978516 C 216.26954 79.988286 213.21875 87.92188 208.58008 93.78125 C 169.76172 105.98828 146.08008 112.0918 137.53516 112.0918 L 111.5332 112.0918 L 110.43555 116.48633 C 115.31836 120.88086 121.17774 132.84375 128.01367 152.375 C 133.38476 168.24414 139.85351 175.93555 147.42188 175.44727 L 148.52148 175.44727 C 151.20703 172.27344 155.72266 169.83204 162.07031 168.12305 C 165.73242 167.14649 170.98242 166.16993 177.81836 165.19336 L 177.81836 181.67188 C 165.12305 187.2871 147.54492 192.04883 125.08398 195.95508 L 125.08398 199.25 C 132.65234 205.8418 142.78321 210.84766 155.47852 214.26562 L 173.42383 212.43359 L 170.12695 224.15234 C 164.02344 225.37304 158.16406 226.83788 152.54883 228.54688 C 150.5957 229.03516 141.68555 232.33204 125.81641 238.43555 C 111.65625 243.80664 103.84375 246.49219 102.37891 246.49219 C 95.298822 246.49219 89.683594 245.75976 85.533203 244.29492 L 82.236328 246.125 C 86.630859 259.30859 94.931642 269.68555 107.13867 277.25391 C 122.76367 267.48828 139.60937 261.01758 157.67578 257.84375 C 140.83007 289.09375 114.95117 315.58398 80.039062 337.3125 L 81.503906 340.60742 L 85.898438 340.60742 C 133.26172 341.33985 169.63868 312.6543 195.0293 254.54883 C 198.20313 261.14063 202.47657 267.85351 207.84766 274.68945 C 210.53321 278.10742 215.78125 284.08985 223.59375 292.63477 C 232.13867 303.13282 240.80664 313.63086 249.5957 324.12891 C 261.31445 336.82422 271.93359 344.63672 281.45508 347.56641 C 284.62891 348.54298 289.75587 349.03125 296.83594 349.03125 C 303.58876 349.03125 308.75216 348.02258 313.19531 346.3125 C 313.15842 346.36974 313.12506 346.42926 313.08789 346.48633 C 306.61584 351.05004 298.16665 350.214 290.76953 351.98633 C 287.42772 360.65266 286.7218 370.93494 290.0332 379.70312 C 291.68071 383.65175 297.19274 385.4936 299.95508 381.58398 C 309.12518 375.09131 319.87255 371.69195 330.67578 369.00586 C 324.66694 378.91799 318.09032 389.64574 306.93945 394.38086 C 303.23794 392.76998 293.34464 389.9008 294.86914 396.54492 C 297.83027 407.37345 301.57477 418.531 308.60938 427.41406 C 310.88461 430.09662 315.25738 430.92626 316.65039 426.73633 C 319.29729 423.1469 319.33284 423.00313 320.18945 427.17188 C 326.20487 438.46372 326.33657 451.85881 331.17578 463.57031 C 334.14863 470.31911 343.4937 474.76927 349.83203 470.75977 C 358.14031 456.72917 351.83634 437.64118 338.47266 429.15234 C 333.33481 425.46469 327.56862 422.7474 321.65625 420.55273 C 331.29757 407.73609 347.84779 403.47483 361.51562 396.38867 C 366.20621 403.57934 370.80725 414.27782 381.0293 413.90625 C 389.12326 409.67342 388.48969 398.63424 387.77539 390.87891 C 385.70541 376.664 375.2384 365.40918 363.84961 357.51562 C 370.97086 344.24012 375.94565 329.70636 384.32812 317.18555 C 387.6397 313.49803 386.09946 314.41256 387.58203 317.91602 C 392.82093 325.89478 400.18213 333.61157 398.82227 343.86914 C 397.83998 370.82815 395.80134 397.78577 395.58398 424.80859 C 395.21808 434.35744 395.4904 444.19915 394.95703 453.57031 C 388.48052 458.07091 379.76058 462.39185 372.21094 457.81055 C 366.46672 454.16995 366.05209 462.72565 367.25195 466.65625 C 368.8081 475.01745 369.26211 485.93968 377.49609 490.70898 C 405.94106 469.09408 444.22033 465.49838 478.41797 472.14258 C 485.5322 472.98944 492.76427 474.51928 500 475.32812 L 500 440.40039 C 497.94675 440.06437 495.90638 439.84304 493.9375 439.75781 C 491.00229 438.85097 484.67619 441.88189 486.0918 436.79688 C 486.74222 409.34068 484.395 381.653 488.73242 354.45312 C 490.33184 343.97426 496.65066 335.10102 500 325.2793 L 500 321.49219 C 495.86014 313.59445 487.23698 308.14279 479.26562 304.24414 C 471.64299 300.25364 462.57853 297.04632 454.24023 300.97852 C 440.35709 305.17191 427.23083 312.15665 413.49805 316.21875 C 405.56501 315.24391 397.42855 314.08824 389.92383 312.01953 C 393.40454 309.42958 399.67554 309.00119 398.92578 303.36719 C 397.806 295.24282 388.93036 291.5021 382.5293 288.03906 C 376.85856 285.22453 370.15824 285.29752 365.28125 289.56836 C 362.315 292.02601 355.51275 291.33297 357.0918 296.5918 C 351.52748 288.9847 341.53473 285.52847 332.44531 284.62695 L 332.07031 284.75586 C 327.94563 287.57969 318.4026 286.54508 318.0293 292.04102 C 317.44321 296.31654 323.42012 297.08928 325.42578 300.40625 C 328.55526 303.3948 326.38658 307.79643 325.15039 311.92383 C 324.11028 311.1653 322.89124 310.36314 321.37305 309.48047 C 317.95508 307.52735 308.18945 302.27735 292.07617 293.73242 C 273.0332 283.9668 251.06055 268.58593 226.1582 247.58984 L 235.3125 247.58984 C 250.44922 247.34569 269.3711 248.93359 292.07617 252.35156 C 295.73828 252.83984 299.0332 253.08398 301.96289 253.08398 C 315.63476 253.08398 322.4707 247.46875 322.4707 236.23828 L 322.4707 234.77344 C 317.83203 226.22852 309.6543 219.51367 297.93555 214.63086 C 287.68164 210.23633 277.1836 208.03906 266.44141 208.03906 C 259.11719 208.03906 249.5957 209.38281 237.87695 212.06836 C 223.22852 215.48633 213.70703 217.43945 209.3125 217.92773 L 211.875 204.01172 L 236.04492 198.88477 C 246.78711 195.71094 252.76953 191.19335 253.99023 185.33398 C 251.54883 174.83593 241.9043 169.58789 225.05859 169.58789 C 220.41992 169.58789 215.53711 169.95313 210.41016 170.68555 L 211.875 159.33398 C 218.71093 156.89257 228.72071 155.67188 241.9043 155.67188 C 245.32227 156.64843 248.74023 157.74609 252.1582 158.9668 C 259.72656 154.57227 266.07422 150.30078 271.20117 146.15039 C 278.52539 140.04687 283.89648 135.4082 287.31445 132.23438 C 293.17382 129.06055 297.56836 126.74024 300.49805 125.27539 C 303.91602 122.83398 305.86914 119.53906 306.35742 115.38867 C 304.89257 110.50586 299.52148 104.76758 290.24414 98.175781 C 281.21093 91.339851 274.13086 87.921875 269.00391 87.921875 C 263.87696 87.921875 253.99023 88.654301 239.3418 90.119141 C 243.98047 82.794921 248.25195 75.470694 252.1582 68.146484 C 256.55273 68.390624 264.12109 69.611324 274.86328 71.808594 C 284.38476 73.761714 291.95312 74.738281 297.56836 74.738281 C 302.69531 74.738281 307.45703 73.517582 311.85156 71.076172 C 316.24609 68.634762 318.44336 64.972654 318.44336 60.089844 C 318.44336 58.136714 318.07617 55.818363 317.34375 53.132812 C 311.48437 46.052734 303.55078 41.535161 293.54102 39.582031 C 284.50781 38.117191 275.35156 36.775398 266.07422 35.554688 C 268.02734 29.207037 271.8125 22.492189 277.42773 15.412109 C 273.0332 7.1113298 265.09766 2.9609375 253.62305 2.9609375 z M 15.220703 41.414062 C 18.394531 51.667972 25.71875 61.677739 37.193359 71.443359 C 48.667968 80.964849 59.53125 85.724609 69.785156 85.724609 C 85.654297 85.724609 95.175781 81.085934 98.349609 71.808594 C 97.128906 64.240234 91.636719 57.527349 81.871094 51.667969 C 72.34961 45.808599 63.681641 42.878906 55.869141 42.878906 C 53.671875 42.878906 50.376953 43.123048 45.982422 43.611328 C 41.832031 44.099618 38.779297 44.34375 36.826172 44.34375 C 34.628906 44.34375 31.578125 43.855476 27.671875 42.878906 C 24.009766 41.902346 21.324218 41.414063 19.615234 41.414062 L 15.220703 41.414062 z M 247.76367 115.38867 C 242.63672 125.64258 231.40626 132.47851 214.07227 135.89648 C 214.07227 131.50195 213.95117 126.49609 213.70703 120.88086 C 225.42578 117.46289 236.77734 115.63281 247.76367 115.38867 z M 37.193359 125.64258 C 34.263672 125.64258 29.625001 126.25195 23.277344 127.47266 C 16.929688 128.69336 12.046876 129.18164 8.6289062 128.9375 L 4.5996094 128.9375 L 4.5996094 132.59961 C 10.458984 144.5625 20.712891 154.08399 35.361328 161.16406 L 22.544922 191.92578 L 26.207031 190.46094 C 34.263672 182.89258 41.09961 177.52149 46.714844 174.34766 C 54.527344 170.92969 62.460937 167.51172 70.517578 164.09375 C 81.015625 158.9668 86.265625 153.5957 86.265625 147.98047 C 86.265625 145.7832 85.777343 143.22071 84.800781 140.29102 C 76.5 130.52539 60.630859 125.64258 37.193359 125.64258 z M 179.2832 128.20508 L 178.55078 142.12109 C 169.0293 143.58593 160.84961 145.29492 154.01367 147.24805 L 150.71875 134.79688 C 159.50781 131.86718 169.02929 129.66993 179.2832 128.20508 z M 87.363281 192.29297 C 77.841797 204.98828 68.44336 217.80469 59.166016 230.74414 C 44.273438 250.51953 34.873047 261.50585 30.966797 263.70312 C 25.839844 266.38869 21.933594 268.3418 19.248047 269.5625 C 14.853516 272.00391 12.65625 276.27735 12.65625 282.38086 C 12.65625 285.31055 14.853516 292.75586 19.248047 304.71875 C 23.154297 315.46094 26.207032 323.27344 28.404297 328.15625 L 34.628906 334.01562 C 43.90625 326.44727 54.648438 304.96289 66.855469 269.5625 C 72.470703 252.7168 79.794922 228.30274 88.828125 196.32031 L 87.363281 192.29297 z M 358.21094 299.33984 C 358.30331 299.35163 358.45669 299.42704 358.70312 299.5957 C 363.01558 300.12964 364.87493 304.51741 362.0293 307.93164 C 357.86366 318.69938 353.21244 329.2054 347.60352 339.19922 C 338.94442 341.84056 338.99116 338.29173 343.21484 331.82422 C 347.87686 321.10128 353.84447 310.75741 358.14648 300.07031 C 358.20431 299.83358 357.93383 299.30447 358.21094 299.33984 z M 458.71094 330.24805 L 458.83203 331.24023 L 458.84961 331.37891 C 459.26329 337.61452 460.26334 345.37248 458.10547 350.71484 C 445.88622 351.99347 435.32896 359.00568 423.58398 362.03125 C 423.83398 354.82146 422.80645 346.72556 423.32617 340.04492 C 435.3378 337.58763 446.71786 332.77732 458.71094 330.24805 z M 354.32422 373.76172 C 354.68883 373.80478 354.92561 374.37762 354.82812 375.86523 C 350.08008 380.19596 353.02204 373.60791 354.32422 373.76172 z M 458.64258 376.50977 C 458.28479 381.7015 458.99852 388.23851 457.625 392.57227 C 444.74676 392.72064 433.91411 400.89064 421.43555 402.76758 L 421.83594 382.75 C 430.99944 384.8289 440.01888 380.17472 449.04297 378.7832 C 452.20897 378.08897 455.69232 376.99073 458.64258 376.50977 z M 339.23438 411.97461 L 339.5293 414.33594 C 340.42167 419.22167 345.61693 422.52373 347.5 427.40625 C 353.97733 436.99227 357.14426 450.72592 368.67773 455.79102 C 373.30454 457.63642 378.64306 455.88997 380.30664 450.94727 C 385.12201 440.018 380.23724 426.60074 369.94922 420.75195 C 360.92709 414.70762 350.00571 412.07953 339.23438 411.97461 z M 456.70117 418.18555 L 456.70117 440.33594 C 444.11174 441.16385 430.58341 445.22212 419.42578 448.31836 C 419.88433 441.02046 420.18478 433.71254 420.34961 426.40234 C 425.65449 429.09721 432.04254 424.00729 437.79883 423.45703 L 456.70117 418.18555 z M 296.88086 434.00391 C 292.968 434.16726 295.74937 440.67928 296.82422 443.42969 C 301.8032 456.25347 297.14242 470.7746 302.29297 483.4375 C 304.88734 489.7886 314.29778 494.99041 319.50195 488.69141 C 330.68165 478.40721 327.88022 460.29528 319.89062 448.95898 C 315.00666 441.41984 307.49657 433.59732 297.75586 434.06055 C 297.43302 434.01202 297.14172 433.99302 296.88086 434.00391 z "
       transform="translate(0,552.36216)"
       id="path4148" />
  </g>
</svg>
