<?xml version="1.0" encoding="UTF-8" standalone="no"?>
<!-- Created with Inkscape (http://www.inkscape.org/) -->

<svg
   xmlns:dc="http://purl.org/dc/elements/1.1/"
   xmlns:cc="http://creativecommons.org/ns#"
   xmlns:rdf="http://www.w3.org/1999/02/22-rdf-syntax-ns#"
   xmlns:svg="http://www.w3.org/2000/svg"
   xmlns="http://www.w3.org/2000/svg"
   xmlns:sodipodi="http://sodipodi.sourceforge.net/DTD/sodipodi-0.dtd"
   xmlns:inkscape="http://www.inkscape.org/namespaces/inkscape"
   width="500"
   height="500"
   viewBox="0 0 500.00001 500.00001"
   id="svg2"
   version="1.1"
   inkscape:version="0.91 r13725"
   sodipodi:docname="Otokogumi-i.svg">
  <defs
     id="defs4" />
  <sodipodi:namedview
     id="base"
     pagecolor="#ffffff"
     bordercolor="#666666"
     borderopacity="1.0"
     inkscape:pageopacity="0.0"
     inkscape:pageshadow="2"
     inkscape:zoom="0.25"
     inkscape:cx="-1591.3457"
     inkscape:cy="824.04523"
     inkscape:document-units="px"
     inkscape:current-layer="layer1"
     showgrid="false"
     units="px"
     inkscape:window-width="1920"
     inkscape:window-height="965"
     inkscape:window-x="-8"
     inkscape:window-y="-8"
     inkscape:window-maximized="1" />
  <metadata
     id="metadata7">
    <rdf:RDF>
      <cc:Work
         rdf:about="">
        <dc:format>image/svg+xml</dc:format>
        <dc:type
           rdf:resource="http://purl.org/dc/dcmitype/StillImage" />
        <dc:title></dc:title>
      </cc:Work>
    </rdf:RDF>
  </metadata>
  <g
     inkscape:label="レイヤー 1"
     inkscape:groupmode="layer"
     id="layer1"
     transform="translate(0,-552.36216)">
    <path
       style="opacity:0.98999999;fill:#000000;fill-opacity:1;fill-rule:nonzero;stroke:none;stroke-width:0;stroke-linejoin:miter;stroke-miterlimit:4;stroke-dasharray:none;stroke-dashoffset:0;stroke-opacity:1"
       d="M 80 0 C 35.68 0 0 35.68 0 80 L 0 420 C 0 464.32002 35.68 500 80 500 L 420 500 C 448.95179 500 474.20968 484.76919 488.25 461.85547 C 480.13772 461.35684 471.99924 459.4831 464.01953 458.5332 C 432.27166 452.3649 396.73543 455.70303 370.32812 475.76953 C 362.684 471.34193 362.26108 461.20165 360.81641 453.43945 C 359.7025 449.79045 360.0872 441.84686 365.41992 445.22656 C 372.42874 449.47966 380.52456 445.46922 386.53711 441.29102 C 387.03226 432.59116 386.77945 423.45464 387.11914 414.58984 C 387.32092 389.50281 389.21308 364.47506 390.125 339.44727 C 391.38745 329.92452 384.55503 322.76072 379.69141 315.35352 C 378.31505 312.10104 379.74427 311.25242 376.66992 314.67578 C 368.88792 326.29966 364.26931 339.79267 357.6582 352.11719 C 368.23114 359.44527 377.94939 369.89322 379.87109 383.08984 C 380.53421 390.28962 381.12157 400.53914 373.60742 404.46875 C 364.11764 404.8137 359.84676 394.88065 355.49219 388.20508 C 342.80345 394.78362 327.43894 398.74016 318.48828 410.63867 C 323.97712 412.67612 329.32981 415.19761 334.09961 418.62109 C 346.50597 426.50183 352.35764 444.22245 344.64453 457.24805 C 338.76025 460.97025 330.08411 456.83952 327.32422 450.57422 C 322.83166 439.70162 322.7095 427.26614 317.125 416.7832 C 316.32975 412.91309 316.29713 413.04661 313.83984 416.37891 C 312.54662 420.26869 308.48725 419.4982 306.375 417.00781 C 299.84433 408.76109 296.36814 398.40243 293.61914 388.34961 C 292.20384 382.18145 301.38787 384.84632 304.82422 386.3418 C 315.17629 381.94589 321.28294 371.98527 326.86133 362.7832 C 316.832 365.27687 306.85499 368.43337 298.3418 374.46094 C 295.77734 378.09049 290.65841 376.38061 289.12891 372.71484 C 286.05474 364.57476 286.71008 355.02989 289.8125 346.98438 C 296.67971 345.33901 304.52478 346.11374 310.5332 341.87695 C 310.5677 341.82397 310.59851 341.77 310.63281 341.7168 C 306.50794 343.30438 301.71439 344.24023 295.44531 344.24023 C 288.87243 344.24023 284.1125 343.78747 281.16602 342.88086 C 272.32662 340.16104 262.46911 332.90696 251.58984 321.12109 C 243.43039 311.37507 235.38202 301.63079 227.44922 291.88477 C 220.19638 283.95198 215.32521 278.39774 212.83203 275.22461 C 207.8457 268.87837 203.87811 262.64498 200.93164 256.52539 C 177.35988 310.46844 143.58953 337.09988 99.619141 336.41992 L 95.539062 336.41992 L 94.179688 333.36133 C 126.59084 313.18934 150.61495 288.59732 166.25391 259.58594 C 149.4817 262.53241 133.84358 268.5394 119.33789 277.60547 C 108.00532 270.57928 100.29847 260.94426 96.21875 248.70508 L 99.279297 247.00586 C 103.13237 248.36577 108.34507 249.04688 114.91797 249.04688 C 116.27787 249.04688 123.53195 246.55273 136.67773 241.56641 C 151.41008 235.90012 159.68092 232.84002 161.49414 232.38672 C 166.70712 230.80016 172.14621 229.4399 177.8125 228.30664 L 180.87305 217.42773 L 164.21484 219.12891 C 152.42896 215.9558 143.02228 211.30904 135.99609 205.18945 L 135.99609 202.12891 C 156.84802 198.50248 173.16726 194.08211 184.95312 188.86914 L 184.95312 173.57227 C 178.60689 174.47888 173.73375 175.38443 170.33398 176.29102 C 164.44104 177.87759 160.24903 180.14533 157.75586 183.0918 L 156.73438 183.0918 C 149.70817 183.5451 143.70313 176.40422 138.7168 161.67188 C 132.37057 143.53976 126.93147 132.43325 122.39844 128.35352 L 123.41602 124.27344 L 147.55664 124.27344 C 155.48945 124.27344 177.47414 118.60796 213.51172 107.27539 C 217.81809 101.83576 220.64987 94.470444 222.00977 85.177734 C 209.09065 86.084334 197.07858 88.123745 185.97266 91.296875 C 185.29271 101.94949 182.34579 109.88272 177.13281 115.0957 C 169.65331 114.18909 163.87464 108.86125 159.79492 99.115234 C 156.6218 99.568534 152.42782 100.81756 147.21484 102.85742 C 141.32191 105.12394 137.12988 106.48226 134.63672 106.93555 C 127.61052 102.17589 120.24326 92.316412 112.53711 77.357422 L 113.2168 74.636719 C 114.35006 74.863379 116.8442 75.431271 120.69727 76.337891 C 123.8704 77.244481 126.25133 77.697266 127.83789 77.697266 C 137.1306 77.697266 146.30894 75.089933 155.375 69.876953 C 154.9217 60.810893 151.74842 51.51937 145.85547 42 L 147.21484 38.599609 L 150.95508 38.599609 C 159.34118 38.146309 166.93482 40.18573 173.73438 44.71875 C 180.53391 49.25178 184.27318 55.713509 184.95312 64.099609 C 200.36542 61.606449 215.89034 58.885923 231.5293 55.939453 L 235.60938 40.640625 C 234.92943 35.200995 233.34278 31.120211 230.84961 28.400391 L 230.84961 24.320312 C 237.64915 23.413702 245.80875 22.960938 255.32812 22.960938 C 265.98076 22.960938 273.34801 26.813381 277.42773 34.519531 C 272.21476 41.092431 268.69992 47.327773 266.88672 53.220703 C 275.49947 54.353973 284.0006 55.599084 292.38672 56.958984 C 301.67942 58.772204 309.04474 62.966172 314.48438 69.539062 C 315.16433 72.032222 315.50391 74.184827 315.50391 75.998047 C 315.50391 80.531067 313.4645 83.930746 309.38477 86.197266 C 305.30506 88.463786 300.88468 89.595703 296.125 89.595703 C 290.91201 89.595703 283.88628 88.690153 275.04688 86.876953 C 265.0742 84.837083 258.04848 83.703212 253.96875 83.476562 C 250.34234 90.276093 246.37669 97.07545 242.07031 103.875 C 255.66939 102.51509 264.84775 101.83594 269.60742 101.83594 C 274.3671 101.83594 280.94007 105.00924 289.32617 111.35547 C 297.93893 117.47506 302.92524 122.80095 304.28516 127.33398 C 303.83185 131.18705 302.01883 134.24716 298.8457 136.51367 C 296.12589 137.87359 292.0451 140.02814 286.60547 142.97461 C 283.43235 145.92107 278.44603 150.22629 271.64648 155.89258 C 266.88681 159.74566 260.99495 163.71129 253.96875 167.79102 C 250.79564 166.65775 247.62233 165.63902 244.44922 164.73242 C 232.21004 164.73242 222.91655 165.8663 216.57031 168.13281 L 215.21094 178.66992 C 219.97062 177.98996 224.50417 177.65234 228.81055 177.65234 C 244.44951 177.65234 253.40146 182.52352 255.66797 192.26953 C 254.53472 197.70916 248.98244 201.90314 239.00977 204.84961 L 216.57031 209.60938 L 214.19141 222.5293 C 218.27114 222.07599 227.10989 220.261 240.70898 217.08789 C 251.58824 214.59472 260.42898 213.34766 267.22852 213.34766 C 277.20119 213.34766 286.94743 215.38707 296.4668 219.4668 C 307.34607 223.99982 314.93776 230.23516 319.24414 238.16797 L 319.24414 239.52734 C 319.24414 249.95331 312.89756 255.16602 300.20508 255.16602 C 297.48525 255.16602 294.42711 254.93963 291.02734 254.48633 C 269.94876 251.3132 252.38247 249.83974 238.33008 250.06641 L 229.83008 250.06641 C 252.94853 269.55843 273.34853 283.83628 291.02734 292.90234 C 305.98633 300.83515 315.05149 305.71023 318.22461 307.52344 C 319.63404 308.34288 320.76487 309.08683 321.73047 309.79102 C 322.8781 305.95929 324.89163 301.87212 321.98633 299.09766 C 320.12434 296.0183 314.57699 295.30128 315.12109 291.33203 C 315.46765 286.2298 324.32705 287.1899 328.15625 284.56836 L 328.50391 284.44922 C 336.9422 285.28616 346.21905 288.49449 351.38477 295.55664 C 349.91884 290.67454 356.23452 291.3187 358.98828 289.03711 C 363.5159 285.07221 369.73548 285.00428 375 287.61719 C 380.94251 290.83215 389.1831 294.30528 390.22266 301.84766 C 390.91871 307.07806 385.09659 307.47645 381.86523 309.88086 C 388.83235 311.80138 396.38524 312.87234 403.75 313.77734 C 416.49902 310.00624 428.6856 303.5219 441.57422 299.62891 C 449.3152 295.9784 457.73007 298.95748 464.80664 302.66211 C 472.66711 306.50653 481.21412 311.97495 484.72656 320.06641 C 481.88154 330.04839 475.19492 338.79581 473.5957 349.27344 C 469.56899 374.52482 471.74836 400.2294 471.14453 425.71875 C 469.83033 430.43951 475.70279 427.62492 478.42773 428.4668 C 485.1746 428.75884 492.80042 430.5732 498.70703 434.43945 C 499.55377 429.75789 500 424.93292 500 420 L 500 80 C 500 35.68 464.32 0 420 0 L 80 0 z M 34.003906 58.660156 L 38.083984 58.660156 C 39.670545 58.660156 42.162729 59.112931 45.5625 60.019531 C 49.188924 60.926151 52.020683 61.378906 54.060547 61.378906 C 55.873759 61.378906 58.709426 61.152529 62.5625 60.699219 C 66.642224 60.245919 69.700372 60.019531 71.740234 60.019531 C 78.993076 60.019531 87.039501 62.740058 95.878906 68.179688 C 104.94497 73.619328 110.04448 79.850753 111.17773 86.876953 C 108.23127 95.489703 99.392501 99.794922 84.660156 99.794922 C 75.140797 99.794922 65.054962 95.376519 54.402344 86.537109 C 43.749726 77.471049 36.950375 68.179516 34.003906 58.660156 z M 249.88867 127.33398 C 239.68936 127.56063 229.15075 129.26047 218.27148 132.43359 C 218.49812 137.64657 218.61133 142.29332 218.61133 146.37305 C 234.70358 143.19992 245.129 136.85334 249.88867 127.33398 z M 54.402344 136.85352 C 76.160879 136.85352 90.893458 141.38706 98.599609 150.45312 C 99.506213 153.17294 99.958984 155.55192 99.958984 157.5918 C 99.958984 162.80477 95.085857 167.7911 85.339844 172.55078 C 77.860347 175.7239 70.495036 178.89718 63.242188 182.07031 C 58.029202 185.01678 51.682624 190.0031 44.203125 197.0293 L 40.802734 198.38867 L 52.701172 169.83203 C 39.102086 163.25914 29.582213 154.41841 24.142578 143.3125 L 24.142578 139.91406 L 27.884766 139.91406 C 31.057888 140.14071 35.589483 139.68598 41.482422 138.55273 C 47.37536 137.41946 51.682527 136.85352 54.402344 136.85352 z M 186.31445 139.23242 C 176.79508 140.59233 167.95437 142.63369 159.79492 145.35352 L 162.85352 156.91211 C 169.19976 155.09889 176.7934 153.51225 185.63281 152.15234 L 186.31445 139.23242 z M 100.97852 198.73047 L 102.33789 202.46875 C 93.951791 232.16009 87.152431 254.8259 81.939453 270.46484 C 70.606875 303.32931 60.63424 323.27458 52.021484 330.30078 L 46.242188 324.86133 C 44.202324 320.3283 41.368612 313.07423 37.742188 303.10156 C 33.662462 291.99564 31.623047 285.08506 31.623047 282.36523 C 31.623047 276.69895 33.662461 272.73136 37.742188 270.46484 C 40.235353 269.33159 43.861413 267.51856 48.621094 265.02539 C 52.247517 262.98552 60.975047 252.78456 74.800781 234.42578 C 83.413541 222.41326 92.139108 210.51634 100.97852 198.73047 z M 352.42383 298.10938 C 352.16661 298.07654 352.41698 298.56734 352.36328 298.78711 C 348.36945 308.70864 342.83 318.31083 338.50195 328.26562 C 334.58083 334.26983 334.53737 337.5654 342.57617 335.11328 C 347.78329 325.83537 352.10152 316.08037 355.96875 306.08398 C 358.61053 302.91433 356.88439 298.84139 352.88086 298.3457 C 352.65207 298.18907 352.50953 298.12027 352.42383 298.10938 z M 445.72461 326.80273 C 434.59066 329.1508 424.02617 333.61718 412.875 335.89844 C 412.39252 342.10051 413.34538 349.61528 413.11328 356.30859 C 424.0169 353.49976 433.81819 346.98977 445.16211 345.80273 C 447.1654 340.84307 446.23756 333.64048 445.85352 327.85156 L 445.83594 327.72461 L 445.72461 326.80273 z M 348.81445 367.19922 C 347.60555 367.05643 344.87528 373.17284 349.2832 369.15234 C 349.37369 367.77129 349.15293 367.23922 348.81445 367.19922 z M 445.66016 369.75 C 442.92124 370.1965 439.68725 371.21682 436.74805 371.86133 C 428.37041 373.15317 419.9973 377.47295 411.49023 375.54297 L 411.11914 394.12695 C 422.70379 392.38447 432.7611 384.79985 444.7168 384.66211 C 445.99192 380.63881 445.328 374.56981 445.66016 369.75 z M 334.80664 402.67383 C 344.80637 402.77123 354.94448 405.21093 363.32031 410.82227 C 372.87136 416.25207 377.40597 428.70917 372.93555 438.85547 C 371.39115 443.44427 366.43599 445.06476 362.14062 443.35156 C 351.43336 438.64926 348.4938 425.89932 342.48047 417 C 340.73229 412.46725 335.90853 409.40293 335.08008 404.86719 L 334.80664 402.67383 z M 443.85938 408.44141 L 426.31055 413.33398 C 420.96661 413.84482 415.03619 418.57018 410.11133 416.06836 C 409.95831 422.85489 409.67961 429.63894 409.25391 436.41406 C 419.61225 433.53963 432.17178 429.77252 443.85938 429.00391 L 443.85938 408.44141 z M 295.48633 423.125 C 295.72849 423.115 295.99912 423.13263 296.29883 423.17773 C 305.34176 422.74769 312.31356 430.01073 316.84766 437.00977 C 324.26491 447.53401 326.86713 464.34908 316.48828 473.89648 C 311.65692 479.74428 302.92024 474.91378 300.51172 469.01758 C 295.73013 457.26178 300.05589 443.78218 295.43359 431.87695 C 294.43575 429.32359 291.85376 423.27666 295.48633 423.125 z "
       transform="translate(0,552.36216)"
       id="rect4157" />
  </g>
</svg>
