<?xml version="1.0" encoding="UTF-8" standalone="no"?>
<svg
   xmlns:dc="http://purl.org/dc/elements/1.1/"
   xmlns:cc="http://creativecommons.org/ns#"
   xmlns:rdf="http://www.w3.org/1999/02/22-rdf-syntax-ns#"
   xmlns:svg="http://www.w3.org/2000/svg"
   xmlns="http://www.w3.org/2000/svg"
   xmlns:sodipodi="http://sodipodi.sourceforge.net/DTD/sodipodi-0.dtd"
   xmlns:inkscape="http://www.inkscape.org/namespaces/inkscape"
   version="1.0"
   width="500"
   height="500"
   viewBox="0 0 5000 5000"
   preserveAspectRatio="xMidYMid meet"
   id="svg2"
   inkscape:version="0.91 r13725"
   sodipodi:docname="TEKKEN-i.svg">
  <path
     style="opacity:0.98999999;fill:#000000;fill-opacity:1;fill-rule:nonzero;stroke:none;stroke-width:0;stroke-linejoin:miter;stroke-miterlimit:4;stroke-dasharray:none;stroke-dashoffset:0;stroke-opacity:1"
     d="M 80 0 C 35.679999 9.4739031e-015 0 35.679999 0 80 L 0 420 C 0 464.32 35.679999 500 80 500 L 420 500 C 464.32 500 500 464.32 500 420 L 500 80 C 500 35.679999 464.32 0 420 0 L 80 0 z M 425.0918 62.099609 C 425.61606 62.101893 426.14226 62.113503 426.67383 62.134766 C 433.2228 62.389921 434.414 62.646081 437.2207 64.857422 C 440.96297 67.664125 443.68359 72.93776 443.68359 77.275391 C 443.59854 79.997042 441.13217 83.057409 414.25586 112.57031 L 384.82812 144.89062 L 374.36719 150.07812 C 359.99347 157.13742 353.87024 159.09427 344.59961 159.51953 C 337.88054 159.85974 336.51925 159.69038 333.11719 157.9043 C 327.84399 155.18265 323.76172 149.56829 323.76172 145.06055 C 323.76172 141.48839 323.84744 141.40344 357.95312 107.38281 C 390.10264 75.403416 392.65433 73.106076 399.0332 69.789062 C 410.03675 64.207552 417.22785 62.065348 425.0918 62.099609 z M 424.6582 75.705078 C 420.83742 75.636244 415.24438 77.450364 407.11133 81.357422 C 401.15772 84.164124 398.77637 86.374203 370.36914 114.61133 C 353.61398 131.19639 339.92188 145.14612 339.92188 145.48633 C 339.92187 146.7621 346.55633 146.16694 352.33984 144.38086 C 355.5718 143.36024 361.94912 140.80793 366.62695 138.68164 L 374.96289 134.76953 L 401.75391 105.3418 L 428.54492 75.998047 L 425.39844 75.744141 C 425.15923 75.722878 424.91292 75.709667 424.6582 75.705078 z M 302.85938 170.64062 C 311.06685 170.64063 319.08388 170.95977 323.76172 171.59766 C 336.17925 173.38374 354.29575 178.48557 357.1875 181.03711 C 357.52771 181.37732 353.61499 183.5035 348.3418 185.71484 L 338.90039 189.79688 L 331.8418 187.50195 C 321.1253 184.01484 313.47048 182.73882 299.94727 182.22852 C 241.77198 179.67697 175.26066 212.6758 158.8457 252.05469 C 146.51322 281.65264 165.39485 305.46858 207.24023 312.95312 C 215.40519 314.39902 239.22118 314.39902 249.76758 312.95312 C 277.6645 309.1258 308.96277 296.96252 330.14062 281.73828 C 353.61487 264.98312 367.05361 244.6556 367.13867 226.0293 L 367.13867 222.11719 L 378.44922 220.07617 C 386.10386 218.63029 389.84622 218.20542 390.27148 218.80078 C 391.6323 220.84202 390.9521 235.89652 389.16602 242.27539 C 377.93921 282.84499 324.95312 318.82061 260.82422 329.53711 C 253.08453 330.81289 223.22972 331.83383 216.5957 331.06836 C 199.92559 329.11218 182.74687 324.09441 171.94531 317.9707 C 159.01747 310.65626 148.8101 298.23855 145.57812 286.07617 C 143.96214 279.6973 143.96214 268.13048 145.57812 261.15625 C 155.44413 219.39592 215.57598 179.59251 280.81055 171.59766 C 286.25385 170.95977 294.65189 170.64062 302.85938 170.64062 z M 367.4043 187.69727 L 385.69531 212.29492 L 370.51172 216.69141 L 340.49805 208.11523 L 350.09961 222.59766 L 337.43164 226.26367 L 323.28906 203.99414 L 334.91797 199.69922 L 363.89062 207.41992 L 353.54297 192.81836 L 367.4043 187.69727 z M 318.77734 205.66211 L 321.25 209.62305 L 301.80859 216.51562 L 304.32812 220.86133 L 320.85156 215.2832 L 323.26367 219.19336 L 306.50195 224.61328 L 309.43945 229.68164 L 329.82227 223.48047 L 332.45898 227.70312 L 301.63672 236.625 L 290.24023 216.20312 L 318.77734 205.66211 z M 287.90234 217.06641 L 280.33594 230.00195 L 299.11719 237.35352 L 288.09766 240.54297 L 276.62109 235.43945 L 274.32812 238.60742 L 276.94531 243.77148 L 268.88477 246.10352 L 259.75 227.4668 L 267.27539 224.68555 L 271.45703 232.9375 L 273.01367 229.57812 L 277.23828 221.00586 L 287.90234 217.06641 z M 257.86523 228.16211 L 251.74805 239.55078 L 266.87109 246.6875 L 258.02148 249.24805 L 248.73438 244.3418 L 246.86914 247.13477 L 248.99609 251.86133 L 242.42969 253.76172 L 234.94336 236.62891 L 241.11523 234.34961 L 244.5293 241.93555 L 245.79883 238.94922 L 249.23633 231.34961 L 257.86523 228.16211 z M 232.51758 237.52539 L 233.84766 240.60938 L 223.22852 244.375 L 224.62305 247.77539 L 233.63281 244.73242 L 234.92773 247.75391 L 225.82031 250.69922 L 227.43359 254.63281 L 238.42188 251.29102 L 239.81445 254.51758 L 223.12891 259.34766 L 216.74609 243.35156 L 232.51758 237.52539 z M 214.58398 244.15039 L 215.72266 247.03516 L 209.55273 249.22266 L 214.38672 261.87695 L 209.46289 263.30273 L 204.83984 250.89453 L 199.35156 252.83984 L 198.375 250.13867 L 214.58398 244.15039 z M 150.52734 330.07422 C 156.05653 330.00943 160.56792 332.19553 162.58789 336.3418 C 164.28892 339.91397 164.7994 351.39572 163.35352 353.94727 C 161.73754 356.66892 86.042668 436.44759 83.576172 437.97852 C 79.918954 440.18986 70.903312 440.18986 67.246094 437.97852 C 65.800217 437.128 64.013511 435.0858 63.248047 433.38477 C 61.121757 429.04714 61.378322 418.58681 63.759766 411.35742 C 65.630901 405.74402 65.715856 405.57287 100.50195 370.19141 C 129.50454 340.67851 136.13771 334.38462 139.79492 332.68359 C 143.52656 330.9613 147.20983 330.11309 150.52734 330.07422 z "
     transform="scale(9.9999999,9.9999999)"
     id="rect4162" />
  <metadata
     id="metadata28">
    <rdf:RDF>
      <cc:Work
         rdf:about="">
        <dc:format>image/svg+xml</dc:format>
        <dc:type
           rdf:resource="http://purl.org/dc/dcmitype/StillImage" />
        <dc:title></dc:title>
      </cc:Work>
    </rdf:RDF>
  </metadata>
  <defs
     id="defs26" />
  <sodipodi:namedview
     pagecolor="#ffffff"
     bordercolor="#666666"
     borderopacity="1"
     objecttolerance="10"
     gridtolerance="10"
     guidetolerance="10"
     inkscape:pageopacity="0"
     inkscape:pageshadow="2"
     inkscape:window-width="1920"
     inkscape:window-height="965"
     id="namedview24"
     showgrid="false"
     inkscape:zoom="0.47676767"
     inkscape:cx="358.26401"
     inkscape:cy="132.21567"
     inkscape:window-x="-8"
     inkscape:window-y="-8"
     inkscape:window-maximized="1"
     inkscape:current-layer="svg2" />
  <!-- generated by www.vectorizer.io -->
</svg>
