<?xml version="1.0" encoding="UTF-8" standalone="no"?>
<svg
   xmlns:dc="http://purl.org/dc/elements/1.1/"
   xmlns:cc="http://creativecommons.org/ns#"
   xmlns:rdf="http://www.w3.org/1999/02/22-rdf-syntax-ns#"
   xmlns:svg="http://www.w3.org/2000/svg"
   xmlns="http://www.w3.org/2000/svg"
   xmlns:sodipodi="http://sodipodi.sourceforge.net/DTD/sodipodi-0.dtd"
   xmlns:inkscape="http://www.inkscape.org/namespaces/inkscape"
   version="1.0"
   width="500"
   height="500"
   viewBox="0 0 5000 5000"
   preserveAspectRatio="xMidYMid meet"
   id="svg2"
   inkscape:version="0.91 r13725"
   sodipodi:docname="TEKKEN.svg">
  <metadata
     id="metadata28">
    <rdf:RDF>
      <cc:Work
         rdf:about="">
        <dc:format>image/svg+xml</dc:format>
        <dc:type
           rdf:resource="http://purl.org/dc/dcmitype/StillImage" />
        <dc:title></dc:title>
      </cc:Work>
    </rdf:RDF>
  </metadata>
  <defs
     id="defs26" />
  <sodipodi:namedview
     pagecolor="#ffffff"
     bordercolor="#666666"
     borderopacity="1"
     objecttolerance="10"
     gridtolerance="10"
     guidetolerance="10"
     inkscape:pageopacity="0"
     inkscape:pageshadow="2"
     inkscape:window-width="1920"
     inkscape:window-height="965"
     id="namedview24"
     showgrid="false"
     inkscape:zoom="0.67425131"
     inkscape:cx="-237.51075"
     inkscape:cy="248.28825"
     inkscape:window-x="-8"
     inkscape:window-y="-8"
     inkscape:window-maximized="1"
     inkscape:current-layer="svg2" />
  <!-- generated by www.vectorizer.io -->
  <g
     id="layer1"
     style="fill:#666866;stroke:none"
     transform="translate(0,49.999995)">
    <path
       d="m 3420,1338 c -62,-32 -110,-98 -110,-151 0,-42 1,-43 402,-443 378,-376 408,-403 483,-442 138,-70 225,-94 325,-90 77,3 91,6 124,32 44,33 76,95 76,146 -1,32 -30,68 -346,415 l -346,380 -123,61 c -169,83 -241,106 -350,111 -79,4 -95,2 -135,-19 z m 226,-159 c 38,-12 113,-42 168,-67 l 98,-46 315,-346 315,-345 -37,-3 c -45,-4 -113,17 -215,66 -70,33 -98,59 -432,391 -197,195 -358,359 -358,363 0,15 78,8 146,-13 z"
       id="path5"
       inkscape:connector-curvature="0" />
  </g>
  <path
     style="fill:#bf1a20;stroke:none"
     inkscape:connector-curvature="0"
     id="path8"
     d="m 294,4681 c -17,-10 -38,-34 -47,-54 -25,-51 -22,-174 6,-259 22,-66 23,-68 432,-484 341,-347 419,-421 462,-441 117,-54 230,-35 268,43 20,42 26,177 9,207 -19,32 -909,970 -938,988 -43,26 -149,26 -192,0 z" />
  <path
     style="fill:#bf1a20;stroke:none"
     inkscape:connector-curvature="0"
     id="path10"
     d="m 2050,3424 c -196,-23 -398,-82 -525,-154 -152,-86 -272,-232 -310,-375 -19,-75 -19,-211 0,-293 116,-491 823,-959 1590,-1053 128,-15 395,-15 505,0 146,21 359,81 393,111 4,4 -42,29 -104,55 l -111,48 -83,-27 c -126,-41 -216,-56 -375,-62 -684,-30 -1466,358 -1659,821 -145,348 77,628 569,716 96,17 376,17 500,0 328,-45 696,-188 945,-367 276,-197 434,-436 435,-655 l 0,-46 133,-24 c 90,-17 134,-22 139,-15 16,24 8,201 -13,276 -132,477 -755,900 -1509,1026 -91,15 -442,27 -520,18 z" />
  <g
     transform="matrix(0,-9.9999999,9.9999999,0,3439.5413,6500.1756)"
     id="g4191"
     style="fill:#bf1a20;fill-opacity:1">
    <path
       inkscape:connector-curvature="0"
       id="path4149"
       style="font-style:normal;font-variant:normal;font-weight:900;font-stretch:normal;font-size:45px;line-height:125%;font-family:Roboto;-inkscape-font-specification:'Roboto Heavy';letter-spacing:0px;word-spacing:0px;fill:#bf1a20;fill-opacity:1;stroke:none;stroke-width:1px;stroke-linecap:butt;stroke-linejoin:miter;stroke-opacity:1"
       d="m 406.41978,-139.98245 c 0,0 -2.57177,-7.25425 -2.57177,-7.25425 0,0 -14.8781,5.68543 -14.8781,5.68543 0,0 -1.67569,-5.78965 -1.67569,-5.78965 0,0 14.58937,-5.43689 14.58937,-5.43689 0,0 -2.28754,-6.45251 -2.28754,-6.45251 0,0 3.17568,-1.14865 3.17568,-1.14865 0,0 7.04007,19.05797 7.04007,19.05797 0,0 -3.39202,1.33855 -3.39202,1.33855 0,0 0,0 0,0" />
    <path
       inkscape:connector-curvature="0"
       id="path4151"
       style="font-style:normal;font-variant:normal;font-weight:900;font-stretch:normal;font-size:45px;line-height:125%;font-family:Roboto;-inkscape-font-specification:'Roboto Heavy';letter-spacing:0px;word-spacing:0px;fill:#bf1a20;fill-opacity:1;stroke:none;stroke-width:1px;stroke-linecap:butt;stroke-linejoin:miter;stroke-opacity:1"
       d="m 405.57423,-117.40209 c 0,0 -3.46153,-10.70621 -3.46153,-10.70621 0,0 -4.62622,1.89648 -4.62622,1.89648 0,0 3.9305,12.91825 3.9305,12.91825 0,0 -3.79431,1.63839 -3.79431,1.63839 0,0 -5.67804,-19.61814 -5.67804,-19.61814 0,0 18.80645,-7.50499 18.80645,-7.50499 0,0 6.84962,18.54242 6.84962,18.54242 0,0 -3.62534,1.56568 -3.62534,1.56568 0,0 -4.42666,-12.48642 -4.42666,-12.48642 0,0 -3.9983,1.63907 -3.9983,1.63907 0,0 3.57702,10.59365 3.57702,10.59365 0,0 -3.55319,1.52182 -3.55319,1.52182 0,0 0,0 0,0" />
    <path
       inkscape:connector-curvature="0"
       id="path4153"
       style="font-style:normal;font-variant:normal;font-weight:900;font-stretch:normal;font-size:45px;line-height:125%;font-family:Roboto;-inkscape-font-specification:'Roboto Heavy';letter-spacing:0px;word-spacing:0px;fill:#bf1a20;fill-opacity:1;stroke:none;stroke-width:1px;stroke-linecap:butt;stroke-linejoin:miter;stroke-opacity:1"
       d="m 409.58737,-101.16827 c 0,0 -3.28385,-2.19259 -3.28385,-2.19259 0,0 -5.55646,2.50069 -5.55646,2.50069 0,0 -2.23449,-7.72036 -2.23449,-7.72036 0,0 20.14225,-8.80179 20.14225,-8.80179 0,0 2.68052,7.25636 2.68052,7.25636 0,0 -8.91886,4.01395 -8.91886,4.01395 0,0 3.51163,1.49345 3.51163,1.49345 0,0 8.93409,4.04006 8.93409,4.04006 0,0 3.74831,10.146929 3.74831,10.146929 0,0 -13.39138,-7.193034 -13.39138,-7.193034 0,0 -8.3895,17.780272 -8.3895,17.780272 0,0 -3.01125,-10.404136 -3.01125,-10.404136 0,0 5.76899,-10.919801 5.76899,-10.919801 0,0 0,0 0,0" />
    <path
       inkscape:connector-curvature="0"
       id="path4155"
       style="font-style:normal;font-variant:normal;font-weight:900;font-stretch:normal;font-size:45px;line-height:125%;font-family:Roboto;-inkscape-font-specification:'Roboto Heavy';letter-spacing:0px;word-spacing:0px;fill:#bf1a20;fill-opacity:1;stroke:none;stroke-width:1px;stroke-linecap:butt;stroke-linejoin:miter;stroke-opacity:1"
       d="m 420.05372,-68.378992 c 0,0 -3.72466,-2.695746 -3.72466,-2.695746 0,0 -6.07097,3.076045 -6.07097,3.076045 0,0 -2.74268,-9.476214 -2.74268,-9.476214 0,0 21.91336,-10.741563 21.91336,-10.741563 0,0 3.26856,8.848233 3.26856,8.848233 0,0 -9.70207,4.915859 -9.70207,4.915859 0,0 3.94985,1.831873 3.94985,1.831873 0,0 10.07914,4.965541 10.07914,4.965541 0,0 4.63174,12.538436 4.63174,12.538436 0,0 -15.20957,-8.896554 -15.20957,-8.896554 0,0 -8.64357,22.082215 -8.64357,22.082215 0,0 -3.74962,-12.955289 -3.74962,-12.955289 0,0 6.00049,-13.492836 6.00049,-13.492836 0,0 0,0 0,0" />
    <path
       inkscape:connector-curvature="0"
       id="path4157"
       style="font-style:normal;font-variant:normal;font-weight:900;font-stretch:normal;font-size:45px;line-height:125%;font-family:Roboto;-inkscape-font-specification:'Roboto Heavy';letter-spacing:0px;word-spacing:0px;fill:#bf1a20;fill-opacity:1;stroke:none;stroke-width:1px;stroke-linecap:butt;stroke-linejoin:miter;stroke-opacity:1"
       d="m 439.15534,-13.53876 c 0,0 -6.3721,-19.708333 -6.3721,-19.708333 0,0 -5.96031,3.454422 -5.96031,3.454422 0,0 7.29168,23.9653106 7.29168,23.9653106 0,0 -4.96537,3.0992671 -4.96537,3.0992671 0,0 -10.48844,-36.2384757 -10.48844,-36.2384757 0,0 24.01089,-13.40038 24.01089,-13.40038 0,0 12.39432,33.55229 12.39432,33.55229 0,0 -4.65884,2.908622 -4.65884,2.908622 0,0 -8.10381,-22.858638 -8.10381,-22.858638 0,0 -5.10972,2.961445 -5.10972,2.961445 0,0 6.55993,19.427845 6.55993,19.427845 0,0 -4.59823,2.836625 -4.59823,2.836625 0,0 0,0 0,0" />
    <path
       inkscape:connector-curvature="0"
       id="path4159"
       style="font-style:normal;font-variant:normal;font-weight:900;font-stretch:normal;font-size:45px;line-height:125%;font-family:Roboto;-inkscape-font-specification:'Roboto Heavy';letter-spacing:0px;word-spacing:0px;fill:#bf1a20;fill-opacity:1;stroke:none;stroke-width:1px;stroke-linecap:butt;stroke-linejoin:miter;stroke-opacity:1"
       d="m 447.26553,59.86532 c 0,0 -5.16728,-17.853422 -5.16728,-17.853422 0,0 10.08178,-35.2890478 10.08178,-35.2890478 0,0 -17.02799,11.2892868 -17.02799,11.2892868 0,0 -4.31031,-14.8924996 -4.31031,-14.8924996 0,0 26.18436,-16.6282134 26.18436,-16.6282134 0,0 5.04994,13.67053967 5.04994,13.67053967 0,0 -9.07874,34.06622933 -9.07874,34.06622933 0,0 17.16817,-12.16756 17.16817,-12.16756 0,0 6.02103,16.299357 6.02103,16.299357 0,0 -28.92096,21.50533 -28.92096,21.50533 0,0 0,0 0,0" />
  </g>
</svg>
