<?xml version="1.0" encoding="UTF-8" standalone="no"?>
<svg
   xmlns:dc="http://purl.org/dc/elements/1.1/"
   xmlns:cc="http://creativecommons.org/ns#"
   xmlns:rdf="http://www.w3.org/1999/02/22-rdf-syntax-ns#"
   xmlns:svg="http://www.w3.org/2000/svg"
   xmlns="http://www.w3.org/2000/svg"
   xmlns:sodipodi="http://sodipodi.sourceforge.net/DTD/sodipodi-0.dtd"
   xmlns:inkscape="http://www.inkscape.org/namespaces/inkscape"
   version="1.0"
   width="500"
   height="500"
   viewBox="0 0 5000 5000"
   preserveAspectRatio="xMidYMid meet"
   id="svg2"
   inkscape:version="0.91 r13725"
   sodipodi:docname="TGC-i.svg">
  <path
     style="opacity:0.98999999;fill:#000100;fill-opacity:1;fill-rule:nonzero;stroke:none;stroke-width:0;stroke-linejoin:miter;stroke-miterlimit:4;stroke-dasharray:none;stroke-dashoffset:0;stroke-opacity:1"
     d="M 799.99999,-4.3305805e-5 C 356.79999,-4.3205805e-5 0,356.79994 0,799.99995 L 0,4199.9999 c 0,443.2 356.79999,800 799.99999,800 l 3400.00001,0 c 443.2,0 800,-356.8 800,-800 l 0,-3399.99995 C 5000,356.79994 4643.2,-4.3305805e-5 4200,-4.3305805e-5 l -3400.00001,0 z M 2471.8359,420.37105 c 6.0224,0 14.9136,2.57231 28.1055,7.73437 36.708,13.76548 130.7694,26.3933 239.7461,32.12891 104.3882,5.73562 143.3927,11.47023 206.4844,29.82422 57.6683,15.56534 118.7595,36.4072 164.0429,56.21093 70.9004,28.21042 150.2725,55.75019 212.2266,83.73047 33.2665,14.91261 75.6995,30.97269 96.3477,34.41406 51.0559,22.38566 99.7182,49.83831 139.9414,81.44532 43.7307,22.88778 86.6933,55.89989 125.039,74.57031 29.8252,14.9126 63.099,35.54958 74.5703,44.72656 143.2554,70.5113 203.3017,173.6328 294.8047,261.543 41.2551,63.6398 79.8055,99.0049 131.9336,157.168 78.2384,54.8812 106,155.2009 154.8438,219.1015 18.354,24.0896 34.414,49.3139 34.414,57.3438 18.5007,35.2412 47.6749,63.92 58.5157,102.1094 6.8827,25.2367 21.7904,59.6434 33.2617,75.7031 28.6781,40.1493 69.9741,153.7169 81.4453,223.6914 21.7954,136.5077 51.6147,359.0533 63.0859,477.207 10.3241,103.241 -14.9104,369.3665 -42.4414,440.4882 -11.4712,32.1194 -21.7967,68.8323 -21.7969,82.5977 0,24.0896 -16.0461,65.3906 -69.9609,181.25 -11.4712,25.2367 -28.6798,64.2398 -39.0039,86.0351 -9.177,21.7954 -37.8635,71.1099 -61.9531,108.9649 -25.2367,37.8551 -72.2699,118.1477 -103.2422,178.9453 -76.8573,146.8317 -113.5581,200.7495 -191.5625,275.3125 -35.5608,34.4137 -86.0381,82.5953 -112.4219,107.832 -26.3838,25.2367 -108.9774,87.1776 -184.6875,136.5039 -75.7102,50.4734 -156.0029,107.8427 -178.9453,127.3438 -22.9425,20.6482 -61.9455,43.5911 -86.0351,51.621 -25.2369,8.0301 -84.8873,36.7073 -133.0665,64.2383 -49.3263,26.3838 -100.9415,52.7697 -114.707,56.211 -14.9126,4.5885 -44.7477,18.353 -66.543,29.8242 -21.7954,11.4713 -71.1293,29.8126 -108.9843,40.1367 -37.8551,10.3242 -74.5626,22.9558 -81.4453,28.6914 -11.4712,9.177 -145.6692,29.8126 -262.6758,40.1367 -30.9723,3.4414 -78.0198,16.0587 -102.1094,29.8243 -56.209,29.8252 -225.9708,39.0166 -306.2695,16.0742 -28.678,-8.0299 -96.3534,-21.7944 -149.1211,-29.8242 -52.7676,-8.0301 -136.5083,-24.0952 -184.6875,-35.5665 -49.3263,-12.6183 -100.9612,-21.7968 -114.7266,-21.7968 -14.9126,0 -57.3402,-16.0601 -95.1953,-34.4141 -37.855,-18.354 -81.4598,-34.4141 -97.5195,-34.4141 -47.0321,0 -434.7509,-200.7519 -517.3438,-267.2851 -104.3882,-84.8871 -248.93289,-235.161 -306.28905,-317.7539 -19.50109,-28.6781 -51.6265,-69.9624 -69.98047,-91.7578 -19.5011,-21.7953 -37.84768,-48.1915 -41.28907,-58.5157 -3.44137,-10.3241 -18.34911,-24.0937 -33.26171,-30.9765 -29.8252,-12.6183 -107.83934,-164.0203 -182.40235,-352.1485 -37.85507,-95.2112 -47.03027,-128.4872 -76.85546,-281.0546 -4.5885,-28.6781 -16.05217,-136.5103 -24.08203,-240.8985 -11.47123,-154.8616 -11.466,-208.7665 1.15235,-298.2421 8.02986,-59.6504 13.7643,-146.8352 12.61718,-193.8672 -1.14713,-58.5033 4.59003,-106.6945 21.79688,-157.1679 12.61835,-40.1493 22.92968,-94.0654 22.92968,-120.4492 0,-25.2367 6.87769,-60.7958 16.05468,-76.8555 19.50109,-36.7079 87.1875,-214.5015 87.1875,-229.4141 0,-5.7356 18.36091,-35.5705 40.15625,-66.5429 21.79534,-30.9723 45.8907,-73.4143 52.77344,-94.0625 6.88274,-19.5011 16.04171,-36.6993 21.77735,-36.6993 4.58849,0 12.61854,-21.7998 17.20703,-48.1836 6.88274,-40.1493 25.24554,-68.8315 96.36718,-146.8359 48.17917,-52.7676 94.05476,-104.3829 100.9375,-114.707 60.79752,-73.4159 118.16442,-133.068 152.57812,-154.86334 21.7953,-14.9126 81.4407,-60.79862 131.9141,-103.24218 121.5951,-102.09397 196.1524,-150.27805 329.2187,-215.66407 60.7975,-29.8252 113.5702,-53.90625 117.0118,-53.90625 3.4413,0 37.8585,-14.90774 78.0078,-33.26171 142.2433,-66.53317 314.3063,-112.41685 479.4922,-128.47657 59.6504,-5.73562 129.6265,-16.06126 154.8632,-21.79687 28.6781,-5.73562 50.4858,-5.74993 58.5157,1.13281 9.1769,8.02986 14.8985,6.88661 18.3398,-3.4375 1.7207,-5.16206 4.876,-7.73438 10.8984,-7.73437 z m -0.4882,144.47265 c -14.8958,-0.1169 -29.4371,-0.10097 -43.5157,0.0391 -67.5772,0.67215 -124.4735,4.3282 -158.457,11.21094 -37.8551,8.02987 -117.0098,21.78528 -176.6602,32.10938 -59.6504,10.32411 -131.9222,28.68501 -159.4531,40.15625 -28.6781,12.61835 -55.06,22.94922 -59.6484,22.94922 -5.7357,-10e-6 -39.0004,17.20334 -76.8555,37.85156 -36.7079,20.64821 -89.4807,44.72926 -117.0117,53.90625 -27.5309,9.17698 -56.2032,21.80866 -63.0859,28.6914 -29.8252,26.38383 -83.7333,60.77874 -110.1172,68.8086 -16.0597,4.58849 -36.7215,14.91936 -45.8985,22.94922 -9.177,8.02986 -32.1201,22.95192 -51.6211,32.1289 -18.354,9.17699 -60.7907,40.14482 -92.9101,67.67578 -33.2666,27.53104 -83.7295,69.97294 -113.5547,94.06254 -76.8573,64.2389 -266.15002,276.4602 -291.38673,326.9336 -11.47126,22.9425 -47.01597,84.8742 -77.98829,138.7891 -98.6526,168.6272 -125.04833,222.5513 -139.96093,281.0546 -9.17699,32.1195 -30.96244,111.2794 -49.31641,177.8125 -50.47342,182.3926 -75.70798,611.3982 -42.44141,716.9335 5.73562,19.5011 12.60811,60.8051 14.90235,91.7774 13.76548,167.48 33.26055,312.021 45.8789,326.9336 6.88274,9.177 22.94283,45.8792 34.41407,80.2929 60.79753,181.2455 113.5807,261.5432 351.03515,527.6758 147.9789,166.3328 190.4171,207.6423 247.7735,243.2031 35.5608,20.6482 81.4416,51.616 102.0898,67.6758 94.0641,72.2687 439.3482,209.9275 613.7109,245.4883 53.9148,10.3241 120.443,24.0742 149.1211,30.957 167.4799,39.0022 376.2695,52.7771 492.1289,32.1289 322.3416,-56.209 396.8898,-76.8536 563.2227,-153.7109 65.386,-29.8252 204.1903,-105.5418 223.6914,-121.6016 6.8828,-4.5884 50.4874,-28.6838 97.5195,-52.7734 47.032,-24.0896 115.8506,-66.5173 152.5586,-95.1953 74.563,-58.5033 297.1021,-275.3182 338.3985,-328.0859 13.7655,-19.5011 48.1865,-63.0863 74.5703,-97.5 67.6803,-86.0342 134.2187,-185.8349 134.2187,-201.8946 0,-16.0598 45.8782,-121.5999 92.9102,-215.664 43.5907,-86.0342 61.9444,-136.5093 98.6523,-270.7227 25.2367,-94.0641 28.6719,-131.909 28.6719,-281.035 -1.1471,-156.0089 -5.736,-221.4063 -34.4141,-470.3321 -5.7356,-49.3263 -18.3543,-95.2125 -34.414,-120.4492 -13.7655,-21.7953 -25.2344,-51.6251 -25.2344,-65.3906 0,-42.4436 -43.5815,-139.9349 -118.1445,-267.2657 -111.2709,-189.2754 -164.0453,-262.6898 -254.668,-360.1953 -209.9236,-224.8362 -333.8116,-329.23397 -493.2617,-414.12109 -43.5907,-24.08959 -88.323,-49.31389 -97.5,-57.34375 -9.177,-6.88274 -52.7818,-27.54446 -97.5196,-45.89843 -43.5906,-18.35397 -90.6237,-39.00661 -103.2421,-48.1836 -12.6183,-8.02986 -29.8127,-14.90234 -40.1368,-14.90234 -10.3241,0 -61.9445,-18.36091 -115.8593,-40.15625 -74.563,-29.8252 -131.9179,-43.57827 -244.336,-57.34375 -101.0005,-12.54666 -222.5852,-19.61138 -326.8554,-20.42969 z m 53.0468,36.75781 c 23.9033,1.41309 46.2879,19.67336 48.9649,61.66016 0,10.32411 4.5821,19.51172 11.4648,19.51172 5.7357,0 14.918,13.76971 18.3594,30.97656 4.5885,18.35397 14.9193,42.44023 22.9492,55.0586 9.177,12.61836 16.0547,35.56658 16.0547,52.77343 0,17.20685 8.0301,33.26306 17.207,37.85157 9.177,3.44137 17.2071,13.75792 17.2071,24.08203 0,9.17699 5.7292,17.20703 11.4648,17.20703 6.8828,0 11.4844,5.73444 11.4844,12.61718 0,6.88275 8.03,19.51442 17.207,28.69141 33.2666,34.41369 -1.1554,97.5051 -44.7461,81.4453 -10.3241,-4.5885 -21.7982,-17.2149 -26.3867,-27.53905 -3.4414,-11.47124 -17.2007,-34.41424 -28.6719,-51.62109 -20.6482,-29.8252 -28.6869,-32.12891 -96.3672,-32.12891 l -59.8437,1.13281 -13.5547,43.61329 c -18.7355,60.24585 -17.2151,104.39455 -44.7461,104.39455 -12.6183,0 -25.2306,-4.5964 -28.6719,-10.332 -14.9126,-24.0896 -10.0762,-159.92528 1.8946,-198.6524 11.9709,-38.72712 73.1859,-160.39455 90.664,-211.26953 8.739,-25.43749 34.1631,-40.88575 58.0664,-39.47266 z m 350.6836,60.95704 c 7.248,-0.19746 16.8996,2.57899 29.8047,7.59765 42.4436,18.35397 52.7693,69.97309 21.7969,111.26953 -12.6183,14.9126 -19.5103,32.12117 -14.9219,39.00391 14.9126,24.08958 113.572,-12.61639 156.0156,-59.64844 10.3241,-11.47123 27.5275,-20.64453 37.8516,-20.64453 19.5011,0 64.2383,38.98456 64.2383,56.19141 0,19.50109 -122.7401,81.4571 -175.5078,88.33984 -49.3263,6.88273 -52.7747,9.16691 -40.1563,32.10937 6.8827,12.61838 25.2489,36.71372 41.3086,52.77344 45.885,47.03207 83.7407,127.32967 68.8281,145.68367 -13.7654,17.2068 -28.6917,18.3592 -63.1054,1.1523 -13.7655,-6.8827 -30.9689,-26.3867 -37.8516,-43.5938 -17.2069,-41.2964 -74.5653,-96.36447 -90.625,-87.18748 -6.8828,4.58849 -12.6172,20.65908 -12.6172,36.71878 0,33.2666 -36.6931,51.6184 -82.5781,42.4414 -42.4435,-8.0299 -48.1807,-34.4107 -21.7969,-89.47268 51.6205,-100.94684 95.2057,-220.26085 97.5,-260.41016 1.5773,-37.06641 5.871,-51.88984 21.8164,-52.32421 z m -769.707,22.53906 c 23.814,0.18148 47.8645,4.69687 71.0937,13.73047 39.0022,14.9126 51.6029,26.37916 56.1914,50.46875 3.4416,17.20685 3.4416,34.4154 0,39.0039 -9.177,16.05972 -42.4404,9.19246 -72.2656,-13.75 -32.1195,-25.23671 -83.7658,-13.85134 -104.414,6.79688 -24.0896,24.08959 -24.0621,48.24893 10.3515,71.1914 35.5609,25.23671 98.6618,48.1836 130.7813,48.1836 12.6183,0 40.1383,8.03526 61.9336,18.35937 42.4436,20.64822 49.3291,49.33131 26.3867,99.80472 -30.9723,68.8274 -191.5658,104.3849 -252.3633,55.0586 -22.9425,-18.354 -36.4231,-15.2035 -27.2461,-42.7344 8.0299,-21.7954 26.2345,-45.74699 43.9649,-47.01173 17.7304,-1.26474 34.9787,20.16883 53.9062,37.94923 l 36.0547,16.2305 c 24.6698,-0.1464 51.6335,-33.5364 51.6406,-45.01957 0,-4.58849 -16.0747,-28.38683 -67.6953,-38.71094 -75.7101,-16.05972 -102.0889,-27.53286 -131.9141,-56.21094 -33.2665,-32.11945 -44.2578,-42.80783 -44.2578,-93.28125 0,-53.91479 9.8298,-61.594 45.3907,-85.68359 33.6967,-22.94247 72.7709,-34.67747 112.4609,-34.375 z m 416.3672,43.55468 c -14.9126,0 -40.1563,56.21518 -40.1563,87.1875 0,18.35399 64.2461,21.79669 74.5703,4.58985 11.4712,-18.35398 -17.2072,-91.77735 -34.414,-91.77735 z m 761.5039,92.61719 c 6.2016,-0.34055 12.2403,1.15466 17.4023,4.88281 56.209,41.29646 112.4115,74.57032 127.3243,74.57032 21.7953,0 22.9476,27.53925 1.1523,44.74609 -9.177,8.02987 -30.9819,18.3412 -49.3359,22.92969 -17.2068,4.58849 -32.1094,16.05738 -32.1094,25.23437 -1.1472,9.17694 -18.3557,51.63854 -39.0039,94.08204 l -37.8516,77.9883 28.6719,28.6914 c 30.9723,30.9723 29.8148,61.9336 -2.3047,61.9336 -10.3241,0 -57.3429,-21.7998 -104.375,-48.1836 -71.1216,-41.2965 -86.0352,-53.8987 -86.0352,-77.9883 0,-29.8252 12.6164,-33.2719 59.6485,-18.3593 19.5011,5.7356 26.3738,2.294 32.1094,-17.2071 4.5885,-13.7655 25.2359,-55.0693 47.0312,-91.7774 44.7378,-75.71008 48.1885,-97.50787 14.9219,-107.83198 -14.9126,-5.73561 -21.7864,-16.04443 -19.4922,-30.95703 3.4414,-24.08959 23.6412,-41.73225 42.2461,-42.75391 z m -1604.082,3.57422 c 15.8289,0.70575 34.8581,8.77165 56.7968,24.25781 26.3838,18.35397 50.4701,37.86336 55.0586,44.7461 4.5885,6.88274 20.6591,19.48967 36.7188,27.51953 16.0597,8.02986 65.3741,47.03819 108.9648,87.18756 71.1217,64.2389 78.0038,74.5704 64.2383,91.7773 -14.9126,17.2068 -18.3506,17.2055 -55.0586,-4.5898 -21.7953,-12.6184 -53.9065,-22.9493 -71.1133,-22.9493 -40.1493,0 -98.6626,42.4521 -83.75,61.9532 6.8827,6.8827 14.9232,34.4117 19.5117,59.6484 6.8827,42.4435 3.4307,50.4637 -19.5117,66.5234 -33.2666,24.0898 -34.4131,24.0908 -64.2383,-12.6171 -14.9126,-18.354 -30.9635,-50.4703 -36.6992,-72.2657 -61.9446,-224.83609 -68.8359,-256.96393 -61.9531,-293.67187 7.1695,-39.43236 24.6536,-58.69578 51.0352,-57.51953 z m 69.6093,132.83203 c -16.5907,-0.57132 -25.2888,13.60379 -17.4023,39.41406 11.4712,36.70791 32.1293,47.03251 66.543,34.41411 26.3839,-10.3241 22.9436,-25.2386 -12.6172,-56.21098 -13.7655,-11.61462 -26.569,-17.27439 -36.5235,-17.61719 z m -243.3203,47.81257 c 21.4414,-1.0867 43.6761,11.1004 51.5625,34.0429 8.0299,24.0895 2.2901,42.4485 -30.9765,99.8047 -21.7953,37.855 -37.8554,72.2617 -34.4141,75.7031 4.5885,3.4414 42.4393,6.875 84.8828,6.875 66.5332,0 80.3021,3.439 95.2149,25.2344 12.6183,18.3539 13.7719,29.8245 5.7421,47.0313 -11.4712,19.5011 -20.6529,21.7993 -82.5976,13.7695 -39.0022,-3.4414 -75.7097,-8.0326 -81.4453,-9.1797 -27.531,-5.7356 -14.9111,26.3987 21.7968,50.4883 44.7378,30.9723 50.4698,51.6084 20.6446,74.5508 -42.4435,32.1195 -67.682,18.3673 -172.0703,-87.168 -152.5673,-154.8617 -166.3306,-172.0746 -158.3008,-203.0469 6.8828,-28.6781 42.4481,-52.7707 65.3906,-43.5937 8.0298,3.4413 25.2333,25.2463 37.8516,49.3359 34.4137,63.0918 58.5068,56.201 95.2148,-27.539 17.2068,-39.0022 39.0014,-79.1486 47.0313,-89.4727 9.0336,-10.7543 21.6078,-16.184 34.4726,-16.8359 z m 1010.5078,59.6289 c 7.8686,-0.1434 14.3888,0.4997 19.5508,1.9336 42.4436,10.3241 82.5845,14.914 186.9727,21.7968 47.0321,3.4413 96.366,8.043 108.9843,11.4844 167.48,43.5907 216.8092,59.6475 275.3125,89.4727 37.8551,19.5011 89.4704,45.8829 114.7071,59.6484 25.2367,12.6184 66.5355,37.8518 90.625,55.0586 24.0896,17.2069 51.6186,32.1289 59.6484,32.1289 17.2069,0 229.4315,206.4824 271.875,266.1328 17.2069,22.9425 36.6967,48.1668 44.7266,57.3438 8.0298,8.0299 29.8348,37.8648 49.3359,66.5429 18.3539,28.678 37.8477,53.9024 41.2891,57.3438 4.5885,3.4414 32.1279,49.3274 61.9531,103.2422 47.0321,86.0342 68.8155,138.8114 108.9648,281.0547 61.9447,214.512 59.6562,199.5966 52.7735,355.6054 -5.7356,137.6547 -16.0643,192.7075 -65.3906,367.0702 -29.8252,104.3882 -60.7867,184.689 -79.1407,206.4844 -18.354,21.7953 -94.0682,136.51 -146.8359,223.6914 -28.6781,49.3263 -190.4175,198.4562 -264.9805,245.4883 -28.6781,19.5011 -94.0773,60.7959 -144.5508,94.0625 -112.418,72.2687 -177.7997,107.832 -200.7421,107.832 -9.177,0 -35.5536,12.607 -58.4961,27.5196 -21.7954,14.9126 -63.0993,34.4259 -91.7774,41.3086 -27.5309,8.0299 -82.5851,28.6772 -122.7344,47.0312 -111.271,50.4734 -182.3997,52.7704 -306.289,9.1797 -71.1217,-25.2367 -138.8068,-39.0157 -215.6641,-45.8984 -136.5077,-11.4713 -199.601,-28.6637 -403.789,-116.9922 -217.9534,-92.917 -306.2736,-146.832 -435.8985,-266.1328 -98.6526,-91.7699 -157.1637,-169.7711 -242.0508,-321.1914 -82.5929,-146.8318 -100.9417,-204.1924 -131.914,-412.9688 -12.6184,-92.917 -11.4699,-318.9038 4.5898,-361.3476 11.4713,-34.4136 27.5288,-115.8604 42.4414,-219.1015 10.3241,-69.9745 30.9668,-127.3219 97.5,-268.418 56.209,-119.3008 267.295,-398.0551 333.8281,-442.7929 13.7657,-9.1772 47.0342,-34.4157 73.418,-56.211 53.9148,-43.5907 53.9155,-43.5854 184.6875,-114.707 105.5354,-56.2091 209.9224,-91.783 377.4024,-127.3438 59.6504,-12.6184 151.4067,-36.6941 203.0273,-52.7539 47.3189,-14.6258 83.035,-22.1675 106.6406,-22.5976 z m 1254.7852,46.5429 c 14.9526,0.9452 25.5583,9.1233 27.7539,25.3711 3.4413,25.2367 -46.6306,106.1994 -78.75,116.5235 -30.9724,9.177 11.0603,93.2422 46.6211,93.2422 6.8828,0 25.7203,-11.0719 50.957,-36.3086 49.3263,-49.3263 79.8103,-53.0049 115.3711,-26.6211 21.7953,14.9126 19.5073,18.3481 -28.6719,63.0859 -28.6781,26.3838 -56.2031,52.7656 -63.0859,59.6484 -5.7356,5.7356 -21.7957,20.6525 -34.4141,30.9766 -11.4712,10.3241 -44.7399,43.598 -73.4179,74.5703 -47.0321,50.4734 -78.0132,65.38 -96.3672,45.8789 -11.4712,-11.4712 -9.1666,-72.2656 2.3047,-72.2656 17.2068,0 78.2422,-69.7019 78.2422,-85.7617 0,-8.0298 -15.1487,-17.4806 -39.2383,-34.6875 l -31.7188,-25.7227 -31.3867,19.9805 c -11.4713,14.9126 -26.3738,34.422 -32.1094,44.7461 -14.9126,27.531 -73.4193,3.4462 -78.0078,-33.2617 -2.2942,-26.3839 29.8226,-66.5348 123.8867,-154.8633 6.8828,-5.7356 29.831,-30.9742 52.7735,-56.2109 27.1008,-29.682 58.9222,-46.6606 82.5976,-48.2813 2.3018,-0.1576 4.5241,-0.1741 6.6602,-0.039 z m -1151.5039,94.1993 c -138.8019,1.1471 -207.6126,6.8791 -258.086,20.6445 -37.8551,11.4713 -99.8011,27.5417 -137.6562,36.7187 -37.855,9.177 -79.159,20.6512 -91.7773,26.3868 -12.6186,4.5885 -51.6215,18.3477 -86.0352,28.6718 -125.0364,39.0022 -166.335,63.082 -322.3438,182.3828 -57.3561,42.4435 -188.1319,178.9524 -228.2812,236.3086 -73.4159,105.5353 -178.9468,326.9268 -200.7422,419.8438 -55.0619,240.8958 -67.6782,351.0264 -59.6484,503.5936 5.7356,103.2411 13.7685,145.6923 43.5937,224.8438 19.5011,53.9148 39,110.1122 42.4414,126.1719 3.4413,16.0598 32.1188,67.6944 64.2383,114.7265 32.1194,47.032 65.3933,99.7854 74.5703,116.9922 20.6482,40.1493 162.8862,177.8065 230.5664,223.6914 28.6781,19.5011 92.9251,56.2139 143.3985,82.5977 50.4735,26.3839 99.7879,51.6277 108.9648,57.3633 9.177,4.5885 35.568,16.0521 57.3633,24.082 177.8041,64.2389 203.0261,69.9831 331.5039,79.1601 73.4159,5.7356 144.5548,14.8947 158.3203,21.7774 12.6184,6.8827 59.6372,11.4791 104.375,10.332 64.2389,-2.2942 86.0497,2.2997 102.1094,18.3594 24.0896,24.0896 36.6891,24.0807 68.8086,2.2851 12.6183,-9.177 61.947,-30.9715 107.832,-47.0312 98.6526,-35.5608 276.455,-121.5981 325.7813,-159.4531 19.5011,-13.7655 40.1628,-27.53 45.8984,-29.8242 6.8827,-2.2943 52.7687,-29.8284 103.2422,-60.8008 69.9745,-42.4435 112.403,-80.2874 181.2304,-160.586 159.4504,-185.834 189.2763,-225.9939 201.8946,-268.4375 5.7356,-22.9424 29.8257,-94.0567 51.6211,-157.1484 58.5032,-167.48 78.0207,-274.1562 72.2851,-393.4569 -9.177,-153.7145 -28.6774,-262.7001 -64.2382,-345.293 -17.207,-41.2964 -41.297,-99.8037 -51.6211,-129.6289 -11.4713,-29.8252 -40.154,-83.7413 -65.3907,-120.4492 -24.0896,-36.708 -44.7461,-71.1056 -44.7461,-77.9883 0,-19.5011 -130.7725,-186.986 -167.4804,-215.6641 -18.354,-13.7654 -61.934,-53.9261 -96.3477,-88.3398 -34.4137,-35.5608 -92.9262,-81.4274 -130.7812,-103.2227 -36.708,-21.7954 -80.2932,-49.3438 -97.5,-59.6679 -16.0597,-11.4713 -37.8543,-24.0782 -47.0313,-27.5196 -9.1769,-4.5885 -42.4508,-19.4962 -74.5703,-33.2617 -160.5972,-73.4159 -193.868,-80.3072 -395.7617,-79.1601 z m 808.2812,52.4414 c 18.2285,0.7528 38.8809,14.1018 44.043,31.3086 9.177,35.5608 -19.5082,55.044 -57.3633,38.9843 -17.2068,-6.8827 -19.4972,-56.1993 -3.4375,-66.5234 4.8753,-2.8678 10.6817,-4.0205 16.7578,-3.7695 z m -2322.2461,59.4531 c 26.404,0.8626 65.2977,12.4343 124.8047,36.0937 39.0022,14.9126 92.9182,30.9727 120.4492,34.4141 27.5309,4.5885 64.2438,19.5015 82.5977,34.4141 29.8252,22.9425 30.9778,28.6605 18.3594,56.1914 -13.7655,32.1195 -44.7478,39.0023 -83.75,17.207 -18.354,-9.177 -29.8258,-8.0181 -51.6211,6.8945 -43.5907,28.6781 -44.7444,48.1737 -5.7422,97.5 l 36.7187,44.7461 -24.1015,24.0821 c -30.9723,30.9723 -81.4443,29.8343 -111.2695,-2.2852 -12.6186,-14.9126 -42.4339,-59.6606 -66.5235,-100.957 -24.0896,-41.2964 -58.5016,-97.5082 -76.8555,-125.0391 -34.4137,-53.9148 -34.4084,-86.0238 1.1524,-113.5547 8.6034,-6.8827 19.9388,-10.2246 35.7812,-9.707 z m 86.2305,107.9883 c -25.2368,0 4.6161,38.7082 27.5586,46.7383 17.2068,5.7356 23.6328,-7.3726 23.6328,-22.2852 0,-5.7357 -38.5731,-24.4531 -51.1914,-24.4531 z m 2893.1836,54.3164 c 53.9931,-1.4091 100.8962,58.9721 120.2539,174.0429 4.5885,28.6781 -16.435,27.819 -31.3476,33.5547 -34.4139,13.7654 -57.3438,-11.4849 -57.3438,-63.1054 -0.5736,-36.1344 -13.4694,-48.1621 -29.7852,-55.7618 -16.3159,-7.5997 -36.051,-10.7589 -56.6992,15.625 -25.2367,33.2666 -29.389,73.404 -11.0351,91.7579 5.7356,5.7356 14.9179,34.4273 18.3593,63.1054 12.6184,94.0641 -58.4997,135.3576 -153.7109,89.4727 -66.5331,-30.9723 -100.9594,-111.2689 -75.7227,-175.5078 8.03,-19.5011 57.3661,-24.0871 83.75,-8.0274 13.7656,9.177 14.9089,16.0524 3.4376,41.2891 -20.6484,43.5907 -17.2067,57.3583 17.207,73.418 39.0022,17.2069 53.9113,2.2977 37.8515,-37.8516 -18.3539,-48.1792 -29.7431,-95.9146 -3.3593,-150.9766 26.3839,-56.2089 69.89,-79.5977 127.2461,-89.9218 3.6564,-0.6453 7.2989,-1.0194 10.8984,-1.1133 z m -3097.79298,5.7031 c 5.73561,0 22.93358,12.6069 36.69928,27.5195 l 26.3867,28.6914 -29.8243,39.0039 c -16.0597,21.7953 -29.82418,44.7332 -29.82418,50.4688 0,19.5011 97.49558,103.2386 165.17578,141.0937 48.1792,27.5309 64.2578,43.5993 64.2578,61.9532 0,41.2965 -37.8687,66.531 -63.1054,42.4414 -6.8828,-5.7356 -61.9369,-35.5706 -122.7344,-66.543 l -111.26956,-56.2109 -42.44141,37.8515 c -43.59068,40.1493 -68.83874,44.7419 -88.33984,13.7696 -8.02986,-12.6184 6.88734,-43.5946 65.39062,-129.6289 41.29646,-61.9446 75.70313,-121.5951 75.70313,-133.0664 0,-20.6484 34.42468,-57.3438 53.92578,-57.3438 z m 2750.80078,74.5508 c 35.5608,0 32.1233,56.2123 -3.4375,60.8008 -22.9425,3.4414 -26.3906,0.01 -22.9492,-28.6719 2.2943,-22.9424 9.1798,-32.1289 26.3867,-32.1289 z m -471.8164,304.668 c 118.9962,-0.3228 123.9542,4.1984 133.418,22.2656 18.354,35.5608 10.3238,74.5755 -17.2071,75.7226 -12.6184,1.1472 -66.5344,-3.444 -120.4492,-9.1797 -53.9148,-5.7356 -173.2158,-8.0312 -266.1328,-4.5898 -159.4501,5.7356 -169.7788,4.5935 -181.25,-16.0547 -8.0299,-14.9126 -8.0351,-29.8426 -1.1523,-42.4609 9.1769,-18.354 37.853,-20.6407 291.3672,-24.0821 69.4009,-0.8603 121.7408,-1.5135 161.4062,-1.621 z m -1254.6094,57.832 c 234.0132,1.1471 240.8985,2.3 240.8985,52.7734 0,36.7079 -27.5413,47.0181 -100.9571,35.5469 -37.8551,-4.5885 -113.5644,-3.4258 -180.0976,3.457 -128.4778,13.7655 -215.6424,18.3528 -258.086,12.6172 -32.1194,-4.5885 -68.8281,-33.2775 -68.8281,-53.9258 0,-26.3838 37.8379,-45.8894 90.6055,-48.1836 28.6781,-1.1472 153.7227,-2.2851 276.4648,-2.2851 z m 536.8555,274.1601 c 65.386,0 82.5859,24.0922 75.7031,107.8321 -6.8827,73.4159 12.6212,468.0243 26.3867,557.4999 4.5884,28.6781 8.0274,74.5641 8.0274,103.2422 l 1.1523,51.621 -55.0586,3.4376 c -36.7079,2.2943 -56.207,-1.1408 -59.6484,-11.4649 -3.4413,-8.0299 -10.3243,-151.4262 -17.207,-318.9062 -16.0598,-398.0516 -16.0602,-402.6357 -34.4141,-432.4609 -21.7954,-34.4137 1.1438,-60.8008 55.0586,-60.8008 z m 790.3711,872.9687 c 66.5331,-2.2942 99.8027,67.6734 43.5937,92.9101 -18.354,8.0299 -28.6914,21.7969 -28.6914,39.004 0,14.9126 -9.1733,32.1158 -20.6445,37.8515 -11.4713,5.7356 -35.5523,32.1123 -53.9062,58.4961 -32.1195,47.0321 -143.3993,127.3455 -229.4336,166.3477 -25.2367,11.4712 -58.4911,28.6655 -74.5508,40.1367 -80.2986,55.0619 -481.7925,103.2406 -682.5391,81.4453 -37.855,-3.4414 -75.7201,-11.4662 -83.75,-16.0547 -8.0298,-5.7356 -48.1709,-14.9089 -88.3203,-20.6445 -73.4158,-10.3241 -200.7617,-58.4963 -200.7617,-75.7031 0,-5.7358 -28.6721,-26.383 -63.086,-47.0313 -34.4137,-20.6482 -69.9636,-51.6212 -79.1406,-68.8281 -9.177,-17.2068 -32.12,-51.6331 -51.6211,-75.7227 -43.5907,-55.0619 -42.4526,-88.3335 2.2852,-99.8047 43.5907,-11.4712 81.4416,6.8976 102.0898,50.4883 28.678,58.5033 105.5384,137.6395 159.4532,164.0235 180.0983,88.3285 177.7974,87.1901 359.0429,96.3671 94.0641,4.5885 188.1409,4.5885 208.7891,0 20.6482,-4.5885 40.1523,-5.7317 43.5937,-3.4375 8.0298,9.177 183.5425,-18.3557 258.1055,-39.0039 84.8871,-24.0896 165.178,-65.3809 255.8008,-131.914 78.0043,-57.3562 88.3193,-73.427 118.1445,-186.9922 12.6184,-48.1792 32.131,-59.6393 105.5469,-61.9336 z m 651.0351,46.7187 c 12.5647,0.233 25.1818,1.4558 37.2266,3.75 30.9723,5.7357 43.5925,16.059 56.211,47.0313 13.7655,32.1194 21.7958,39.0039 51.621,39.0039 51.6205,0 76.8582,18.3481 86.0352,63.0859 5.7356,34.4137 0.01,50.476 -36.6992,107.8321 -24.0896,37.8551 -58.5158,76.8581 -75.7227,86.0351 -29.8252,18.354 -32.1074,18.3589 -91.7578,-33.2617 -98.6526,-86.0342 -204.1992,-192.7189 -204.1992,-206.4844 0,-12.6183 37.8597,-50.4691 82.5977,-84.8828 19.7879,-14.6258 56.9937,-22.8084 94.6874,-22.1094 z m -2956.1132,43.2227 c 66.5565,1.2278 127.9755,32.2624 145.039,90.1562 14.9126,52.7676 -9.1839,128.4766 -40.1562,128.4766 -21.7954,0 -48.1704,-42.4468 -36.6992,-60.8008 2.2943,-4.5885 -1.1499,-26.3883 -9.1797,-48.1836 -11.4713,-32.1195 -20.637,-40.1367 -44.7266,-40.1367 -59.65035,1.1472 -103.24219,59.6481 -103.24219,141.0938 10e-6,53.9148 1.13754,55.0615 83.73049,81.4453 12.6183,3.4414 19.5012,14.9154 17.207,26.3867 -3.4414,17.2068 -17.1945,21.7877 -74.55077,24.082 -69.97451,3.4413 -71.1266,3.4344 -99.80468,-40.1562 -25.23671,-35.5609 -29.82422,-56.2103 -29.82422,-120.4492 0,-66.5331 4.57319,-81.4352 30.95703,-113.5547 39.79083,-47.3188 102.52362,-69.4427 161.25004,-68.3594 z m 2952.9492,40.0977 c -18.988,0.448 -36.4649,7.1754 -36.4649,17.9296 0,47.0321 41.2986,59.6624 73.418,24.1016 19.5011,-21.7953 19.4998,-22.9481 -4.5898,-35.5664 -9.0336,-4.7319 -20.9705,-6.7338 -32.3633,-6.4648 z m 154.4726,81.25 c -11.0371,-0.4236 -27.9662,6.5065 -47.539,21.5624 -40.1493,30.9726 -41.298,33.2776 -21.7969,53.9258 18.354,20.6482 20.646,20.6391 42.4414,2.2852 11.4712,-11.4713 26.379,-29.8178 33.2617,-41.2891 12.2599,-23.2292 7.8235,-35.9399 -6.3672,-36.4843 z m -332.6757,30.7031 c 50.0209,-2.777 127.1244,65.8569 165.8398,154.9023 34.4137,81.4458 29.817,115.8535 -27.5391,178.9453 -48.1792,51.6205 -52.7714,53.9258 -112.4218,53.9258 -60.7975,0 -63.0778,-1.1519 -151.4063,-82.5976 -49.3263,-45.8849 -88.3398,-91.7658 -88.3398,-102.0899 0,-22.9424 47.0432,-67.6758 71.1328,-67.6758 9.177,0 44.7217,36.7075 77.9883,81.4453 58.5032,79.1515 60.8,80.2968 107.832,76.8555 45.885,-3.4414 47.0469,-4.5876 50.4883,-47.0312 3.4413,-40.1493 -2.2988,-49.3211 -65.3906,-114.7071 -71.1216,-71.1217 -82.5987,-97.5172 -52.7735,-122.7539 6.9903,-5.7356 15.3267,-8.7045 24.5899,-9.2187 z m -2537.9297,66.582 c 25.2368,0 52.7539,32.1136 52.7539,63.0859 0,17.2069 -12.6187,36.7085 -34.4141,51.6211 -40.1493,28.6781 -42.4371,45.8922 -11.4648,74.5703 21.7953,19.5013 24.089,18.3526 64.2383,-21.7968 22.9424,-22.9424 49.3334,-40.1602 57.3632,-36.7188 29.8252,11.4712 17.1949,69.9796 -24.1015,117.0117 -21.7954,24.0896 -40.1367,47.0274 -40.1367,50.4688 0,3.4414 -20.6618,29.8323 -45.8985,57.3633 -25.2367,27.5309 -45.8789,55.0599 -45.8789,59.6484 0,13.7654 -51.6108,10.3228 -66.5234,-4.5898 -22.9424,-22.9425 -16.0635,-51.6177 20.6445,-89.4727 40.1493,-41.2965 42.4476,-57.3662 13.7695,-83.75 -30.9723,-28.6781 -56.2111,-24.0712 -73.4179,12.6367 -22.9425,48.1792 -112.4219,47.0216 -112.4219,-2.3047 0,-20.6482 225.9873,-247.7734 245.4883,-247.7734 z m 201.0156,253.6328 c 68.7736,1.2368 127.0585,60.3964 120.1758,142.1289 -1.1471,19.5011 -3.4375,40.1343 -3.4375,48.1641 -2.2943,24.0896 -60.8091,84.8844 -105.5469,106.6797 -55.0619,28.6781 -80.2843,28.6781 -116.9922,0 -79.1515,-63.0918 -58.5172,-222.5358 35.5469,-277.5977 23.2292,-13.7655 47.3294,-19.7872 70.2539,-19.375 z m 1945.1953,8.75 c 27.3501,-0.5329 50.0193,19.2342 79.1992,63.3985 22.9424,33.2665 41.3086,66.5352 41.3086,73.4179 0,6.8828 16.051,25.2293 36.6992,41.2891 34.4137,26.3838 37.8467,27.5388 71.1133,10.332 19.5011,-9.177 51.637,-29.8335 72.2852,-44.7461 44.7378,-34.4137 67.676,-34.4045 84.8828,-2.2851 10.3242,20.6482 9.1691,27.5288 -10.332,42.4414 -12.6183,10.3241 -50.4639,42.4352 -83.7305,71.1133 -57.3561,49.3263 -102.09,79.1601 -119.2969,79.1601 -3.4413,0 -19.5067,-13.7696 -35.5664,-30.9766 -16.0597,-17.2068 -55.0681,-72.2701 -87.1875,-120.4492 -30.9724,-48.1792 -69.9702,-96.3556 -84.8828,-106.6797 -33.2665,-21.7953 -35.5674,-47.0261 -5.7422,-63.0859 15.4145,-8.2449 28.8182,-12.6874 41.25,-12.9297 z m -1702.2851,81.7578 c 24.0896,0 48.1814,16.0434 90.625,60.7813 32.1194,32.1194 66.5313,74.5758 76.8554,92.9297 14.9126,29.8252 14.9217,36.7061 -2.2851,76.8554 -24.0896,51.6205 -61.9535,80.2903 -96.3672,71.1133 -32.1194,-8.0298 -30.9762,5.7477 3.4375,41.3086 14.9126,17.2068 29.8347,42.4364 32.1289,58.4961 3.4414,25.2368 -1.1384,28.6875 -36.6992,32.1289 -22.9425,1.1471 -51.6252,-4.5978 -65.3907,-14.9219 -14.9126,-10.3241 -28.6732,-35.564 -33.2617,-60.8007 -8.0299,-41.2965 -22.9585,-71.1133 -37.8711,-71.1133 -4.5885,0 -13.7617,16.06 -20.6445,34.414 -9.177,25.2367 -20.6409,34.4141 -41.2891,34.4141 -74.563,0 -113.5763,-44.7517 -71.1328,-80.3125 9.177,-8.0299 17.2071,-20.642 17.2071,-28.6719 0,-8.0299 19.5041,-39.0081 43.5937,-69.9804 25.2367,-30.9723 58.5016,-83.74 76.8555,-115.8594 27.531,-51.6206 37.8545,-60.7813 64.2383,-60.7813 z m -257.6563,12.3828 c -13.2014,0.7274 -27.686,7.9791 -41.7383,22.0313 -21.7954,21.7954 -30.9621,68.8179 -14.9023,83.7305 14.9126,16.0597 49.3206,6.8917 80.2929,-19.4922 27.5311,-24.0896 29.8255,-29.8324 17.2071,-57.3633 -9.0336,-20.003 -23.8861,-29.8414 -40.8594,-28.9063 z m 1786.7773,22.0313 c 68.8275,0 110.1172,24.0785 110.1172,61.9336 0,30.9723 -30.9718,43.5859 -81.4453,33.2617 -50.4734,-9.1769 -71.1158,13.7714 -63.0859,69.9805 10.3241,64.2389 40.1579,107.8347 79.1601,117.0117 36.7079,8.0299 100.9466,-13.7659 98.6524,-34.4141 -6.8828,-56.209 29.8092,-87.1859 77.9883,-65.3906 22.9425,10.3241 27.5429,19.5107 24.1015,49.3359 -2.2942,28.6781 -13.7751,43.581 -49.3359,66.5235 -83.74,53.9147 -121.5968,65.3866 -172.0703,51.6211 -63.0917,-16.0597 -67.6684,-20.6414 -108.9649,-92.9102 -28.678,-49.3263 -35.565,-72.2803 -30.9765,-105.5469 18.354,-129.6249 35.5606,-151.4062 115.8593,-151.4062 z m -1495.8398,103.2422 c -21.7953,0 -57.3633,38.9963 -57.3633,63.0859 0,12.6183 14.9068,17.2069 63.086,17.2071 41.2964,0 63.1054,-4.5927 63.1054,-13.7696 0,-20.6483 -47.0328,-66.5234 -68.8281,-66.5234 z m 291.3672,11.4648 c 29.8252,0 75.7031,29.8205 75.7031,50.4688 0,8.0298 -12.6121,34.4209 -28.6719,57.3633 -49.3263,73.4159 -32.1256,194.9975 28.6719,203.0273 50.4734,5.7356 69.9704,-22.9388 102.0899,-153.7109 22.9425,-90.6227 48.1867,-111.2653 91.7773,-80.293 20.6483,13.7655 24.0897,24.0953 17.207,52.7734 -3.4414,20.6482 -11.4765,42.4389 -18.3593,50.4688 -5.7356,6.8827 -6.8789,25.2436 -3.4375,40.1562 8.0298,35.5608 -55.0552,144.5353 -92.9102,158.3008 -47.0321,18.354 -76.8663,21.7942 -113.5742,12.6172 -48.1792,-12.6183 -99.8023,-40.1501 -125.0391,-68.8281 -29.8252,-33.2666 -38.9918,-137.6659 -14.9023,-186.9922 10.3242,-20.6482 21.7787,-52.7645 26.3672,-72.2656 10.3241,-45.8849 25.2529,-63.086 55.0781,-63.086 z m 528.8086,68.8282 c 83.74,0 145.6929,48.1766 160.6055,123.8867 9.177,47.0321 -10.3195,73.4166 -50.4688,68.8281 -22.9425,-2.2942 -33.2645,-12.6162 -42.4414,-42.4414 -22.9425,-71.1217 -107.832,-94.0631 -107.832,-29.8242 0,55.0619 27.519,89.4757 108.9648,133.0664 42.4435,22.9424 79.1627,72.2723 71.1328,95.2148 -21.7953,56.209 -184.6948,84.8759 -259.2578,44.7266 -48.1792,-25.2367 -66.5323,-71.1124 -47.0312,-118.1446 6.8828,-17.2069 24.1003,-34.4296 36.7187,-37.871 18.3539,-5.7356 20.6366,-10.318 10.3125,-28.6719 -17.2069,-33.2666 -18.3396,-107.8219 -1.1328,-139.9414 26.3839,-49.3263 58.485,-67.6809 120.4297,-68.8281 z m -48.1641,286.7773 c -21.7953,0 -18.3669,30.9807 5.7227,44.7461 25.2367,14.9126 44.7488,16.0506 53.9258,2.2851 6.8828,-12.6184 -36.706,-47.0312 -59.6485,-47.0312 z"
     id="rect4161"
     inkscape:connector-curvature="0" />
  <metadata
     id="metadata88">
    <rdf:RDF>
      <cc:Work
         rdf:about="">
        <dc:format>image/svg+xml</dc:format>
        <dc:type
           rdf:resource="http://purl.org/dc/dcmitype/StillImage" />
        <dc:title></dc:title>
      </cc:Work>
    </rdf:RDF>
  </metadata>
  <defs
     id="defs86" />
  <sodipodi:namedview
     pagecolor="#ffffff"
     bordercolor="#666666"
     borderopacity="1"
     objecttolerance="10"
     gridtolerance="10"
     guidetolerance="10"
     inkscape:pageopacity="0"
     inkscape:pageshadow="2"
     inkscape:window-width="1920"
     inkscape:window-height="965"
     id="namedview84"
     showgrid="false"
     inkscape:zoom="0.89718925"
     inkscape:cx="334.84583"
     inkscape:cy="240.92803"
     inkscape:window-x="-8"
     inkscape:window-y="-8"
     inkscape:window-maximized="1"
     inkscape:current-layer="svg2" />
  <!-- generated by www.vectorizer.io -->
</svg>
