<?xml version="1.0" encoding="UTF-8" standalone="no"?>
<svg
   xmlns:dc="http://purl.org/dc/elements/1.1/"
   xmlns:cc="http://creativecommons.org/ns#"
   xmlns:rdf="http://www.w3.org/1999/02/22-rdf-syntax-ns#"
   xmlns:svg="http://www.w3.org/2000/svg"
   xmlns="http://www.w3.org/2000/svg"
   xmlns:sodipodi="http://sodipodi.sourceforge.net/DTD/sodipodi-0.dtd"
   xmlns:inkscape="http://www.inkscape.org/namespaces/inkscape"
   version="1.0"
   width="374"
   height="374"
   viewBox="0 0 3740 3740"
   preserveAspectRatio="xMidYMid meet"
   id="svg2"
   inkscape:version="0.91 r13725"
   sodipodi:docname="TGC.svg">
  <metadata
     id="metadata88">
    <rdf:RDF>
      <cc:Work
         rdf:about="">
        <dc:format>image/svg+xml</dc:format>
        <dc:type
           rdf:resource="http://purl.org/dc/dcmitype/StillImage" />
        <dc:title></dc:title>
      </cc:Work>
    </rdf:RDF>
  </metadata>
  <defs
     id="defs86" />
  <sodipodi:namedview
     pagecolor="#ffffff"
     bordercolor="#666666"
     borderopacity="1"
     objecttolerance="10"
     gridtolerance="10"
     guidetolerance="10"
     inkscape:pageopacity="0"
     inkscape:pageshadow="2"
     inkscape:window-width="1920"
     inkscape:window-height="965"
     id="namedview84"
     showgrid="false"
     inkscape:zoom="1.7943785"
     inkscape:cx="197.76042"
     inkscape:cy="169.2245"
     inkscape:window-x="-8"
     inkscape:window-y="-8"
     inkscape:window-maximized="1"
     inkscape:current-layer="svg2" />
  <!-- generated by www.vectorizer.io -->
  <g
     id="layer1"
     transform="translate(-39.010721,42.291841)"
     style="fill:#ffffff;fill-opacity:1;stroke:none">
    <path
       d="m 1759,3606 c -25,-7 -84,-19 -130,-26 -46,-7 -119,-21 -161,-31 -43,-11 -88,-19 -100,-19 -13,0 -50,-14 -83,-30 -33,-16 -71,-30 -85,-30 -41,0 -379,-175 -451,-233 -91,-74 -217,-205 -267,-277 -17,-25 -45,-61 -61,-80 -17,-19 -33,-42 -36,-51 -3,-9 -16,-21 -29,-27 -26,-11 -94,-143 -159,-307 -33,-83 -41,-112 -67,-245 -4,-25 -14,-119 -21,-210 -10,-135 -10,-182 1,-260 7,-52 12,-128 11,-169 -1,-51 4,-93 19,-137 11,-35 20,-82 20,-105 0,-22 6,-53 14,-67 17,-32 76,-187 76,-200 0,-5 16,-31 35,-58 19,-27 40,-64 46,-82 6,-17 14,-32 19,-32 4,0 11,-19 15,-42 6,-35 22,-60 84,-128 42,-46 82,-91 88,-100 53,-64 103,-116 133,-135 19,-13 71,-53 115,-90 106,-89 171,-131 287,-188 53,-26 99,-47 102,-47 3,0 33,-13 68,-29 124,-58 274,-98 418,-112 52,-5 113,-14 135,-19 25,-5 44,-5 51,1 8,7 13,6 16,-3 3,-9 11,-9 34,0 32,12 114,23 209,28 91,5 125,10 180,26 50.2721,13.56902 103.5244,31.73618 143,49 61.8072,24.59232 130.9918,48.6083 185,73 29,13 66,27 84,30 44.5078,19.51461 86.9356,43.44672 122,71 38.122,19.95233 75.5723,48.72414 109,65 26,13 55,31 65,39 124.8823,61.46794 177.2326,151.36464 257,228 35.9639,55.47776 69.5575,86.29656 115,137 68.204,47.84247 92.4206,135.29487 135,191 16,21 30,43 30,50 16.1279,30.7214 41.5496,55.7086 51,89 6,22 19,52 29,66 25,35 61,134 71,195 19,119 45,313 55,416 9,90 -13,322 -37,384 -10,28 -19,60 -19,72 0,21 -14,57 -61,158 -10,22 -25,56 -34,75 -8,19 -33,62 -54,95 -22,33 -63,103 -90,156 -67,128 -99,175 -167,240 -31,30 -75,72 -98,94 -23,22 -95,76 -161,119 -66,44 -136,94 -156,111 -20,18 -54,38 -75,45 -22,7 -74,32 -116,56 -43,23 -88,46 -100,49 -13,4 -39,16 -58,26 -19,10 -62,26 -95,35 -33,9 -65,20 -71,25 -10,8 -127,26 -229,35 -27,3 -68,14 -89,26 -49,26 -197,34 -267,14 z m 270,-136 c 281,-49 346,-67 491,-134 57,-26 178,-92 195,-106 6,-4 44,-25 85,-46 41,-21 101,-58 133,-83 65,-51 259,-240 295,-286 12,-17 42,-55 65,-85 59,-75 117,-162 117,-176 0,-14 40,-106 81,-188 38,-75 54,-119 86,-236 22,-82 25,-115 25,-245 -1,-136 -5,-193 -30,-410 -5,-43 -16,-83 -30,-105 -12,-19 -22,-45 -22,-57 0,-37 -38,-122 -103,-233 C 3320,915 3274,851 3195,766 3012,570 2904,479 2765,405 c -38,-21 -77,-43 -85,-50 -8,-6 -46,-24 -85,-40 -38,-16 -79,-34 -90,-42 -11,-7 -26,-13 -35,-13 -9,0 -54,-16 -101,-35 -65,-26 -115,-38 -213,-50 -161,-20 -382,-24 -461,-8 -33,7 -102,19 -154,28 -52,9 -115,25 -139,35 -25,11 -48,20 -52,20 -5,0 -34,15 -67,33 -32,18 -78,39 -102,47 -24,8 -49,19 -55,25 -26,23 -73,53 -96,60 -14,4 -32,13 -40,20 -8,7 -28,20 -45,28 -16,8 -53,35 -81,59 -29,24 -73,61 -99,82 -67,56 -232,241 -254,285 -10,20 -41,74 -68,121 -86,147 -109,194 -122,245 -8,28 -27,97 -43,155 -44,159 -66,533 -37,625 5,17 11,53 13,80 12,146 29,272 40,285 6,8 20,40 30,70 53,158 99,228 306,460 129,145 166,181 216,212 31,18 71,45 89,59 82,63 383,183 535,214 47,9 105,21 130,27 146,34 328,46 429,28 z"
       id="path5"
       inkscape:connector-curvature="0"
       sodipodi:nodetypes="cscssscccscccccccscsscsccccccsccccsccccccccccccccscccscccccscccccsscccccccscccscccccsccccccscccscscsccscccsccccccccccccc"
       style="fill:#ffffff;fill-opacity:1" />
    <path
       d="m 1851,3443 c -42,-22 -58,-62 -41,-103 6,-15 21,-30 32,-33 16,-5 18,-9 9,-25 -15,-29 -16,-94 -1,-122 23,-43 51,-59 105,-60 73,0 127,42 140,108 8,41 -9,64 -44,60 -20,-2 -29,-11 -37,-37 -20,-62 -94,-82 -94,-26 0,48 24,78 95,116 37,20 69,63 62,83 -19,49 -161,74 -226,39 z m 114,-52 c 6,-11 -32,-41 -52,-41 -19,0 -16,27 5,39 22,13 39,14 47,2 z"
       id="path7"
       inkscape:connector-curvature="0"
       style="fill:#ffffff;fill-opacity:1" />
    <path
       d="m 1545,3381 c -42,-11 -87,-35 -109,-60 -26,-29 -34,-120 -13,-163 9,-18 19,-46 23,-63 9,-40 22,-55 48,-55 26,0 66,26 66,44 0,7 -11,30 -25,50 -43,64 -28,170 25,177 44,5 61,-20 89,-134 20,-79 42,-97 80,-70 18,12 21,21 15,46 -3,18 -10,37 -16,44 -5,6 -6,22 -3,35 7,31 -48,126 -81,138 -41,16 -67,19 -99,11 z"
       id="path9"
       inkscape:connector-curvature="0"
       style="fill:#ffffff;fill-opacity:1" />
    <path
       d="m 1213,3275 c -13,-9 -25,-31 -29,-53 -7,-36 -20,-62 -33,-62 -4,0 -12,14 -18,30 -8,22 -18,30 -36,30 -65,0 -99,-39 -62,-70 8,-7 15,-18 15,-25 0,-7 17,-34 38,-61 22,-27 51,-73 67,-101 24,-45 33,-53 56,-53 21,0 42,14 79,53 28,28 58,65 67,81 13,26 13,32 -2,67 -21,45 -54,70 -84,62 -28,-7 -27,5 3,36 13,15 26,37 28,51 3,22 -1,25 -32,28 -20,1 -45,-4 -57,-13 z m 87,-187 c 0,-18 -41,-58 -60,-58 -19,0 -50,34 -50,55 0,11 13,15 55,15 36,0 55,-4 55,-12 z"
       id="path11"
       inkscape:connector-curvature="0"
       style="fill:#ffffff;fill-opacity:1" />
    <path
       d="m 2565,3245 c -55,-14 -59,-18 -95,-81 -25,-43 -31,-63 -27,-92 16,-113 31,-132 101,-132 60,0 96,21 96,54 0,27 -27,38 -71,29 -44,-8 -62,12 -55,61 9,56 35,94 69,102 32,7 88,-12 86,-30 -6,-49 26,-76 68,-57 20,9 24,17 21,43 -2,25 -12,38 -43,58 -73,47 -106,57 -150,45 z"
       id="path13"
       inkscape:connector-curvature="0"
       style="fill:#ffffff;fill-opacity:1" />
    <path
       d="m 2814,3103 c -14,-15 -48,-63 -76,-105 -27,-42 -61,-84 -74,-93 -29,-19 -31,-41 -5,-55 43,-23 68,-12 105,44 20,29 36,58 36,64 0,6 14,22 32,36 30,23 33,24 62,9 17,-8 45,-26 63,-39 39,-30 59,-30 74,-2 9,18 8,24 -9,37 -11,9 -44,37 -73,62 -50,43 -89,69 -104,69 -3,0 -17,-12 -31,-27 z"
       id="path15"
       inkscape:connector-curvature="0"
       style="fill:#ffffff;fill-opacity:1" />
    <path
       d="m 907,3090 c -69,-55 -51,-194 31,-242 81,-48 174,12 166,107 -1,17 -3,35 -3,42 -2,21 -53,74 -92,93 -48,25 -70,25 -102,0 z m 100,-94 c 24,-21 26,-26 15,-50 -14,-31 -44,-34 -72,-6 -19,19 -27,60 -13,73 13,14 43,6 70,-17 z"
       id="path17"
       inkscape:connector-curvature="0"
       style="fill:#ffffff;fill-opacity:1" />
    <path
       d="m 1915,3059 c -62,-22 -121,-34 -188,-40 -119,-10 -174,-25 -352,-102 -190,-81 -267,-128 -380,-232 -86,-80 -137,-148 -211,-280 -72,-128 -88,-178 -115,-360 -11,-81 -10,-278 4,-315 10,-30 24,-101 37,-191 9,-61 27,-111 85,-234 49,-104 233,-347 291,-386 12,-8 41,-30 64,-49 47,-38 47,-38 161,-100 92,-49 183,-80 329,-111 52,-11 132,-32 177,-46 55,-17 92,-23 110,-18 37,9 72,13 163,19 41,3 84,7 95,10 146,38 189,52 240,78 33,17 78,40 100,52 22,11 58,33 79,48 21,15 45,28 52,28 15,0 200,180 237,232 15,20 32,42 39,50 7,7 26,33 43,58 16,25 33,47 36,50 4,3 28,43 54,90 41,75 60,121 95,245 54,187 52,174 46,310 -5,120 -14,168 -57,320 -26,91 -53,161 -69,180 -16,19 -82,119 -128,195 -25,43 -166,173 -231,214 -25,17 -82,53 -126,82 -98,63 -155,94 -175,94 -8,0 -31,11 -51,24 -19,13 -55,30 -80,36 -24,7 -72,25 -107,41 -97,44 -159,46 -267,8 z m 212,-114 c 11,-8 54,-27 94,-41 86,-31 241,-106 284,-139 17,-12 35,-24 40,-26 6,-2 46,-26 90,-53 61,-37 98,-70 158,-140 139,-162 165,-197 176,-234 5,-20 26,-82 45,-137 51,-146 68,-239 63,-343 -8,-134 -25,-229 -56,-301 -15,-36 -36,-87 -45,-113 -10,-26 -35,-73 -57,-105 -21,-32 -39,-62 -39,-68 0,-17 -114,-163 -146,-188 -16,-12 -54,-47 -84,-77 -30,-31 -81,-71 -114,-90 -32,-19 -70,-43 -85,-52 -14,-10 -33,-21 -41,-24 -8,-4 -37,-17 -65,-29 -140,-64 -169,-70 -345,-69 -121,1 -181,6 -225,18 -33,10 -87,24 -120,32 -33,8 -69,18 -80,23 -11,4 -45,16 -75,25 -109,34 -145,55 -281,159 -50,37 -164,156 -199,206 -64,92 -156,285 -175,366 -48,210 -59,306 -52,439 5,90 12,127 38,196 17,47 34,96 37,110 3,14 28,59 56,100 28,41 57,87 65,102 18,35 142,155 201,195 25,17 81,49 125,72 44,23 87,45 95,50 8,4 31,14 50,21 155,56 177,61 289,69 64,5 126,13 138,19 11,6 52,10 91,9 56,-2 75,2 89,16 21,21 32,21 60,2 z"
       id="path19"
       inkscape:connector-curvature="0"
       style="fill:#ffffff;fill-opacity:1" />
    <path
       d="m 1715,2791 c -33,-3 -66,-10 -73,-14 -7,-5 -42,-13 -77,-18 -64,-9 -175,-51 -175,-66 0,-5 -25,-23 -55,-41 -30,-18 -61,-45 -69,-60 -8,-15 -28,-45 -45,-66 -38,-48 -37,-77 2,-87 38,-10 71,6 89,44 25,51 92,120 139,143 157,77 155,76 313,84 82,4 164,4 182,0 18,-4 35,-5 38,-3 7,8 160,-16 225,-34 74,-21 144,-57 223,-115 68,-50 77,-64 103,-163 11,-42 28,-52 92,-54 58,-2 87,59 38,81 -16,7 -25,19 -25,34 0,13 -8,28 -18,33 -10,5 -31,28 -47,51 -28,41 -125,111 -200,145 -22,10 -51,25 -65,35 -70,48 -420,90 -595,71 z"
       id="path21"
       inkscape:connector-curvature="0"
       style="fill:#ffffff;fill-opacity:1" />
    <path
       d="m 1935,2288 c -3,-7 -9,-132 -15,-278 -14,-347 -14,-351 -30,-377 -19,-30 1,-53 48,-53 57,0 72,21 66,94 -6,64 11,408 23,486 4,25 7,65 7,90 l 1,45 -48,3 c -32,2 -49,-1 -52,-10 z"
       id="path23"
       inkscape:connector-curvature="0"
       style="fill:#ffffff;fill-opacity:1" />
    <path
       d="m 1210,1432 c -28,-4 -60,-29 -60,-47 0,-23 33,-40 79,-42 25,-1 134,-2 241,-2 204,1 210,2 210,46 0,32 -24,41 -88,31 -33,-4 -99,-3 -157,3 -112,12 -188,16 -225,11 z"
       id="path25"
       inkscape:connector-curvature="0"
       style="fill:#ffffff;fill-opacity:1" />
    <path
       d="m 2560,1368 c -47,-5 -151,-7 -232,-4 -139,5 -148,4 -158,-14 -7,-13 -7,-26 -1,-37 8,-16 33,-18 254,-21 242,-3 246,-3 257,18 16,31 9,65 -15,66 -11,1 -58,-3 -105,-8 z"
       id="path27"
       inkscape:connector-curvature="0"
       style="fill:#ffffff;fill-opacity:1" />
    <path
       d="m 742,2968 c -20,-20 -14,-45 18,-78 35,-36 37,-50 12,-73 -27,-25 -49,-21 -64,11 -20,42 -98,41 -98,-2 0,-18 197,-216 214,-216 22,0 46,28 46,55 0,15 -11,32 -30,45 -35,25 -37,40 -10,65 19,17 21,16 56,-19 20,-20 43,-35 50,-32 26,10 15,61 -21,102 -19,21 -35,41 -35,44 0,3 -18,26 -40,50 -22,24 -40,48 -40,52 0,12 -45,9 -58,-4 z"
       id="path29"
       inkscape:connector-curvature="0"
       style="fill:#ffffff;fill-opacity:1" />
    <path
       d="m 2927,2818 c -43,-40 -77,-80 -77,-89 0,-20 41,-59 62,-59 8,0 39,32 68,71 51,69 53,70 94,67 40,-3 41,-4 44,-41 3,-35 -2,-43 -57,-100 -62,-62 -72,-85 -46,-107 39,-32 126,35 166,127 30,71 26,101 -24,156 -42,45 -46,47 -98,47 -53,0 -55,-1 -132,-72 z"
       id="path31"
       inkscape:connector-curvature="0"
       style="fill:#ffffff;fill-opacity:1" />
    <path
       d="m 476,2683 c -22,-31 -26,-49 -26,-105 0,-58 4,-71 27,-99 74,-88 239,-76 267,19 13,46 -8,112 -35,112 -19,0 -42,-37 -32,-53 2,-4 -1,-23 -8,-42 -10,-28 -18,-35 -39,-35 -52,1 -90,52 -90,123 0,47 1,48 73,71 11,3 17,13 15,23 -3,15 -15,19 -65,21 -61,3 -62,3 -87,-35 z"
       id="path33"
       inkscape:connector-curvature="0"
       style="fill:#ffffff;fill-opacity:1" />
    <path
       d="m 3218,2655 c -86,-75 -178,-168 -178,-180 0,-11 33,-44 72,-74 23,-17 73,-24 115,-16 27,5 38,14 49,41 12,28 19,34 45,34 45,0 67,16 75,55 5,30 0,44 -32,94 -21,33 -51,67 -66,75 -26,16 -28,16 -80,-29 z m 114,-98 c 19,-36 -8,-43 -47,-13 -35,27 -36,29 -19,47 16,18 18,18 37,2 10,-10 23,-26 29,-36 z m -108,-66 c 17,-19 17,-20 -4,-31 -21,-11 -60,-5 -60,10 0,41 36,52 64,21 z"
       id="path35"
       inkscape:connector-curvature="0"
       style="fill:#ffffff;fill-opacity:1" />
    <path
       d="m 725,1301 c -6,-5 -54,-31 -107,-58 l -97,-49 -37,33 c -38,35 -60,39 -77,12 -7,-11 6,-38 57,-113 36,-54 66,-106 66,-116 0,-18 30,-50 47,-50 5,0 20,11 32,24 l 23,25 -26,34 c -14,19 -26,39 -26,44 0,17 85,90 144,123 42,24 56,38 56,54 0,36 -33,58 -55,37 z"
       id="path37"
       inkscape:connector-curvature="0"
       style="fill:#ffffff;fill-opacity:1" />
    <path
       d="m 3102,1259 c -58,-27 -88,-97 -66,-153 7,-17 50,-21 73,-7 12,8 13,14 3,36 -18,38 -15,50 15,64 34,15 47,2 33,-33 -16,-42 -25.9324,-83.6068 -2.9324,-131.6068 C 3180.0676,985.39324 3218,965 3268,956 c 51,-9 96.3256,43.75268 114.3256,150.7527 4,25 -14.3256,24.2473 -27.3256,29.2473 -30,12 -50,-10 -50,-55 -0.5,-31.5 -11.7416,-41.9973 -25.9649,-48.6223 -14.2233,-6.625 -31.4283,-9.3777 -49.4283,13.6223 -22,29 -25.6068,64 -9.6068,80 5,5 13,30 16,55 11,82 -51,118 -134,78 z"
       id="path39"
       inkscape:connector-curvature="0"
       sodipodi:nodetypes="cccccccccccccscc"
       style="fill:#ffffff;fill-opacity:1" />
    <path
       d="m 773,1118 c -11,-13 -37,-52 -58,-88 -21,-36 -51,-85 -67,-109 -30,-47 -30,-75 1,-99 20,-16 57,-10 140,23 34,13 81,27 105,30 24,4 56,17 72,30 26,20 27,25 16,49 -12,28 -39,34 -73,15 -16,-8 -26,-7 -45,6 -38,25 -39,42 -5,85 l 32,39 -21,21 c -27,27 -71,26 -97,-2 z m 27,-189 c 0,-5 -33.62924,-21.31462 -44.62924,-21.31462 -22,0 4.03284,33.73305 24.03284,40.73305 C 794.4036,953.41843 800,942 800,929 Z"
       id="path41"
       inkscape:connector-curvature="0"
       sodipodi:nodetypes="csccccccccccscsscs"
       style="fill:#ffffff;fill-opacity:1" />
    <path
       d="m 2952,1053 c 2,-20 8,-28 23,-28 31,0 28,49 -3,53 -20,3 -23,0 -20,-25 z"
       id="path43"
       inkscape:connector-curvature="0"
       style="fill:#ffffff;fill-opacity:1" />
    <path
       d="m 2887,1023 c -10,-10 -8,-63 2,-63 15,0 68.2135,-60.75268 68.2135,-74.75268 C 2957.2135,878.24732 2944,870 2923,855 L 2895.3594,832.57296 2868,850 c -10,13 -23,30 -28,39 -13,24 -64,3 -68,-29 -2,-23 26,-58 108,-135 6,-5 26,-27 46,-49 42,-46 97,-57 102,-20 3,22 -40.6406,92.57296 -68.6406,101.57296 -27,8 9.6406,81.28112 40.6406,81.28112 6,0 22.427,-9.64056 44.427,-31.64056 C 3087.427,764.21352 3114,761 3145,784 c 19,13 17,16 -25,55 -25,23 -49,46 -55,52 -5,5 -19,18 -30,27 -10,9 -39,38 -64,65 -41,44 -68,57 -84,40 z"
       id="path45"
       inkscape:connector-curvature="0"
       sodipodi:nodetypes="csscccccccccssccsccc"
       style="fill:#ffffff;fill-opacity:1" />
    <path
       d="M 923,830 C 790,695 778,680 785,653 c 6,-25 37,-46 57,-38 7,3 22,22 33,43 30,55 51,49 83,-24 15,-34 34,-69 41,-78 21,-25 64,-17 75,15 7,21 2,37 -27,87 -19,33 -33,63 -30,66 4,3 37,6 74,6 58,0 70,3 83,22 11,16 12,26 5,41 -10,17 -18,19 -72,12 -34,-3 -66,-7 -71,-8 -24,-5 -13,23 19,44 39,27 44,45 18,65 -37,28 -59,16 -150,-76 z"
       id="path47"
       inkscape:connector-curvature="0"
       style="fill:#ffffff;fill-opacity:1" />
    <path
       d="m 2693,823 c -15,-6 -17,-49 -3,-58 17,-10 47,4 53,24 8,31 -17,48 -50,34 z"
       id="path49"
       inkscape:connector-curvature="0"
       style="fill:#ffffff;fill-opacity:1" />
    <path
       d="m 1222,753 c -13,-16 -27,-44 -32,-63 -54,-196 -60,-224 -54,-256 10,-55 43,-65 94,-29 23,16 44,33 48,39 4,6 18,17 32,24 14,7 57,41 95,76 62,56 68,65 56,80 -13,15 -16,15 -48,-4 -19,-11 -47,-20 -62,-20 -35,0 -86,37 -73,54 6,6 13,30 17,52 6,37 3,44 -17,58 -29,21 -30,21 -56,-11 z m 62,-189 c 23,-9 20,-22 -11,-49 -32,-27 -58,-17 -47,19 10,32 28,41 58,30 z"
       id="path51"
       inkscape:connector-curvature="0"
       style="fill:#ffffff;fill-opacity:1" />
    <path
       d="m 2500,718 c -62,-36 -75,-47 -75,-68 0,-26 11,-29 52,-16 17,5 23,2 28,-15 4,-12 22,-48 41,-80 39,-66 42,-85 13,-94 -13,-5 -19,-14 -17,-27 4,-28 34,-46 52,-33 49,36 98,65 111,65 19,0 20,24 1,39 -8,7 -27,16 -43,20 -15,4 -28,14 -28,22 -1,8 -16,45 -34,82 l -33,68 25,25 c 27,27 26,54 -2,54 -9,0 -50,-19 -91,-42 z"
       id="path53"
       inkscape:connector-curvature="0"
       style="fill:#ffffff;fill-opacity:1" />
    <path
       d="m 2333,638 c -12,-6 -27,-23 -33,-38 -15,-36 -65,-84 -79,-76 -6,4 -11,18 -11,32 0,29 -32,45 -72,37 -37,-7 -42,-30 -19,-78 45,-88 83,-192 85,-227 2,-47 9,-53 45,-39 37,16 46,61 19,97 -11,13 -17,28 -13,34 13,21 99,-11 136,-52 9,-10 24,-18 33,-18 17,0 56,34 56,49 0,17 -107,71 -153,77 -43,6 -46,8 -35,28 6,11 22,32 36,46 40,41 73,111 60,127 -12,15 -25,16 -55,1 z"
       id="path55"
       inkscape:connector-curvature="0"
       style="fill:#ffffff;fill-opacity:1" />
    <path
       d="m 1489,601 c -20,-16 -31.7527,-13.24732 -23.7527,-37.24732 7,-19 22.8679,-39.87346 38.3243,-40.97599 15.4564,-1.10253 30.5014,17.56585 47.0014,33.06585 L 1582,570 c 21.5058,-0.12767 45.0053,-29.23693 45.0115,-39.24732 C 1627.0115,526.75268 1613,506 1568,497 c -66,-14 -89,-24 -115,-49 -29,-28 -38.573,-37.30338 -38.573,-81.30338 0,-47 8.573,-53.69662 39.573,-74.69662 47,-32 106,-39 160,-18 34,13 45,23 49,44 3,15 3,30 0,34 -8,14 -37,8 -63,-12 -28,-22 -73.0338,-12.0676 -91.0338,5.9324 -21,21 -20.9662,42.0676 9.0338,62.0676 31,22 86,42 114,42 11,0 35,7 54,16 37,18 43,43 23,87 -27,60 -167,91 -220,48 z"
       id="path57"
       inkscape:connector-curvature="0"
       sodipodi:nodetypes="ccsccsccscccccscsccc"
       style="fill:#ffffff;fill-opacity:1" />
    <path
       d="m 1786,581 c -13,-21 -8.7712,-139.4171 1.6643,-173.17731 10.4356,-33.76021 63.797,-139.82685 79.0334,-184.1769 15.2364,-44.35005 88.635,-53.84943 93.3023,19.35421 0,9 4,17 10,17 5,0 13,12 16,27 4,16 13,37 20,48 8,11 14,31 14,46 0,15 7,29 15,33 8,3 15,12 15,21 0,8 5,15 10,15 6,0 10,5 10,11 0,6 7,17 15,25 29,30 -1,85 -39,71 -9,-4 -19,-15 -23,-24 -3,-10 -15,-30 -25,-45 -18,-26 -25,-28 -84,-28 l -52.178,0.98517 L 1850,499 c -16.3326,52.519 -15,91 -39,91 -11,0 -22,-4 -25,-9 z m 159,-201 c 10,-16 -15,-80 -30,-80 -13,0 -35,49 -35,76 0,16 56,19 65,4 z"
       id="path59"
       inkscape:connector-curvature="0"
       sodipodi:nodetypes="czzcsccscsssccccscssccssc"
       style="fill:#ffffff;fill-opacity:1" />
  </g>
</svg>
