<?xml version="1.0" encoding="UTF-8" standalone="no"?>
<!-- Created with Inkscape (http://www.inkscape.org/) -->

<svg
   xmlns:dc="http://purl.org/dc/elements/1.1/"
   xmlns:cc="http://creativecommons.org/ns#"
   xmlns:rdf="http://www.w3.org/1999/02/22-rdf-syntax-ns#"
   xmlns:svg="http://www.w3.org/2000/svg"
   xmlns="http://www.w3.org/2000/svg"
   xmlns:sodipodi="http://sodipodi.sourceforge.net/DTD/sodipodi-0.dtd"
   xmlns:inkscape="http://www.inkscape.org/namespaces/inkscape"
   width="500"
   height="500"
   viewBox="0 0 499.99998 499.99998"
   id="svg2"
   version="1.1"
   inkscape:version="0.91 r13725"
   sodipodi:docname="TMO-i2.svg">
  <defs
     id="defs4" />
  <sodipodi:namedview
     id="base"
     pagecolor="#ffffff"
     bordercolor="#666666"
     borderopacity="1.0"
     inkscape:pageopacity="0.0"
     inkscape:pageshadow="2"
     inkscape:zoom="1"
     inkscape:cx="312.25671"
     inkscape:cy="252.30575"
     inkscape:document-units="px"
     inkscape:current-layer="layer1"
     showgrid="false"
     units="px"
     inkscape:snap-center="true"
     inkscape:snap-object-midpoints="true"
     inkscape:snap-page="false"
     inkscape:snap-bbox="true"
     showguides="true"
     inkscape:guide-bbox="true"
     inkscape:bbox-nodes="true"
     inkscape:bbox-paths="true"
     inkscape:snap-others="true"
     inkscape:snap-nodes="false"
     inkscape:window-width="1920"
     inkscape:window-height="965"
     inkscape:window-x="-8"
     inkscape:window-y="-8"
     inkscape:window-maximized="1" />
  <metadata
     id="metadata7">
    <rdf:RDF>
      <cc:Work
         rdf:about="">
        <dc:format>image/svg+xml</dc:format>
        <dc:type
           rdf:resource="http://purl.org/dc/dcmitype/StillImage" />
        <dc:title></dc:title>
      </cc:Work>
    </rdf:RDF>
  </metadata>
  <g
     inkscape:label="レイヤー 1"
     inkscape:groupmode="layer"
     id="layer1"
     transform="translate(0,-552.36209)">
    <path
       style="opacity:0.98000004;fill:#00a4db;fill-opacity:1;fill-rule:nonzero;stroke:none;stroke-width:0;stroke-linejoin:miter;stroke-miterlimit:4;stroke-dasharray:none;stroke-dashoffset:0;stroke-opacity:1"
       d="M 80 0 C 35.679995 0 0 35.679995 0 80 L 0 420 C 0 464.32005 35.679995 500 80 500 L 420 500 C 464.32001 500 500 464.32005 500 420 L 500 80 C 500 35.679995 464.32001 0 420 0 L 80 0 z M 191.75781 42.832031 L 219.23047 42.832031 L 228.02148 42.832031 L 250 42.832031 L 271.97852 42.832031 L 280.76953 42.832031 L 308.24219 42.832031 L 308.24219 97.777344 L 280.76953 97.777344 L 280.76953 155.72461 L 300.01367 136.48047 L 338.86523 97.626953 L 377.71875 136.48047 L 448.20703 206.96875 L 409.35547 245.82227 L 338.86523 175.33203 L 280.76953 233.42969 L 280.76953 273.60352 L 280.76953 286.95703 C 244.33223 286.95703 206.71661 309.49002 197.87305 344.37891 C 189.5725 377.12553 205.53284 410.7342 239.30469 418.71875 C 267.36186 425.35223 298.25946 406.00989 301.27148 384.76172 C 303.80182 366.91157 297.37727 355.11019 288.65234 347.65625 C 274.84664 335.86168 245.58789 341.57272 244.88672 360.92578 C 244.84652 362.03478 246.34079 364.90392 247.93945 365.36328 C 257.03384 367.97642 262.7742 368.21138 266.83203 371.20898 C 269.6688 373.30457 273.24592 377.67553 272.4707 385.99609 C 270.90057 402.84853 253.24575 406.99244 239.42773 401.6875 C 216.87942 393.03086 199.91337 367.73292 213.63477 338.44922 C 227.261 309.3686 268.58077 294.17829 299.35547 310.41797 C 334.64248 329.03878 350.47164 373.23329 326.61133 414.56055 C 302.60504 456.14056 246.85569 469.16335 206.85547 445.26562 C 147.83701 410.0057 147.32284 351.0931 175.41406 304.10156 C 185.30556 287.55489 201.11595 273.83581 219.23047 264.1543 L 219.23047 233.42969 L 161.13477 175.33203 L 90.644531 245.82227 L 51.792969 206.96875 L 122.28125 136.48047 L 161.13477 97.626953 L 199.98633 136.48047 L 219.23047 155.72461 L 219.23047 97.777344 L 191.75781 97.777344 L 191.75781 42.832031 z "
       transform="translate(0,552.36209)"
       id="rect4218" />
    <g
       id="g4211"
       transform="matrix(1.0989127,0,0,1.0989127,-17.887574,-101.92417)">
      <path
         sodipodi:nodetypes="ccccccccccccccc"
         inkscape:connector-curvature="0"
         id="rect4159"
         d="m 223.02512,634.37116 0,210 9.5,0 0,-210 z m 16,0 0,210 9.5,0 0,-210 z m 16,0 0,210 9.5,0 0,-210 z"
         style="opacity:0.98999999;fill:#6e8c80;fill-opacity:1;fill-rule:nonzero;stroke:none;stroke-width:0;stroke-linejoin:miter;stroke-miterlimit:4;stroke-dasharray:none;stroke-dashoffset:0;stroke-opacity:1" />
    </g>
  </g>
</svg>
