<?xml version="1.0" encoding="UTF-8" standalone="no"?>
<svg
   xmlns:dc="http://purl.org/dc/elements/1.1/"
   xmlns:cc="http://creativecommons.org/ns#"
   xmlns:rdf="http://www.w3.org/1999/02/22-rdf-syntax-ns#"
   xmlns:svg="http://www.w3.org/2000/svg"
   xmlns="http://www.w3.org/2000/svg"
   xmlns:sodipodi="http://sodipodi.sourceforge.net/DTD/sodipodi-0.dtd"
   xmlns:inkscape="http://www.inkscape.org/namespaces/inkscape"
   width="500"
   height="500"
   viewBox="0 0 500 500"
   version="1.1"
   id="svg2"
   inkscape:version="0.91 r13725"
   sodipodi:docname="TWO-tw-b-i.svg">
  <metadata
     id="metadata10">
    <rdf:RDF>
      <cc:Work
         rdf:about="">
        <dc:format>image/svg+xml</dc:format>
        <dc:type
           rdf:resource="http://purl.org/dc/dcmitype/StillImage" />
        <dc:title></dc:title>
      </cc:Work>
    </rdf:RDF>
  </metadata>
  <defs
     id="defs8" />
  <sodipodi:namedview
     pagecolor="#ffffff"
     bordercolor="#666666"
     borderopacity="1"
     objecttolerance="10"
     gridtolerance="10"
     guidetolerance="10"
     inkscape:pageopacity="0"
     inkscape:pageshadow="2"
     inkscape:window-width="1920"
     inkscape:window-height="965"
     id="namedview6"
     showgrid="false"
     inkscape:zoom="0.58553404"
     inkscape:cx="-227.01863"
     inkscape:cy="168.09317"
     inkscape:window-x="-8"
     inkscape:window-y="-8"
     inkscape:window-maximized="1"
     inkscape:current-layer="svg2" />
  <path
     style="opacity:0.98999999;fill:#000000;fill-opacity:1;fill-rule:nonzero;stroke:none;stroke-width:0;stroke-linejoin:miter;stroke-miterlimit:4;stroke-dasharray:none;stroke-dashoffset:0;stroke-opacity:1"
     d="M 80 0 C 35.68 0 0 35.68 0 80 L 0 420 C 0 464.32 35.68 500 80 500 L 420 500 C 464.32 500 500 464.32 500 420 L 500 80 C 500 35.68 464.32 0 420 0 L 80 0 z M 440.47461 23.800781 C 441.03333 23.815113 441.59856 23.85631 442.16992 23.923828 C 443.942 23.888278 445.71501 23.877972 447.48633 23.951172 C 454.28023 23.311122 460.10986 27.704247 463.55469 33.197266 C 466.06859 38.663777 464.65327 45.364613 462.68945 50.802734 C 452.146 67.989192 437.87885 82.824361 422.0918 95.292969 C 408.15796 104.77426 392.69722 112.21932 376.66602 117.38867 C 362.1348 122.20733 346.75335 122.25739 331.63281 121.55859 C 323.48255 128.83157 315.39669 136.17594 307.12695 143.3125 C 303.22034 145.11578 306.0363 146.5775 308.53906 148.22852 C 323.19989 158.73475 336.55625 173.356 339.34961 191.80469 C 339.94543 202.30794 334.43462 213.63863 325.10938 218.83203 C 336.1354 241.91068 332.81516 270.0013 320.19336 291.75 C 315.62211 302.04994 306.05043 308.37008 297.23633 314.69336 C 304.70884 344.97222 312.82791 375.02638 321.99805 404.83984 C 326.12618 422.74298 334.26358 439.16134 339.95312 456.54883 C 353.65527 451.37007 366.69313 444.22291 379.80078 437.61914 C 382.97078 436.44011 388.64346 432.10696 390.78711 436.85547 C 391.1906 441.64703 384.86392 443.35728 381.95312 446.11914 C 364.67467 456.73198 346.53111 468.52467 325.73438 469.94727 C 310.46286 471.77289 295.27926 466.93893 282.38867 458.93555 C 274.13756 453.20979 263.57234 449.28726 253.71875 453.45508 C 241.82913 455.95495 234.70296 466.25345 226.72852 474.40234 C 224.5277 476.92269 220.75469 481.62899 217.57227 477.61328 C 213.92576 472.79328 216.31618 465.52013 211.53125 461.10742 C 206.38984 454.35212 198.15575 448.18556 189.4082 449.24609 C 176.79564 448.33261 164.1576 456.71681 159.76562 468.45703 C 158.78586 475.2026 148.12214 473.49859 148.18164 467.24023 C 148.34867 458.44245 155.69145 451.66626 162.07227 446.50586 C 165.56714 442.94382 172.57445 443.84453 174.23242 438.69141 C 180.2838 417.29507 188.09845 396.3886 192.86133 374.63281 C 190.15721 374.64089 187.45069 374.28397 184.87305 373.44727 C 174.35497 369.06377 166.0364 358.67352 164.87695 347.19727 C 155.95773 354.41364 145.94839 360.34514 137.14062 367.57617 C 133.16287 375.70658 122.69324 378.64512 114.64453 375.19531 C 103.11794 369.17603 97.879424 355.90345 93.757812 344.32227 C 91.733463 332.73584 90.318887 319.59506 96.251953 308.87891 C 99.778324 302.48746 108.06692 302.34194 114.30664 303.96484 C 139.27333 310.34742 164.54554 300.65199 188.98633 295.93945 C 180.74958 286.89604 177.95923 274.51239 173.87109 263.32617 C 173.31677 250.18599 172.78325 236.20739 177.51758 223.58203 C 169.50824 226.45558 161.05051 231.0058 152.56641 233.86133 C 135.57939 241.09104 117.13018 244.67268 98.773438 246.89844 C 83.214521 248.09579 67.320478 248.74903 51.876953 246.2168 C 41.036046 244.6131 32.959732 236.56536 27.115234 227.85352 C 19.68891 219.03852 20.183969 206.48225 24.371094 196.34766 C 26.354348 187.81571 31.151641 180.0611 38.582031 175.25781 C 48.800228 169.39725 61.698755 168.85686 72.916016 171.76367 C 80.450004 175.3691 88.498848 179.88248 92.794922 187.31641 C 95.376351 196.09831 95.961748 205.96053 93.160156 214.76953 C 90.169919 221.85154 86.801698 229.57265 80.984375 234.69922 C 76.182544 237.405 79.418093 237.50714 83.431641 236.9375 C 118.31134 233.46323 152.75221 223.92191 184.67188 209.16797 C 188.09081 207.8536 193.03955 206.52796 187.70898 203.86523 C 175.31166 194.65861 167.19121 180.1028 166.78906 164.57812 C 165.01362 154.48328 169.62035 144.99168 174.92773 136.74414 C 186.62108 121.0316 202.36964 107.06755 221.63672 101.8418 C 237.43195 98.380559 253.87304 100.11047 269.83008 101.42188 C 289.4808 103.16664 308.8605 107.62841 328.27344 110.28906 C 341.29293 100.23 351.31356 86.817475 363.04492 75.347656 C 380.61685 60.322774 396.83308 42.967528 417.63281 32.300781 C 425.07636 29.087967 432.09386 23.585812 440.47461 23.800781 z M 444.26758 33.583984 C 443.60753 33.570223 442.95839 33.585773 442.33398 33.626953 C 429.03358 33.945358 417.51809 41.915891 407.25781 49.59375 C 384.34013 69.432728 361.65337 89.691647 341.22461 112.13281 C 358.88059 111.14534 376.15822 107.39041 392.32227 100.05078 C 407.32805 94.50344 419.60895 84.22099 430.96094 73.185547 C 440.35768 63.314352 453.68227 54.564062 455.26953 39.839844 C 454.05838 35.236492 448.88791 33.680312 444.26758 33.583984 z M 239.64258 109.7168 C 234.60142 109.70252 229.95468 110.74093 225.11914 112.64648 C 204.09546 116.732 189.39848 134.28867 179.01562 151.8125 C 174.39337 158.45547 176.18002 166.66437 179.00195 173.61914 C 182.54245 185.82457 192.18976 194.67526 202.71289 201.0918 C 212.85196 195.93552 223.16814 191.10938 233.07812 185.51562 C 228.09936 179.6579 224.10739 172.8353 223.16797 165.07227 C 222.90083 156.86091 224.67422 147.47282 230.88086 141.62695 C 249.98517 128.76638 276.24205 129.6888 296.13867 140.31836 C 304.1754 133.83506 311.8946 126.97558 319.68555 120.20312 C 294.15022 114.98432 268.1056 109.64996 241.82812 109.78906 C 241.09013 109.74354 240.36274 109.71884 239.64258 109.7168 z M 258.61523 142.4668 C 257.22422 142.41451 255.84477 142.60566 254.48438 142.875 C 245.44896 143.77536 236.46851 149.67772 234.83789 159.10352 C 232.01236 166.76884 236.22319 174.68802 241.62891 179.9668 C 245.19879 178.79369 248.46258 175.28144 251.7832 173.11328 C 262.95317 163.51489 275.84583 156.3404 287.54492 147.49219 C 278.42743 143.62928 268.35114 142.75523 258.61523 142.4668 z M 296.99219 152.16211 C 282.05167 163.87139 266.70855 175.04932 251.16406 185.94727 C 253.65224 188.08229 259.10304 189.61866 262.53125 192.12109 C 266.87993 194.58744 261.85254 199.16383 259.69336 201.10547 C 252.84114 199.51092 246.60806 196.26781 240.60742 192.71875 C 230.74311 196.01286 221.56696 202.71961 211.82617 207.01758 C 220.37727 210.38519 228.8087 214.12248 237.70312 216.53125 C 253.4582 221.79883 270.27238 221.22044 286.48047 220.375 C 295.97047 218.55776 306.30636 216.94807 314.95898 212.06641 C 321.067 207.34737 329.52006 201.92061 330.08789 193.44727 C 327.4004 175.11303 312.75795 161.33949 297.52344 152.43555 L 296.99219 152.16211 z M 200.16406 212.73438 C 196.45509 214.73244 192.31785 216.33861 188.32422 217.86133 C 184.0614 223.18048 182.63995 230.76149 181.41602 237.61914 C 178.52119 253.69524 182.52865 269.87044 190.12891 284.18945 C 192.48521 287.42824 195.24624 294.32286 200.17578 292.93359 C 212.59067 287.9123 225.77646 284.39269 238.15625 279.11133 C 240.27826 274.32717 249.13346 278.02881 245.56641 282.72852 C 237.31201 292.7452 226.05839 299.82778 215.77344 307.58984 C 214.1787 309.57324 221.07128 310.28676 223.07617 311.26953 C 239.63457 315.07194 256.91272 319.5889 273.95117 315.91797 C 283.69411 314.8225 292.21253 309.84163 299.47461 303.5 C 311.19507 295.96172 317.0246 282.78326 320.96289 269.9082 C 326.47515 254.3073 325.15416 237.25707 318.85547 222.17383 C 312.8075 223.20955 307.12096 225.72753 301.16211 227.16602 C 282.09738 233.24849 261.55388 233.00469 242.2793 228.04492 C 227.50557 225.13238 213.7678 218.91891 200.16406 212.73438 z M 214.5625 232.67969 C 214.96644 232.64392 215.37693 232.72061 215.76758 232.82031 C 222.12182 234.08879 221.84562 241.5595 221.82422 246.57227 C 222.21721 252.14963 221.42109 261.00414 214.51562 262.05664 C 207.97375 263.49128 205.12842 255.46543 206.16016 250.27148 C 206.34027 243.83514 207.1755 234.76139 214.5625 232.67969 z M 272.80469 234.53125 C 273.54083 234.54521 274.27832 234.62781 274.96875 234.88867 C 280.3147 238.25771 279.91733 246.04055 279.98633 251.63477 C 279.52114 255.90425 278.21376 262.52324 273.2168 263.26367 C 266.27674 263.05988 263.35764 255.41111 264.19922 249.43164 C 264.22147 243.99082 264.93174 234.96795 272.07031 234.53711 C 272.31355 234.53084 272.55931 234.5266 272.80469 234.53125 z M 223.05273 292.63477 C 211.04321 296.66039 199.32071 301.75445 186.81055 304.09766 C 165.61958 307.73627 144.39719 315.81822 122.60742 313.10547 C 131.62847 325.99225 135.88668 341.51656 137.94531 356.93945 C 149.59739 349.17617 160.66338 340.42781 171.58398 331.67773 C 177.71359 328.93867 174.76935 321.53061 177.74609 316.55078 C 182.37363 308.24148 192.89126 307.09007 201.42188 307.64844 C 208.61374 304.36996 214.81017 298.45354 221.42188 293.88281 L 223.05273 292.63477 z M 106.98047 309.34375 C 105.73009 309.40219 104.44822 310.39382 103.51562 311.23828 C 96.902518 319.05071 100.89323 330.28819 100.14453 339.46875 C 102.388 348.66063 106.73105 358.02076 113.27734 365.09961 C 117.37996 370.45078 126.48553 371.62351 129.9707 364.9043 C 131.81245 355.90357 128.37408 346.65209 126.2832 337.89844 C 122.54379 327.1341 117.61112 314.91004 106.98047 309.34375 z M 208.05469 313.12109 C 207.76172 313.12649 207.47137 313.34838 207.94531 313.58789 C 208.86599 316.32421 210.51572 314.49088 208.42188 313.38672 C 208.40716 313.19128 208.23047 313.11786 208.05469 313.12109 z M 193.02734 314.83789 C 192.64562 314.85823 192.26615 314.95205 191.89453 315.0293 C 182.17133 316.18032 182.35875 330.38778 189.25586 334.89453 C 193.12076 336.98083 197.89703 336.81366 200.30664 332.76172 C 205.76242 326.62991 201.45683 315.8072 193.41016 314.8457 C 193.28242 314.83248 193.15459 314.83111 193.02734 314.83789 z M 216.85156 317.28711 C 215.02228 326.74751 211.67063 335.78474 208.89453 344.98047 C 206.38397 348.98141 209.39749 351.82663 212.40039 354.4082 C 220.49455 363.18542 233.82179 362.02555 244.45703 359.7793 C 247.93317 357.75769 251.68066 361.91779 249.4375 365.13281 C 244.71216 369.64998 237.0997 368.31967 231.10742 368.99609 C 222.31153 369.99982 213.9022 366.26968 207.48047 360.44336 C 203.67183 355.89279 204.13976 366.08634 202.49805 368.64062 C 196.91478 392.62523 188.6976 415.64331 181.65234 439.14844 C 188.90226 439.69378 196.89338 436.51466 203.43164 440.62891 C 213.10002 444.09182 220.71879 451.79369 224.33594 461.36328 C 231.50967 455.78338 238.99926 447.9732 248.28125 444.49414 C 255.53317 440.38963 264.01346 439.86508 271.95703 441.99414 C 284.06275 445.65256 294.06431 454.0157 305.64453 458.86719 C 314.42154 459.62837 323.58345 459.44884 332.35547 457.49023 C 327.22222 442.21318 319.84487 427.72207 316.19922 412.04102 C 306.29979 381.40641 298.43255 350.06262 290.41016 318.97461 C 282.23998 321.769 273.67396 323.58275 265.20898 325.1875 C 249.33597 325.01041 233.48708 321.97168 218.20508 317.78516 L 217.76562 317.62305 L 216.85156 317.28711 z M 178.53711 336.20703 C 176.3672 336.34527 173.42678 341.05008 171.32031 341.74219 C 171.69782 353.83936 180.77221 367.65196 194.05469 366.94531 C 196.7193 365.51553 196.17369 360.79849 197.61719 358.32031 C 200.77734 353.05222 197.77239 348.15056 195.25391 343.28906 C 189.67384 342.74044 183.33385 342.01301 179.89648 336.94727 C 179.49752 336.38745 179.03786 336.17513 178.53711 336.20703 z "
     id="rect4151" />
</svg>
