<?xml version="1.0" encoding="UTF-8" standalone="no"?>
<svg
   xmlns:dc="http://purl.org/dc/elements/1.1/"
   xmlns:cc="http://creativecommons.org/ns#"
   xmlns:rdf="http://www.w3.org/1999/02/22-rdf-syntax-ns#"
   xmlns:svg="http://www.w3.org/2000/svg"
   xmlns="http://www.w3.org/2000/svg"
   xmlns:sodipodi="http://sodipodi.sourceforge.net/DTD/sodipodi-0.dtd"
   xmlns:inkscape="http://www.inkscape.org/namespaces/inkscape"
   width="500"
   height="500"
   viewBox="0 0 500 500"
   version="1.1"
   id="svg2"
   inkscape:version="0.91 r13725"
   sodipodi:docname="TWO-tw-b.svg">
  <metadata
     id="metadata10">
    <rdf:RDF>
      <cc:Work
         rdf:about="">
        <dc:format>image/svg+xml</dc:format>
        <dc:type
           rdf:resource="http://purl.org/dc/dcmitype/StillImage" />
        <dc:title></dc:title>
      </cc:Work>
    </rdf:RDF>
  </metadata>
  <defs
     id="defs8" />
  <sodipodi:namedview
     pagecolor="#ffffff"
     bordercolor="#666666"
     borderopacity="1"
     objecttolerance="10"
     gridtolerance="10"
     guidetolerance="10"
     inkscape:pageopacity="0"
     inkscape:pageshadow="2"
     inkscape:window-width="1920"
     inkscape:window-height="965"
     id="namedview6"
     showgrid="false"
     inkscape:zoom="0.82807018"
     inkscape:cx="55.175831"
     inkscape:cy="311.7928"
     inkscape:window-x="-8"
     inkscape:window-y="-8"
     inkscape:window-maximized="1"
     inkscape:current-layer="svg2" />
  <path
     style="fill:#000000"
     d="m 454.49219,14.314453 c -9.3833,-1.108818 -17.03513,5.081675 -25.18463,8.59919 -21.34906,10.948475 -37.99461,28.761751 -56.03064,44.183462 -12.0412,11.772762 -22.32567,25.539103 -35.68903,35.863835 -19.92567,-2.73092 -39.81786,-7.30989 -59.98758,-9.100726 -16.37849,-1.346045 -33.25312,-3.121851 -49.46554,0.430802 -19.77595,5.363773 -35.94117,19.696664 -47.94336,35.824214 -5.44755,8.46536 -10.17495,18.20839 -8.35262,28.56987 0.41278,15.93471 8.74664,30.87331 21.47138,40.32311 5.47136,2.73305 0.39305,4.0942 -3.11618,5.44328 -32.76272,15.14362 -68.11376,24.93756 -103.914693,28.50359 -4.11955,0.58469 -7.440367,0.48037 -2.511719,-2.29688 5.970979,-5.26197 9.426871,-13.18798 12.496094,-20.45703 2.87558,-9.04166 2.274607,-19.16388 -0.375,-28.17773 -4.409549,-7.63028 -12.669379,-12.26224 -20.402344,-15.96289 -11.513529,-2.98358 -24.75411,-2.42943 -35.242187,3.58593 -7.62664,4.93015 -12.550303,12.8892 -14.585938,21.64649 -4.297714,10.40226 -4.806058,23.29008 2.816406,32.33789 5.998864,8.94194 14.288781,17.2016 25.416016,18.84766 15.851414,2.59911 32.164887,1.92924 48.134735,0.70026 18.84159,-2.28454 37.77963,-5.96007 55.21532,-13.38072 8.70818,-2.93095 17.38804,-7.60254 25.60893,-10.55197 -4.85937,12.95882 -4.31235,27.30621 -3.74339,40.79343 4.19613,11.48167 7.06057,24.19383 15.51487,33.4761 -25.08632,4.837 -51.0251,14.78795 -76.65121,8.23679 -6.40452,-1.66576 -14.91286,-1.5158 -18.53238,5.04447 -6.089759,10.99919 -4.6364,24.48646 -2.558594,36.3789 4.230474,11.88706 9.606474,25.5112 21.437504,31.68945 8.26129,3.54093 19.00701,0.52288 23.08984,-7.82226 9.04038,-7.42202 19.31397,-13.50906 28.46875,-20.91602 1.19009,11.77936 9.72951,22.44406 20.52539,26.94336 2.64572,0.85879 5.42368,1.22509 8.19922,1.2168 -4.88867,22.3304 -12.9099,43.78854 -19.12109,65.75 -1.70177,5.28922 -8.89525,4.36535 -12.48243,8.02148 -6.54935,5.2967 -14.08637,12.25111 -14.25781,21.28125 -0.061,6.42367 10.88499,8.17373 11.89063,1.25 4.50798,-12.0503 17.48023,-20.65565 30.42591,-19.71803 8.97858,-1.08855 17.42969,5.23939 22.7069,12.17311 4.9113,4.52926 2.45835,11.99605 6.20117,16.94336 3.26649,4.12176 7.13949,-0.70995 9.39844,-3.29687 8.18507,-8.36412 15.49948,-18.9341 27.70312,-21.5 10.11384,-4.27789 20.95674,-0.25199 29.42578,5.625 13.23105,8.21476 28.81539,13.17657 44.49024,11.30273 21.34601,-1.46017 39.97027,-13.56388 57.70508,-24.45703 2.98768,-2.83481 9.48054,-4.59165 9.0664,-9.50977 -2.20027,-4.87393 -8.02325,-0.42648 -11.27697,0.78367 -13.45385,6.77819 -26.83476,14.11564 -40.89881,19.43118 -5.83979,-17.84672 -14.19323,-34.69867 -18.43039,-53.07467 -9.41234,-30.60088 -17.74545,-61.45028 -25.41531,-92.52885 9.04689,-6.49029 18.87256,-12.97665 23.56454,-23.54864 12.95517,-22.32311 16.36208,-51.15574 5.04483,-74.84394 9.57152,-5.33056 15.22875,-16.95957 14.61719,-27.74023 -2.86714,-18.93595 -16.57695,-33.94482 -31.625,-44.72852 -2.56886,-1.69464 -5.46023,-3.19524 -1.45044,-5.04615 8.48815,-7.32504 16.78805,-14.86182 25.15357,-22.32689 15.5199,0.71725 31.30763,0.66468 46.22265,-4.28125 16.4546,-5.30588 32.32511,-12.94798 46.62696,-22.679691 16.20401,-12.797949 30.84801,-28.02368 41.66992,-45.664062 2.01569,-5.581752 3.46701,-12.459422 0.88672,-18.070313 -3.53581,-5.638099 -9.51885,-10.147188 -16.49219,-9.490234 -1.81811,-0.07513 -3.63815,-0.06579 -5.45703,-0.0293 z m 0.16797,9.960938 c 5.12721,-0.338144 11.85694,0.976205 13.27766,6.37613 -1.62919,15.113109 -15.30617,24.094873 -24.95109,34.226779 -11.65182,11.326915 -24.25651,21.880976 -39.65861,27.574825 -16.59097,7.533483 -34.32496,11.386835 -52.44726,12.400395 20.96831,-23.033893 44.25349,-43.827758 67.77647,-64.19072 10.53126,-7.880645 22.35114,-16.060594 36.00283,-16.387409 z M 248.85938,102.44727 c 26.9715,-0.14277 53.70429,5.33281 79.91406,10.68945 -7.99672,6.95133 -15.92092,13.99195 -24.16992,20.64648 -20.42212,-10.91031 -47.37157,-11.85649 -66.98047,1.34375 -6.37056,6.00027 -8.19021,15.63623 -7.91602,24.06446 0.96424,7.96807 5.06163,14.96997 10.17188,20.98242 -10.17173,5.74148 -20.76111,10.69582 -31.16797,15.98828 -10.80106,-6.58601 -20.70382,-15.67012 -24.33782,-28.19791 -2.89646,-7.13847 -4.73069,-15.56373 0.0136,-22.38217 10.65708,-17.98665 25.74332,-36.00773 47.32226,-40.20117 5.67229,-2.2353 11.09047,-3.30739 17.1504,-2.93359 z m 17.23046,33.54101 c 9.99305,0.29607 20.33505,1.19326 29.69336,5.1582 -12.00809,9.08191 -25.24141,16.44704 -36.70639,26.29895 -3.40832,2.22541 -6.75835,5.82898 -10.42251,7.03309 -5.5485,-5.41821 -9.87087,-13.54629 -6.97071,-21.41407 1.67368,-9.67474 10.89196,-15.73212 20.16602,-16.65625 1.39633,-0.27646 2.81247,-0.47359 4.24023,-0.41992 z m 39.93555,10.23242 c 15.63688,9.13912 30.66536,23.27724 33.42383,42.09571 -0.58283,8.69715 -9.2576,14.26628 -15.52695,19.10996 -8.88114,5.0106 -19.49021,6.66347 -29.23086,8.52871 -16.63617,0.86777 -33.8953,1.46028 -50.06649,-3.94642 -9.12935,-2.4724 -17.78352,-6.30797 -26.56047,-9.76452 9.99806,-4.41149 19.41619,-11.29466 29.54102,-14.67578 6.15914,3.6428 12.55665,6.97076 19.58984,8.60742 2.21622,-1.99292 7.3776,-6.68921 2.91407,-9.2207 -3.51876,-2.56852 -9.11407,-4.14648 -11.66797,-6.33789 15.95505,-11.18579 31.70394,-22.6592 47.03906,-34.67774 l 0.54492,0.28125 z m -99.93164,61.89258 c 13.96304,6.34788 28.06378,12.72447 43.22772,15.71393 19.78365,5.09077 40.86949,5.34075 60.43774,-0.90238 6.11624,-1.47648 11.95301,-4.06096 18.16071,-5.12405 6.46506,15.48162 7.82192,32.98317 2.16406,48.9961 -4.0423,13.21512 -10.02636,26.74136 -22.05637,34.47874 -7.45389,6.50912 -16.19613,11.62049 -26.19639,12.7449 -17.48847,3.76788 -35.22416,-0.86768 -52.21989,-4.77052 -2.05783,-1.00872 -9.131,-1.74156 -7.49414,-3.77734 10.55659,-7.96708 22.10571,-15.23635 30.57812,-25.51758 3.66126,-4.82384 -5.42741,-8.62342 -7.60547,-3.71289 -12.70676,5.42085 -26.23962,9.03358 -38.98242,14.1875 -5.05974,1.42595 -7.89516,-5.64956 -10.31368,-8.9739 -7.801,-14.69721 -11.91348,-31.3008 -8.94218,-47.80149 1.25625,-7.03878 2.71567,-14.81966 7.09108,-20.2793 4.09911,-1.56294 8.34417,-3.21089 12.15111,-5.26172 z m 14.7793,20.4707 c -7.58211,2.13669 -8.44014,11.4503 -8.625,18.05664 -1.059,5.33113 1.8615,13.57018 8.57617,12.09766 7.08783,-1.0803 7.90504,-10.16952 7.50167,-15.8942 0.0219,-5.14516 0.30556,-12.81357 -6.21651,-14.11556 -0.40097,-0.1024 -0.82172,-0.18125 -1.23633,-0.14454 z m 59.02734,1.90625 c -7.32712,0.44222 -8.05724,9.70456 -8.08008,15.28907 -0.86382,6.13741 2.13249,13.9881 9.25586,14.19726 5.12893,-0.75998 6.47175,-7.55328 6.94922,-11.93554 -0.0708,-5.74196 0.33675,-13.73144 -5.15039,-17.18946 -0.94489,-0.357 -1.97598,-0.38707 -2.97461,-0.36133 z m -51.98633,60.91407 c -6.78634,4.69145 -13.14732,10.76371 -20.52914,14.12878 -8.75593,-0.57312 -19.55118,0.60807 -24.30094,9.13684 -3.05537,5.11135 -0.0336,12.71535 -6.32507,15.52676 -11.20904,8.98118 -22.56666,17.96196 -34.52649,25.93027 -2.11301,-15.83022 -6.48288,-31.76504 -15.74219,-44.99218 22.36527,2.78439 44.14842,-5.51059 65.89908,-9.2453 12.84058,-2.40511 24.87186,-7.63448 37.19858,-11.76642 -0.55794,0.42708 -1.11588,0.85416 -1.67383,1.28125 z m -117.46484,15.86914 c 10.91143,5.7133 15.97432,18.25994 19.8125,29.30859 2.14611,8.98485 5.67556,18.48029 3.78516,27.71875 -3.57722,6.89667 -12.92292,5.6927 -17.1339,0.20019 -6.71919,-7.26581 -11.17659,-16.87199 -13.47931,-26.30664 0.76847,-9.42303 -3.32887,-20.95681 3.45891,-28.97558 0.95724,-0.86677 2.27324,-1.88533 3.55664,-1.94531 z m 104.12109,4.15039 c 2.14915,1.13332 0.45672,3.01367 -0.48828,0.20508 -0.77834,-0.39334 0.44801,-0.74001 0.48828,-0.20508 z m -15.4082,1.49609 c 8.2592,0.9869 12.67798,12.09688 7.07812,18.39063 -2.47326,4.15897 -7.37482,4.33085 -11.34179,2.18945 -7.07928,-4.62579 -7.27103,-19.20919 2.70898,-20.39062 0.50858,-0.10573 1.03024,-0.24374 1.55469,-0.18946 z m 25.44922,3.01758 c 15.68562,4.2971 31.95385,7.41589 48.24609,7.59766 8.68855,-1.64714 17.48124,-3.50876 25.86719,-6.37696 8.23429,31.9091 16.30818,64.08085 26.46907,95.52458 3.74194,16.09521 11.31484,30.9687 16.58366,46.64925 -9.0037,2.01033 -18.40664,2.19453 -27.41546,1.41325 -11.88607,-4.97963 -22.15323,-13.56249 -34.57868,-17.31755 -8.15337,-2.18528 -16.85732,-1.64651 -24.30078,2.56641 -9.52713,3.57095 -17.21493,11.58718 -24.57812,17.31445 -3.71269,-9.82235 -11.53188,-17.7288 -21.45561,-21.28318 -6.71094,-4.22291 -14.91354,-0.95981 -22.35494,-1.51955 7.23134,-24.12595 15.66478,-47.75144 21.39552,-72.36954 1.68507,-2.62174 1.20502,-13.08441 5.11425,-8.41366 6.59134,5.98021 15.22376,9.80954 24.25195,8.77929 6.15056,-0.69428 13.9643,0.6697 18.81445,-3.96679 2.3024,-3.29992 -1.54543,-7.56848 -5.11337,-5.49348 -10.91614,2.30558 -24.59432,3.49471 -32.90225,-5.51434 -3.08223,-2.64975 -6.17455,-5.56918 -3.59766,-9.67578 2.84941,-9.4386 6.28843,-18.71551 8.16602,-28.42578 l 0.93832,0.34577 0.45035,0.16595 z m -39.32031,19.66797 c 3.52816,5.19953 10.03622,5.94665 15.76367,6.50976 2.585,4.9899 5.66982,10.02184 2.4262,15.42908 -1.48162,2.54363 -0.92168,7.38463 -3.65667,8.85217 -13.63329,0.72533 -22.94846,-13.45247 -23.33594,-25.86914 2.66105,-0.87432 6.61873,-7.98641 8.80274,-4.92187 z"
     id="path4"
     inkscape:connector-curvature="0" />
</svg>
