<?xml version="1.0" encoding="UTF-8" standalone="no"?>
<svg
   xmlns:dc="http://purl.org/dc/elements/1.1/"
   xmlns:cc="http://creativecommons.org/ns#"
   xmlns:rdf="http://www.w3.org/1999/02/22-rdf-syntax-ns#"
   xmlns:svg="http://www.w3.org/2000/svg"
   xmlns="http://www.w3.org/2000/svg"
   xmlns:sodipodi="http://sodipodi.sourceforge.net/DTD/sodipodi-0.dtd"
   xmlns:inkscape="http://www.inkscape.org/namespaces/inkscape"
   width="500"
   height="500"
   viewBox="0 0 500 500"
   version="1.1"
   id="svg2"
   inkscape:version="0.91 r13725"
   sodipodi:docname="TWO-tw.svg">
  <metadata
     id="metadata10">
    <rdf:RDF>
      <cc:Work
         rdf:about="">
        <dc:format>image/svg+xml</dc:format>
        <dc:type
           rdf:resource="http://purl.org/dc/dcmitype/StillImage" />
        <dc:title></dc:title>
      </cc:Work>
    </rdf:RDF>
  </metadata>
  <defs
     id="defs8" />
  <sodipodi:namedview
     pagecolor="#ffffff"
     bordercolor="#666666"
     borderopacity="1"
     objecttolerance="10"
     gridtolerance="10"
     guidetolerance="10"
     inkscape:pageopacity="0"
     inkscape:pageshadow="2"
     inkscape:window-width="1920"
     inkscape:window-height="965"
     id="namedview6"
     showgrid="false"
     inkscape:zoom="0.58553404"
     inkscape:cx="323.90825"
     inkscape:cy="214.2544"
     inkscape:window-x="-8"
     inkscape:window-y="-8"
     inkscape:window-maximized="1"
     inkscape:current-layer="svg2" />
  <path
     d="m 456.20979,16.288628 c -4.54493,0.04101 -8.90098,0.303388 -9.68011,0.58307 -0.77913,0.27968 -6.94135,3.211954 -13.69382,6.516162 -9.47548,4.636667 -14.86343,8.079652 -23.61003,15.087158 -6.23304,4.993729 -13.89699,11.483722 -17.031,14.422206 -3.13401,2.938485 -8.65876,7.829423 -12.27721,10.868752 -3.61847,3.039327 -8.84606,8.139094 -11.61687,11.332814 -2.77081,3.193719 -10.31422,11.225264 -16.76313,17.847877 -8.22417,8.445703 -12.35976,12.036193 -13.85018,12.024623 -1.16869,-0.009 -5.73723,-0.62767 -10.15231,-1.37469 -4.41508,-0.74701 -11.42725,-2.02527 -15.58262,-2.84058 -4.15536,-0.815305 -9.25513,-1.682032 -11.33281,-1.926059 -2.07769,-0.244027 -6.75247,-0.860656 -10.38842,-1.370286 -3.63594,-0.50963 -10.86061,-1.401336 -16.05482,-1.98157 -5.1942,-0.580233 -15.60623,-1.100009 -23.13783,-1.155058 -9.74692,-0.07124 -15.73532,0.359842 -20.77682,1.495649 -3.89566,0.877656 -10.27037,3.190115 -14.16602,5.138804 -3.89566,1.94868 -10.05787,5.93135 -13.69382,8.85038 -3.63594,2.91903 -9.74081,8.65965 -13.56637,12.75694 -5.09632,5.4583 -8.05997,9.72157 -11.08724,15.94921 -3.58079,7.36632 -4.13221,9.31808 -4.13568,14.63822 -0.002,3.37623 0.40565,8.68849 0.90633,11.80501 0.50068,3.11653 1.8794,8.13573 3.06383,11.15377 1.18443,3.01805 3.95967,7.79908 6.16721,10.62451 2.20754,2.82544 6.73857,7.3683 10.06895,10.09526 3.33038,2.72696 5.94108,5.1706 5.80155,5.43031 -0.13953,0.25971 -3.60809,1.89554 -7.70794,3.6352 -4.09984,1.73964 -12.55403,5.31027 -18.78707,7.93473 -6.23305,2.62446 -15.58262,6.03261 -20.77683,7.57368 -5.19421,1.54106 -13.26884,3.80177 -17.94362,5.02379 -4.67479,1.22202 -15.2993,3.53333 -23.61003,5.13623 -8.31073,1.6029 -19.785209,3.15766 -25.498836,3.45502 l -10.388413,0.54065 3.777605,-3.38873 c 2.077682,-1.86379 4.09634,-3.4064 4.485905,-3.42802 0.389566,-0.0216 2.620714,-3.01418 4.958106,-6.65013 2.337393,-3.63594 5.142633,-9.26693 6.233861,-12.51331 1.628157,-4.84372 1.911061,-7.51186 1.577178,-14.87432 -0.271752,-5.99224 -0.959134,-10.06956 -2.069778,-12.27722 -0.914596,-1.81797 -3.392709,-4.58034 -5.506918,-6.1386 -2.114209,-1.55827 -5.369232,-3.85336 -7.233386,-5.10021 -1.864153,-1.24686 -5.089292,-2.84931 -7.166974,-3.561 -2.077683,-0.71169 -7.177449,-1.28017 -11.332815,-1.26329 -4.155365,0.0169 -9.680112,0.59693 -12.277215,1.28898 -2.597103,0.69205 -5.996948,1.93055 -7.55521,2.75222 -1.558262,0.82166 -4.476796,3.11902 -6.485631,5.10522 -2.008836,1.9862 -4.298577,4.88622 -5.088314,6.44448 -0.789737,1.55827 -2.705964,6.87052 -4.258284,11.80502 -2.231549,7.09362 -2.734286,10.15803 -2.401499,14.63822 0.292165,3.93329 1.246378,7.11067 3.11979,10.38841 1.484389,2.5971 5.067296,7.42382 7.962013,10.72605 3.591133,4.09667 6.838214,6.72182 10.221229,8.26351 2.726959,1.24271 7.826725,2.7524 11.332815,3.35486 3.506089,0.60247 14.024357,1.06771 23.373929,1.03388 13.474782,-0.0487 20.132052,-0.5642 32.109642,-2.48611 8.31073,-1.33352 19.04149,-3.49869 23.84613,-4.81148 4.80464,-1.31279 9.90441,-2.96679 11.33281,-3.67555 1.42841,-0.70876 4.9345,-2.04593 7.79131,-2.97148 2.85682,-0.92554 7.5316,-2.74306 10.38842,-4.03891 2.85681,-1.29585 8.59405,-3.78601 12.74941,-5.53368 4.15537,-1.74768 7.66146,-3.1751 7.79131,-3.17205 0.12986,0.003 -0.40137,1.2805 -1.1805,2.83876 -0.77913,1.55826 -2.10669,5.70182 -2.95013,9.20791 -0.95966,3.98921 -1.57813,10.969 -1.6527,18.65192 l -0.11917,12.27722 3.18097,9.44401 c 1.74955,5.19421 4.44965,11.9939 6.00025,15.11042 1.55059,3.11652 4.15647,7.03267 5.79083,8.70254 l 2.97157,3.03614 -2.36101,0.46422 c -1.29855,0.25532 -8.9482,1.95521 -16.99922,3.77755 -8.05102,1.82233 -17.71932,3.96574 -21.48512,4.76315 -3.7658,0.79741 -11.41545,1.70503 -16.99923,2.01695 -8.2369,0.46012 -11.97862,0.19286 -19.83242,-1.4166 -6.49951,-1.33193 -10.81439,-1.751 -13.13226,-1.27542 -1.96673,0.40353 -4.40491,1.8258 -5.6664,3.3054 -1.21785,1.42841 -2.854041,4.82825 -3.636001,7.55521 -0.86587,3.01963 -1.38222,8.46583 -1.32068,13.92992 0.0555,4.93449 0.70636,11.3092 1.44617,14.16602 0.7398,2.85681 3.034031,8.70029 5.098281,12.98551 2.10788,4.37582 5.71967,9.88987 8.23908,12.57845 3.20237,3.41742 5.70188,5.13036 8.73571,5.98668 2.90299,0.81939 5.59662,0.93877 8.49961,0.37672 2.33739,-0.45254 5.243,-1.76536 6.45691,-2.91737 1.21391,-1.15201 2.91384,-3.2557 3.7776,-4.67488 0.86378,-1.41918 3.05794,-3.399 4.87591,-4.39958 1.81797,-1.00059 8.65502,-5.78917 15.19343,-10.6413 l 11.88803,-8.82203 0.6393,4.722 c 0.35162,2.59711 1.58921,6.55688 2.75019,8.79949 1.16099,2.2426 4.0233,6.01995 6.3607,8.39411 2.33739,2.37415 5.94972,5.09849 8.02741,6.05409 2.07768,0.9556 5.58377,1.7468 7.79131,1.7582 2.20753,0.0114 4.0137,0.23323 4.0137,0.49294 0,0.25971 -1.27924,5.67822 -2.84276,12.04112 -1.56351,6.3629 -4.28362,15.81872 -6.04468,21.01293 -1.76106,5.1942 -4.35736,13.48132 -5.76956,18.41582 -1.4122,4.9345 -3.21062,11.09671 -3.99649,13.69382 -0.78587,2.5971 -1.90385,5.27436 -2.4844,5.94948 -0.58054,0.67511 -3.18044,1.91806 -5.77754,2.76209 -2.89359,0.9404 -6.51641,3.20772 -9.35619,5.85553 -2.54879,2.3765 -5.84847,6.23333 -7.33262,8.57073 -1.55996,2.45679 -2.69275,5.54475 -2.68493,7.3191 0.01,2.22998 0.59458,3.36031 2.13842,4.13343 1.16869,0.58527 2.86861,0.79776 3.7776,0.4722 0.90899,-0.32555 1.94129,-1.97311 2.29402,-3.66122 0.35272,-1.68812 2.61301,-5.4067 5.02287,-8.26351 2.82349,-3.34716 6.54141,-6.35237 10.4554,-8.45115 5.36953,-2.87927 7.05944,-3.29876 14.57345,-3.61768 l 8.49961,-0.36074 5.66641,2.83988 c 3.11652,1.56194 7.26008,4.57107 9.20791,6.68698 1.94783,2.11591 4.39294,5.44078 5.43358,7.38861 1.04065,1.94783 1.90412,5.24143 1.91884,7.31911 0.0147,2.07768 0.65072,4.52132 1.41332,5.43031 0.76262,0.90898 1.77976,1.54645 2.26033,1.4166 0.48056,-0.12986 4.7754,-4.48591 9.54406,-9.68011 4.76867,-5.19421 10.21896,-10.47296 12.11176,-11.73055 1.8928,-1.2576 6.41632,-3.29989 10.05226,-4.53843 3.63595,-1.23853 8.73571,-2.30886 11.33282,-2.3785 2.62568,-0.0704 6.81833,0.66201 9.44401,1.64978 2.5971,0.97702 7.27189,3.37003 10.38841,5.31781 3.11653,1.94779 8.42878,4.79209 11.80502,6.32068 3.37623,1.5286 9.11347,3.50741 12.74941,4.39736 4.9043,1.2004 9.29248,1.51693 16.99923,1.22618 8.8451,-0.33368 11.93172,-0.91092 20.77682,-3.8855 5.71363,-1.92148 13.36328,-5.24027 16.99922,-7.3751 3.63595,-2.13483 8.9482,-5.16595 11.80502,-6.73582 2.85681,-1.56987 8.07881,-4.80956 11.60444,-7.19933 3.52563,-2.38976 6.60674,-4.87625 6.84691,-5.52552 0.24017,-0.64928 -0.0945,-1.40136 -0.74383,-1.67129 -0.64928,-0.26993 -4.36786,1.13946 -8.26351,3.13198 -3.89565,1.99253 -9.20791,4.72228 -11.80501,6.06612 -2.59711,1.34384 -8.33435,4.15302 -12.74942,6.24263 -4.41508,2.0896 -10.15231,4.6934 -12.74942,5.78622 -3.70295,1.55814 -4.87491,1.72598 -5.43055,0.7777 -0.38971,-0.66508 -1.17841,-2.90916 -1.75269,-4.98684 -0.57428,-2.07769 -3.41183,-9.51484 -6.30569,-16.52702 -2.89384,-7.01218 -5.99004,-15.51179 -6.88044,-18.88803 -0.8904,-3.37623 -5.42333,-18.88802 -10.07316,-34.47064 -4.64985,-15.58262 -9.83141,-34.06927 -11.51458,-41.08145 -1.68317,-7.01218 -4.19338,-17.07086 -5.57823,-22.35262 l -2.51792,-9.6032 8.97181,-6.659 c 7.89282,-5.85817 9.5339,-7.59947 13.64555,-14.47903 2.57056,-4.30102 5.81921,-10.79489 7.21924,-14.43084 1.40002,-3.63594 3.30672,-10.01065 4.23711,-14.16602 1.05545,-4.71393 1.66432,-11.1068 1.61905,-16.99922 -0.0423,-5.50661 -0.75156,-12.20019 -1.70115,-16.05482 -0.89571,-3.63594 -2.53554,-8.63739 -3.64407,-11.11431 l -2.0155,-4.50351 3.56511,-2.1073 c 1.96081,-1.15902 4.91089,-4.2322 6.55571,-6.82931 1.64484,-2.5971 3.5988,-7.0594 4.34214,-9.91621 1.10867,-4.26083 1.14646,-6.21244 0.21025,-10.86061 -0.62769,-3.11653 -2.79222,-8.85377 -4.81006,-12.74942 -2.01783,-3.89566 -5.73375,-9.4204 -8.2576,-12.27722 -2.52384,-2.85681 -7.7527,-7.74409 -11.61967,-10.86061 -3.86698,-3.11653 -8.08302,-6.37726 -9.36898,-7.24607 l -2.33813,-1.57966 3.75687,-3.14235 c 2.06629,-1.72829 8.86598,-7.71705 15.11042,-13.30837 l 11.35355,-10.16602 13.22161,0.21827 c 10.54771,0.17414 15.13156,-0.19014 22.66563,-1.80122 5.19421,-1.11073 12.20639,-2.97162 15.58262,-4.13531 3.37624,-1.1637 11.87585,-4.84364 18.88802,-8.177656 7.01218,-3.334015 16.14927,-8.452256 20.30463,-11.37387 4.15537,-2.921613 11.93547,-9.580686 17.28911,-14.797939 5.35365,-5.217253 13.42828,-14.348902 17.94362,-20.292553 6.56588,-8.642809 8.34028,-11.66839 8.86173,-15.110419 0.3586,-2.36708 0.67733,-5.897459 0.7083,-7.845286 0.0431,-2.710711 -0.66372,-4.344838 -3.01301,-6.965953 -1.68811,-1.883447 -4.238,-4.00835 -5.6664,-4.722006 -1.65277,-0.825752 -5.60181,-1.270447 -10.86062,-1.223 z m 1.1805,6.093279 c 5.91864,0.381828 6.93702,0.748709 9.72634,3.50403 l 3.11553,3.07755 -0.6027,3.777604 c -0.33149,2.077683 -1.65741,6.114998 -2.94648,8.971812 -1.86965,4.143463 -5.43468,8.214533 -17.62324,20.124767 -8.40372,8.211808 -18.89181,17.508428 -23.30689,20.659156 -4.41507,3.150727 -9.51484,6.352552 -11.33281,7.115166 -1.81797,0.762615 -5.85529,2.592637 -8.97181,4.066717 -3.11653,1.474079 -8.85376,3.825321 -12.74942,5.224983 -3.89565,1.399658 -11.75779,3.554818 -17.47142,4.789238 -5.71363,1.23442 -14.63822,2.52497 -19.83242,2.86789 l -9.44402,0.62351 11.33282,-12.076396 c 6.23305,-6.642013 12.82024,-13.358653 14.63822,-14.925866 1.81797,-1.567213 7.16228,-6.507856 11.87625,-10.979209 4.71397,-4.471352 11.68225,-10.892105 15.48507,-14.268339 3.80282,-3.376235 9.29551,-8.275901 12.20598,-10.888149 2.91046,-2.612247 7.41666,-6.221922 10.01376,-8.021501 2.5971,-1.799578 7.0594,-4.71822 9.91621,-6.485871 2.85681,-1.767651 8.38156,-4.197085 12.27722,-5.398742 5.49833,-1.696021 8.56204,-2.089415 13.69381,-1.75835 z M 251.98304,100.4465 c 7.01217,0.0398 16.99922,0.61276 22.19342,1.27321 5.19421,0.66044 14.96876,2.07447 21.72123,3.14229 6.75247,1.0678 14.40212,2.39901 16.99922,2.95823 2.59711,0.55921 7.90936,1.63895 11.80502,2.39941 3.89565,0.76047 7.2955,1.59432 7.55521,1.85301 l 0.4722,0.47034 -0.4722,0.27614 c -0.25971,0.15187 -4.08454,3.45711 -8.49961,7.34495 -4.41508,3.88786 -10.47105,9.07586 -13.45772,11.52888 l -5.43031,4.46006 -4.722,-2.361 c -2.59711,-1.29855 -7.80312,-3.19526 -11.56892,-4.21491 -3.96317,-1.0731 -10.42672,-1.93092 -15.34652,-2.03676 -4.67478,-0.10057 -11.26198,0.35335 -14.63822,1.00868 -3.37623,0.65535 -8.476,2.24319 -11.33281,3.52853 -2.85681,1.28535 -6.3629,3.15313 -7.79131,4.15063 -1.42841,0.9975 -3.29859,3.19482 -4.15595,4.88294 -0.85737,1.68812 -2.15596,5.61919 -2.88574,8.73571 -0.7298,3.11653 -1.06994,7.15384 -0.75587,8.97181 0.31406,1.81798 1.16728,5.21782 1.89604,7.55521 0.72876,2.3374 3.04773,6.37471 5.15325,8.97182 2.10553,2.5971 3.82584,5.04074 3.82291,5.4303 -0.003,0.38957 -7.65499,4.53313 -17.00456,9.20791 l -16.99922,8.49961 -5.90251,-4.12722 c -3.24638,-2.26997 -7.60243,-5.81624 -9.68011,-7.8806 -2.07768,-2.06436 -5.11728,-6.26308 -6.75464,-9.3305 -1.63737,-3.06741 -3.87758,-8.55197 -4.97825,-12.18792 -1.10066,-3.63594 -1.99214,-8.20448 -1.98106,-10.15231 0.0112,-1.98277 1.21891,-5.93156 2.7438,-8.97182 1.49801,-2.98666 5.25334,-8.83015 8.34518,-12.98551 3.09184,-4.15537 8.21356,-10.10509 11.3816,-13.22162 3.16805,-3.11652 8.65604,-7.40288 12.19554,-9.52522 3.56028,-2.13481 9.38899,-4.59082 13.04627,-5.49724 3.63595,-0.90112 7.88575,-2.22139 9.44402,-2.93392 1.98489,-0.90761 6.65058,-1.27384 15.58262,-1.22312 z m 22.66562,33.97586 c 3.89566,0.34669 9.42041,1.15323 12.27722,1.79229 2.85681,0.63908 6.89413,1.89913 8.97181,2.80012 l 3.77761,1.63814 -5.66641,4.40752 c -3.11653,2.42413 -8.21629,5.84941 -11.33282,7.61172 -3.11652,1.76232 -11.61613,7.90211 -18.88802,13.64398 -7.27189,5.74187 -13.85909,10.45145 -14.63822,10.46572 -0.77913,0.0143 -2.28237,-0.94048 -3.34053,-2.12171 -1.05816,-1.18122 -2.71252,-3.6351 -3.67636,-5.45307 -0.96383,-1.81797 -2.11671,-4.04912 -2.56197,-4.95811 -0.44526,-0.90898 -0.81837,-3.24638 -0.82914,-5.19421 -0.0108,-1.94782 0.72352,-5.87889 1.63177,-8.73571 1.1113,-3.49552 2.91346,-6.42962 5.51061,-8.97181 2.70222,-2.64503 5.53993,-4.27224 9.46495,-5.42741 3.08313,-0.9074 7.09312,-1.75736 8.91109,-1.8888 1.81797,-0.13145 6.49276,0.0447 10.38841,0.39134 z m 30.69304,9.31915 c 0.51942,-0.0213 3.91927,1.9414 7.55521,4.36164 3.63595,2.42025 9.6059,7.41502 13.26656,11.09949 4.67223,4.7026 7.7955,8.95061 10.48016,14.25423 2.10342,4.15537 4.14392,9.68011 4.53443,12.27722 0.57104,3.79758 0.34495,5.46155 -1.15485,8.49961 -1.02568,2.07768 -4.36694,6.115 -7.425,8.97181 -3.05808,2.85681 -7.67945,6.21479 -10.26971,7.46217 -2.59027,1.24737 -7.04698,2.79219 -9.90379,3.43291 -2.85681,0.64073 -7.74409,1.86744 -10.86061,2.72604 -4.16644,1.14784 -9.79134,1.57338 -21.24903,1.60754 -8.57044,0.0256 -17.28254,-0.23417 -19.36022,-0.57713 -2.07769,-0.34297 -8.2399,-1.72203 -13.69382,-3.06457 -5.45392,-1.34254 -14.37851,-4.31938 -19.83243,-6.6152 -5.45391,-2.29581 -10.65992,-4.35366 -11.56891,-4.57299 -0.90899,-0.21932 -1.64838,-0.71751 -1.6431,-1.10707 0.006,-0.38957 1.59896,-1.43471 3.54151,-2.32253 1.94254,-0.88782 9.05664,-4.59996 15.80911,-8.24919 6.75247,-3.64923 12.80844,-6.64141 13.45772,-6.64929 0.64927,-0.008 3.19916,1.26772 5.66641,2.83465 2.46724,1.56693 6.6108,3.51098 9.20791,4.32012 l 4.722,1.47117 1.68348,-1.72302 c 0.92592,-0.94766 1.67395,-2.14801 1.66227,-2.66743 -0.0116,-0.51942 -3.5316,-2.56229 -7.82209,-4.53971 l -7.80087,-3.59532 2.8332,-2.30991 c 1.55826,-1.27045 8.35795,-6.1131 15.11042,-10.76144 6.75247,-4.64836 16.73951,-12.06807 22.19343,-16.48828 5.45392,-4.42019 10.34119,-8.05418 10.86061,-8.07552 z m -228.781187,32.1077 c 0.389565,-0.0172 0.708301,0.39365 0.708301,0.91307 0,0.51942 -0.318736,0.93219 -0.708301,0.91727 -0.389566,-0.0149 -5.489332,3.38493 -11.332814,7.55521 -5.843483,4.17028 -10.803582,7.47609 -11.022442,7.34624 -0.21886,-0.12986 4.562171,-3.94058 10.624513,-8.46828 6.062343,-4.52769 11.341177,-8.24627 11.730743,-8.26351 z m 7.555209,2.77109 c 0.389566,0.0169 0.720545,0.34951 0.73551,0.73908 0.01497,0.38957 -1.153732,1.2807 -2.597104,1.9803 l -2.624311,1.27199 1.888802,-2.01108 c 1.038841,-1.10609 2.207538,-1.99722 2.597103,-1.98029 z m 3.069304,4.72839 0.944401,-0.007 -0.944401,0.79657 c -0.51942,0.4381 -3.706774,2.70924 -7.083009,5.04695 -3.376234,2.33771 -6.669833,4.53623 -7.319109,4.88559 -0.649276,0.34888 -1.180501,0.42222 -1.180501,0.16251 0,-0.25971 3.293599,-2.81349 7.319109,-5.67507 4.02551,-2.86157 7.74409,-5.20605 8.26351,-5.20994 z m -31.87354,0.96696 c 0.129855,9.5e-4 0.25159,0.32057 0.270522,0.71014 0.01893,0.38956 -2.955932,2.72696 -6.610808,5.1942 -3.654877,2.46725 -6.636106,4.16717 -6.624954,3.77761 0.01115,-0.38957 2.87977,-2.72778 6.374708,-5.19604 3.494937,-2.46825 6.460677,-4.48691 6.590532,-4.48591 z m 33.526242,2.205 c 0.649276,0.17289 1.296486,0.91661 1.438243,1.6527 0.141759,0.73609 -0.708203,1.93784 -1.888802,2.67057 l -2.146544,1.33222 1.180502,-1.56832 c 0.649275,-0.86259 0.968011,-2.2058 0.7083,-2.98493 -0.276372,-0.82912 0.01737,-1.28624 0.708301,-1.10224 z m -49.817162,0.67454 c 0.51942,0.008 0.09444,0.6345 -0.944402,1.39097 -1.038841,0.75647 -2.101292,1.14429 -2.361003,0.86183 -0.25971,-0.28246 0.165271,-0.90839 0.944402,-1.39097 0.779131,-0.48258 1.841582,-0.8704 2.361003,-0.86183 z m 52.178165,5.68983 c 0.129856,-0.0374 0.23064,0.4633 0.223965,1.11258 -0.0067,0.64927 -2.769047,2.98667 -6.138608,5.19421 -3.369559,2.20753 -6.310272,3.90746 -6.534918,3.7776 -0.224645,-0.12986 2.431483,-2.43669 5.902508,-5.12629 3.471024,-2.6896 6.417198,-4.92075 6.547053,-4.9581 z m -35.651145,3.68038 c 0.259711,-9.5e-4 0.04722,0.35728 -0.4722,0.79664 -0.519421,0.43934 -2.856814,2.29293 -5.194207,4.11908 -2.337393,1.82615 -4.781031,3.59867 -5.430307,3.93894 -0.649275,0.34025 -1.180501,0.40616 -1.180501,0.14645 0,-0.25971 2.656128,-2.39071 5.902507,-4.73556 3.246379,-2.34486 6.114998,-4.26435 6.374708,-4.26555 z m -21.721227,5.2948 0.472201,0.40091 -0.472201,0.2361 c -0.25971,0.12985 -1.698574,1.29855 -3.197475,2.5971 l -2.725276,2.36101 1.072574,-2.12491 c 0.589914,-1.16869 1.816288,-2.5178 2.725274,-2.99801 0.908987,-0.48021 1.865193,-0.6927 2.124903,-0.4722 z m 5.194207,1.29674 c 0.51942,0 -0.118051,1.0843 -1.416602,2.40957 -1.298552,1.32527 -2.785984,2.40958 -3.305404,2.40958 -0.519421,0 0.11805,-1.08431 1.416601,-2.40958 1.298552,-1.32527 2.785984,-2.40957 3.305405,-2.40957 z m 20.068525,0.0178 c 0.129855,0.0169 0.237509,0.34952 0.239233,0.73908 0.0017,0.38957 -0.954484,1.29973 -2.124903,2.02258 l -2.128035,1.31432 1.888802,-2.05336 c 1.038842,-1.12935 1.995048,-2.03951 2.124903,-2.02258 z m 30.929139,1.89156 c 0.519421,-0.0206 -1.136444,1.78348 -3.679699,4.00902 -2.543255,2.22552 -5.199384,4.36515 -5.902507,4.75472 -0.703125,0.38956 -1.489194,0.60205 -1.746823,0.4722 -0.257628,-0.12986 1.97352,-2.25266 4.958106,-4.71733 2.984587,-2.46463 5.851502,-4.49801 6.370923,-4.51858 z m 125.84146,5.15229 c 5.8139,2.93451 14.99519,6.52722 21.48513,8.40731 6.23304,1.80568 15.15764,4.0014 19.83242,4.87939 4.67479,0.87799 12.53693,1.81958 17.47142,2.09244 5.94423,0.32868 12.31808,-0.0224 18.88803,-1.04044 5.45391,-0.84509 15.57314,-3.33883 22.48715,-5.54164 10.81028,-3.44417 12.69417,-3.8067 13.45081,-2.58851 0.48392,0.77913 1.91197,4.81645 3.17344,8.97181 1.26146,4.15537 2.57517,11.16754 2.91934,15.58262 0.48865,6.26839 0.20304,10.09685 -1.30343,17.47142 -1.06107,5.19421 -3.29802,12.84386 -4.971,16.99922 -1.67298,4.15537 -4.34658,9.69208 -5.94133,12.30381 -1.59475,2.61174 -3.53702,5.59331 -4.31615,6.62573 -0.77913,1.03241 -5.24143,4.89385 -9.91621,8.58097 -4.67479,3.68713 -9.98705,7.46177 -11.80502,8.38809 -1.81797,0.92633 -4.58034,2.05613 -6.13861,2.51067 -1.55826,0.45454 -6.02055,1.50335 -9.91621,2.33068 -3.89565,0.82734 -9.84538,1.4387 -13.22161,1.35859 -3.37624,-0.0801 -10.38842,-0.78111 -15.58262,-1.55776 -5.19421,-0.77666 -13.26884,-2.30817 -17.94363,-3.40334 -4.67478,-1.09518 -10.30577,-2.78071 -12.51331,-3.74562 -2.20754,-0.96487 -4.01371,-2.17932 -4.01371,-2.69874 0,-0.51942 0.31874,-0.92932 0.7083,-0.91088 0.38957,0.0184 5.65875,-3.70014 11.70931,-8.26351 6.05055,-4.56337 13.38147,-10.52818 16.29092,-13.25514 3.26298,-3.05831 5.10898,-5.50091 4.81771,-6.37471 -0.25971,-0.77913 -1.32216,-1.4166 -2.361,-1.4166 -1.03884,0 -2.10129,0.63747 -2.361,1.4166 -0.28432,0.85298 -5.26305,2.9276 -12.51332,5.21427 -6.62261,2.08872 -15.65345,5.26502 -20.06852,7.05843 -4.41508,1.79342 -8.87737,3.27854 -9.91622,3.30027 -1.03884,0.0217 -3.46255,-1.56089 -5.38602,-3.51692 -1.92347,-1.95604 -4.97221,-6.74379 -6.77498,-10.63944 -1.80277,-3.89566 -4.38074,-10.90784 -5.72882,-15.58262 -1.86071,-6.45237 -2.44671,-10.60373 -2.43294,-17.23533 0.01,-4.80464 0.66657,-12.02931 1.45912,-16.05482 0.79253,-4.02551 2.48761,-9.6565 3.76684,-12.51331 l 2.32588,-5.19421 6.62156,-2.5971 c 3.64186,-1.42841 6.83406,-3.02209 7.09377,-3.54151 0.26305,-0.5261 4.96882,1.32523 10.62451,4.17987 z M 46.339675,208.85695 c 0.389565,0.008 -1.63995,2.67106 -4.510034,5.91744 -2.870086,3.24638 -5.207479,6.22124 -5.194207,6.61081 0.01327,0.3896 -0.400852,0.70833 -0.920273,0.70833 -0.51942,0 -0.02777,-1.38118 1.092541,-3.0693 1.120318,-1.68812 3.563956,-4.6697 5.430307,-6.62574 1.86635,-1.95603 3.7121,-3.54971 4.101666,-3.5415 z m 29.748637,0.98299 c 0.129855,-0.013 0.236101,0.18887 0.236101,0.44858 0,0.25971 -3.93107,3.34947 -8.735711,6.86613 -4.804641,3.51665 -9.904408,7.12899 -11.332815,8.02741 -1.428406,0.89841 -2.597103,1.2085 -2.597103,0.68908 0,-0.51942 0.318735,-0.93977 0.708301,-0.93411 0.389565,0.006 5.383087,-3.38354 11.096714,-7.53155 5.713627,-4.14802 10.494658,-7.55249 10.624513,-7.5655 z m -12.041115,3.78054 c 0.779131,-0.0184 -0.920791,1.63312 -3.777605,3.67014 -2.856813,2.03701 -5.406696,3.53144 -5.666407,3.32095 -0.25971,-0.21049 0.777196,-1.34434 2.304236,-2.51967 1.52704,-1.17534 3.439453,-2.65468 4.249806,-3.28744 0.810352,-0.63275 2.110839,-1.16555 2.88997,-1.18398 z m 21.957328,0.88518 c 0.389565,0.0179 0.55484,0.3514 0.367277,0.74097 -0.187562,0.38956 -2.20622,1.70245 -4.485905,2.91752 -2.279686,1.21506 -3.719902,1.81903 -3.200481,1.34214 0.51942,-0.47688 2.219342,-1.80447 3.777604,-2.95018 1.558262,-1.14571 3.151939,-2.06841 3.541505,-2.05045 z m -36.123346,1.87957 c 0.259711,0.0112 -1.865192,2.36741 -4.722006,5.2361 -2.856813,2.8687 -5.512942,5.21094 -5.902507,5.205 -0.389566,-0.006 -0.0604,-0.967 0.731466,-2.13569 0.791872,-1.1687 3.23551,-3.52009 5.430307,-5.22531 2.194797,-1.70521 4.20303,-3.09126 4.46274,-3.0801 z m 6.610809,12.86333 c 0.25971,0.20991 0.153465,1.02328 -0.236101,1.80751 -0.389565,0.78423 -1.664507,1.44392 -2.833203,1.46597 l -2.124903,0.0401 2.361003,-1.84759 c 1.298552,-1.01618 2.573493,-1.67586 2.833204,-1.46597 z m 164.561912,1.32855 c -0.64928,0.008 -1.87319,0.75975 -2.71979,1.66874 -0.84661,0.90898 -1.96721,2.50266 -2.49022,3.5415 -0.523,1.03884 -1.18556,5.07616 -1.47234,8.97181 -0.4162,5.65358 -0.19953,7.60714 1.0736,9.68011 1.28158,2.08673 2.19822,2.55071 4.66434,2.36101 2.44458,-0.18804 3.415,-0.90888 4.76768,-3.54151 1.33928,-2.60652 1.6388,-5.06884 1.4166,-11.64561 -0.23873,-7.06638 -0.57025,-8.54731 -2.17057,-9.69615 -1.03884,-0.74577 -2.42003,-1.34872 -3.0693,-1.3399 z m 59.26117,1.90484 c -2.04443,0 -3.29332,0.7125 -4.4859,2.55926 -1.06408,1.64775 -1.76256,4.92723 -1.96115,9.20791 -0.19259,4.15159 0.1621,7.67626 0.9444,9.38477 0.68907,1.50487 2.20905,3.09854 3.37775,3.5415 1.16869,0.44297 2.65613,0.81442 3.3054,0.82545 0.64928,0.0111 1.96862,-1.58265 2.93187,-3.54151 1.15138,-2.34146 1.72823,-5.50272 1.68387,-9.22797 -0.0371,-3.11652 -0.71899,-7.26008 -1.51526,-9.20791 -1.21973,-2.98367 -1.89403,-3.5415 -4.28098,-3.5415 z m -40.84535,51.99128 c 0.12985,-0.0271 0.25194,0.057 0.27129,0.18688 0.0194,0.12986 -4.76168,3.88384 -10.62452,8.34218 -5.86283,4.45835 -12.7846,9.54542 -15.3817,11.30462 l -4.72201,3.19852 -7.08301,0.12253 c -5.38633,0.0931 -7.9879,0.62424 -10.86061,2.21702 -2.07768,1.15198 -4.59084,3.23444 -5.58478,4.62769 -1.03248,1.44726 -2.04459,4.91343 -2.36101,8.08572 l -0.55382,5.55254 -10.77042,8.61348 c -5.92372,4.73741 -15.06081,11.68536 -20.30462,15.43988 -5.24382,3.75451 -9.85295,6.83562 -10.24251,6.8469 -0.38957,0.0113 -0.9424,-1.78565 -1.22853,-3.99319 -0.28612,-2.20754 -1.211,-7.41355 -2.0553,-11.56891 -0.84428,-4.15537 -2.99104,-11.16755 -4.77055,-15.58262 -1.77951,-4.41508 -4.89195,-10.47105 -6.91652,-13.45772 -2.02456,-2.98667 -3.67757,-5.53655 -3.67334,-5.66641 0.004,-0.12985 2.66036,0.16733 5.90251,0.6604 4.08845,0.62179 9.22287,0.53019 16.75543,-0.29891 5.97334,-0.65748 13.19801,-1.78188 16.05482,-2.49865 2.85681,-0.71677 9.44401,-2.20545 14.63822,-3.30817 5.19421,-1.10271 13.26884,-2.79716 17.94362,-3.76544 4.67479,-0.96828 12.11195,-3.09031 16.52702,-4.71562 4.41508,-1.62533 10.5773,-3.83232 13.69382,-4.90443 3.11652,-1.07212 7.79131,-2.72325 10.38841,-3.6692 2.59711,-0.94594 4.82825,-1.74204 4.95811,-1.76909 z m -129.14686,20.70913 c 0.77913,0.0258 3.06278,1.20916 5.07479,2.62977 2.01201,1.4206 5.49506,5.34529 7.74011,8.72152 2.24506,3.37624 5.42797,9.53846 7.07315,13.69382 1.64517,4.15537 3.75207,11.59252 4.68202,16.52702 0.92994,4.9345 1.79179,10.45924 1.91521,12.27722 0.12344,1.81797 -0.26051,4.4741 -0.85322,5.9025 -0.59269,1.42841 -2.45882,3.44548 -4.14694,4.48238 -1.68811,1.0369 -4.238,1.88686 -5.6664,1.8888 -1.42841,0.002 -4.19078,-0.79222 -6.13861,-1.76481 -1.97327,-0.9853 -5.40375,-4.22632 -7.74697,-7.31911 -2.313,-3.05292 -5.67693,-9.1631 -7.47538,-13.57818 l -3.26992,-8.02741 -0.37097,-11.80501 c -0.28513,-9.07299 -0.0304,-12.73391 1.10067,-15.81872 0.80941,-2.20754 2.64034,-4.87836 4.06875,-5.93518 1.42841,-1.0568 3.23458,-1.90038 4.01371,-1.87461 z m 103.88413,3.84058 c 0.25971,0.009 1.21526,0.53329 2.12346,1.16604 1.34905,0.93992 1.52189,1.88822 0.9444,5.18173 -0.38878,2.21719 -1.0256,4.02335 -1.41516,4.0137 -0.38957,-0.01 -0.7083,-0.65502 -0.7083,-1.43416 0,-0.77913 -0.95621,-2.73658 -2.1249,-4.34989 -1.82249,-2.51583 -1.9233,-3.05139 -0.7083,-3.76314 0.77913,-0.45642 1.62909,-0.82284 1.8888,-0.81428 z m -15.34652,1.88127 c 1.16869,-0.0203 3.39984,0.60051 4.9581,1.37964 1.55827,0.77913 3.89566,3.32901 5.19421,5.6664 2.105,3.78899 2.26119,4.73623 1.44053,8.73572 -0.66235,3.22797 -1.85408,5.34659 -4.2498,7.55521 -2.88796,2.66239 -3.79884,2.99671 -6.87084,2.5218 -1.94783,-0.30112 -4.52219,-1.04484 -5.7208,-1.6527 -1.19861,-0.60786 -2.99873,-2.80513 -4.00025,-4.88281 -1.00154,-2.07768 -1.82702,-5.37128 -1.83442,-7.31911 -0.008,-1.94783 0.62402,-4.81644 1.40316,-6.37471 0.77913,-1.55826 2.79778,-3.45404 4.4859,-4.21284 1.68812,-0.7588 4.02551,-1.39627 5.19421,-1.4166 z m 26.44323,3.15642 c 1.94783,0.71751 7.79131,2.17519 12.98552,3.23927 5.1942,1.06409 13.05634,2.40111 17.47142,2.97116 4.41508,0.57005 10.15231,1.16461 12.74942,1.32123 2.5971,0.15663 5.99694,-0.0975 7.55521,-0.56471 1.55826,-0.46722 6.55178,-1.66949 11.09671,-2.67171 4.54493,-1.00222 9.21972,-2.28953 10.38841,-2.86069 1.64183,-0.80238 2.27855,-0.74871 2.80075,0.2361 0.37171,0.70102 3.21037,11.47411 6.30813,23.9402 3.09776,12.4661 7.16674,27.97789 9.04218,34.47065 1.87543,6.49275 5.69584,19.24217 8.48977,28.33203 2.79395,9.08986 5.55814,18.43943 6.14267,20.77683 0.58453,2.33739 2.1745,6.79969 3.53328,9.91621 1.35878,3.11652 4.30618,10.55368 6.54977,16.52702 2.2436,5.97334 3.98161,10.94875 3.86224,11.05646 -0.11937,0.10772 -2.55442,0.67111 -5.41124,1.25196 -2.85681,0.58086 -9.44401,1.08816 -14.63821,1.12732 l -9.44402,0.0712 -8.02741,-4.06553 c -4.41507,-2.23605 -11.5335,-6.12508 -15.81872,-8.6423 -5.74156,-3.37269 -9.46837,-4.85596 -14.16601,-5.6381 -3.50609,-0.58374 -8.07463,-0.85979 -10.15232,-0.61343 -2.07768,0.24636 -7.49618,2.21141 -12.04111,4.36677 -6.03426,2.86164 -10.36538,5.83887 -16.05482,11.03614 -4.28522,3.91454 -8.11005,7.10189 -8.49961,7.08301 -0.38957,-0.0189 -0.72255,-0.77802 -0.73998,-1.68701 -0.0175,-0.90898 -1.45386,-3.99009 -3.19207,-6.84691 -1.73821,-2.85681 -4.59257,-6.43075 -6.34303,-7.94208 -1.75045,-1.51133 -5.94501,-4.01927 -9.32125,-5.5732 l -6.13861,-2.82531 -9.97659,0.37898 -9.97659,0.37899 2.22161,-7.08301 c 1.22189,-3.89565 3.22073,-10.48285 4.44187,-14.63821 1.22114,-4.15537 3.56555,-11.38004 5.2098,-16.05482 1.64426,-4.67479 4.47325,-14.44934 6.28664,-21.72123 1.81338,-7.27189 4.3399,-16.72771 5.61447,-21.01293 l 2.3174,-7.79129 4.48591,3.90523 c 2.46725,2.14787 6.61081,4.9061 9.20791,6.12938 3.97113,1.87047 6.14867,2.21354 13.69382,2.15737 4.93449,-0.0367 10.88422,-0.56379 13.22161,-1.17127 3.25204,-0.84518 4.24981,-1.54795 4.24981,-2.9933 0,-1.14119 -0.56071,-1.807 -1.4166,-1.68213 -0.77913,0.11367 -3.754,0.69168 -6.61081,1.28447 -3.06414,0.63581 -8.2925,0.83565 -12.74942,0.4873 -5.48381,-0.4286 -8.5909,-1.20402 -11.33281,-2.82828 -2.07768,-1.23077 -5.52914,-4.09295 -7.66991,-6.36037 l -3.8923,-4.12261 1.22171,-4.722 c 0.67195,-2.59711 2.11956,-7.27189 3.21691,-10.38841 1.09736,-3.11653 2.57348,-8.0038 3.28028,-10.86062 0.7068,-2.85681 1.54196,-6.3629 1.8559,-7.79131 l 0.57081,-2.5971 3.5415,1.30458 z m -38.48435,20.25623 c 1.29855,1.54171 3.21097,3.2364 4.24981,3.76598 1.03884,0.52958 4.0137,1.23939 6.61081,1.57735 l 4.722,0.61447 2.50507,5.36481 2.50508,5.36483 -1.73258,6.1386 c -0.95292,3.37624 -2.18645,7.30731 -2.74118,8.73572 -0.88205,2.27126 -1.51215,2.59541 -5.02229,2.58365 -2.25178,-0.008 -5.85217,-0.94033 -8.20175,-2.1249 -2.30343,-1.1613 -5.64339,-3.81138 -7.42214,-5.88906 -1.77876,-2.07768 -4.0377,-5.58377 -5.01987,-7.79131 -0.98217,-2.20754 -2.03822,-6.03236 -2.34676,-8.49961 l -0.561,-4.48591 5.0469,-4.07886 5.0469,-4.07886 2.361,2.8031 z m 23.61003,3.12808 c 0.25971,-0.0466 0.0472,1.39217 -0.4722,3.19717 -0.51942,1.80499 -1.26313,3.28121 -1.6527,3.28049 -0.38957,-7.2e-4 -0.7141,-0.32005 -0.72119,-0.70961 -0.008,-0.38957 -0.21958,-1.66451 -0.4722,-2.83321 -0.32304,-1.49444 0.0311,-2.2325 1.19339,-2.48755 0.90899,-0.19946 1.86519,-0.40074 2.1249,-0.44729 z"
     id="path4"
     inkscape:connector-curvature="0"
     style="fill:#000000" />
</svg>
