<?xml version="1.0" encoding="UTF-8" standalone="no"?>
<!-- Created with Inkscape (http://www.inkscape.org/) -->

<svg
   xmlns:dc="http://purl.org/dc/elements/1.1/"
   xmlns:cc="http://creativecommons.org/ns#"
   xmlns:rdf="http://www.w3.org/1999/02/22-rdf-syntax-ns#"
   xmlns:svg="http://www.w3.org/2000/svg"
   xmlns="http://www.w3.org/2000/svg"
   xmlns:sodipodi="http://sodipodi.sourceforge.net/DTD/sodipodi-0.dtd"
   xmlns:inkscape="http://www.inkscape.org/namespaces/inkscape"
   width="520"
   height="140"
   viewBox="0 0 520.00001 140"
   id="svg2"
   version="1.1"
   inkscape:version="0.91 r13725"
   sodipodi:docname="0.svg">
  <defs
     id="defs4" />
  <sodipodi:namedview
     id="base"
     pagecolor="#ffffff"
     bordercolor="#666666"
     borderopacity="1.0"
     inkscape:pageopacity="0.0"
     inkscape:pageshadow="2"
     inkscape:zoom="1.4"
     inkscape:cx="367.63429"
     inkscape:cy="74.620977"
     inkscape:document-units="px"
     inkscape:current-layer="layer1"
     showgrid="false"
     units="px"
     inkscape:snap-object-midpoints="true"
     inkscape:snap-page="true"
     inkscape:snap-center="true"
     inkscape:snap-bbox="true"
     inkscape:snap-grids="true"
     inkscape:snap-to-guides="true"
     inkscape:bbox-paths="true"
     inkscape:bbox-nodes="true"
     inkscape:snap-bbox-edge-midpoints="true"
     inkscape:snap-bbox-midpoints="true"
     inkscape:window-width="1920"
     inkscape:window-height="965"
     inkscape:window-x="-8"
     inkscape:window-y="-8"
     inkscape:window-maximized="1" />
  <metadata
     id="metadata7">
    <rdf:RDF>
      <cc:Work
         rdf:about="">
        <dc:format>image/svg+xml</dc:format>
        <dc:type
           rdf:resource="http://purl.org/dc/dcmitype/StillImage" />
        <dc:title></dc:title>
      </cc:Work>
    </rdf:RDF>
  </metadata>
  <g
     inkscape:label="レイヤー 1"
     inkscape:groupmode="layer"
     id="layer1"
     transform="translate(0,-912.36214)">
    <path
       style="font-style:normal;font-variant:normal;font-weight:900;font-stretch:normal;font-size:medium;line-height:125%;font-family:'Mgen+ 1c';-inkscape-font-specification:'Mgen+ 1c Heavy';text-align:center;letter-spacing:-4.75px;word-spacing:0px;text-anchor:middle;fill:#000000;fill-opacity:1;stroke:none;stroke-width:1px;stroke-linecap:butt;stroke-linejoin:miter;stroke-opacity:1"
       d="M 254.04297 12.595703 L 249.78516 16.072266 L 249.78516 17.224609 L 254.00391 13.767578 L 254.04297 13.767578 L 254.04297 27.205078 L 255.03906 27.205078 L 255.03906 12.595703 L 254.04297 12.595703 z M 261.46484 12.595703 L 261.46484 13.474609 L 268.69141 13.474609 L 268.69141 13.513672 L 263.39844 18.708984 L 263.39844 19.548828 L 264.94141 19.548828 C 266.41276 19.548828 267.48698 19.815756 268.16406 20.349609 C 268.85417 20.870443 269.19922 21.671226 269.19922 22.751953 C 269.19922 25.278 267.83203 26.541016 265.09766 26.541016 C 263.83463 26.541016 262.67578 26.2155 261.62109 25.564453 L 261.62109 26.560547 C 262.64974 27.12044 263.80859 27.400391 265.09766 27.400391 C 266.76432 27.400391 268.03386 27.009762 268.90625 26.228516 C 269.77864 25.434242 270.21484 24.275393 270.21484 22.751953 C 270.21484 21.436853 269.8177 20.440759 269.02344 19.763672 C 268.22916 19.086592 267.07031 18.748047 265.54688 18.748047 L 264.70703 18.748047 L 264.70703 18.708984 L 270 13.474609 L 270 12.595703 L 261.46484 12.595703 z M 41.246094 50.605469 L 41.246094 89.394531 L 54.839844 89.394531 C 52.313802 86.868485 50.347656 83.92578 48.941406 80.566406 C 47.535156 77.180986 46.832031 73.665365 46.832031 70.019531 C 46.832031 66.347658 47.535156 62.83203 48.941406 59.472656 C 50.347656 56.087236 52.313802 53.131509 54.839844 50.605469 L 41.246094 50.605469 z M 127.77734 50.605469 C 130.30339 53.131509 132.26953 56.087236 133.67578 59.472656 C 135.08203 62.83203 135.78516 66.347658 135.78516 70.019531 C 135.78516 73.665365 135.08203 77.180986 133.67578 80.566406 C 132.26953 83.92578 130.30339 86.868485 127.77734 89.394531 L 141.37109 89.394531 L 141.37109 50.605469 L 127.77734 50.605469 z M 70.675781 50.800781 L 70.675781 54.980469 L 57.082031 54.980469 L 57.082031 62.597656 C 57.082031 68.43099 56.873698 72.636724 56.457031 75.214844 C 56.040365 77.79297 55.246093 80.123698 54.074219 82.207031 L 58.878906 88.613281 C 60.18099 86.842475 61.222656 84.902342 62.003906 82.792969 L 62.277344 87.402344 C 69.595052 87.063804 77.06901 86.321615 84.699219 85.175781 C 85.454427 86.842421 85.988281 88.053327 86.300781 88.808594 L 92.902344 85.996094 C 90.81901 81.152347 88.410157 75.878908 85.675781 70.175781 L 79.074219 72.988281 C 80.298177 75.540368 81.326823 77.74089 82.160156 79.589844 C 79.347656 79.92839 76.58724 80.214845 73.878906 80.449219 C 76.222656 75.292965 78.358073 69.680988 80.285156 63.613281 L 72.902344 62.011719 C 70.740885 68.938799 68.332031 75.266927 65.675781 80.996094 C 64.998698 81.048194 63.94401 81.100277 62.511719 81.152344 C 63.553385 77.662764 64.074219 73.339847 64.074219 68.183594 L 64.074219 61.191406 L 91.466797 61.191406 C 91.157534 61.72486 90.861177 62.255571 90.535156 62.792969 L 95.730469 64.980469 L 90.535156 64.980469 L 90.535156 70.996094 L 127.33203 70.996094 L 127.33203 64.980469 L 113.54297 64.980469 L 113.54297 61.191406 L 125.73047 61.191406 L 125.73047 55.410156 L 113.54297 55.410156 L 113.54297 51.582031 L 105.92578 51.582031 L 105.92578 55.410156 L 102.21484 55.410156 C 102.73568 54.029943 103.04818 53.157549 103.15234 52.792969 L 96.316406 51.386719 C 95.085346 54.453567 93.531469 57.596493 91.691406 60.806641 L 91.691406 54.980469 L 78.292969 54.980469 L 78.292969 50.800781 L 70.675781 50.800781 z M 180.83984 51.191406 L 180.83984 55.605469 L 179.98047 55.605469 C 179.48568 54.355469 178.83464 52.949219 178.02734 51.386719 L 171.42578 52.597656 C 171.92057 53.561196 172.40235 54.563802 172.87109 55.605469 L 170.83984 55.605469 L 170.83984 57.207031 L 168.65234 57.207031 C 168.8607 54.863285 168.9909 53.05339 169.04297 51.777344 L 162.83203 51.582031 C 162.72786 54.029951 162.63672 55.904951 162.55859 57.207031 L 160.01953 57.207031 L 160.01953 63.183594 L 161.97266 63.183594 C 161.5039 66.751307 160.78776 70.019535 159.82422 72.988281 L 163.84766 78.378906 C 164.16016 77.64974 164.47266 76.855474 164.78516 75.996094 C 165.01953 76.308594 165.24089 76.647132 165.44922 77.011719 C 164.17318 79.225259 162.29818 81.425781 159.82422 83.613281 L 162.83203 89.199219 C 165.2539 87.115872 167.15494 85.045575 168.53516 82.988281 C 168.8737 83.717448 169.30339 84.785153 169.82422 86.191406 L 173.02734 82.832031 L 173.02734 87.207031 L 179.62891 87.207031 L 179.62891 79.394531 L 180.83984 79.394531 L 180.83984 88.378906 L 188.02734 88.378906 L 188.02734 79.394531 L 190.83984 79.394531 L 190.83984 80.410156 C 190.83984 80.904943 190.80078 81.191405 190.72266 81.269531 C 190.67057 81.347658 190.5013 81.386719 190.21484 81.386719 C 189.90234 81.386719 189.38151 81.321613 188.65234 81.191406 L 189.04297 87.011719 C 190.83984 87.141925 192.03776 87.207031 192.63672 87.207031 C 193.80859 87.207031 194.66797 87.141925 195.21484 87.011719 C 195.78776 86.907552 196.25651 86.58203 196.62109 86.035156 C 196.69429 85.937568 196.75614 85.828224 196.81836 85.71875 L 198.66797 89.199219 C 200.9336 87.272119 202.71745 85.38411 204.01953 83.535156 C 204.22786 84.10807 204.64453 85.188804 205.26953 86.777344 L 208.94141 82.949219 L 209.29297 87.988281 C 211.08984 88.118548 212.6263 88.183594 213.90234 88.183594 C 214.8138 88.183594 215.49089 88.14454 215.93359 88.066406 C 216.40235 87.988273 216.81901 87.77996 217.18359 87.441406 C 217.57422 87.10286 217.83464 86.595049 217.96484 85.917969 C 218.09507 85.266929 218.18621 84.342451 218.23828 83.144531 L 219.87891 87.792969 C 221.64974 86.803402 223.27735 85.605465 224.76172 84.199219 C 226.16797 86.985699 227.80859 88.378906 229.68359 88.378906 C 230.77735 88.378906 231.75391 87.467471 232.61328 85.644531 C 233.18484 84.432142 233.5791 82.802734 233.82812 80.830078 C 234.2413 82.424666 235.08482 83.76059 236.37891 84.824219 C 238.27995 86.412759 240.9362 87.207031 244.34766 87.207031 C 250.28516 87.207031 253.57943 84.66797 254.23047 79.589844 C 255.92318 80.761724 258.42318 82.701823 261.73047 85.410156 L 266.33984 80.175781 C 261.39193 76.139321 257.39453 73.365882 254.34766 71.855469 L 254.34766 64.394531 L 265.51953 64.394531 L 265.51953 57.988281 L 254.34766 57.988281 L 254.34766 52.402344 L 246.73047 52.402344 L 246.73047 69.667969 C 246.23568 69.615902 245.4414 69.589844 244.34766 69.589844 C 240.88411 69.589844 238.21484 70.38411 236.33984 71.972656 C 234.74291 73.303432 233.83253 75.063304 233.5957 77.244141 L 231.32422 75.644531 C 231.92318 74.654951 232.70443 73.300785 233.66797 71.582031 L 229.60547 68.378906 L 233.47266 68.378906 L 233.47266 62.402344 L 230.19141 62.402344 L 233.90234 60.410156 C 233.32943 57.54557 232.45703 54.811198 231.28516 52.207031 L 226.87109 54.199219 L 226.87109 51.777344 L 220.26953 51.777344 C 220.26953 53.626304 220.28253 54.993486 220.30859 55.878906 L 219.09766 51.386719 C 215.76432 52.480465 212.28776 53.28776 208.66797 53.808594 L 209.48828 57.207031 L 204.09766 57.207031 C 204.306 54.863285 204.43621 53.05339 204.48828 51.777344 L 198.27734 51.582031 C 198.18211 53.796196 198.10081 55.424629 198.02734 56.724609 L 198.02734 55.605469 L 196.03516 55.605469 C 196.39974 54.824215 196.80339 53.82161 197.24609 52.597656 L 190.64453 51.386719 C 190.20182 52.662759 189.62891 54.069009 188.92578 55.605469 L 188.02734 55.605469 L 188.02734 51.191406 L 180.83984 51.191406 z M 415.98828 51.191406 C 415.46745 54.394526 415.03776 56.933594 414.69922 58.808594 L 408.17578 58.808594 L 408.17578 65.175781 L 413.33203 65.175781 C 411.8737 71.764321 409.95964 78.430988 407.58984 85.175781 L 413.80078 87.207031 C 416.61328 79.420571 418.76172 72.076821 420.24609 65.175781 L 423.37109 65.175781 C 424.56901 65.175781 425.27214 65.423175 425.48047 65.917969 C 425.6888 66.412762 425.79297 68.040368 425.79297 70.800781 C 425.79297 76.920575 425.25911 79.980469 424.19141 79.980469 C 423.27995 80.006509 421.40495 79.615887 418.56641 78.808594 L 416.96484 85.175781 C 418.16276 85.618488 419.64714 85.996094 421.41797 86.308594 C 423.21484 86.621094 424.67318 86.777344 425.79297 86.777344 C 428.26693 86.777344 430.14193 85.644526 431.41797 83.378906 C 432.72005 81.11328 433.37109 77.324219 433.37109 72.011719 L 433.37109 67.636719 C 433.37109 66.699219 433.30599 65.64453 433.17578 64.472656 C 433.04557 63.274736 432.94141 62.467448 432.86328 62.050781 C 432.78515 61.608075 432.51172 61.100264 432.04297 60.527344 C 431.60026 59.92839 431.22266 59.576823 430.91016 59.472656 C 430.6237 59.36849 430.01172 59.238285 429.07422 59.082031 C 428.16276 58.899738 427.35547 58.808594 426.65234 58.808594 L 423.37109 58.808594 L 421.49609 58.808594 C 422.04297 55.70964 422.40756 53.300785 422.58984 51.582031 L 415.98828 51.191406 z M 305.23828 52.207031 L 305.23828 77.402344 L 311.60547 77.402344 C 311.11068 78.75651 310.06901 79.837238 308.48047 80.644531 C 306.91797 81.451825 304.63932 82.037764 301.64453 82.402344 L 303.63672 88.613281 C 308.24609 87.910181 311.82682 86.63411 314.37891 84.785156 C 316.93099 82.962236 318.55859 80.501304 319.26172 77.402344 L 321.21484 77.402344 L 321.21484 84.394531 C 321.21484 85.540365 321.35807 86.334637 321.64453 86.777344 C 321.93099 87.220057 322.51693 87.532557 323.40234 87.714844 C 324.3138 87.89711 325.86328 87.988281 328.05078 87.988281 L 329.22266 87.988281 L 330.43359 87.988281 L 333.01172 87.988281 C 333.58463 87.988281 334.20963 87.923169 334.88672 87.792969 C 335.58985 87.688822 336.08464 87.597658 336.37109 87.519531 C 336.65755 87.441405 336.97005 87.207026 337.30859 86.816406 C 337.67318 86.42578 337.90755 86.087241 338.01172 85.800781 C 338.11589 85.514321 338.23307 84.980465 338.36328 84.199219 C 338.51951 83.417965 338.61065 82.714844 338.63672 82.089844 C 338.6888 81.438804 338.7539 80.475259 338.83203 79.199219 L 331.83984 78.378906 C 331.8138 80.358073 331.72265 81.529951 331.56641 81.894531 C 331.43619 82.233071 330.99349 82.402344 330.23828 82.402344 L 330.04297 82.402344 L 329.84766 82.402344 C 329.22266 82.402344 328.85807 82.35026 328.75391 82.246094 C 328.67578 82.141927 328.63672 81.79036 328.63672 81.191406 L 328.63672 77.402344 L 335.62891 77.402344 L 335.62891 52.207031 L 305.23828 52.207031 z M 376.94922 54.003906 L 376.94922 60.175781 L 390.15234 60.175781 L 390.15234 60.253906 L 374.33203 69.199219 L 376.94922 74.394531 C 379.97005 73.066405 382.53516 72.167965 384.64453 71.699219 C 386.7539 71.230465 389.2539 70.996094 392.14453 70.996094 C 394.41016 70.996094 396.14193 71.399738 397.33984 72.207031 C 398.53776 73.014325 399.13672 74.08203 399.13672 75.410156 C 399.13672 77.311196 398.39453 78.782552 396.91016 79.824219 C 396.93622 79.589845 396.94922 79.251307 396.94922 78.808594 C 396.94922 76.777347 396.23307 75.26693 394.80078 74.277344 C 393.39453 73.287764 391.16797 72.792969 388.12109 72.792969 C 385.15235 72.792969 382.74349 73.444014 380.89453 74.746094 C 379.04557 76.04818 378.12109 77.662764 378.12109 79.589844 C 378.14714 84.66797 382.28776 87.207031 390.54297 87.207031 C 395.7513 87.207031 399.78776 86.126304 402.65234 83.964844 C 405.51693 81.80339 406.94922 78.808595 406.94922 74.980469 C 406.94922 72.220049 405.92057 69.967443 403.86328 68.222656 C 401.83203 66.477863 399.1237 65.605469 395.73828 65.605469 C 394.93099 65.605469 393.99349 65.683597 392.92578 65.839844 L 392.92578 65.800781 L 403.74609 60.410156 L 403.74609 54.003906 L 376.94922 54.003906 z M 372.40234 54.589844 C 361.04818 55.136724 349.91536 55.410156 339.00391 55.410156 L 339.00391 62.207031 C 343.48307 62.207031 348.04037 62.128903 352.67578 61.972656 L 352.67578 62.050781 C 350.82682 63.430988 349.36849 65.110677 348.30078 67.089844 C 347.23307 69.04297 346.69922 70.944009 346.69922 72.792969 C 346.69922 76.907549 348.17057 80.201821 351.11328 82.675781 C 354.05599 85.149741 357.97526 86.386719 362.87109 86.386719 C 364.87631 86.386719 366.88151 86.191408 368.88672 85.800781 L 368.02734 78.886719 C 366.10026 79.225259 364.52474 79.394531 363.30078 79.394531 C 360.80078 79.394531 358.76953 78.73047 357.20703 77.402344 C 355.67057 76.048177 354.90234 74.251299 354.90234 72.011719 C 354.90234 69.095052 356.38672 66.67318 359.35547 64.746094 C 362.35026 62.819014 366.76432 61.699219 372.59766 61.386719 L 372.40234 54.589844 z M 467.81641 54.785156 C 464.35286 54.785156 460.88932 55.188807 457.42578 55.996094 L 457.42578 62.597656 C 460.83724 61.529943 463.89714 60.996094 466.60547 60.996094 C 469.0013 60.996094 470.19922 61.72526 470.19922 63.183594 C 470.19922 63.57422 470.05599 63.964842 469.76953 64.355469 C 469.50912 64.746095 469.22266 65.08464 468.91016 65.371094 C 468.59766 65.657554 468.11589 66.048175 467.46484 66.542969 C 466.65756 67.194009 466.03256 67.714842 465.58984 68.105469 C 465.17318 68.470049 464.65234 69.016927 464.02734 69.746094 C 463.40234 70.44922 462.94661 71.217448 462.66016 72.050781 C 462.3737 72.884115 462.23047 73.79557 462.23047 74.785156 L 469.41797 74.785156 C 469.4961 74.029943 469.76953 73.326821 470.23828 72.675781 C 470.70703 71.998701 471.13672 71.503906 471.52734 71.191406 C 471.91797 70.878906 472.56901 70.410156 473.48047 69.785156 C 474.3138 69.238276 474.95182 68.782549 475.39453 68.417969 C 475.83724 68.053382 476.34505 67.558594 476.91797 66.933594 C 477.51693 66.282554 477.94662 65.553387 478.20703 64.746094 C 478.46745 63.938807 478.59766 63.027345 478.59766 62.011719 C 478.59766 59.876299 477.64714 58.144526 475.74609 56.816406 C 473.84505 55.46224 471.20182 54.785156 467.81641 54.785156 z M 445.53516 55.175781 L 446.74609 74.785156 L 453.97266 74.785156 L 455.14453 55.175781 L 445.53516 55.175781 z M 226.87109 55.488281 C 227.75651 57.832035 228.45964 60.136724 228.98047 62.402344 L 227.02734 62.402344 C 226.97524 60.91797 226.92316 58.613281 226.87109 55.488281 z M 439.77734 56.386719 L 432.82422 58.144531 C 435.14193 64.602865 437.14714 71.243486 438.83984 78.066406 L 445.79297 76.386719 C 444.17838 69.798179 442.17318 63.131512 439.77734 56.386719 z M 220.34766 57.324219 C 220.39974 58.626299 220.47786 60.31901 220.58203 62.402344 L 218.27734 62.402344 L 218.27734 58.027344 C 219.24089 57.714844 219.93099 57.480465 220.34766 57.324219 z M 312.62109 57.988281 L 328.24609 57.988281 L 328.24609 59.785156 L 312.62109 59.785156 L 312.62109 57.988281 z M 209.68359 58.066406 L 210.07422 59.785156 C 210.25651 59.759096 210.51693 59.720035 210.85547 59.667969 C 211.22005 59.615909 211.49349 59.576848 211.67578 59.550781 L 211.67578 62.402344 L 209.64453 62.402344 L 209.64453 61.308594 C 209.6706 60.813807 209.68359 60.436201 209.68359 60.175781 L 209.68359 58.066406 z M 177.63672 60.410156 L 191.23047 60.410156 L 191.23047 61.582031 L 177.63672 61.582031 L 177.63672 60.410156 z M 99.597656 61.191406 L 105.92578 61.191406 L 105.92578 64.980469 L 97.488281 64.980469 C 98.295573 63.678382 98.998698 62.41536 99.597656 61.191406 z M 14.416016 62.597656 L 14.416016 63.476562 L 21.642578 63.476562 L 21.642578 63.515625 L 16.349609 68.710938 L 16.349609 69.550781 L 17.892578 69.550781 C 19.363933 69.550781 20.438151 69.817709 21.115234 70.351562 C 21.805338 70.872396 22.150391 71.673173 22.150391 72.753906 C 22.150391 75.279946 20.783203 76.542969 18.048828 76.542969 C 16.785807 76.542969 15.626953 76.217446 14.572266 75.566406 L 14.572266 76.5625 C 15.600912 77.122393 16.759766 77.402344 18.048828 77.402344 C 19.715495 77.402344 20.985026 77.011715 21.857422 76.230469 C 22.729818 75.436195 23.166016 74.27734 23.166016 72.753906 C 23.166016 71.4388 22.76888 70.442705 21.974609 69.765625 C 21.180338 69.088538 20.021484 68.75 18.498047 68.75 L 17.658203 68.75 L 17.658203 68.710938 L 22.951172 63.476562 L 22.951172 62.597656 L 14.416016 62.597656 z M 32.482422 62.597656 L 31.994141 69.941406 L 32.931641 69.941406 C 33.738932 69.303386 34.689453 68.984375 35.783203 68.984375 C 36.994141 68.984375 37.912109 69.283859 38.537109 69.882812 C 39.17513 70.481773 39.494141 71.354167 39.494141 72.5 C 39.494141 73.841147 39.142578 74.850264 38.439453 75.527344 C 37.749349 76.20443 36.733724 76.542969 35.392578 76.542969 C 34.194661 76.542969 33.009765 76.223958 31.837891 75.585938 L 31.837891 76.5625 C 32.944661 77.122393 34.129557 77.402344 35.392578 77.402344 C 37.059245 77.402344 38.328776 76.985677 39.201172 76.152344 C 40.073568 75.30599 40.509766 74.08854 40.509766 72.5 C 40.509766 71.119793 40.10612 70.052082 39.298828 69.296875 C 38.504557 68.528642 37.371745 68.144531 35.900391 68.144531 C 34.858724 68.144531 33.914713 68.411459 33.068359 68.945312 L 33.029297 68.945312 L 33.400391 63.476562 L 39.904297 63.476562 L 39.904297 62.597656 L 32.482422 62.597656 z M 167.87109 63.183594 L 168.84766 63.183594 C 168.66536 65.996094 168.3138 68.548177 167.79297 70.839844 C 167.40234 70.345057 167.02474 69.889323 166.66016 69.472656 C 167.10286 67.467443 167.50651 65.371094 167.87109 63.183594 z M 203.31641 63.183594 L 204.29297 63.183594 C 204.08464 66.308594 203.72005 69.042965 203.19922 71.386719 C 202.78255 70.865885 202.37891 70.384113 201.98828 69.941406 C 202.48307 67.884113 202.92578 65.631514 203.31641 63.183594 z M 312.62109 64.199219 L 328.24609 64.199219 L 328.24609 65.996094 L 312.62109 65.996094 L 312.62109 64.199219 z M 173.65234 66.191406 L 174.43359 66.191406 L 174.43359 72.402344 L 180.83984 72.402344 L 180.83984 73.613281 L 173.02734 73.613281 L 173.02734 79.550781 C 172.66276 78.743488 172.19401 77.81901 171.62109 76.777344 C 172.66276 73.886724 173.33984 70.358073 173.65234 66.191406 z M 181.23047 66.191406 L 187.63672 66.191406 L 187.63672 68.183594 L 181.23047 68.183594 L 181.23047 66.191406 z M 194.43359 66.191406 L 196.94336 66.191406 C 196.50834 68.605932 195.95485 70.876759 195.26953 72.988281 L 195.73633 73.613281 L 188.02734 73.613281 L 188.02734 72.402344 L 194.43359 72.402344 L 194.43359 66.191406 z M 209.29297 68.378906 L 211.67578 68.378906 L 211.67578 72.480469 C 211.18099 72.584635 210.25651 72.753908 208.90234 72.988281 L 209.29297 79.199219 C 210.36068 79.042965 211.15495 78.91276 211.67578 78.808594 L 211.67578 80.996094 C 211.67578 81.69922 211.63672 82.115887 211.55859 82.246094 C 211.50651 82.35026 211.28516 82.402344 210.89453 82.402344 C 210.5039 82.402344 210.02213 82.363276 209.44922 82.285156 C 208.79818 80.722656 208.05599 79.160156 207.22266 77.597656 C 208.21224 74.967443 208.90234 71.894526 209.29297 68.378906 z M 218.27734 68.378906 L 221.05078 68.378906 C 221.44141 72.154946 221.9362 75.279946 222.53516 77.753906 C 221.3112 78.769526 219.89193 79.720049 218.27734 80.605469 L 218.27734 80.175781 L 218.27734 77.246094 C 219.42318 76.881514 220.36068 76.529946 221.08984 76.191406 L 220.69922 69.980469 C 219.99609 70.266929 219.1888 70.55339 218.27734 70.839844 L 218.27734 68.378906 z M 227.33984 68.378906 L 228.94141 68.378906 C 228.49869 69.57682 228.04297 70.618486 227.57422 71.503906 C 227.49609 70.54036 227.41797 69.498693 227.33984 68.378906 z M 312.62109 70.410156 L 328.24609 70.410156 L 328.24609 72.207031 L 312.62109 72.207031 L 312.62109 70.410156 z M 94.519531 72.597656 L 94.519531 87.988281 L 101.94141 87.988281 L 101.94141 86.386719 L 115.92578 86.386719 L 115.92578 87.988281 L 123.34766 87.988281 L 123.34766 72.597656 L 94.519531 72.597656 z M 273.97266 74.394531 C 272.1237 74.394531 270.52214 75.058592 269.16797 76.386719 C 267.83984 77.714845 267.17578 79.316406 267.17578 81.191406 C 267.17578 83.066406 267.83984 84.667974 269.16797 85.996094 C 270.52214 87.324194 272.1237 87.988281 273.97266 87.988281 C 275.84766 87.988281 277.44922 87.324194 278.77734 85.996094 C 280.10547 84.667974 280.76953 83.066406 280.76953 81.191406 C 280.76953 79.316406 280.10547 77.714845 278.77734 76.386719 C 277.44922 75.058592 275.84766 74.394531 273.97266 74.394531 z M 26.857422 74.746094 L 26.857422 77.207031 L 27.990234 77.207031 L 27.990234 74.746094 L 26.857422 74.746094 z M 197.44141 75.898438 L 199.29297 78.378906 C 199.65755 77.519526 199.91797 76.855465 200.07422 76.386719 C 200.56903 77.089845 200.84246 77.480474 200.89453 77.558594 C 200.03721 79.04462 198.87266 80.524008 197.41602 81.996094 C 197.43046 81.396781 197.44141 80.753125 197.44141 79.980469 L 197.44141 75.898438 z M 244.34766 75.996094 C 245.4414 75.996094 246.23568 76.035155 246.73047 76.113281 L 246.73047 77.597656 C 246.73047 78.847656 246.5612 79.694012 246.22266 80.136719 C 245.88411 80.579425 245.25911 80.800781 244.34766 80.800781 C 243.04557 80.800781 242.10807 80.60547 241.53516 80.214844 C 240.98828 79.824224 240.71484 79.21224 240.71484 78.378906 C 240.74089 76.79036 241.95182 75.996094 244.34766 75.996094 z M 230.23047 77.363281 C 229.9961 79.785155 229.7487 80.996094 229.48828 80.996094 C 229.22787 80.996094 228.96745 80.514321 228.70703 79.550781 C 229.01953 79.108075 229.52734 78.378908 230.23047 77.363281 z M 387.73047 77.988281 C 388.90234 77.988281 389.69661 78.10547 390.11328 78.339844 C 390.52995 78.574224 390.73828 78.99089 390.73828 79.589844 C 390.73828 80.00651 390.62109 80.605465 390.38672 81.386719 C 386.76695 81.386719 384.94404 80.787764 384.91797 79.589844 C 384.91797 78.522137 385.85547 77.988281 387.73047 77.988281 z M 446.35547 77.988281 L 446.35547 84.394531 L 454.36328 84.394531 L 454.36328 77.988281 L 446.35547 77.988281 z M 461.80078 77.988281 L 461.80078 84.394531 L 469.80859 84.394531 L 469.80859 77.988281 L 461.80078 77.988281 z M 101.94141 78.183594 L 115.92578 78.183594 L 115.92578 80.996094 L 101.94141 80.996094 L 101.94141 78.183594 z M 273.97266 79.003906 C 274.57161 79.003906 275.09244 79.225262 275.53516 79.667969 C 275.97786 80.110675 276.19922 80.631509 276.19922 81.230469 C 276.19922 81.803382 275.97786 82.311193 275.53516 82.753906 C 275.09244 83.170573 274.57161 83.378906 273.97266 83.378906 C 273.39974 83.378906 272.89193 83.170573 272.44922 82.753906 C 272.00651 82.311193 271.78516 81.803382 271.78516 81.230469 C 271.78516 80.631509 272.00651 80.110675 272.44922 79.667969 C 272.89193 79.225262 273.39974 79.003906 273.97266 79.003906 z "
       transform="translate(0,912.36214)"
       id="path4193" />
  </g>
</svg>
