<?xml version="1.0" encoding="UTF-8" standalone="no"?>
<!-- Created with Inkscape (http://www.inkscape.org/) -->

<svg
   xmlns:dc="http://purl.org/dc/elements/1.1/"
   xmlns:cc="http://creativecommons.org/ns#"
   xmlns:rdf="http://www.w3.org/1999/02/22-rdf-syntax-ns#"
   xmlns:svg="http://www.w3.org/2000/svg"
   xmlns="http://www.w3.org/2000/svg"
   xmlns:sodipodi="http://sodipodi.sourceforge.net/DTD/sodipodi-0.dtd"
   xmlns:inkscape="http://www.inkscape.org/namespaces/inkscape"
   width="520"
   height="140"
   viewBox="0 0 520.00001 140"
   id="svg2"
   version="1.1"
   inkscape:version="0.91 r13725"
   sodipodi:docname="1.svg">
  <defs
     id="defs4" />
  <sodipodi:namedview
     id="base"
     pagecolor="#ffffff"
     bordercolor="#666666"
     borderopacity="1.0"
     inkscape:pageopacity="0.0"
     inkscape:pageshadow="2"
     inkscape:zoom="1.4"
     inkscape:cx="198.07666"
     inkscape:cy="53.459593"
     inkscape:document-units="px"
     inkscape:current-layer="layer1"
     showgrid="false"
     units="px"
     inkscape:snap-object-midpoints="true"
     inkscape:snap-page="true"
     inkscape:snap-center="true"
     inkscape:snap-bbox="true"
     inkscape:snap-grids="true"
     inkscape:snap-to-guides="true"
     inkscape:bbox-paths="true"
     inkscape:bbox-nodes="true"
     inkscape:snap-bbox-edge-midpoints="true"
     inkscape:snap-bbox-midpoints="true"
     inkscape:window-width="1920"
     inkscape:window-height="965"
     inkscape:window-x="-8"
     inkscape:window-y="-8"
     inkscape:window-maximized="1" />
  <metadata
     id="metadata7">
    <rdf:RDF>
      <cc:Work
         rdf:about="">
        <dc:format>image/svg+xml</dc:format>
        <dc:type
           rdf:resource="http://purl.org/dc/dcmitype/StillImage" />
        <dc:title />
      </cc:Work>
    </rdf:RDF>
  </metadata>
  <g
     inkscape:label="レイヤー 1"
     inkscape:groupmode="layer"
     id="layer1"
     transform="translate(0,-912.36214)">
    <path
       style="font-style:normal;font-variant:normal;font-weight:900;font-stretch:normal;font-size:medium;line-height:125%;font-family:'Mgen+ 1c';-inkscape-font-specification:'Mgen+ 1c Heavy';text-align:center;letter-spacing:0px;word-spacing:0px;text-anchor:middle;fill:#000000;fill-opacity:1;stroke:none;stroke-width:1px;stroke-linecap:butt;stroke-linejoin:miter;stroke-opacity:1"
       d="M 254.04297 12.595703 L 249.78516 16.072266 L 249.78516 17.224609 L 254.00391 13.767578 L 254.04297 13.767578 L 254.04297 27.205078 L 255.03906 27.205078 L 255.03906 12.595703 L 254.04297 12.595703 z M 261.46484 12.595703 L 261.46484 13.474609 L 268.69141 13.474609 L 268.69141 13.513672 L 263.39844 18.708984 L 263.39844 19.548828 L 264.94141 19.548828 C 266.41276 19.548828 267.48698 19.815756 268.16406 20.349609 C 268.85417 20.870443 269.19922 21.671226 269.19922 22.751953 C 269.19922 25.278 267.83203 26.541016 265.09766 26.541016 C 263.83463 26.541016 262.67578 26.2155 261.62109 25.564453 L 261.62109 26.560547 C 262.64974 27.12044 263.80859 27.400391 265.09766 27.400391 C 266.76432 27.400391 268.03386 27.009762 268.90625 26.228516 C 269.77864 25.434242 270.21484 24.275393 270.21484 22.751953 C 270.21484 21.436853 269.8177 20.440759 269.02344 19.763672 C 268.22916 19.086592 267.07031 18.748047 265.54688 18.748047 L 264.70703 18.748047 L 264.70703 18.708984 L 270 13.474609 L 270 12.595703 L 261.46484 12.595703 z M 72.402344 50.605469 L 72.402344 89.394531 L 85.996094 89.394531 C 83.470052 86.868485 81.503906 83.92578 80.097656 80.566406 C 78.691406 77.180986 77.988281 73.665365 77.988281 70.019531 C 77.988281 66.347658 78.691406 62.83203 80.097656 59.472656 C 81.503906 56.087236 83.470052 53.131509 85.996094 50.605469 L 72.402344 50.605469 z M 173.18359 50.605469 C 175.70964 53.131509 177.67578 56.087236 179.08203 59.472656 C 180.48828 62.83203 181.19141 66.347658 181.19141 70.019531 C 181.19141 73.665365 180.48828 77.180986 179.08203 80.566406 C 177.67578 83.92578 175.70964 86.868485 173.18359 89.394531 L 186.77734 89.394531 L 186.77734 50.605469 L 173.18359 50.605469 z M 106.58203 50.800781 L 106.58203 54.980469 L 92.988281 54.980469 L 92.988281 62.597656 C 92.988281 68.43099 92.779948 72.636724 92.363281 75.214844 C 91.946615 77.79297 91.152343 80.123698 89.980469 82.207031 L 94.785156 88.613281 C 96.08724 86.842475 97.128906 84.902342 97.910156 82.792969 L 98.183594 87.402344 C 105.5013 87.063804 112.97526 86.321615 120.60547 85.175781 C 121.36068 86.842421 121.89453 88.053327 122.20703 88.808594 L 128.80859 85.996094 C 126.72526 81.152347 124.3164 75.878908 121.58203 70.175781 L 114.98047 72.988281 C 116.20443 75.540368 117.23307 77.74089 118.06641 79.589844 C 115.25391 79.92839 112.49349 80.214845 109.78516 80.449219 C 112.1289 75.292965 114.26432 69.680988 116.19141 63.613281 L 108.80859 62.011719 C 106.64714 68.938799 104.23828 75.266927 101.58203 80.996094 C 100.90495 81.048194 99.850263 81.100277 98.417969 81.152344 C 99.459635 77.662764 99.980469 73.339847 99.980469 68.183594 L 99.980469 61.191406 L 127.59766 61.191406 L 127.59766 54.980469 L 114.19922 54.980469 L 114.19922 50.800781 L 106.58203 50.800781 z M 136.97266 51.386719 C 135.48828 55.084632 133.56119 58.886715 131.19141 62.792969 L 136.38672 64.980469 L 131.19141 64.980469 L 131.19141 70.996094 L 167.98828 70.996094 L 167.98828 64.980469 L 154.19922 64.980469 L 154.19922 61.191406 L 166.38672 61.191406 L 166.38672 55.410156 L 154.19922 55.410156 L 154.19922 51.582031 L 146.58203 51.582031 L 146.58203 55.410156 L 142.87109 55.410156 C 143.39193 54.029943 143.70443 53.157549 143.80859 52.792969 L 136.97266 51.386719 z M 264.78516 52.011719 C 261.16536 60.944012 256.89453 71.86849 251.97266 84.785156 L 258.80859 87.207031 C 260.97005 81.998698 262.6888 78.430986 263.96484 76.503906 C 265.26693 74.57682 266.41276 73.613281 267.40234 73.613281 C 267.76693 73.613281 268.06641 73.860675 268.30078 74.355469 C 268.5612 74.824215 268.78256 75.761715 268.96484 77.167969 C 269.4336 80.527342 270.33203 82.910153 271.66016 84.316406 C 272.98828 85.696613 274.90234 86.386719 277.40234 86.386719 C 279.01693 86.386719 280.38411 86.022135 281.50391 85.292969 C 282.62369 84.589842 283.6914 83.274736 284.70703 81.347656 C 285.72266 79.39453 286.6862 76.67318 287.59766 73.183594 L 280.99609 71.386719 C 279.72005 76.334632 278.58724 78.808594 277.59766 78.808594 C 277.18099 78.808594 276.85547 78.535155 276.62109 77.988281 C 276.38672 77.415368 276.1914 76.321618 276.03516 74.707031 C 275.72266 71.451825 275.09766 69.186196 274.16016 67.910156 C 273.22266 66.63411 271.82943 65.996094 269.98047 65.996094 C 269.17318 65.996094 268.11849 66.269526 266.81641 66.816406 L 266.77734 66.777344 C 268.26172 62.923177 269.92839 58.66536 271.77734 54.003906 L 264.78516 52.011719 z M 388.80859 52.402344 L 388.80859 55.605469 L 373.57422 55.605469 L 373.57422 62.011719 L 388.80859 62.011719 L 388.80859 63.613281 L 375.17578 63.613281 L 375.17578 69.785156 L 388.80859 69.785156 L 388.80859 71.738281 C 387.58464 71.503908 386.3737 71.386719 385.17578 71.386719 C 382.10287 71.386719 379.73307 72.076825 378.06641 73.457031 C 376.42578 74.837238 375.60547 76.751299 375.60547 79.199219 C 375.60547 81.725259 376.4388 83.691403 378.10547 85.097656 C 379.79818 86.503903 382.15495 87.207031 385.17578 87.207031 C 388.09245 87.207031 390.35807 86.803387 391.97266 85.996094 C 393.61328 85.188807 394.74609 83.873701 395.37109 82.050781 C 396.82943 83.170575 398.49609 84.615885 400.37109 86.386719 L 404.78516 81.582031 C 401.63411 78.587238 398.70443 76.282549 395.99609 74.667969 L 395.99609 69.785156 L 404.00391 69.785156 L 404.00391 63.613281 L 395.99609 63.613281 L 395.99609 62.011719 L 405.60547 62.011719 L 405.60547 55.605469 L 395.99609 55.605469 L 395.99609 52.402344 L 388.80859 52.402344 z M 296.58203 53.183594 C 296.1914 58.730474 295.99609 64.602868 295.99609 70.800781 C 295.99609 75.019535 296.41276 78.27474 297.24609 80.566406 C 298.07943 82.858073 299.39453 84.45964 301.19141 85.371094 C 302.98828 86.308594 305.52735 86.777344 308.80859 86.777344 C 312.74089 86.777344 316.15234 85.579427 319.04297 83.183594 C 321.9336 80.78776 324.38151 76.920571 326.38672 71.582031 L 319.58984 69.003906 C 318.02734 72.832026 316.37369 75.553382 314.62891 77.167969 C 312.91015 78.782549 310.97005 79.589844 308.80859 79.589844 C 307.50651 79.589844 306.50391 79.368488 305.80078 78.925781 C 305.1237 78.457035 304.61589 77.597656 304.27734 76.347656 C 303.96484 75.07161 303.80859 73.222655 303.80859 70.800781 C 303.80859 64.967448 304.0039 59.160153 304.39453 53.378906 L 296.58203 53.183594 z M 220.37109 53.613281 L 219.58984 59.980469 C 226.46484 60.787762 233.47005 61.191406 240.60547 61.191406 L 240.60547 54.785156 C 233.86068 54.811196 227.11589 54.420575 220.37109 53.613281 z M 352.79297 59.121094 L 346.62109 60.722656 C 346.72526 61.087236 346.93359 61.725259 347.24609 62.636719 C 347.55859 63.548179 347.79297 64.264323 347.94922 64.785156 C 347.14193 65.07161 346.36068 65.358071 345.60547 65.644531 C 345.11068 64.003905 344.52474 62.141927 343.84766 60.058594 L 337.67578 61.816406 C 338.53515 64.498693 339.17318 66.516927 339.58984 67.871094 C 339.2513 68.001307 338.45703 68.313807 337.20703 68.808594 C 335.98307 69.303387 334.99349 69.694009 334.23828 69.980469 L 336.30859 75.527344 C 336.80339 75.29297 338.45703 74.615887 341.26953 73.496094 C 342.46745 77.58464 343.71745 82.233073 345.01953 87.441406 L 351.34766 85.996094 C 350.33203 81.881514 348.97786 76.933597 347.28516 71.152344 C 347.54557 71.048177 347.9362 70.904943 348.45703 70.722656 C 349.0039 70.514323 349.39453 70.371095 349.62891 70.292969 C 349.75911 70.735675 349.94141 71.373698 350.17578 72.207031 C 350.43621 73.040365 350.59246 73.535153 350.64453 73.691406 L 356.46484 72.089844 C 356.41276 71.82943 356.32161 71.490885 356.19141 71.074219 C 356.08724 70.657552 355.98307 70.253908 355.87891 69.863281 C 355.80078 69.472655 355.70964 69.121094 355.60547 68.808594 C 356.4388 68.86068 357.0638 69.108075 357.48047 69.550781 C 357.92318 69.967448 358.14453 70.540365 358.14453 71.269531 C 358.14453 72.180991 357.85807 72.910158 357.28516 73.457031 C 356.73828 73.977865 355.98307 74.238281 355.01953 74.238281 C 354.42057 74.238281 353.57422 74.160153 352.48047 74.003906 L 351.81641 79.589844 C 352.88411 79.798177 353.95182 79.902344 355.01953 79.902344 C 358.04036 79.902344 360.39714 79.13411 362.08984 77.597656 C 363.78256 76.035156 364.62891 73.821618 364.62891 70.957031 C 364.62891 68.561198 363.8737 66.634115 362.36328 65.175781 C 360.87891 63.691408 358.96485 62.949219 356.62109 62.949219 C 355.89193 62.949219 355.01953 63.027347 354.00391 63.183594 C 353.45703 61.33464 353.05338 59.980474 352.79297 59.121094 z M 140.25391 61.191406 L 146.58203 61.191406 L 146.58203 64.980469 L 138.14453 64.980469 C 138.95182 63.678382 139.65495 62.41536 140.25391 61.191406 z M 216.19141 62.011719 C 215.61849 65.917965 214.95443 70.045571 214.19922 74.394531 L 220.99609 75.800781 C 226.02214 72.988281 229.75912 71.582031 232.20703 71.582031 C 235.2539 71.582031 236.77734 72.779948 236.77734 75.175781 C 236.77734 76.712241 235.98307 77.975264 234.39453 78.964844 C 232.80599 79.92839 230.60547 80.410156 227.79297 80.410156 C 224.90234 80.38411 221.69922 80.175776 218.18359 79.785156 L 217.59766 86.191406 C 221.00911 86.582026 224.40755 86.777344 227.79297 86.777344 C 233.41797 86.777344 237.75391 85.735677 240.80078 83.652344 C 243.84765 81.56901 245.37109 78.743488 245.37109 75.175781 C 245.37109 71.738281 244.42057 69.212236 242.51953 67.597656 C 240.64453 65.98307 237.59765 65.175781 233.37891 65.175781 C 230.12369 65.201821 226.60807 66.347655 222.83203 68.613281 L 222.79297 68.613281 C 223.15755 66.009115 223.41797 64.003903 223.57422 62.597656 L 216.19141 62.011719 z M 14.416016 62.597656 L 14.416016 63.476562 L 21.642578 63.476562 L 21.642578 63.515625 L 16.349609 68.710938 L 16.349609 69.550781 L 17.892578 69.550781 C 19.363933 69.550781 20.438151 69.817709 21.115234 70.351562 C 21.805338 70.872396 22.150391 71.673173 22.150391 72.753906 C 22.150391 75.279946 20.783203 76.542969 18.048828 76.542969 C 16.785807 76.542969 15.626953 76.217446 14.572266 75.566406 L 14.572266 76.5625 C 15.600912 77.122393 16.759766 77.402344 18.048828 77.402344 C 19.715495 77.402344 20.985026 77.011715 21.857422 76.230469 C 22.729818 75.436195 23.166016 74.27734 23.166016 72.753906 C 23.166016 71.4388 22.76888 70.442705 21.974609 69.765625 C 21.180338 69.088538 20.021484 68.75 18.498047 68.75 L 17.658203 68.75 L 17.658203 68.710938 L 22.951172 63.476562 L 22.951172 62.597656 L 14.416016 62.597656 z M 32.482422 62.597656 L 31.994141 69.941406 L 32.931641 69.941406 C 33.738932 69.303386 34.689453 68.984375 35.783203 68.984375 C 36.994141 68.984375 37.912109 69.283859 38.537109 69.882812 C 39.17513 70.481773 39.494141 71.354167 39.494141 72.5 C 39.494141 73.841147 39.142578 74.850264 38.439453 75.527344 C 37.749349 76.20443 36.733724 76.542969 35.392578 76.542969 C 34.194661 76.542969 33.009765 76.223958 31.837891 75.585938 L 31.837891 76.5625 C 32.944661 77.122393 34.129557 77.402344 35.392578 77.402344 C 37.059245 77.402344 38.328776 76.985677 39.201172 76.152344 C 40.073568 75.30599 40.509766 74.08854 40.509766 72.5 C 40.509766 71.119793 40.10612 70.052082 39.298828 69.296875 C 38.504557 68.528642 37.371745 68.144531 35.900391 68.144531 C 34.858724 68.144531 33.914713 68.411459 33.068359 68.945312 L 33.029297 68.945312 L 33.400391 63.476562 L 39.904297 63.476562 L 39.904297 62.597656 L 32.482422 62.597656 z M 412.79297 66.191406 L 412.79297 73.808594 L 446.38672 73.808594 L 446.38672 66.191406 L 412.79297 66.191406 z M 135.17578 72.597656 L 135.17578 87.988281 L 142.59766 87.988281 L 142.59766 86.386719 L 156.58203 86.386719 L 156.58203 87.988281 L 164.00391 87.988281 L 164.00391 72.597656 L 135.17578 72.597656 z M 26.857422 74.746094 L 26.857422 77.207031 L 27.990234 77.207031 L 27.990234 74.746094 L 26.857422 74.746094 z M 385.99609 77.597656 C 386.85547 77.597656 387.79297 77.766929 388.80859 78.105469 C 388.75651 79.199215 388.48307 79.928382 387.98828 80.292969 C 387.51953 80.631509 386.58203 80.800781 385.17578 80.800781 C 383.58724 80.800781 382.79297 80.266925 382.79297 79.199219 C 382.79297 78.131512 383.86068 77.597656 385.99609 77.597656 z M 142.59766 78.183594 L 156.58203 78.183594 L 156.58203 80.996094 L 142.59766 80.996094 L 142.59766 78.183594 z "
       transform="translate(0,912.36214)"
       id="path9713" />
  </g>
</svg>
