<?xml version="1.0" encoding="UTF-8" standalone="no"?>
<!-- Created with Inkscape (http://www.inkscape.org/) -->

<svg
   xmlns:dc="http://purl.org/dc/elements/1.1/"
   xmlns:cc="http://creativecommons.org/ns#"
   xmlns:rdf="http://www.w3.org/1999/02/22-rdf-syntax-ns#"
   xmlns:svg="http://www.w3.org/2000/svg"
   xmlns="http://www.w3.org/2000/svg"
   xmlns:sodipodi="http://sodipodi.sourceforge.net/DTD/sodipodi-0.dtd"
   xmlns:inkscape="http://www.inkscape.org/namespaces/inkscape"
   width="520"
   height="140"
   viewBox="0 0 520.00001 140"
   id="svg2"
   version="1.1"
   inkscape:version="0.91 r13725"
   sodipodi:docname="10.svg">
  <defs
     id="defs4" />
  <sodipodi:namedview
     id="base"
     pagecolor="#ffffff"
     bordercolor="#666666"
     borderopacity="1.0"
     inkscape:pageopacity="0.0"
     inkscape:pageshadow="2"
     inkscape:zoom="1.2432572"
     inkscape:cx="64.203049"
     inkscape:cy="120.04949"
     inkscape:document-units="px"
     inkscape:current-layer="layer1"
     showgrid="false"
     units="px"
     inkscape:snap-page="true"
     inkscape:snap-object-midpoints="true"
     inkscape:snap-bbox="true"
     inkscape:snap-bbox-midpoints="true"
     inkscape:snap-bbox-edge-midpoints="true"
     inkscape:bbox-nodes="true"
     inkscape:bbox-paths="true"
     inkscape:window-width="1920"
     inkscape:window-height="965"
     inkscape:window-x="-8"
     inkscape:window-y="-8"
     inkscape:window-maximized="1" />
  <metadata
     id="metadata7">
    <rdf:RDF>
      <cc:Work
         rdf:about="">
        <dc:format>image/svg+xml</dc:format>
        <dc:type
           rdf:resource="http://purl.org/dc/dcmitype/StillImage" />
        <dc:title></dc:title>
      </cc:Work>
    </rdf:RDF>
  </metadata>
  <g
     inkscape:label="レイヤー 1"
     inkscape:groupmode="layer"
     id="layer1"
     transform="translate(0,-912.36236)">
    <path
       style="font-style:normal;font-variant:normal;font-weight:bold;font-stretch:normal;font-size:50px;line-height:125%;font-family:'Mgen+ 1c';-inkscape-font-specification:'Mgen+ 1c Bold';text-align:center;letter-spacing:0px;word-spacing:0px;text-anchor:middle;fill:#000000;fill-opacity:1;stroke:none;stroke-width:1px;stroke-linecap:butt;stroke-linejoin:miter;stroke-opacity:1"
       d="M 216.08398 9.3085938 C 215.27018 11.066407 214.30989 12.824218 213.20312 14.582031 C 212.51953 13.833331 212.01498 13.296223 211.68945 12.970703 L 209.54102 18 C 209.89909 18.390627 211.36393 20.001951 213.93555 22.833984 L 212.42188 24.591797 L 209.78516 24.738281 L 209.93164 29.816406 L 215.35156 29.523438 L 215.35156 40.558594 L 220.18555 40.558594 L 220.18555 29.230469 L 222.48047 29.083984 C 222.51302 29.279298 222.57813 29.539714 222.67578 29.865234 C 222.77346 30.190754 222.83856 30.434896 222.87109 30.597656 L 220.77148 30.890625 C 221.1621 33.755205 221.4388 36.880205 221.60156 40.265625 L 225.06836 39.582031 C 224.87305 36.326818 224.64518 33.576171 224.38477 31.330078 L 226.5332 30.695312 C 225.78451 26.886719 224.88932 23.338541 223.84766 20.050781 L 220.77148 21.027344 C 222.26888 19.041664 223.73372 16.925781 225.16602 14.679688 L 221.16211 12.775391 C 219.99024 14.565757 218.5905 16.60026 216.96289 18.878906 C 216.63737 18.455726 216.37695 18.130204 216.18164 17.902344 C 217.54883 16.014324 218.93229 13.73568 220.33203 11.066406 L 216.08398 9.3085938 z M 246.40625 9.3085938 C 245.59245 11.066407 244.63216 12.824218 243.52539 14.582031 C 242.8418 13.833331 242.33724 13.296223 242.01172 12.970703 L 240.05859 17.414062 L 240.05859 15.314453 L 225.80078 15.314453 L 225.80078 19.416016 L 240.05859 19.416016 L 240.05859 18.244141 C 241.13281 19.383467 242.53255 20.913411 244.25781 22.833984 L 242.79297 24.591797 L 240.05859 24.738281 L 240.30273 29.816406 L 245.67383 29.523438 L 245.67383 40.558594 L 250.50781 40.558594 L 250.50781 29.230469 L 252.85156 29.083984 C 252.94922 29.442058 253.06315 29.946616 253.19336 30.597656 L 251.09375 30.890625 C 251.51693 34.308592 251.79362 37.514972 251.92383 40.509766 L 255.58594 39.679688 C 255.42318 36.457034 255.19531 33.657557 254.90234 31.28125 L 256.80664 30.695312 C 255.99284 26.593746 255.11394 23.045568 254.16992 20.050781 L 251.14258 21.027344 C 252.63997 19.041664 254.10482 16.925781 255.53711 14.679688 L 251.5332 12.775391 C 250.36133 14.565757 248.96158 16.60026 247.33398 18.878906 C 247.23632 18.781253 247.08984 18.618492 246.89453 18.390625 C 246.73177 18.162758 246.60156 17.999997 246.50391 17.902344 C 248.0013 15.81901 249.40104 13.540366 250.70312 11.066406 L 246.40625 9.3085938 z M 319.79492 9.4550781 L 319.79492 13.800781 L 310.41992 13.800781 L 310.41992 19.171875 L 319.79492 19.171875 L 319.79492 22.638672 L 326.28906 22.638672 L 326.28906 19.171875 L 339.57031 19.171875 L 339.57031 22.638672 L 346.06445 22.638672 L 346.06445 19.171875 L 355.43945 19.171875 L 355.43945 13.800781 L 346.06445 13.800781 L 346.06445 9.4550781 L 339.57031 9.4550781 L 339.57031 13.800781 L 326.28906 13.800781 L 326.28906 9.4550781 L 319.79492 9.4550781 z M 226.58203 10.333984 L 226.58203 14.044922 L 239.27734 14.044922 L 239.27734 10.333984 L 226.58203 10.333984 z M 161.44531 10.96875 L 161.44531 16.046875 L 164.76562 16.046875 L 161.83594 19.416016 C 164.47266 20.750649 166.84896 22.020183 168.96484 23.224609 C 166.26302 24.168623 163.54492 24.998697 160.81055 25.714844 L 162.42188 30.304688 C 165.12369 29.490888 167.35351 28.774743 169.11133 28.15625 L 169.25781 30.304688 C 172.67579 30.369821 174.87305 30.402344 175.84961 30.402344 C 177.50977 30.402344 178.73047 30.337238 179.51172 30.207031 L 179.51172 32.160156 L 160.66406 32.160156 L 160.66406 36.945312 L 169.89258 36.945312 C 167.74414 39.289059 164.55403 41.242187 160.32227 42.804688 L 163.34961 46.417969 L 159.93164 46.417969 L 159.93164 51.544922 L 179.51172 51.544922 L 179.51172 55.939453 L 186.34766 55.939453 L 186.34766 51.544922 L 205.92773 51.544922 L 205.92773 46.417969 L 202.07031 46.417969 L 205.53711 42.804688 C 202.57487 41.372394 199.222 40.005205 195.47852 38.703125 C 195.86914 38.182292 196.22721 37.596352 196.55273 36.945312 L 205.19531 36.945312 L 205.19531 32.160156 L 186.34766 32.160156 L 186.34766 29.767578 C 187.97526 29.279298 189.58659 28.74219 191.18164 28.15625 L 191.32812 30.304688 C 194.71354 30.369821 196.91081 30.402344 197.91992 30.402344 C 200.68685 30.402344 202.39583 30.190758 203.04688 29.767578 C 203.69791 29.311851 204.02344 28.205079 204.02344 26.447266 L 204.02344 10.96875 L 183.51562 10.96875 L 183.51562 16.046875 L 186.88477 16.046875 L 183.90625 19.416016 C 186.57552 20.750649 188.9681 22.020183 191.08398 23.224609 C 188.38216 24.168623 185.66406 24.998697 182.92969 25.714844 L 184.24805 29.474609 L 181.26953 29.474609 C 181.72526 28.986329 181.95312 27.977212 181.95312 26.447266 L 181.95312 10.96875 L 161.44531 10.96875 z M 262.76367 13.214844 L 262.76367 19.220703 L 279.41406 19.220703 L 279.41406 46.417969 L 261.29883 46.417969 L 261.29883 52.423828 L 304.56055 52.423828 L 304.56055 46.417969 L 286.44531 46.417969 L 286.44531 19.220703 L 303.0957 19.220703 L 303.0957 13.214844 L 262.76367 13.214844 z M 166.42578 16.046875 L 175.55664 16.046875 L 175.55664 24.835938 C 175.55664 25.226564 175.52412 25.470706 175.45898 25.568359 C 175.39388 25.633486 175.21484 25.68231 174.92188 25.714844 L 173.94531 21.222656 C 172.64323 21.808596 171.25977 22.378261 169.79492 22.931641 L 172.77344 19.367188 C 170.39714 18.065108 168.28125 16.958335 166.42578 16.046875 z M 188.49609 16.046875 L 197.67578 16.046875 L 197.67578 24.835938 C 197.67578 25.226564 197.64319 25.470706 197.57812 25.568359 C 197.51302 25.633486 197.33398 25.68231 197.04102 25.714844 L 196.01562 21.222656 C 195.07161 21.613283 193.67187 22.182947 191.81641 22.931641 L 194.84375 19.367188 C 192.46745 18.065108 190.35156 16.958335 188.49609 16.046875 z M 226.58203 20.685547 L 226.58203 24.396484 L 239.27734 24.396484 L 239.27734 20.685547 L 226.58203 20.685547 z M 220.47852 21.369141 C 220.86914 22.703781 221.12955 23.647785 221.25977 24.201172 L 218.23242 24.347656 L 220.47852 21.369141 z M 250.84961 21.369141 C 251.24024 22.703781 251.50065 23.647785 251.63086 24.201172 L 248.50586 24.347656 C 249.05925 23.696616 249.8405 22.703781 250.84961 21.369141 z M 315.30273 24.982422 L 315.30273 30.207031 L 350.55664 30.207031 L 350.55664 24.982422 L 315.30273 24.982422 z M 226.58203 25.666016 L 226.58203 29.425781 L 239.27734 29.425781 L 239.27734 25.666016 L 226.58203 25.666016 z M 211.10352 30.646484 C 210.87565 33.641278 210.37109 36.652348 209.58984 39.679688 L 213.30078 40.509766 C 214.08203 37.124346 214.57031 33.950515 214.76562 30.988281 L 211.10352 30.646484 z M 226.58203 30.646484 L 226.58203 40.167969 L 230.78125 40.167969 L 239.27734 40.167969 L 239.27734 30.646484 L 226.58203 30.646484 z M 241.57227 30.646484 C 241.27929 33.771484 240.77473 36.749998 240.05859 39.582031 L 243.57422 40.265625 C 244.38802 37.010418 244.89258 33.917968 245.08789 30.988281 L 241.57227 30.646484 z M 310.9082 33.966797 L 310.9082 39.435547 L 324.04297 39.435547 C 322.51302 42.820967 321.06445 45.766931 319.69727 48.273438 C 317.32096 48.371097 315.00977 48.468753 312.76367 48.566406 L 313.05664 54.083984 C 323.60351 53.725911 334.88281 52.798175 346.89453 51.300781 C 347.44792 52.440101 348.16406 53.937502 349.04297 55.792969 L 354.90234 53.644531 C 352.49348 48.631505 350.06836 43.89518 347.62695 39.435547 L 354.95117 39.435547 L 354.95117 33.966797 L 310.9082 33.966797 z M 230.78125 34.308594 L 235.07812 34.308594 L 235.07812 36.212891 L 230.78125 36.212891 L 230.78125 34.308594 z M 176.875 36.945312 L 189.86328 36.945312 C 188.17057 38.735673 185.89192 40.330729 183.02734 41.730469 C 180.78124 40.688802 178.37239 39.679685 175.80078 38.703125 C 176.25651 38.019532 176.61459 37.433593 176.875 36.945312 z M 331.26953 39.435547 L 346.79688 39.435547 L 341.76758 41.291016 C 342.8418 43.309242 343.68815 44.953123 344.30664 46.222656 C 339.03321 46.808596 333.36915 47.32943 327.31445 47.785156 C 328.58399 45.376303 329.90234 42.5931 331.26953 39.435547 z M 229.51172 41.144531 L 229.51172 48.664062 L 220.67383 48.664062 L 220.67383 42.316406 L 213.93555 42.316406 L 213.93555 55.939453 L 220.67383 55.939453 L 220.67383 53.693359 L 245.18555 53.693359 L 245.18555 55.939453 L 251.92383 55.939453 L 251.92383 42.169922 L 245.18555 42.169922 L 245.18555 48.664062 L 236.34766 48.664062 L 236.34766 41.144531 L 229.51172 41.144531 z M 183.02734 42.072266 L 185.22461 44.318359 L 180.78125 44.318359 L 183.02734 42.072266 z M 172.08984 42.414062 C 174.72656 43.358069 177.20052 44.399736 179.51172 45.539062 L 179.51172 46.417969 L 164.76562 46.417969 C 167.69531 45.278649 170.13672 43.944009 172.08984 42.414062 z M 191.47461 42.560547 C 194.59961 43.634767 197.72461 44.920575 200.84961 46.417969 L 186.34766 46.417969 L 186.34766 45.441406 C 188.43099 44.497393 190.13998 43.537107 191.47461 42.560547 z M 37.818359 66.298828 L 37.818359 69.011719 L 24.728516 69.011719 L 24.728516 71.037109 L 53.527344 71.037109 L 53.527344 69.011719 L 40.4375 69.011719 L 40.4375 66.298828 L 37.818359 66.298828 z M 82.300781 66.357422 C 82.300781 67.390675 82.225162 68.304809 82.076172 69.099609 L 74.830078 69.099609 L 74.830078 71.15625 L 81.501953 71.15625 C 80.37389 73.898263 77.979245 75.686944 74.318359 76.521484 L 75.117188 78.488281 C 78.501378 77.733228 81.055276 76.105116 82.779297 73.601562 C 85.908077 75.032182 88.919799 76.750953 91.814453 78.757812 L 92.931641 76.789062 C 90.164692 74.980916 87.099235 73.322547 83.736328 71.8125 C 83.778892 71.733013 83.822661 71.623508 83.865234 71.484375 C 83.929084 71.325755 83.970901 71.216183 83.992188 71.15625 L 92.484375 71.15625 L 92.484375 69.099609 L 84.566406 69.099609 C 84.715396 68.304809 84.791016 67.390675 84.791016 66.357422 L 82.300781 66.357422 z M 241.51758 66.537109 L 239.92188 67.998047 C 241.70975 69.249854 243.50725 70.749547 245.31641 72.498047 L 247.00977 71.097656 C 245.39217 69.547803 243.56086 68.027316 241.51758 66.537109 z M 115.44922 66.597656 L 115.44922 69.935547 L 102.23047 69.935547 L 102.23047 72.021484 L 115.44922 72.021484 L 115.44922 75.984375 L 104.33789 75.984375 L 104.33789 91.603516 L 106.82812 91.603516 L 106.82812 78.041016 L 115.44922 78.041016 L 115.44922 94.494141 L 118.06641 94.494141 L 118.06641 78.041016 L 126.87891 78.041016 L 126.87891 87.728516 C 126.87891 88.602849 126.81325 89.118477 126.68555 89.277344 C 126.55785 89.416477 126.13382 89.486328 125.41016 89.486328 C 124.5375 89.486328 123.17399 89.437291 121.32227 89.337891 L 121.41797 91.453125 C 124.01465 91.552458 125.51552 91.603516 125.91992 91.603516 C 127.45238 91.603516 128.40985 91.393829 128.79297 90.976562 C 129.17608 90.539429 129.36914 89.457182 129.36914 87.728516 L 129.36914 75.984375 L 118.06641 75.984375 L 118.06641 72.021484 L 131.47461 72.021484 L 131.47461 69.935547 L 118.06641 69.935547 L 118.06641 66.597656 L 115.44922 66.597656 z M 235.29297 66.804688 C 235.29297 69.467281 235.39849 71.911365 235.61133 74.136719 L 226.28906 74.941406 L 226.44922 77.027344 L 235.83594 76.222656 C 236.13392 78.74611 236.56986 81.052385 237.14453 83.138672 C 237.7192 85.205119 238.33629 86.893658 238.99609 88.205078 C 239.65591 89.516478 240.34666 90.628969 241.07031 91.542969 C 241.81527 92.437169 242.49799 93.073639 243.11523 93.451172 C 243.75376 93.828705 244.33899 94.017578 244.87109 94.017578 C 246.82924 94.017578 248.11518 91.482869 248.73242 86.416016 L 246.62695 85.701172 C 246.39283 87.191345 246.16792 88.364283 245.95508 89.21875 C 245.76352 90.053217 245.57242 90.619902 245.38086 90.917969 C 245.18931 91.216035 244.96635 91.365234 244.71094 91.365234 C 244.4981 91.365234 244.19953 91.176295 243.81641 90.798828 C 243.45457 90.421295 243.01863 89.815002 242.50781 88.980469 C 241.99699 88.145869 241.49735 87.15246 241.00781 86 C 240.51827 84.84758 240.0286 83.396937 239.53906 81.648438 C 239.07082 79.879971 238.69858 78.002585 238.42188 76.015625 L 248.19141 75.179688 L 248.03125 73.123047 L 238.13477 73.927734 C 237.90064 71.662574 237.7832 69.288408 237.7832 66.804688 L 235.29297 66.804688 z M 225.33203 66.835938 C 223.96984 72.419291 221.49957 77.216742 217.92383 81.230469 L 219.23438 83.40625 C 220.21345 82.333317 221.19085 81.031966 222.16992 79.501953 L 222.16992 94.195312 L 224.69336 94.195312 L 224.69336 75.597656 C 226.03427 73.193363 227.05543 70.441437 227.75781 67.341797 L 225.33203 66.835938 z M 206.42188 67.042969 C 199.48322 68.731889 191.53487 69.576172 182.57422 69.576172 L 182.57422 71.693359 C 186.14997 71.693359 189.71506 71.553591 193.26953 71.275391 L 193.26953 79.324219 L 179.95508 79.324219 L 179.95508 81.529297 L 193.26953 81.529297 L 193.26953 94.195312 L 195.88672 94.195312 L 195.88672 81.529297 L 209.20117 81.529297 L 209.20117 79.324219 L 195.88672 79.324219 L 195.88672 71.007812 C 199.8243 70.570639 203.50683 69.945493 206.93359 69.130859 L 206.42188 67.042969 z M 67.646484 67.074219 L 67.646484 89.605469 L 65.826172 89.605469 L 65.826172 71.007812 L 63.71875 71.007812 L 63.71875 93.599609 L 65.986328 93.599609 L 65.986328 91.632812 L 73.839844 91.632812 L 73.839844 80.962891 L 88.525391 80.962891 L 88.525391 90.023438 C 88.525391 90.877837 88.461689 91.384035 88.333984 91.542969 C 88.206278 91.701902 87.814108 91.78125 87.154297 91.78125 C 86.281644 91.78125 85.025603 91.732079 83.386719 91.632812 L 83.482422 93.628906 C 85.249011 93.728306 86.632454 93.779297 87.632812 93.779297 C 89.101424 93.779297 90.02704 93.56961 90.410156 93.152344 C 90.793272 92.735077 90.984375 91.66226 90.984375 89.933594 L 90.984375 80.962891 L 93.283203 80.962891 L 93.283203 78.935547 L 73.839844 78.935547 L 73.839844 71.007812 L 71.701172 71.007812 L 71.701172 89.605469 L 69.880859 89.605469 L 69.880859 67.074219 L 67.646484 67.074219 z M 258.51172 67.789062 L 258.51172 90.171875 L 261.0332 90.171875 L 261.0332 87.818359 L 271.56836 87.818359 L 271.56836 89.546875 L 273.99609 89.546875 L 273.99609 72.080078 L 281.11523 72.080078 L 281.11523 89.933594 C 281.11523 90.80786 281.03961 91.325442 280.89062 91.484375 C 280.74164 91.623508 280.18826 91.691406 279.23047 91.691406 C 278.86864 91.691406 277.34783 91.642369 274.66602 91.542969 L 274.76172 93.628906 C 277.69895 93.728306 279.30534 93.779297 279.58203 93.779297 C 281.45504 93.779297 282.60557 93.579107 283.03125 93.181641 C 283.45694 92.784307 283.66992 91.701994 283.66992 89.933594 L 283.66992 72.080078 L 287.24414 72.080078 L 287.24414 69.964844 L 273.99609 69.964844 L 273.99609 67.789062 L 258.51172 67.789062 z M 364.5 67.9375 L 364.5 93.898438 L 367.05273 93.898438 L 367.05273 92.257812 L 385.82617 92.257812 L 385.82617 93.898438 L 388.38086 93.898438 L 388.38086 67.9375 L 364.5 67.9375 z M 323.43359 68.294922 L 323.43359 70.412109 L 337.09766 70.412109 L 337.09766 89.337891 C 337.09766 90.212224 337.01207 90.739169 336.8418 90.917969 C 336.67152 91.076902 336.14999 91.15625 335.27734 91.15625 C 334.00029 91.13645 332.03163 91.026858 329.37109 90.828125 L 329.43555 92.974609 C 332.20249 93.173343 334.2886 93.271484 335.69336 93.271484 C 337.5238 93.271484 338.65244 93.063751 339.07812 92.646484 C 339.5038 92.229218 339.7168 91.145018 339.7168 89.396484 L 339.7168 70.412109 L 351.7207 70.412109 L 351.7207 68.294922 L 323.43359 68.294922 z M 149.39453 68.802734 L 149.39453 70.947266 L 159.64258 70.947266 C 160.51523 79.352186 163.46325 86.843062 168.48633 93.419922 L 170.81641 92.257812 C 168.28359 88.919626 166.26117 85.253586 164.75 81.259766 C 163.2601 77.246099 162.35638 73.094594 162.03711 68.802734 L 149.39453 68.802734 z M 304.78125 68.951172 C 302.29099 68.951172 300.03371 69.438496 298.01172 70.412109 L 298.01172 72.796875 C 300.22528 71.624548 302.37508 71.037109 304.46094 71.037109 C 306.09982 71.037109 307.34589 71.414869 308.19727 72.169922 C 309.04863 72.905135 309.47461 73.998752 309.47461 75.449219 C 309.47461 77.217619 308.64455 79.104461 306.98438 81.111328 C 305.32421 83.118195 302.17316 85.909788 297.5332 89.486328 L 297.5332 91.542969 L 312.25195 91.542969 L 312.25195 89.486328 L 301.14062 89.486328 L 301.14062 89.427734 C 305.37619 86.049841 308.27047 83.347019 309.82422 81.320312 C 311.37797 79.293612 312.15625 77.285788 312.15625 75.298828 C 312.15625 73.291961 311.50536 71.733767 310.20703 70.621094 C 308.92997 69.508347 307.12251 68.951172 304.78125 68.951172 z M 483.16992 68.951172 C 480.67967 68.951172 478.42434 69.438496 476.40234 70.412109 L 476.40234 72.796875 C 478.6159 71.624548 480.76571 71.037109 482.85156 71.037109 C 484.49045 71.037109 485.73457 71.414869 486.58594 72.169922 C 487.43731 72.905135 487.86328 73.998752 487.86328 75.449219 C 487.86328 77.217619 487.03322 79.104461 485.37305 81.111328 C 483.71288 83.118195 480.56379 85.909788 475.92383 89.486328 L 475.92383 91.542969 L 490.64062 91.542969 L 490.64062 89.486328 L 479.53125 89.486328 L 479.53125 89.427734 C 483.7668 86.049841 486.66109 83.347019 488.21484 81.320312 C 489.76859 79.293612 490.54492 77.285788 490.54492 75.298828 C 490.54492 73.291961 489.89599 71.733767 488.59766 70.621094 C 487.3206 69.508347 485.51119 68.951172 483.16992 68.951172 z M 410.89648 69.25 L 399.43555 84.359375 L 399.43555 86.357422 L 410.89648 86.357422 L 410.89648 91.542969 L 413.48242 91.542969 L 413.48242 86.357422 L 417.53711 86.357422 L 417.53711 84.359375 L 413.48242 84.359375 L 413.48242 69.25 L 410.89648 69.25 z M 449.57617 69.25 L 449.57617 71.306641 L 460.52539 71.306641 L 460.52539 71.365234 L 452.70508 78.458984 L 452.70508 80.337891 L 455.09961 80.337891 C 457.37702 80.337891 459.02524 80.69485 460.04688 81.410156 C 461.08981 82.105563 461.61133 83.17838 461.61133 84.628906 C 461.61133 86.337666 461.11169 87.62964 460.11133 88.503906 C 459.11097 89.378173 457.65191 89.814453 455.73633 89.814453 C 453.6079 89.794586 451.62927 89.297819 449.79883 88.324219 L 449.79883 90.679688 C 451.54413 91.454621 453.52276 91.841797 455.73633 91.841797 C 458.4607 91.841797 460.55873 91.226074 462.02734 89.994141 C 463.49595 88.742341 464.23047 86.953666 464.23047 84.628906 C 464.23047 82.641946 463.61143 81.13091 462.37695 80.097656 C 461.16375 79.064403 459.3981 78.548828 457.07812 78.548828 L 456.08789 78.548828 L 456.08789 78.488281 L 463.91016 71.306641 L 463.91016 69.25 L 449.57617 69.25 z M 261.0332 69.816406 L 265.18359 69.816406 L 265.18359 76.640625 L 261.0332 76.640625 L 261.0332 69.816406 z M 267.45117 69.816406 L 271.56836 69.816406 L 271.56836 76.640625 L 267.45117 76.640625 L 267.45117 69.816406 z M 367.05273 69.964844 L 385.82617 69.964844 L 385.82617 75.298828 L 367.05273 75.298828 L 367.05273 69.964844 z M 29.421875 72.707031 L 29.421875 78.964844 L 32.007812 78.964844 L 48.833984 78.964844 L 48.833984 72.707031 L 29.421875 72.707031 z M 410.83203 72.826172 L 410.89648 72.826172 L 410.89648 84.359375 L 410.89648 84.361328 L 402.11719 84.361328 L 402.11719 84.300781 L 410.83203 72.826172 z M 149.13867 73.689453 C 147.81905 80.624006 144.9785 86.813439 140.61523 92.257812 L 142.94531 93.419922 C 147.43628 87.697435 150.35245 81.281329 151.69336 74.167969 L 149.13867 73.689453 z M 32.007812 74.554688 L 46.248047 74.554688 L 46.248047 77.207031 L 32.007812 77.207031 L 32.007812 74.554688 z M 367.05273 77.296875 L 385.82617 77.296875 L 385.82617 82.75 L 367.05273 82.75 L 367.05273 77.296875 z M 261.0332 78.578125 L 265.18359 78.578125 L 265.18359 85.910156 L 261.0332 85.910156 L 261.0332 78.578125 z M 267.45117 78.578125 L 271.56836 78.578125 L 271.56836 85.910156 L 267.45117 85.910156 L 267.45117 78.578125 z M 25.623047 80.634766 L 25.623047 93.748047 L 28.113281 93.748047 L 28.113281 82.630859 L 50.142578 82.630859 L 50.142578 89.875 C 50.142578 90.709533 50.068911 91.194918 49.919922 91.333984 C 49.770933 91.473051 49.281257 91.542969 48.451172 91.542969 C 47.940351 91.542969 46.704242 91.493865 44.746094 91.394531 L 44.84375 93.480469 C 47.057309 93.579802 48.440751 93.628906 48.994141 93.628906 C 50.633026 93.628906 51.642275 93.421106 52.025391 93.003906 C 52.429791 92.58664 52.632812 91.51389 52.632812 89.785156 L 52.632812 80.634766 L 25.623047 80.634766 z M 427.98438 81.826172 L 427.98438 83.763672 L 437.97852 83.763672 L 437.97852 81.826172 L 427.98438 81.826172 z M 75.978516 82.601562 L 75.978516 92.228516 L 78.310547 92.228516 L 78.310547 90.171875 L 86.068359 90.171875 L 86.068359 82.601562 L 78.310547 82.601562 L 75.978516 82.601562 z M 31.689453 84.300781 L 31.689453 92.050781 L 34.050781 92.050781 L 34.050781 90.708984 L 46.566406 90.708984 L 46.566406 84.300781 L 31.689453 84.300781 z M 78.310547 84.419922 L 83.800781 84.419922 L 83.800781 88.324219 L 78.310547 88.324219 L 78.310547 84.419922 z M 367.05273 84.748047 L 385.82617 84.748047 L 385.82617 90.261719 L 367.05273 90.261719 L 367.05273 84.748047 z M 34.050781 86.208984 L 44.205078 86.208984 L 44.205078 88.919922 L 34.050781 88.919922 L 34.050781 86.208984 z M 191.68555 106.93945 C 190.60157 106.93945 189.47852 107.08203 188.31641 107.36523 C 187.16407 107.64843 186.24219 107.96093 185.54883 108.30273 L 185.54883 111.37891 L 185.69531 111.37891 C 186.68164 110.73437 187.69336 110.25589 188.72852 109.94336 C 189.76367 109.63089 190.72461 109.47461 191.61328 109.47461 C 192.95117 109.47461 193.99219 109.79687 194.73438 110.44141 C 195.48633 111.07614 195.86133 111.959 195.86133 113.0918 C 195.86133 114.33206 195.51563 115.49025 194.82227 116.56445 C 194.12891 117.62892 192.84375 119.06837 190.96875 120.88477 C 190.08008 121.7539 189.11914 122.62888 188.08398 123.50781 C 187.05859 124.38668 186.0332 125.2656 185.00781 126.14453 L 185.00781 129.20508 L 199.77148 129.20508 L 199.77148 126.70117 L 188.03906 126.70117 C 189.00586 125.88091 190.04688 124.99222 191.16016 124.03516 C 192.27344 123.06836 193.35156 122.07227 194.39648 121.04688 C 195.12891 120.33401 195.75 119.68359 196.25781 119.09766 C 196.77539 118.51172 197.22266 117.91601 197.60352 117.31055 C 198.01368 116.66601 198.32227 115.98832 198.52734 115.27539 C 198.74219 114.55279 198.84961 113.77545 198.84961 112.94531 C 198.84961 111.09965 198.21485 109.64061 196.94531 108.56641 C 195.67579 107.48241 193.92188 106.93945 191.68555 106.93945 z M 243.7168 106.93945 C 242.63282 106.93945 241.50977 107.08597 240.34766 107.37891 C 239.19532 107.66211 238.27344 107.97461 237.58008 108.31641 L 237.58008 111.37891 L 237.72656 111.37891 C 238.6543 110.77344 239.64062 110.30472 240.68555 109.97266 C 241.73047 109.64066 242.7168 109.47461 243.64453 109.47461 C 244.25 109.47461 244.79296 109.52349 245.27148 109.62109 C 245.75 109.71876 246.19727 109.8945 246.61719 110.14844 C 247.01758 110.4023 247.33008 110.72851 247.55469 111.12891 C 247.7793 111.51957 247.89258 111.97853 247.89258 112.50586 C 247.89258 113.69726 247.44727 114.60547 246.55859 115.23047 C 245.67969 115.84567 244.5 116.1543 243.01562 116.1543 L 241.99023 116.1543 L 241.99023 118.58594 L 243.30859 118.58594 C 244.03125 118.58594 244.70312 118.64452 245.32812 118.76172 C 245.95312 118.86912 246.48633 119.07422 246.92578 119.37695 C 247.36523 119.66995 247.70703 120.07426 247.95117 120.5918 C 248.20508 121.0996 248.33203 121.74412 248.33203 122.52539 C 248.33203 123.31639 248.2207 123.97068 247.99609 124.48828 C 247.78125 125.00588 247.44727 125.48049 246.99805 125.91016 C 246.56836 126.31056 246.00781 126.61329 245.31445 126.81836 C 244.62109 127.02343 243.9668 127.125 243.35156 127.125 C 242.30664 127.125 241.22266 126.94532 240.09961 126.58398 C 238.97656 126.22265 238 125.76757 237.16992 125.2207 L 236.95117 125.2207 L 236.95117 128.2832 C 237.70312 128.62494 238.66406 128.93744 239.83594 129.2207 C 241.00781 129.51364 242.19922 129.66016 243.41016 129.66016 C 244.5918 129.66016 245.67578 129.49805 246.66211 129.17578 C 247.6582 128.84378 248.52149 128.33594 249.25391 127.65234 C 249.90821 127.03708 250.41602 126.31444 250.77734 125.48438 C 251.13867 124.65431 251.32031 123.74223 251.32031 122.74609 C 251.32031 121.74029 251.16797 120.91996 250.86523 120.28516 C 250.5625 119.65042 250.17774 119.12306 249.70898 118.70312 C 249.28906 118.33199 248.77734 118.02343 248.17188 117.7793 C 247.56641 117.52543 247.02735 117.35938 246.55859 117.28125 L 246.55859 117.07617 C 247.7207 116.84177 248.72851 116.27535 249.57812 115.37695 C 250.4375 114.46875 250.86523 113.41015 250.86523 112.19922 C 250.86523 111.31055 250.68555 110.53321 250.32422 109.86914 C 249.96289 109.20507 249.43164 108.63872 248.72852 108.16992 C 248.07422 107.74026 247.33984 107.42776 246.5293 107.23242 C 245.71875 107.03716 244.78125 106.93945 243.7168 106.93945 z M 262.82031 106.95312 C 260.71093 106.95312 258.92382 107.65229 257.45898 109.04883 C 255.99414 110.44529 255.25977 112.25589 255.25977 114.48242 C 255.25977 115.76176 255.47461 116.86136 255.9043 117.7793 C 256.34375 118.6973 256.99414 119.45316 257.85352 120.04883 C 258.58594 120.55669 259.3125 120.89849 260.03516 121.07422 C 260.76758 121.25002 261.58399 121.33789 262.48242 121.33789 C 263.42969 121.33789 264.30274 121.22073 265.10352 120.98633 C 265.9043 120.75199 266.75976 120.36327 267.66797 119.81641 C 267.47266 122.09174 266.75976 123.87691 265.5293 125.17578 C 264.30859 126.46485 262.61914 127.10938 260.46094 127.10938 C 259.82617 127.10938 259.25 127.04692 258.73242 126.91992 C 258.21484 126.78326 257.81445 126.64067 257.53125 126.49414 L 257.38477 126.49414 L 257.38477 129.29297 C 257.73633 129.4103 258.13672 129.49235 258.58594 129.54102 C 259.03516 129.59968 259.51368 129.63086 260.02148 129.63086 C 261.82813 129.63086 263.40039 129.32812 264.73828 128.72266 C 266.07617 128.11719 267.18946 127.2578 268.07812 126.14453 C 268.95703 125.0508 269.61132 123.72656 270.04102 122.17383 C 270.48047 120.62109 270.70117 118.89261 270.70117 116.98828 C 270.70117 114.96681 270.47656 113.32031 270.02734 112.05078 C 269.57812 110.77145 268.9375 109.72655 268.10742 108.91602 C 267.4336 108.26175 266.64649 107.77344 265.74805 107.45117 C 264.84961 107.11911 263.875 106.95312 262.82031 106.95312 z M 281.92188 106.95312 C 279.8125 106.95312 278.02344 107.65229 276.55859 109.04883 C 275.09375 110.44529 274.36133 112.25589 274.36133 114.48242 C 274.36133 115.76176 274.57812 116.86136 275.00781 117.7793 C 275.44727 118.6973 276.0957 119.45316 276.95508 120.04883 C 277.6875 120.55669 278.41601 120.89849 279.13867 121.07422 C 279.87109 121.25002 280.68555 121.33789 281.58398 121.33789 C 282.53125 121.33789 283.4043 121.22073 284.20508 120.98633 C 285.00586 120.75199 285.86133 120.36327 286.76953 119.81641 C 286.57422 122.09174 285.86133 123.87691 284.63086 125.17578 C 283.41015 126.46485 281.7207 127.10938 279.5625 127.10938 C 278.92773 127.10938 278.35156 127.04692 277.83398 126.91992 C 277.31641 126.78326 276.91602 126.64067 276.63281 126.49414 L 276.48633 126.49414 L 276.48633 129.29297 C 276.83789 129.4103 277.23828 129.49235 277.6875 129.54102 C 278.13672 129.59968 278.61523 129.63086 279.12305 129.63086 C 280.92969 129.63086 282.50196 129.32812 283.83984 128.72266 C 285.17774 128.11719 286.29101 127.2578 287.17969 126.14453 C 288.05859 125.0508 288.71289 123.72656 289.14258 122.17383 C 289.58203 120.62109 289.80273 118.89261 289.80273 116.98828 C 289.80273 114.96681 289.57813 113.32031 289.12891 112.05078 C 288.67969 110.77145 288.03906 109.72655 287.20898 108.91602 C 286.53516 108.26175 285.75 107.77344 284.85156 107.45117 C 283.95312 107.11911 282.97656 106.95312 281.92188 106.95312 z M 173.09766 106.95508 C 170.50976 106.95508 168.60547 107.88281 167.38477 109.73828 C 166.16406 111.58401 165.55273 114.44533 165.55273 118.32227 C 165.55273 122.16993 166.1543 125.02149 167.35547 126.87695 C 168.5664 128.73242 170.48046 129.66016 173.09766 129.66016 C 175.67578 129.66016 177.57617 128.74612 178.79688 126.91992 C 180.02734 125.08399 180.64062 122.20897 180.64062 118.29297 C 180.64063 114.49417 180.03711 111.65625 178.82617 109.78125 C 177.625 107.89645 175.71484 106.95508 173.09766 106.95508 z M 315.01172 106.95508 C 312.42383 106.95508 310.51953 107.88281 309.29883 109.73828 C 308.07812 111.58401 307.4668 114.44533 307.4668 118.32227 C 307.4668 122.16993 308.06836 125.02149 309.26953 126.87695 C 310.48047 128.73242 312.39453 129.66016 315.01172 129.66016 C 317.58985 129.66016 319.48828 128.74612 320.70898 126.91992 C 321.93945 125.08399 322.55469 122.20897 322.55469 118.29297 C 322.55469 114.49417 321.95117 111.65625 320.74023 109.78125 C 319.53906 107.89645 317.62891 106.95508 315.01172 106.95508 z M 333.7168 107.32031 C 333.67774 107.95511 333.52735 108.46288 333.26367 108.84375 C 333.00977 109.21482 332.6582 109.52344 332.20898 109.76758 C 331.84766 109.96291 331.31445 110.1133 330.61133 110.2207 C 329.90821 110.31837 329.25 110.36719 328.63477 110.36719 L 328.63477 112.35938 L 333.17578 112.35938 L 333.17578 126.97852 L 328.63477 126.97852 L 328.63477 129.20508 L 340.44141 129.20508 L 340.44141 126.97852 L 335.98828 126.97852 L 335.98828 107.32031 L 333.7168 107.32031 z M 352.82031 107.32031 C 352.78125 107.95511 352.62891 108.46288 352.36523 108.84375 C 352.11133 109.21482 351.75976 109.52344 351.31055 109.76758 C 350.94921 109.96291 350.41796 110.1133 349.71484 110.2207 C 349.01172 110.31837 348.35156 110.36719 347.73633 110.36719 L 347.73633 112.35938 L 352.27734 112.35938 L 352.27734 126.97852 L 347.73633 126.97852 L 347.73633 129.20508 L 359.54297 129.20508 L 359.54297 126.97852 L 355.08984 126.97852 L 355.08984 107.32031 L 352.82031 107.32031 z M 204.00586 107.39453 L 204.00586 109.95703 L 216.42773 109.95703 L 205.92383 129.20508 L 209.05859 129.20508 L 218.93359 110.66016 L 218.93359 107.39453 L 204.00586 107.39453 z M 365.02148 107.39453 L 365.02148 109.95703 L 377.44336 109.95703 L 366.94141 129.20508 L 370.07617 129.20508 L 379.94727 110.66016 L 379.94727 107.39453 L 365.02148 107.39453 z M 142.21875 107.75977 C 140.34375 107.91603 138.74219 108.65819 137.41406 109.98633 C 136.08594 111.31439 135.42188 113.18939 135.42188 115.61133 C 135.42188 116.54879 136.08594 117.01758 137.41406 117.01758 C 138.50782 117.01758 139.17188 116.90042 139.40625 116.66602 C 139.79688 116.27542 139.99219 115.61129 139.99219 114.67383 L 139.99219 113.26758 C 139.99219 112.40818 140.77344 111.93939 142.33594 111.86133 L 142.33594 114.20508 C 141.63281 114.28321 141.28125 114.8301 141.28125 115.8457 C 141.28125 116.62697 141.04688 117.44724 140.57812 118.30664 C 140.34375 118.69724 139.64062 119.55663 138.46875 120.88477 C 137.0625 122.44723 136.35938 124.51757 136.35938 127.0957 C 136.35938 128.1895 136.51562 128.89261 136.82812 129.20508 C 137.21875 129.59568 137.6875 129.79102 138.23438 129.79102 L 158.74219 129.79102 C 159.28906 129.79102 159.75781 129.59568 160.14844 129.20508 C 160.46094 128.89261 160.61719 128.1895 160.61719 127.0957 C 160.61719 124.51757 159.91407 122.44723 158.50781 120.88477 C 157.33594 119.55663 156.63281 118.69724 156.39844 118.30664 C 155.92968 117.44724 155.69531 116.62697 155.69531 115.8457 C 155.69531 114.8301 155.34375 114.28321 154.64062 114.20508 L 154.64062 111.86133 C 156.20312 111.93939 156.98438 112.40818 156.98438 113.26758 L 156.98438 114.67383 C 156.98438 115.61129 157.17969 116.27542 157.57031 116.66602 C 157.80469 116.90042 158.46875 117.01758 159.5625 117.01758 C 160.89063 117.01758 161.55469 116.54879 161.55469 115.61133 C 161.55469 113.18939 160.89063 111.31439 159.5625 109.98633 C 158.23437 108.65819 156.63281 107.91603 154.75781 107.75977 L 142.21875 107.75977 z M 262.79102 109.3418 C 263.40625 109.3418 263.97656 109.43943 264.50391 109.63477 C 265.03125 109.8203 265.52539 110.1328 265.98438 110.57227 C 266.53125 111.08007 266.95898 111.79294 267.27148 112.71094 C 267.58398 113.62887 267.74023 114.84571 267.74023 116.35938 L 267.74219 116.35938 C 267.74219 116.67191 267.73242 116.9297 267.71289 117.13477 C 267.70316 117.3301 267.69339 117.53126 267.68359 117.73633 C 267 118.12693 266.26563 118.42384 265.48438 118.62891 C 264.70313 118.83404 263.9336 118.9375 263.17188 118.9375 C 262.52734 118.9375 261.9414 118.88868 261.41406 118.79102 C 260.88672 118.68355 260.40234 118.47851 259.96289 118.17578 C 259.33789 117.73638 258.89258 117.22272 258.62891 116.63672 C 258.36523 116.05079 258.23438 115.29492 258.23438 114.36719 C 258.23438 112.77539 258.64062 111.53902 259.45117 110.66016 C 260.27148 109.78122 261.38476 109.3418 262.79102 109.3418 z M 281.89062 109.3418 C 282.50586 109.3418 283.07812 109.43943 283.60547 109.63477 C 284.13281 109.8203 284.625 110.1328 285.08398 110.57227 C 285.63086 111.08007 286.06055 111.79294 286.37305 112.71094 C 286.68555 113.62887 286.8418 114.84571 286.8418 116.35938 L 286.84375 116.35938 C 286.84375 116.67191 286.83399 116.9297 286.81445 117.13477 C 286.80472 117.3301 286.79496 117.53126 286.78516 117.73633 C 286.10156 118.12693 285.36719 118.42384 284.58594 118.62891 C 283.80469 118.83404 283.0332 118.9375 282.27148 118.9375 C 281.62695 118.9375 281.04296 118.88868 280.51562 118.79102 C 279.98828 118.68355 279.50391 118.47851 279.06445 118.17578 C 278.43945 117.73638 277.99609 117.22272 277.73242 116.63672 C 277.46875 116.05079 277.33594 115.29492 277.33594 114.36719 C 277.33594 112.77539 277.74219 111.53902 278.55273 110.66016 C 279.37305 109.78122 280.48438 109.3418 281.89062 109.3418 z M 173.09766 109.37109 C 174.02539 109.37109 174.78125 109.56249 175.36719 109.94336 C 175.96289 110.32423 176.43164 110.89064 176.77344 111.64258 C 177.125 112.40431 177.36133 113.33205 177.47852 114.42578 C 177.60547 115.51958 177.66797 116.80864 177.66797 118.29297 C 177.66797 119.7969 177.60547 121.08596 177.47852 122.16016 C 177.36133 123.22462 177.13086 124.15236 176.78906 124.94336 C 176.45704 125.71483 175.98829 126.29101 175.38281 126.67188 C 174.77735 127.05274 174.01562 127.24219 173.09766 127.24219 C 172.12109 127.24219 171.33593 127.04298 170.74023 126.64258 C 170.15429 126.24218 169.69922 125.6601 169.37695 124.89844 C 169.02539 124.08784 168.79687 123.16986 168.68945 122.14453 C 168.58203 121.11913 168.52734 119.84573 168.52734 118.32227 C 168.52734 116.93553 168.58594 115.66011 168.70312 114.49805 C 168.83008 113.33591 169.05859 112.39454 169.39062 111.67188 C 169.74219 110.90041 170.2168 110.32423 170.8125 109.94336 C 171.41797 109.56249 172.17968 109.37109 173.09766 109.37109 z M 315.01172 109.37109 C 315.93945 109.37109 316.69726 109.56249 317.2832 109.94336 C 317.8789 110.32423 318.34765 110.89064 318.68945 111.64258 C 319.04101 112.40431 319.27344 113.33205 319.39062 114.42578 C 319.51758 115.51958 319.58203 116.80864 319.58203 118.29297 C 319.58203 119.7969 319.51758 121.08596 319.39062 122.16016 C 319.27344 123.22462 319.04492 124.15236 318.70312 124.94336 C 318.3711 125.71483 317.90235 126.29101 317.29688 126.67188 C 316.69141 127.05274 315.92969 127.24219 315.01172 127.24219 C 314.03515 127.24219 313.24804 127.04298 312.65234 126.64258 C 312.0664 126.24218 311.61328 125.6601 311.29102 124.89844 C 310.93945 124.08784 310.71094 123.16986 310.60352 122.14453 C 310.4961 121.11913 310.44141 119.84573 310.44141 118.32227 C 310.44141 116.93553 310.5 115.66011 310.61719 114.49805 C 310.74414 113.33591 310.97266 112.39454 311.30469 111.67188 C 311.65625 110.90041 312.13086 110.32423 312.72656 109.94336 C 313.33204 109.56249 314.09375 109.37109 315.01172 109.37109 z M 145.03125 111.86133 L 151.94531 111.86133 L 151.94531 113.73633 C 151.94531 114.28319 151.63281 114.55664 151.00781 114.55664 L 145.85156 114.55664 C 145.30469 114.55664 145.03125 114.28319 145.03125 113.73633 L 145.03125 111.86133 z M 148.66406 116.7832 C 150.30469 116.7832 151.59375 117.29097 152.53125 118.30664 C 153.625 119.32224 154.17188 120.65042 154.17188 122.29102 C 154.17188 123.93168 153.625 125.25979 152.53125 126.27539 C 151.59375 127.29106 150.30469 127.79883 148.66406 127.79883 C 147.02344 127.79883 145.73438 127.29106 144.79688 126.27539 C 143.70313 125.25979 143.15625 123.93168 143.15625 122.29102 C 143.15625 120.65042 143.70313 119.32224 144.79688 118.30664 C 145.73438 117.29097 147.02344 116.7832 148.66406 116.7832 z M 223.0918 118.33594 L 223.0918 120.98828 L 232.23438 120.98828 L 232.23438 118.33594 L 223.0918 118.33594 z M 294.04883 118.33594 L 294.04883 120.98828 L 303.19141 120.98828 L 303.19141 118.33594 L 294.04883 118.33594 z "
       transform="translate(0,912.36236)"
       id="path4173" />
  </g>
</svg>
