<?xml version="1.0" encoding="UTF-8" standalone="no"?>
<!-- Created with Inkscape (http://www.inkscape.org/) -->

<svg
   xmlns:dc="http://purl.org/dc/elements/1.1/"
   xmlns:cc="http://creativecommons.org/ns#"
   xmlns:rdf="http://www.w3.org/1999/02/22-rdf-syntax-ns#"
   xmlns:svg="http://www.w3.org/2000/svg"
   xmlns="http://www.w3.org/2000/svg"
   xmlns:sodipodi="http://sodipodi.sourceforge.net/DTD/sodipodi-0.dtd"
   xmlns:inkscape="http://www.inkscape.org/namespaces/inkscape"
   width="520"
   height="140"
   viewBox="0 0 520.00001 140"
   id="svg2"
   version="1.1"
   inkscape:version="0.91 r13725"
   sodipodi:docname="2.svg">
  <defs
     id="defs4" />
  <sodipodi:namedview
     id="base"
     pagecolor="#ffffff"
     bordercolor="#666666"
     borderopacity="1.0"
     inkscape:pageopacity="0.0"
     inkscape:pageshadow="2"
     inkscape:zoom="1.4"
     inkscape:cx="198.07666"
     inkscape:cy="53.459593"
     inkscape:document-units="px"
     inkscape:current-layer="layer1"
     showgrid="false"
     units="px"
     inkscape:snap-object-midpoints="true"
     inkscape:snap-page="true"
     inkscape:snap-center="true"
     inkscape:snap-bbox="true"
     inkscape:snap-grids="true"
     inkscape:snap-to-guides="true"
     inkscape:bbox-paths="true"
     inkscape:bbox-nodes="true"
     inkscape:snap-bbox-edge-midpoints="true"
     inkscape:snap-bbox-midpoints="true"
     inkscape:window-width="1920"
     inkscape:window-height="965"
     inkscape:window-x="-8"
     inkscape:window-y="-8"
     inkscape:window-maximized="1" />
  <metadata
     id="metadata7">
    <rdf:RDF>
      <cc:Work
         rdf:about="">
        <dc:format>image/svg+xml</dc:format>
        <dc:type
           rdf:resource="http://purl.org/dc/dcmitype/StillImage" />
        <dc:title></dc:title>
      </cc:Work>
    </rdf:RDF>
  </metadata>
  <g
     inkscape:label="レイヤー 1"
     inkscape:groupmode="layer"
     id="layer1"
     transform="translate(0,-912.36214)">
    <path
       style="font-style:normal;font-variant:normal;font-weight:900;font-stretch:normal;font-size:medium;line-height:125%;font-family:'Mgen+ 1c';-inkscape-font-specification:'Mgen+ 1c Heavy';text-align:center;letter-spacing:0px;word-spacing:0px;text-anchor:middle;fill:#000000;fill-opacity:1;stroke:none;stroke-width:1px;stroke-linecap:butt;stroke-linejoin:miter;stroke-opacity:1"
       d="M 254.04297 12.595703 L 249.78516 16.072266 L 249.78516 17.224609 L 254.00391 13.767578 L 254.04297 13.767578 L 254.04297 27.205078 L 255.03906 27.205078 L 255.03906 12.595703 L 254.04297 12.595703 z M 261.46484 12.595703 L 261.46484 13.474609 L 268.69141 13.474609 L 268.69141 13.513672 L 263.39844 18.708984 L 263.39844 19.548828 L 264.94141 19.548828 C 266.41276 19.548828 267.48698 19.815756 268.16406 20.349609 C 268.85417 20.870443 269.19922 21.671226 269.19922 22.751953 C 269.19922 25.278 267.83203 26.541016 265.09766 26.541016 C 263.83463 26.541016 262.67578 26.2155 261.62109 25.564453 L 261.62109 26.560547 C 262.64974 27.12044 263.80859 27.400391 265.09766 27.400391 C 266.76432 27.400391 268.03386 27.009762 268.90625 26.228516 C 269.77864 25.434242 270.21484 24.275393 270.21484 22.751953 C 270.21484 21.436853 269.8177 20.440759 269.02344 19.763672 C 268.22916 19.086592 267.07031 18.748047 265.54688 18.748047 L 264.70703 18.748047 L 264.70703 18.708984 L 270 13.474609 L 270 12.595703 L 261.46484 12.595703 z M 72.402344 50.605469 L 72.402344 89.394531 L 85.996094 89.394531 C 83.470052 86.868485 81.503906 83.92578 80.097656 80.566406 C 78.691406 77.180986 77.988281 73.665365 77.988281 70.019531 C 77.988281 66.347658 78.691406 62.83203 80.097656 59.472656 C 81.503906 56.087236 83.470052 53.131509 85.996094 50.605469 L 72.402344 50.605469 z M 173.18359 50.605469 C 175.70964 53.131509 177.67578 56.087236 179.08203 59.472656 C 180.48828 62.83203 181.19141 66.347658 181.19141 70.019531 C 181.19141 73.665365 180.48828 77.180986 179.08203 80.566406 C 177.67578 83.92578 175.70964 86.868485 173.18359 89.394531 L 186.77734 89.394531 L 186.77734 50.605469 L 173.18359 50.605469 z M 106.58203 50.800781 L 106.58203 54.980469 L 92.988281 54.980469 L 92.988281 62.597656 C 92.988281 68.43099 92.779948 72.636724 92.363281 75.214844 C 91.946615 77.79297 91.152343 80.123698 89.980469 82.207031 L 94.785156 88.613281 C 96.08724 86.842475 97.128906 84.902342 97.910156 82.792969 L 98.183594 87.402344 C 105.5013 87.063804 112.97526 86.321615 120.60547 85.175781 C 121.36068 86.842421 121.89453 88.053327 122.20703 88.808594 L 128.80859 85.996094 C 126.72526 81.152347 124.3164 75.878908 121.58203 70.175781 L 114.98047 72.988281 C 116.20443 75.540368 117.23307 77.74089 118.06641 79.589844 C 115.25391 79.92839 112.49349 80.214845 109.78516 80.449219 C 112.1289 75.292965 114.26432 69.680988 116.19141 63.613281 L 108.80859 62.011719 C 106.64714 68.938799 104.23828 75.266927 101.58203 80.996094 C 100.90495 81.048194 99.850263 81.100277 98.417969 81.152344 C 99.459635 77.662764 99.980469 73.339847 99.980469 68.183594 L 99.980469 61.191406 L 127.59766 61.191406 L 127.59766 54.980469 L 114.19922 54.980469 L 114.19922 50.800781 L 106.58203 50.800781 z M 136.97266 51.386719 C 135.48828 55.084632 133.56119 58.886715 131.19141 62.792969 L 136.38672 64.980469 L 131.19141 64.980469 L 131.19141 70.996094 L 167.98828 70.996094 L 167.98828 64.980469 L 154.19922 64.980469 L 154.19922 61.191406 L 166.38672 61.191406 L 166.38672 55.410156 L 154.19922 55.410156 L 154.19922 51.582031 L 146.58203 51.582031 L 146.58203 55.410156 L 142.87109 55.410156 C 143.39193 54.029943 143.70443 53.157549 143.80859 52.792969 L 136.97266 51.386719 z M 297.59766 53.613281 L 294.00391 60.410156 C 298.35286 62.415363 302.48047 64.407552 306.38672 66.386719 L 310.17578 59.589844 C 306.08724 57.50651 301.89453 55.514321 297.59766 53.613281 z M 282.40234 53.808594 C 278.65234 57.29818 274.14713 60.240885 268.88672 62.636719 C 263.6263 65.032552 258.19661 66.621097 252.59766 67.402344 L 253.80859 74.394531 C 258.39193 73.743491 262.98828 72.545575 267.59766 70.800781 L 267.59766 86.582031 L 275.80078 86.582031 L 275.80078 67.050781 C 280.01953 64.759115 283.74349 62.141925 286.97266 59.199219 L 282.40234 53.808594 z M 417.59766 54.785156 L 417.59766 61.386719 L 441.97266 61.386719 L 441.97266 54.785156 L 417.59766 54.785156 z M 214.39453 55.175781 L 214.39453 62.011719 L 236.38672 62.011719 L 236.38672 77.988281 L 214.39453 77.988281 L 214.39453 84.785156 L 244.00391 84.785156 L 244.00391 55.175781 L 214.39453 55.175781 z M 361.38672 55.605469 L 354.39453 57.597656 C 357.59766 65.33203 359.19922 73.600264 359.19922 82.402344 L 366.77734 82.402344 C 366.77734 72.324224 364.98047 63.391929 361.38672 55.605469 z M 335.37109 55.996094 C 333.91276 60.44922 333.18359 65.253903 333.18359 70.410156 C 333.18359 74.99349 334.23828 78.873701 336.34766 82.050781 C 338.45703 85.201821 340.73568 86.777344 343.18359 86.777344 C 345.34505 86.777344 347.54557 85.657549 349.78516 83.417969 C 352.02474 81.152342 353.82161 78.01432 355.17578 74.003906 L 348.80859 71.582031 C 347.84505 74.055991 346.89453 75.944014 345.95703 77.246094 C 345.04557 78.54818 344.32943 79.199219 343.80859 79.199219 C 343.52214 79.199219 343.20964 78.977863 342.87109 78.535156 C 342.53255 78.092443 342.19401 77.50651 341.85547 76.777344 C 341.54297 76.048177 341.28255 75.123693 341.07422 74.003906 C 340.89193 72.858073 340.80078 71.660156 340.80078 70.410156 C 340.80078 68.48307 340.98307 66.23047 341.34766 63.652344 C 341.71224 61.048177 342.19401 58.75651 342.79297 56.777344 L 335.37109 55.996094 z M 319.98047 57.597656 C 318.54818 64.238276 315.89193 69.13411 312.01172 72.285156 C 308.15755 75.436196 302.41536 77.402347 294.78516 78.183594 L 295.99609 85.605469 C 305.24089 84.772135 312.38932 82.20703 317.44141 77.910156 C 322.51953 73.613276 325.77474 67.376299 327.20703 59.199219 L 319.98047 57.597656 z M 140.25391 61.191406 L 146.58203 61.191406 L 146.58203 64.980469 L 138.14453 64.980469 C 138.95182 63.678382 139.65495 62.41536 140.25391 61.191406 z M 390.87891 61.816406 C 387.59765 61.842446 382.58464 62.597658 375.83984 64.082031 L 377.12891 70.253906 C 383.30078 68.847653 387.66276 68.144531 390.21484 68.144531 C 392.40234 68.144531 393.97786 68.496092 394.94141 69.199219 C 395.90495 69.902345 396.38672 71.02214 396.38672 72.558594 C 396.38672 74.902347 395.24089 76.647135 392.94922 77.792969 C 390.68359 78.938802 386.84245 79.511719 381.42578 79.511719 L 381.89453 85.683594 C 389.3164 85.683594 394.74609 84.576821 398.18359 82.363281 C 401.62109 80.123701 403.33984 76.751307 403.33984 72.246094 C 403.33984 65.292974 399.18619 61.816406 390.87891 61.816406 z M 14.416016 62.597656 L 14.416016 63.476562 L 21.642578 63.476562 L 21.642578 63.515625 L 16.349609 68.710938 L 16.349609 69.550781 L 17.892578 69.550781 C 19.363933 69.550781 20.438151 69.817709 21.115234 70.351562 C 21.805338 70.872396 22.150391 71.673173 22.150391 72.753906 C 22.150391 75.279946 20.783203 76.542969 18.048828 76.542969 C 16.785807 76.542969 15.626953 76.217446 14.572266 75.566406 L 14.572266 76.5625 C 15.600912 77.122393 16.759766 77.402344 18.048828 77.402344 C 19.715495 77.402344 20.985026 77.011715 21.857422 76.230469 C 22.729818 75.436195 23.166016 74.27734 23.166016 72.753906 C 23.166016 71.4388 22.76888 70.442705 21.974609 69.765625 C 21.180338 69.088538 20.021484 68.75 18.498047 68.75 L 17.658203 68.75 L 17.658203 68.710938 L 22.951172 63.476562 L 22.951172 62.597656 L 14.416016 62.597656 z M 32.482422 62.597656 L 31.994141 69.941406 L 32.931641 69.941406 C 33.738932 69.303386 34.689453 68.984375 35.783203 68.984375 C 36.994141 68.984375 37.912109 69.283859 38.537109 69.882812 C 39.17513 70.481773 39.494141 71.354167 39.494141 72.5 C 39.494141 73.841147 39.142578 74.850264 38.439453 75.527344 C 37.749349 76.20443 36.733724 76.542969 35.392578 76.542969 C 34.194661 76.542969 33.009765 76.223958 31.837891 75.585938 L 31.837891 76.5625 C 32.944661 77.122393 34.129557 77.402344 35.392578 77.402344 C 37.059245 77.402344 38.328776 76.985677 39.201172 76.152344 C 40.073568 75.30599 40.509766 74.08854 40.509766 72.5 C 40.509766 71.119793 40.10612 70.052082 39.298828 69.296875 C 38.504557 68.528642 37.371745 68.144531 35.900391 68.144531 C 34.858724 68.144531 33.914713 68.411459 33.068359 68.945312 L 33.029297 68.945312 L 33.400391 63.476562 L 39.904297 63.476562 L 39.904297 62.597656 L 32.482422 62.597656 z M 420.60547 66.777344 C 418.15755 69.147137 416.4388 71.152342 415.44922 72.792969 C 414.48568 74.433595 414.00391 76.035156 414.00391 77.597656 C 414.00391 80.35807 415.3711 82.584637 418.10547 84.277344 C 420.86588 85.94401 424.69401 86.777344 429.58984 86.777344 C 431.6211 86.777344 434.09505 86.56901 437.01172 86.152344 C 439.95443 85.761724 442.41536 85.30599 444.39453 84.785156 L 442.98828 77.988281 C 441.0612 78.535155 438.74349 79.003905 436.03516 79.394531 C 433.35286 79.785158 431.20443 79.980469 429.58984 79.980469 C 426.98568 79.980469 425.03255 79.694014 423.73047 79.121094 C 422.42838 78.52214 421.77734 77.74089 421.77734 76.777344 C 421.77734 76.20443 422.08984 75.475264 422.71484 74.589844 C 423.33984 73.70443 424.49869 72.441408 426.19141 70.800781 L 420.60547 66.777344 z M 135.17578 72.597656 L 135.17578 87.988281 L 142.59766 87.988281 L 142.59766 86.386719 L 156.58203 86.386719 L 156.58203 87.988281 L 164.00391 87.988281 L 164.00391 72.597656 L 135.17578 72.597656 z M 26.857422 74.746094 L 26.857422 77.207031 L 27.990234 77.207031 L 27.990234 74.746094 L 26.857422 74.746094 z M 142.59766 78.183594 L 156.58203 78.183594 L 156.58203 80.996094 L 142.59766 80.996094 L 142.59766 78.183594 z "
       transform="translate(0,912.36214)"
       id="path9060" />
  </g>
</svg>
