<?xml version="1.0" encoding="UTF-8" standalone="no"?>
<!-- Created with Inkscape (http://www.inkscape.org/) -->

<svg
   xmlns:dc="http://purl.org/dc/elements/1.1/"
   xmlns:cc="http://creativecommons.org/ns#"
   xmlns:rdf="http://www.w3.org/1999/02/22-rdf-syntax-ns#"
   xmlns:svg="http://www.w3.org/2000/svg"
   xmlns="http://www.w3.org/2000/svg"
   xmlns:sodipodi="http://sodipodi.sourceforge.net/DTD/sodipodi-0.dtd"
   xmlns:inkscape="http://www.inkscape.org/namespaces/inkscape"
   width="520"
   height="140"
   viewBox="0 0 520.00001 140"
   id="svg2"
   version="1.1"
   inkscape:version="0.91 r13725"
   sodipodi:docname="3.svg">
  <defs
     id="defs4" />
  <sodipodi:namedview
     id="base"
     pagecolor="#ffffff"
     bordercolor="#666666"
     borderopacity="1.0"
     inkscape:pageopacity="0.0"
     inkscape:pageshadow="2"
     inkscape:zoom="1.4"
     inkscape:cx="198.07666"
     inkscape:cy="53.459593"
     inkscape:document-units="px"
     inkscape:current-layer="layer1"
     showgrid="false"
     units="px"
     inkscape:snap-object-midpoints="true"
     inkscape:snap-page="true"
     inkscape:snap-center="true"
     inkscape:snap-bbox="true"
     inkscape:snap-grids="true"
     inkscape:snap-to-guides="true"
     inkscape:bbox-paths="true"
     inkscape:bbox-nodes="true"
     inkscape:snap-bbox-edge-midpoints="true"
     inkscape:snap-bbox-midpoints="true"
     inkscape:window-width="1920"
     inkscape:window-height="965"
     inkscape:window-x="-8"
     inkscape:window-y="-8"
     inkscape:window-maximized="1" />
  <metadata
     id="metadata7">
    <rdf:RDF>
      <cc:Work
         rdf:about="">
        <dc:format>image/svg+xml</dc:format>
        <dc:type
           rdf:resource="http://purl.org/dc/dcmitype/StillImage" />
        <dc:title></dc:title>
      </cc:Work>
    </rdf:RDF>
  </metadata>
  <g
     inkscape:label="レイヤー 1"
     inkscape:groupmode="layer"
     id="layer1"
     transform="translate(0,-912.36214)">
    <path
       style="font-style:normal;font-variant:normal;font-weight:900;font-stretch:normal;font-size:medium;line-height:125%;font-family:'Mgen+ 1c';-inkscape-font-specification:'Mgen+ 1c Heavy';text-align:center;letter-spacing:0px;word-spacing:0px;text-anchor:middle;fill:#000000;fill-opacity:1;stroke:none;stroke-width:1px;stroke-linecap:butt;stroke-linejoin:miter;stroke-opacity:1"
       d="M 254.04297 12.595703 L 249.78516 16.072266 L 249.78516 17.224609 L 254.00391 13.767578 L 254.04297 13.767578 L 254.04297 27.205078 L 255.03906 27.205078 L 255.03906 12.595703 L 254.04297 12.595703 z M 261.46484 12.595703 L 261.46484 13.474609 L 268.69141 13.474609 L 268.69141 13.513672 L 263.39844 18.708984 L 263.39844 19.548828 L 264.94141 19.548828 C 266.41276 19.548828 267.48698 19.815756 268.16406 20.349609 C 268.85417 20.870443 269.19922 21.671226 269.19922 22.751953 C 269.19922 25.278 267.83203 26.541016 265.09766 26.541016 C 263.83463 26.541016 262.67578 26.2155 261.62109 25.564453 L 261.62109 26.560547 C 262.64974 27.12044 263.80859 27.400391 265.09766 27.400391 C 266.76432 27.400391 268.03386 27.009762 268.90625 26.228516 C 269.77864 25.434242 270.21484 24.275393 270.21484 22.751953 C 270.21484 21.436853 269.8177 20.440759 269.02344 19.763672 C 268.22916 19.086592 267.07031 18.748047 265.54688 18.748047 L 264.70703 18.748047 L 264.70703 18.708984 L 270 13.474609 L 270 12.595703 L 261.46484 12.595703 z M 72.402344 50.605469 L 72.402344 89.394531 L 85.996094 89.394531 C 83.470052 86.868485 81.503906 83.92578 80.097656 80.566406 C 78.691406 77.180986 77.988281 73.665365 77.988281 70.019531 C 77.988281 66.347658 78.691406 62.83203 80.097656 59.472656 C 81.503906 56.087236 83.470052 53.131509 85.996094 50.605469 L 72.402344 50.605469 z M 173.18359 50.605469 C 175.70964 53.131509 177.67578 56.087236 179.08203 59.472656 C 180.48828 62.83203 181.19141 66.347658 181.19141 70.019531 C 181.19141 73.665365 180.48828 77.180986 179.08203 80.566406 C 177.67578 83.92578 175.70964 86.868485 173.18359 89.394531 L 186.77734 89.394531 L 186.77734 50.605469 L 173.18359 50.605469 z M 106.58203 50.800781 L 106.58203 54.980469 L 92.988281 54.980469 L 92.988281 62.597656 C 92.988281 68.43099 92.779948 72.636724 92.363281 75.214844 C 91.946615 77.79297 91.152343 80.123698 89.980469 82.207031 L 94.785156 88.613281 C 96.08724 86.842475 97.128906 84.902342 97.910156 82.792969 L 98.183594 87.402344 C 105.5013 87.063804 112.97526 86.321615 120.60547 85.175781 C 121.36068 86.842421 121.89453 88.053327 122.20703 88.808594 L 128.80859 85.996094 C 126.72526 81.152347 124.3164 75.878908 121.58203 70.175781 L 114.98047 72.988281 C 116.20443 75.540368 117.23307 77.74089 118.06641 79.589844 C 115.25391 79.92839 112.49349 80.214845 109.78516 80.449219 C 112.1289 75.292965 114.26432 69.680988 116.19141 63.613281 L 108.80859 62.011719 C 106.64714 68.938799 104.23828 75.266927 101.58203 80.996094 C 100.90495 81.048194 99.850263 81.100277 98.417969 81.152344 C 99.459635 77.662764 99.980469 73.339847 99.980469 68.183594 L 99.980469 61.191406 L 127.59766 61.191406 L 127.59766 54.980469 L 114.19922 54.980469 L 114.19922 50.800781 L 106.58203 50.800781 z M 379.39453 51.191406 C 378.8737 54.394526 378.44401 56.933594 378.10547 58.808594 L 371.58203 58.808594 L 371.58203 65.175781 L 376.73828 65.175781 C 375.27995 71.764321 373.36589 78.430988 370.99609 85.175781 L 377.20703 87.207031 C 380.01953 79.420571 382.16797 72.076821 383.65234 65.175781 L 386.77734 65.175781 C 387.97526 65.175781 388.67839 65.423175 388.88672 65.917969 C 389.09505 66.412762 389.19922 68.040368 389.19922 70.800781 C 389.19922 76.920575 388.66536 79.980469 387.59766 79.980469 C 386.6862 80.006509 384.8112 79.615887 381.97266 78.808594 L 380.37109 85.175781 C 381.56901 85.618488 383.05339 85.996094 384.82422 86.308594 C 386.62109 86.621094 388.07943 86.777344 389.19922 86.777344 C 391.67318 86.777344 393.54818 85.644526 394.82422 83.378906 C 396.1263 81.11328 396.77734 77.324219 396.77734 72.011719 L 396.77734 67.636719 C 396.77734 66.699219 396.71224 65.64453 396.58203 64.472656 C 396.45182 63.274736 396.34766 62.467448 396.26953 62.050781 C 396.1914 61.608075 395.91797 61.100264 395.44922 60.527344 C 395.00651 59.92839 394.62891 59.576823 394.31641 59.472656 C 394.02995 59.36849 393.41797 59.238285 392.48047 59.082031 C 391.56901 58.899738 390.76172 58.808594 390.05859 58.808594 L 386.77734 58.808594 L 384.90234 58.808594 C 385.44922 55.70964 385.81381 53.300785 385.99609 51.582031 L 379.39453 51.191406 z M 136.97266 51.386719 C 135.48828 55.084632 133.56119 58.886715 131.19141 62.792969 L 136.38672 64.980469 L 131.19141 64.980469 L 131.19141 70.996094 L 167.98828 70.996094 L 167.98828 64.980469 L 154.19922 64.980469 L 154.19922 61.191406 L 166.38672 61.191406 L 166.38672 55.410156 L 154.19922 55.410156 L 154.19922 51.582031 L 146.58203 51.582031 L 146.58203 55.410156 L 142.87109 55.410156 C 143.39193 54.029943 143.70443 53.157549 143.80859 52.792969 L 136.97266 51.386719 z M 299.39453 51.582031 C 299.13412 52.753905 298.74349 54.485677 298.22266 56.777344 L 291.97266 56.777344 L 291.97266 63.183594 L 296.62109 63.183594 C 295.05859 69.042974 293.18359 74.915368 290.99609 80.800781 L 297.59766 82.988281 C 300.07161 76.477868 302.15494 69.876307 303.84766 63.183594 L 311.19141 63.183594 L 311.19141 56.777344 L 305.29297 56.777344 C 305.52734 55.839844 305.82682 54.38151 306.19141 52.402344 L 299.39453 51.582031 z M 217.98828 53.613281 L 217.98828 59.980469 L 230.37109 59.980469 L 230.44922 60.058594 C 226.62109 62.714847 223.50911 64.498696 221.11328 65.410156 C 218.71745 66.32161 215.60547 66.920571 211.77734 67.207031 L 212.20703 73.613281 L 224.62891 72.675781 L 224.62891 72.753906 C 222.85807 74.368486 221.97266 76.243486 221.97266 78.378906 C 221.9987 83.97786 226.54297 86.777344 235.60547 86.777344 C 238.47005 86.777344 241.26953 86.516927 244.00391 85.996094 L 243.18359 79.394531 C 240.50131 79.915365 237.97526 80.175781 235.60547 80.175781 C 233.57422 80.175781 232.1289 79.954425 231.26953 79.511719 C 230.41016 79.069012 229.98047 78.36589 229.98047 77.402344 C 229.98047 76.49089 230.34505 75.55339 231.07422 74.589844 C 231.80339 73.626304 232.79297 72.79297 234.04297 72.089844 L 246.58203 71.191406 L 246.19141 64.785156 L 232.51953 65.800781 L 232.51953 65.722656 C 235.5664 64.08203 238.86068 62.167969 242.40234 59.980469 L 242.40234 53.613281 L 217.98828 53.613281 z M 351.19141 54.003906 C 345.33203 54.003906 340.59244 55.670573 336.97266 59.003906 C 333.3789 62.33724 331.58203 66.673179 331.58203 72.011719 C 331.58203 75.761719 332.58464 78.964847 334.58984 81.621094 C 336.6211 84.277347 338.82161 85.605469 341.19141 85.605469 C 342.72786 85.605469 344.06901 85.253908 345.21484 84.550781 C 346.38672 83.873701 347.51953 82.662762 348.61328 80.917969 C 349.70703 79.173175 350.69662 76.673175 351.58203 73.417969 C 352.46745 70.162762 353.27474 66.08724 354.00391 61.191406 C 355.95703 61.71224 357.50651 62.766929 358.65234 64.355469 C 359.79818 65.917969 360.37109 67.792969 360.37109 69.980469 C 360.39714 75.553382 357.74089 78.75651 352.40234 79.589844 L 354.00391 86.386719 C 358.11849 86.048179 361.41276 84.433595 363.88672 81.542969 C 366.36068 78.652342 367.59766 74.798175 367.59766 69.980469 C 367.59766 65.319009 366.03516 61.490887 362.91016 58.496094 C 359.8112 55.501307 355.90495 54.003906 351.19141 54.003906 z M 403.18359 56.386719 L 396.23047 58.144531 C 398.54818 64.602865 400.55339 71.243486 402.24609 78.066406 L 409.19922 76.386719 C 407.58463 69.798179 405.57943 63.131512 403.18359 56.386719 z M 314.00391 56.777344 L 314.00391 70.761719 C 312.98828 70.527345 312.05078 70.410156 311.19141 70.410156 C 307.85807 70.410156 305.29297 71.17839 303.49609 72.714844 C 301.69922 74.251304 300.80078 76.282554 300.80078 78.808594 C 300.80078 81.38672 301.71224 83.430986 303.53516 84.941406 C 305.35807 86.45182 307.91015 87.207031 311.19141 87.207031 C 315.95703 87.207031 319.0039 85.566403 320.33203 82.285156 C 321.52995 83.300776 322.61068 84.264321 323.57422 85.175781 L 327.98828 80.410156 C 325.59245 77.936196 323.32682 75.930991 321.19141 74.394531 L 321.19141 63.378906 C 323.01432 63.483073 324.8763 63.691406 326.77734 64.003906 L 327.59766 57.597656 C 323.66536 57.050776 319.13411 56.777344 314.00391 56.777344 z M 140.25391 61.191406 L 146.58203 61.191406 L 146.58203 64.980469 L 138.14453 64.980469 C 138.95182 63.678382 139.65495 62.41536 140.25391 61.191406 z M 346.42578 61.425781 C 345.80078 65.358075 345.14974 68.665363 344.47266 71.347656 C 343.79557 74.003903 343.18359 75.839842 342.63672 76.855469 C 342.08985 77.871095 341.60807 78.378906 341.19141 78.378906 C 340.77474 78.378906 340.26693 77.701823 339.66797 76.347656 C 339.09505 74.967443 338.80859 73.522132 338.80859 72.011719 C 338.80859 69.381512 339.47265 67.154951 340.80078 65.332031 C 342.12891 63.483071 344.00391 62.180988 346.42578 61.425781 z M 14.416016 62.597656 L 14.416016 63.476562 L 21.642578 63.476562 L 21.642578 63.515625 L 16.349609 68.710938 L 16.349609 69.550781 L 17.892578 69.550781 C 19.363933 69.550781 20.438151 69.817709 21.115234 70.351562 C 21.805338 70.872396 22.150391 71.673173 22.150391 72.753906 C 22.150391 75.279946 20.783203 76.542969 18.048828 76.542969 C 16.785807 76.542969 15.626953 76.217446 14.572266 75.566406 L 14.572266 76.5625 C 15.600912 77.122393 16.759766 77.402344 18.048828 77.402344 C 19.715495 77.402344 20.985026 77.011715 21.857422 76.230469 C 22.729818 75.436195 23.166016 74.27734 23.166016 72.753906 C 23.166016 71.4388 22.76888 70.442705 21.974609 69.765625 C 21.180338 69.088538 20.021484 68.75 18.498047 68.75 L 17.658203 68.75 L 17.658203 68.710938 L 22.951172 63.476562 L 22.951172 62.597656 L 14.416016 62.597656 z M 32.482422 62.597656 L 31.994141 69.941406 L 32.931641 69.941406 C 33.738932 69.303386 34.689453 68.984375 35.783203 68.984375 C 36.994141 68.984375 37.912109 69.283859 38.537109 69.882812 C 39.17513 70.481773 39.494141 71.354167 39.494141 72.5 C 39.494141 73.841147 39.142578 74.850264 38.439453 75.527344 C 37.749349 76.20443 36.733724 76.542969 35.392578 76.542969 C 34.194661 76.542969 33.009765 76.223958 31.837891 75.585938 L 31.837891 76.5625 C 32.944661 77.122393 34.129557 77.402344 35.392578 77.402344 C 37.059245 77.402344 38.328776 76.985677 39.201172 76.152344 C 40.073568 75.30599 40.509766 74.08854 40.509766 72.5 C 40.509766 71.119793 40.10612 70.052082 39.298828 69.296875 C 38.504557 68.528642 37.371745 68.144531 35.900391 68.144531 C 34.858724 68.144531 33.914713 68.411459 33.068359 68.945312 L 33.029297 68.945312 L 33.400391 63.476562 L 39.904297 63.476562 L 39.904297 62.597656 L 32.482422 62.597656 z M 252.79297 66.191406 L 252.79297 73.808594 L 286.38672 73.808594 L 286.38672 66.191406 L 252.79297 66.191406 z M 412.79297 66.191406 L 412.79297 73.808594 L 446.38672 73.808594 L 446.38672 66.191406 L 412.79297 66.191406 z M 135.17578 72.597656 L 135.17578 87.988281 L 142.59766 87.988281 L 142.59766 86.386719 L 156.58203 86.386719 L 156.58203 87.988281 L 164.00391 87.988281 L 164.00391 72.597656 L 135.17578 72.597656 z M 26.857422 74.746094 L 26.857422 77.207031 L 27.990234 77.207031 L 27.990234 74.746094 L 26.857422 74.746094 z M 311.19141 76.386719 C 312.10286 76.412759 313.04036 76.686198 314.00391 77.207031 L 314.00391 77.402344 C 314.00391 78.886724 313.79557 79.889323 313.37891 80.410156 C 312.98828 80.93099 312.25911 81.191406 311.19141 81.191406 C 310.17578 81.191406 309.38151 80.983073 308.80859 80.566406 C 308.26172 80.14974 307.98828 79.563807 307.98828 78.808594 C 307.98828 78.079427 308.26172 77.493488 308.80859 77.050781 C 309.35547 76.608075 310.14974 76.386719 311.19141 76.386719 z M 142.59766 78.183594 L 156.58203 78.183594 L 156.58203 80.996094 L 142.59766 80.996094 L 142.59766 78.183594 z "
       transform="translate(0,912.36214)"
       id="path8452" />
  </g>
</svg>
