<?xml version="1.0" encoding="UTF-8" standalone="no"?>
<!-- Created with Inkscape (http://www.inkscape.org/) -->

<svg
   xmlns:dc="http://purl.org/dc/elements/1.1/"
   xmlns:cc="http://creativecommons.org/ns#"
   xmlns:rdf="http://www.w3.org/1999/02/22-rdf-syntax-ns#"
   xmlns:svg="http://www.w3.org/2000/svg"
   xmlns="http://www.w3.org/2000/svg"
   xmlns:sodipodi="http://sodipodi.sourceforge.net/DTD/sodipodi-0.dtd"
   xmlns:inkscape="http://www.inkscape.org/namespaces/inkscape"
   width="520"
   height="140"
   viewBox="0 0 520.00001 140"
   id="svg2"
   version="1.1"
   inkscape:version="0.91 r13725"
   sodipodi:docname="5.svg">
  <defs
     id="defs4" />
  <sodipodi:namedview
     id="base"
     pagecolor="#ffffff"
     bordercolor="#666666"
     borderopacity="1.0"
     inkscape:pageopacity="0.0"
     inkscape:pageshadow="2"
     inkscape:zoom="1.4"
     inkscape:cx="198.07666"
     inkscape:cy="53.459593"
     inkscape:document-units="px"
     inkscape:current-layer="layer1"
     showgrid="false"
     units="px"
     inkscape:snap-object-midpoints="true"
     inkscape:snap-page="true"
     inkscape:snap-center="true"
     inkscape:snap-bbox="true"
     inkscape:snap-grids="true"
     inkscape:snap-to-guides="true"
     inkscape:bbox-paths="true"
     inkscape:bbox-nodes="true"
     inkscape:snap-bbox-edge-midpoints="true"
     inkscape:snap-bbox-midpoints="true"
     inkscape:window-width="1920"
     inkscape:window-height="965"
     inkscape:window-x="-8"
     inkscape:window-y="-8"
     inkscape:window-maximized="1" />
  <metadata
     id="metadata7">
    <rdf:RDF>
      <cc:Work
         rdf:about="">
        <dc:format>image/svg+xml</dc:format>
        <dc:type
           rdf:resource="http://purl.org/dc/dcmitype/StillImage" />
        <dc:title></dc:title>
      </cc:Work>
    </rdf:RDF>
  </metadata>
  <g
     inkscape:label="レイヤー 1"
     inkscape:groupmode="layer"
     id="layer1"
     transform="translate(0,-912.36214)">
    <path
       style="font-style:normal;font-variant:normal;font-weight:900;font-stretch:normal;font-size:medium;line-height:125%;font-family:'Mgen+ 1c';-inkscape-font-specification:'Mgen+ 1c Heavy';text-align:center;letter-spacing:0px;word-spacing:0px;text-anchor:middle;fill:#000000;fill-opacity:1;stroke:none;stroke-width:1px;stroke-linecap:butt;stroke-linejoin:miter;stroke-opacity:1"
       d="M 254.04297 12.595703 L 249.78516 16.072266 L 249.78516 17.224609 L 254.00391 13.767578 L 254.04297 13.767578 L 254.04297 27.205078 L 255.03906 27.205078 L 255.03906 12.595703 L 254.04297 12.595703 z M 261.46484 12.595703 L 261.46484 13.474609 L 268.69141 13.474609 L 268.69141 13.513672 L 263.39844 18.708984 L 263.39844 19.548828 L 264.94141 19.548828 C 266.41276 19.548828 267.48698 19.815756 268.16406 20.349609 C 268.85417 20.870443 269.19922 21.671226 269.19922 22.751953 C 269.19922 25.278 267.83203 26.541016 265.09766 26.541016 C 263.83463 26.541016 262.67578 26.2155 261.62109 25.564453 L 261.62109 26.560547 C 262.64974 27.12044 263.80859 27.400391 265.09766 27.400391 C 266.76432 27.400391 268.03386 27.009762 268.90625 26.228516 C 269.77864 25.434242 270.21484 24.275393 270.21484 22.751953 C 270.21484 21.436853 269.8177 20.440759 269.02344 19.763672 C 268.22916 19.086592 267.07031 18.748047 265.54688 18.748047 L 264.70703 18.748047 L 264.70703 18.708984 L 270 13.474609 L 270 12.595703 L 261.46484 12.595703 z M 72.402344 50.605469 L 72.402344 89.394531 L 85.996094 89.394531 C 83.470052 86.868485 81.503906 83.92578 80.097656 80.566406 C 78.691406 77.180986 77.988281 73.665365 77.988281 70.019531 C 77.988281 66.347658 78.691406 62.83203 80.097656 59.472656 C 81.503906 56.087236 83.470052 53.131509 85.996094 50.605469 L 72.402344 50.605469 z M 173.18359 50.605469 C 175.70964 53.131509 177.67578 56.087236 179.08203 59.472656 C 180.48828 62.83203 181.19141 66.347658 181.19141 70.019531 C 181.19141 73.665365 180.48828 77.180986 179.08203 80.566406 C 177.67578 83.92578 175.70964 86.868485 173.18359 89.394531 L 186.77734 89.394531 L 186.77734 50.605469 L 173.18359 50.605469 z M 106.58203 50.800781 L 106.58203 54.980469 L 92.988281 54.980469 L 92.988281 62.597656 C 92.988281 68.43099 92.779948 72.636724 92.363281 75.214844 C 91.946615 77.79297 91.152343 80.123698 89.980469 82.207031 L 94.785156 88.613281 C 96.08724 86.842475 97.128906 84.902342 97.910156 82.792969 L 98.183594 87.402344 C 105.5013 87.063804 112.97526 86.321615 120.60547 85.175781 C 121.36068 86.842421 121.89453 88.053327 122.20703 88.808594 L 128.80859 85.996094 C 126.72526 81.152347 124.3164 75.878908 121.58203 70.175781 L 114.98047 72.988281 C 116.20443 75.540368 117.23307 77.74089 118.06641 79.589844 C 115.25391 79.92839 112.49349 80.214845 109.78516 80.449219 C 112.1289 75.292965 114.26432 69.680988 116.19141 63.613281 L 108.80859 62.011719 C 106.64714 68.938799 104.23828 75.266927 101.58203 80.996094 C 100.90495 81.048194 99.850263 81.100277 98.417969 81.152344 C 99.459635 77.662764 99.980469 73.339847 99.980469 68.183594 L 99.980469 61.191406 L 127.59766 61.191406 L 127.59766 54.980469 L 114.19922 54.980469 L 114.19922 50.800781 L 106.58203 50.800781 z M 136.97266 51.386719 C 135.48828 55.084632 133.56119 58.886715 131.19141 62.792969 L 136.38672 64.980469 L 131.19141 64.980469 L 131.19141 70.996094 L 167.98828 70.996094 L 167.98828 64.980469 L 154.19922 64.980469 L 154.19922 61.191406 L 166.38672 61.191406 L 166.38672 55.410156 L 154.19922 55.410156 L 154.19922 51.582031 L 146.58203 51.582031 L 146.58203 55.410156 L 142.87109 55.410156 C 143.39193 54.029943 143.70443 53.157549 143.80859 52.792969 L 136.97266 51.386719 z M 221.97266 52.011719 L 221.97266 55.996094 L 214.39453 55.996094 L 214.39453 62.011719 L 221.97266 62.011719 L 221.97266 65.527344 C 218.89974 66.621097 216.52995 68.222658 214.86328 70.332031 C 213.22265 72.415365 212.40234 74.837236 212.40234 77.597656 C 212.40234 80.149736 213.20963 82.194009 214.82422 83.730469 C 216.4388 85.240882 218.56119 85.996094 221.19141 85.996094 C 224.70703 85.996094 228.0013 84.824215 231.07422 82.480469 C 234.17318 80.136715 236.6862 76.79036 238.61328 72.441406 C 239.26432 73.196613 239.58984 74.251302 239.58984 75.605469 C 239.58984 76.881509 238.99088 78.092448 237.79297 79.238281 C 236.59505 80.358075 235.05859 81.139325 233.18359 81.582031 L 235.17578 87.988281 C 238.74349 87.285181 241.56901 85.826821 243.65234 83.613281 C 245.73568 81.373701 246.77734 78.704429 246.77734 75.605469 C 246.77734 72.037762 245.5013 69.21224 242.94922 67.128906 C 240.39713 65.045573 236.73828 64.003906 231.97266 64.003906 C 230.90494 64.003906 229.85026 64.042974 228.80859 64.121094 L 228.80859 62.011719 L 244.78516 62.011719 L 244.78516 55.996094 L 228.80859 55.996094 L 228.80859 52.011719 L 221.97266 52.011719 z M 273.37891 52.011719 L 266.19141 54.003906 C 266.39974 54.654946 266.72526 55.670575 267.16797 57.050781 C 267.6107 58.430988 267.85809 59.212238 267.91016 59.394531 C 266.52994 59.863285 265.42318 60.24089 264.58984 60.527344 C 263.8086 57.949224 263.07943 55.644535 262.40234 53.613281 L 255.17578 55.800781 C 255.85287 57.779948 256.63412 60.227865 257.51953 63.144531 C 256.94662 63.352865 255.85287 63.782554 254.23828 64.433594 C 252.64974 65.08464 251.36068 65.605474 250.37109 65.996094 L 252.98828 72.402344 C 256.92057 70.813804 259.09505 69.941403 259.51172 69.785156 C 261.30859 75.878903 262.9362 81.881529 264.39453 87.792969 L 271.77734 85.996094 C 270.08464 79.303387 268.35286 73.001304 266.58203 67.089844 C 266.9987 66.933597 267.57161 66.73828 268.30078 66.503906 C 269.02995 66.243486 269.5638 66.048175 269.90234 65.917969 C 270.00651 66.308595 270.20182 66.998701 270.48828 67.988281 C 270.80078 68.951821 271.03515 69.680988 271.19141 70.175781 L 277.98828 68.183594 C 277.88411 67.819014 277.70182 67.167969 277.44141 66.230469 C 277.18099 65.266929 276.98568 64.52474 276.85547 64.003906 L 277.20703 64.003906 C 279.60286 64.003906 280.80078 65.201823 280.80078 67.597656 C 280.80078 68.717443 280.38411 69.615882 279.55078 70.292969 C 278.71745 70.970049 277.66276 71.308594 276.38672 71.308594 C 275.31901 71.308594 274.1211 71.230465 272.79297 71.074219 L 272.20703 77.792969 C 273.71745 78.053382 275.38412 78.183594 277.20703 78.183594 C 280.61849 78.183594 283.32682 77.220049 285.33203 75.292969 C 287.36328 73.339842 288.37891 70.644531 288.37891 67.207031 C 288.37891 64.186198 287.45443 61.76432 285.60547 59.941406 C 283.75651 58.118486 281.34765 57.207031 278.37891 57.207031 C 277.28515 57.207031 276.16536 57.311198 275.01953 57.519531 C 274.4987 55.722658 273.95182 53.886719 273.37891 52.011719 z M 313.37891 52.011719 L 306.19141 54.003906 C 306.39974 54.654946 306.72526 55.670575 307.16797 57.050781 C 307.6107 58.430988 307.85809 59.212238 307.91016 59.394531 C 306.52994 59.863285 305.42318 60.24089 304.58984 60.527344 C 303.8086 57.949224 303.07943 55.644535 302.40234 53.613281 L 295.17578 55.800781 C 295.85287 57.779948 296.63412 60.227865 297.51953 63.144531 C 296.94662 63.352865 295.85287 63.782554 294.23828 64.433594 C 292.64974 65.08464 291.36068 65.605474 290.37109 65.996094 L 292.98828 72.402344 C 296.92057 70.813804 299.09505 69.941403 299.51172 69.785156 C 301.30859 75.878903 302.9362 81.881529 304.39453 87.792969 L 311.77734 85.996094 C 310.08464 79.303387 308.35286 73.001304 306.58203 67.089844 C 306.9987 66.933597 307.57161 66.73828 308.30078 66.503906 C 309.02995 66.243486 309.5638 66.048175 309.90234 65.917969 C 310.00651 66.308595 310.20182 66.998701 310.48828 67.988281 C 310.80078 68.951821 311.03515 69.680988 311.19141 70.175781 L 317.98828 68.183594 C 317.88411 67.819014 317.70182 67.167969 317.44141 66.230469 C 317.18099 65.266929 316.98568 64.52474 316.85547 64.003906 L 317.20703 64.003906 C 319.60286 64.003906 320.80078 65.201823 320.80078 67.597656 C 320.80078 68.717443 320.38411 69.615882 319.55078 70.292969 C 318.71745 70.970049 317.66276 71.308594 316.38672 71.308594 C 315.31901 71.308594 314.1211 71.230465 312.79297 71.074219 L 312.20703 77.792969 C 313.71745 78.053382 315.38412 78.183594 317.20703 78.183594 C 320.61849 78.183594 323.32682 77.220049 325.33203 75.292969 C 327.36328 73.339842 328.37891 70.644531 328.37891 67.207031 C 328.37891 64.186198 327.45443 61.76432 325.60547 59.941406 C 323.75651 58.118486 321.34765 57.207031 318.37891 57.207031 C 317.28515 57.207031 316.16536 57.311198 315.01953 57.519531 C 314.4987 55.722658 313.95182 53.886719 313.37891 52.011719 z M 353.37891 52.011719 L 346.19141 54.003906 C 346.39974 54.654946 346.72526 55.670575 347.16797 57.050781 C 347.6107 58.430988 347.85809 59.212238 347.91016 59.394531 C 346.52994 59.863285 345.42318 60.24089 344.58984 60.527344 C 343.8086 57.949224 343.07943 55.644535 342.40234 53.613281 L 335.17578 55.800781 C 335.85287 57.779948 336.63412 60.227865 337.51953 63.144531 C 336.94662 63.352865 335.85287 63.782554 334.23828 64.433594 C 332.64974 65.08464 331.36068 65.605474 330.37109 65.996094 L 332.98828 72.402344 C 336.92057 70.813804 339.09505 69.941403 339.51172 69.785156 C 341.30859 75.878903 342.9362 81.881529 344.39453 87.792969 L 351.77734 85.996094 C 350.08464 79.303387 348.35286 73.001304 346.58203 67.089844 C 346.9987 66.933597 347.57161 66.73828 348.30078 66.503906 C 349.02995 66.243486 349.5638 66.048175 349.90234 65.917969 C 350.00651 66.308595 350.20182 66.998701 350.48828 67.988281 C 350.80078 68.951821 351.03515 69.680988 351.19141 70.175781 L 357.98828 68.183594 C 357.88411 67.819014 357.70182 67.167969 357.44141 66.230469 C 357.18099 65.266929 356.98568 64.52474 356.85547 64.003906 L 357.20703 64.003906 C 359.60286 64.003906 360.80078 65.201823 360.80078 67.597656 C 360.80078 68.717443 360.38411 69.615882 359.55078 70.292969 C 358.71745 70.970049 357.66276 71.308594 356.38672 71.308594 C 355.31901 71.308594 354.1211 71.230465 352.79297 71.074219 L 352.20703 77.792969 C 353.71745 78.053382 355.38412 78.183594 357.20703 78.183594 C 360.61849 78.183594 363.32682 77.220049 365.33203 75.292969 C 367.36328 73.339842 368.37891 70.644531 368.37891 67.207031 C 368.37891 64.186198 367.45443 61.76432 365.60547 59.941406 C 363.75651 58.118486 361.34765 57.207031 358.37891 57.207031 C 357.28515 57.207031 356.16536 57.311198 355.01953 57.519531 C 354.4987 55.722658 353.95182 53.886719 353.37891 52.011719 z M 393.37891 52.011719 L 386.19141 54.003906 C 386.39974 54.654946 386.72526 55.670575 387.16797 57.050781 C 387.6107 58.430988 387.85809 59.212238 387.91016 59.394531 C 386.52994 59.863285 385.42318 60.24089 384.58984 60.527344 C 383.8086 57.949224 383.07943 55.644535 382.40234 53.613281 L 375.17578 55.800781 C 375.85287 57.779948 376.63412 60.227865 377.51953 63.144531 C 376.94662 63.352865 375.85287 63.782554 374.23828 64.433594 C 372.64974 65.08464 371.36068 65.605474 370.37109 65.996094 L 372.98828 72.402344 C 376.92057 70.813804 379.09505 69.941403 379.51172 69.785156 C 381.30859 75.878903 382.9362 81.881529 384.39453 87.792969 L 391.77734 85.996094 C 390.08464 79.303387 388.35286 73.001304 386.58203 67.089844 C 386.9987 66.933597 387.57161 66.73828 388.30078 66.503906 C 389.02995 66.243486 389.5638 66.048175 389.90234 65.917969 C 390.00651 66.308595 390.20182 66.998701 390.48828 67.988281 C 390.80078 68.951821 391.03515 69.680988 391.19141 70.175781 L 397.98828 68.183594 C 397.88411 67.819014 397.70182 67.167969 397.44141 66.230469 C 397.18099 65.266929 396.98568 64.52474 396.85547 64.003906 L 397.20703 64.003906 C 399.60286 64.003906 400.80078 65.201823 400.80078 67.597656 C 400.80078 68.717443 400.38411 69.615882 399.55078 70.292969 C 398.71745 70.970049 397.66276 71.308594 396.38672 71.308594 C 395.31901 71.308594 394.1211 71.230465 392.79297 71.074219 L 392.20703 77.792969 C 393.71745 78.053382 395.38412 78.183594 397.20703 78.183594 C 400.61849 78.183594 403.32682 77.220049 405.33203 75.292969 C 407.36328 73.339842 408.37891 70.644531 408.37891 67.207031 C 408.37891 64.186198 407.45443 61.76432 405.60547 59.941406 C 403.75651 58.118486 401.34765 57.207031 398.37891 57.207031 C 397.28515 57.207031 396.16536 57.311198 395.01953 57.519531 C 394.4987 55.722658 393.95182 53.886719 393.37891 52.011719 z M 433.37891 52.011719 L 426.19141 54.003906 C 426.39974 54.654946 426.72526 55.670575 427.16797 57.050781 C 427.6107 58.430988 427.85809 59.212238 427.91016 59.394531 C 426.52994 59.863285 425.42318 60.24089 424.58984 60.527344 C 423.8086 57.949224 423.07943 55.644535 422.40234 53.613281 L 415.17578 55.800781 C 415.85287 57.779948 416.63412 60.227865 417.51953 63.144531 C 416.94662 63.352865 415.85287 63.782554 414.23828 64.433594 C 412.64974 65.08464 411.36068 65.605474 410.37109 65.996094 L 412.98828 72.402344 C 416.92057 70.813804 419.09505 69.941403 419.51172 69.785156 C 421.30859 75.878903 422.9362 81.881529 424.39453 87.792969 L 431.77734 85.996094 C 430.08464 79.303387 428.35286 73.001304 426.58203 67.089844 C 426.9987 66.933597 427.57161 66.73828 428.30078 66.503906 C 429.02995 66.243486 429.5638 66.048175 429.90234 65.917969 C 430.00651 66.308595 430.20182 66.998701 430.48828 67.988281 C 430.80078 68.951821 431.03515 69.680988 431.19141 70.175781 L 437.98828 68.183594 C 437.88411 67.819014 437.70182 67.167969 437.44141 66.230469 C 437.18099 65.266929 436.98568 64.52474 436.85547 64.003906 L 437.20703 64.003906 C 439.60286 64.003906 440.80078 65.201823 440.80078 67.597656 C 440.80078 68.717443 440.38411 69.615882 439.55078 70.292969 C 438.71745 70.970049 437.66276 71.308594 436.38672 71.308594 C 435.31901 71.308594 434.1211 71.230465 432.79297 71.074219 L 432.20703 77.792969 C 433.71745 78.053382 435.38412 78.183594 437.20703 78.183594 C 440.61849 78.183594 443.32682 77.220049 445.33203 75.292969 C 447.36328 73.339842 448.37891 70.644531 448.37891 67.207031 C 448.37891 64.186198 447.45443 61.76432 445.60547 59.941406 C 443.75651 58.118486 441.34765 57.207031 438.37891 57.207031 C 437.28515 57.207031 436.16536 57.311198 435.01953 57.519531 C 434.4987 55.722658 433.95182 53.886719 433.37891 52.011719 z M 140.25391 61.191406 L 146.58203 61.191406 L 146.58203 64.980469 L 138.14453 64.980469 C 138.95182 63.678382 139.65495 62.41536 140.25391 61.191406 z M 14.416016 62.597656 L 14.416016 63.476562 L 21.642578 63.476562 L 21.642578 63.515625 L 16.349609 68.710938 L 16.349609 69.550781 L 17.892578 69.550781 C 19.363933 69.550781 20.438151 69.817709 21.115234 70.351562 C 21.805338 70.872396 22.150391 71.673173 22.150391 72.753906 C 22.150391 75.279946 20.783203 76.542969 18.048828 76.542969 C 16.785807 76.542969 15.626953 76.217446 14.572266 75.566406 L 14.572266 76.5625 C 15.600912 77.122393 16.759766 77.402344 18.048828 77.402344 C 19.715495 77.402344 20.985026 77.011715 21.857422 76.230469 C 22.729818 75.436195 23.166016 74.27734 23.166016 72.753906 C 23.166016 71.4388 22.76888 70.442705 21.974609 69.765625 C 21.180338 69.088538 20.021484 68.75 18.498047 68.75 L 17.658203 68.75 L 17.658203 68.710938 L 22.951172 63.476562 L 22.951172 62.597656 L 14.416016 62.597656 z M 32.482422 62.597656 L 31.994141 69.941406 L 32.931641 69.941406 C 33.738932 69.303386 34.689453 68.984375 35.783203 68.984375 C 36.994141 68.984375 37.912109 69.283859 38.537109 69.882812 C 39.17513 70.481773 39.494141 71.354167 39.494141 72.5 C 39.494141 73.841147 39.142578 74.850264 38.439453 75.527344 C 37.749349 76.20443 36.733724 76.542969 35.392578 76.542969 C 34.194661 76.542969 33.009765 76.223958 31.837891 75.585938 L 31.837891 76.5625 C 32.944661 77.122393 34.129557 77.402344 35.392578 77.402344 C 37.059245 77.402344 38.328776 76.985677 39.201172 76.152344 C 40.073568 75.30599 40.509766 74.08854 40.509766 72.5 C 40.509766 71.119793 40.10612 70.052082 39.298828 69.296875 C 38.504557 68.528642 37.371745 68.144531 35.900391 68.144531 C 34.858724 68.144531 33.914713 68.411459 33.068359 68.945312 L 33.029297 68.945312 L 33.400391 63.476562 L 39.904297 63.476562 L 39.904297 62.597656 L 32.482422 62.597656 z M 231.97266 70.410156 L 232.20703 70.410156 C 231.21745 72.467443 230.08464 74.212238 228.80859 75.644531 L 228.80859 70.605469 C 229.90235 70.475262 230.95703 70.410156 231.97266 70.410156 z M 135.17578 72.597656 L 135.17578 87.988281 L 142.59766 87.988281 L 142.59766 86.386719 L 156.58203 86.386719 L 156.58203 87.988281 L 164.00391 87.988281 L 164.00391 72.597656 L 135.17578 72.597656 z M 221.97266 72.910156 L 221.97266 79.589844 C 221.26953 79.589844 220.69661 79.342443 220.25391 78.847656 C 219.81119 78.352863 219.58984 77.662764 219.58984 76.777344 C 219.58984 75.345057 220.38411 74.05599 221.97266 72.910156 z M 26.857422 74.746094 L 26.857422 77.207031 L 27.990234 77.207031 L 27.990234 74.746094 L 26.857422 74.746094 z M 142.59766 78.183594 L 156.58203 78.183594 L 156.58203 80.996094 L 142.59766 80.996094 L 142.59766 78.183594 z "
       transform="translate(0,912.36214)"
       id="path7242" />
  </g>
</svg>
