<?xml version="1.0" encoding="UTF-8" standalone="no"?>
<!-- Created with Inkscape (http://www.inkscape.org/) -->

<svg
   xmlns:dc="http://purl.org/dc/elements/1.1/"
   xmlns:cc="http://creativecommons.org/ns#"
   xmlns:rdf="http://www.w3.org/1999/02/22-rdf-syntax-ns#"
   xmlns:svg="http://www.w3.org/2000/svg"
   xmlns="http://www.w3.org/2000/svg"
   xmlns:sodipodi="http://sodipodi.sourceforge.net/DTD/sodipodi-0.dtd"
   xmlns:inkscape="http://www.inkscape.org/namespaces/inkscape"
   width="520"
   height="140"
   viewBox="0 0 520.00001 140"
   id="svg2"
   version="1.1"
   inkscape:version="0.91 r13725"
   sodipodi:docname="6.svg">
  <defs
     id="defs4" />
  <sodipodi:namedview
     id="base"
     pagecolor="#ffffff"
     bordercolor="#666666"
     borderopacity="1.0"
     inkscape:pageopacity="0.0"
     inkscape:pageshadow="2"
     inkscape:zoom="1.4"
     inkscape:cx="198.07666"
     inkscape:cy="53.459593"
     inkscape:document-units="px"
     inkscape:current-layer="layer1"
     showgrid="false"
     units="px"
     inkscape:snap-object-midpoints="true"
     inkscape:snap-page="true"
     inkscape:snap-center="true"
     inkscape:snap-bbox="true"
     inkscape:snap-grids="true"
     inkscape:snap-to-guides="true"
     inkscape:bbox-paths="true"
     inkscape:bbox-nodes="true"
     inkscape:snap-bbox-edge-midpoints="true"
     inkscape:snap-bbox-midpoints="true"
     inkscape:window-width="1920"
     inkscape:window-height="965"
     inkscape:window-x="-8"
     inkscape:window-y="-8"
     inkscape:window-maximized="1" />
  <metadata
     id="metadata7">
    <rdf:RDF>
      <cc:Work
         rdf:about="">
        <dc:format>image/svg+xml</dc:format>
        <dc:type
           rdf:resource="http://purl.org/dc/dcmitype/StillImage" />
        <dc:title></dc:title>
      </cc:Work>
    </rdf:RDF>
  </metadata>
  <g
     inkscape:label="レイヤー 1"
     inkscape:groupmode="layer"
     id="layer1"
     transform="translate(0,-912.36214)">
    <path
       style="font-style:normal;font-variant:normal;font-weight:900;font-stretch:normal;font-size:medium;line-height:125%;font-family:'Mgen+ 1c';-inkscape-font-specification:'Mgen+ 1c Heavy';text-align:center;letter-spacing:0px;word-spacing:0px;text-anchor:middle;fill:#000000;fill-opacity:1;stroke:none;stroke-width:1px;stroke-linecap:butt;stroke-linejoin:miter;stroke-opacity:1"
       d="M 254.04297 12.595703 L 249.78516 16.072266 L 249.78516 17.224609 L 254.00391 13.767578 L 254.04297 13.767578 L 254.04297 27.205078 L 255.03906 27.205078 L 255.03906 12.595703 L 254.04297 12.595703 z M 261.46484 12.595703 L 261.46484 13.474609 L 268.69141 13.474609 L 268.69141 13.513672 L 263.39844 18.708984 L 263.39844 19.548828 L 264.94141 19.548828 C 266.41276 19.548828 267.48698 19.815756 268.16406 20.349609 C 268.85417 20.870443 269.19922 21.671226 269.19922 22.751953 C 269.19922 25.278 267.83203 26.541016 265.09766 26.541016 C 263.83463 26.541016 262.67578 26.2155 261.62109 25.564453 L 261.62109 26.560547 C 262.64974 27.12044 263.80859 27.400391 265.09766 27.400391 C 266.76432 27.400391 268.03386 27.009762 268.90625 26.228516 C 269.77864 25.434242 270.21484 24.275393 270.21484 22.751953 C 270.21484 21.436853 269.8177 20.440759 269.02344 19.763672 C 268.22916 19.086592 267.07031 18.748047 265.54688 18.748047 L 264.70703 18.748047 L 264.70703 18.708984 L 270 13.474609 L 270 12.595703 L 261.46484 12.595703 z M 92.402344 50.605469 L 92.402344 89.394531 L 105.99609 89.394531 C 103.47005 86.868485 101.5039 83.92578 100.09766 80.566406 C 98.691404 77.180986 97.988281 73.665365 97.988281 70.019531 C 97.988281 66.347658 98.691404 62.83203 100.09766 59.472656 C 101.5039 56.087236 103.47005 53.131509 105.99609 50.605469 L 92.402344 50.605469 z M 193.18359 50.605469 C 195.70964 53.131509 197.67578 56.087236 199.08203 59.472656 C 200.48828 62.83203 201.19141 66.347658 201.19141 70.019531 C 201.19141 73.665365 200.48828 77.180986 199.08203 80.566406 C 197.67578 83.92578 195.70964 86.868485 193.18359 89.394531 L 206.77734 89.394531 L 206.77734 50.605469 L 193.18359 50.605469 z M 126.58203 50.800781 L 126.58203 54.980469 L 112.98828 54.980469 L 112.98828 62.597656 C 112.98828 68.43099 112.77995 72.636724 112.36328 75.214844 C 111.94661 77.79297 111.15234 80.123698 109.98047 82.207031 L 114.78516 88.613281 C 116.08724 86.842475 117.1289 84.902342 117.91016 82.792969 L 118.18359 87.402344 C 125.50131 87.063804 132.97526 86.321615 140.60547 85.175781 C 141.36068 86.842421 141.89453 88.053327 142.20703 88.808594 L 148.80859 85.996094 C 146.72526 81.152347 144.3164 75.878908 141.58203 70.175781 L 134.98047 72.988281 C 136.20443 75.540368 137.23307 77.74089 138.06641 79.589844 C 135.25391 79.92839 132.49349 80.214845 129.78516 80.449219 C 132.1289 75.292965 134.26432 69.680988 136.19141 63.613281 L 128.80859 62.011719 C 126.64714 68.938799 124.23828 75.266927 121.58203 80.996094 C 120.90495 81.048194 119.85026 81.100277 118.41797 81.152344 C 119.45964 77.662764 119.98047 73.339847 119.98047 68.183594 L 119.98047 61.191406 L 147.59766 61.191406 L 147.59766 54.980469 L 134.19922 54.980469 L 134.19922 50.800781 L 126.58203 50.800781 z M 156.97266 51.386719 C 155.48828 55.084632 153.56119 58.886715 151.19141 62.792969 L 156.38672 64.980469 L 151.19141 64.980469 L 151.19141 70.996094 L 187.98828 70.996094 L 187.98828 64.980469 L 174.19922 64.980469 L 174.19922 61.191406 L 186.38672 61.191406 L 186.38672 55.410156 L 174.19922 55.410156 L 174.19922 51.582031 L 166.58203 51.582031 L 166.58203 55.410156 L 162.87109 55.410156 C 163.39193 54.029943 163.70443 53.157549 163.80859 52.792969 L 156.97266 51.386719 z M 256.77734 53.183594 L 251.58203 57.597656 C 252.77995 60.566403 253.57422 63.01432 253.96484 64.941406 C 254.38151 66.842446 254.58984 69.199219 254.58984 72.011719 C 254.58984 77.610679 252.25911 80.410156 247.59766 80.410156 C 245.69661 80.410156 244.18619 79.824224 243.06641 78.652344 C 241.94661 77.48047 241.38672 75.800781 241.38672 73.613281 C 241.38672 71.451821 242.03776 69.186193 243.33984 66.816406 C 244.66797 64.446613 246.34765 62.571613 248.37891 61.191406 L 248.37891 54.394531 L 233.18359 54.394531 L 233.18359 60.800781 L 240.37109 60.800781 L 240.44922 60.878906 C 238.39193 62.779946 236.76432 64.915363 235.56641 67.285156 C 234.39453 69.654943 233.80859 71.894526 233.80859 74.003906 C 233.80859 77.96224 235.04557 81.08724 237.51953 83.378906 C 240.01953 85.644526 243.3789 86.777344 247.59766 86.777344 C 252.10286 86.777344 255.61849 85.670571 258.14453 83.457031 C 260.69662 81.217451 261.97266 78.066406 261.97266 74.003906 C 261.9987 71.45182 261.6211 68.860675 260.83984 66.230469 L 260.91797 66.191406 C 262.14193 67.311193 263.5612 68.50911 265.17578 69.785156 L 269.19922 64.394531 C 264.8763 61.035158 260.73568 57.29818 256.77734 53.183594 z M 409.58984 54.785156 C 405.42318 54.785156 401.42578 55.319012 397.59766 56.386719 L 399.00391 62.597656 C 402.54557 61.529943 405.67057 60.996094 408.37891 60.996094 C 411.32161 60.996094 412.79297 61.72526 412.79297 63.183594 C 412.79297 63.57422 412.6237 63.977865 412.28516 64.394531 C 411.97266 64.785158 411.64714 65.123696 411.30859 65.410156 C 410.97005 65.67057 410.44922 66.048175 409.74609 66.542969 C 408.86068 67.167969 408.17057 67.67578 407.67578 68.066406 C 407.20703 68.457026 406.63412 69.016927 405.95703 69.746094 C 405.27995 70.44922 404.78516 71.217448 404.47266 72.050781 C 404.16016 72.884115 404.00391 73.79557 404.00391 74.785156 L 411.19141 74.785156 C 411.26953 74.238276 411.42578 73.730465 411.66016 73.261719 C 411.89453 72.766925 412.25911 72.311198 412.75391 71.894531 C 413.24869 71.451825 413.66536 71.100264 414.00391 70.839844 C 414.36849 70.57943 414.91536 70.227863 415.64453 69.785156 C 416.52995 69.212236 417.20703 68.756509 417.67578 68.417969 C 418.17057 68.053382 418.73047 67.545571 419.35547 66.894531 C 420.00651 66.243491 420.47526 65.527347 420.76172 64.746094 C 421.04818 63.938807 421.19141 63.027345 421.19141 62.011719 C 421.19141 59.876299 420.16276 58.144526 418.10547 56.816406 C 416.04818 55.46224 413.20964 54.785156 409.58984 54.785156 z M 364.78516 55.175781 L 365.99609 74.785156 L 373.18359 74.785156 L 374.39453 55.175781 L 364.78516 55.175781 z M 341.38672 55.605469 L 334.39453 57.597656 C 337.59766 65.33203 339.19922 73.600264 339.19922 82.402344 L 346.77734 82.402344 C 346.77734 72.324224 344.98047 63.391929 341.38672 55.605469 z M 315.37109 55.996094 C 313.91276 60.44922 313.18359 65.253903 313.18359 70.410156 C 313.18359 74.99349 314.23828 78.873701 316.34766 82.050781 C 318.45703 85.201821 320.73568 86.777344 323.18359 86.777344 C 325.34505 86.777344 327.54557 85.657549 329.78516 83.417969 C 332.02474 81.152342 333.82161 78.01432 335.17578 74.003906 L 328.80859 71.582031 C 327.84505 74.055991 326.89453 75.944014 325.95703 77.246094 C 325.04557 78.54818 324.32943 79.199219 323.80859 79.199219 C 323.52214 79.199219 323.20964 78.977863 322.87109 78.535156 C 322.53255 78.092443 322.19401 77.50651 321.85547 76.777344 C 321.54297 76.048177 321.28255 75.123693 321.07422 74.003906 C 320.89193 72.858073 320.80078 71.660156 320.80078 70.410156 C 320.80078 68.48307 320.98307 66.23047 321.34766 63.652344 C 321.71224 61.048177 322.19401 58.75651 322.79297 56.777344 L 315.37109 55.996094 z M 288.37891 58.808594 L 288.37891 62.363281 C 285.64453 63.300781 283.41797 64.88932 281.69922 67.128906 L 281.66016 67.128906 L 281.66016 62.011719 L 275.83984 62.011719 L 275.83984 81.191406 L 281.50391 81.191406 C 281.50391 78.170573 282.12891 75.527345 283.37891 73.261719 C 284.65495 70.996092 286.32161 69.381509 288.37891 68.417969 L 288.37891 74.707031 C 287.49349 74.212238 286.67318 73.626299 285.91797 72.949219 L 282.71484 77.675781 C 284.1211 79.003908 285.60547 79.980469 287.16797 80.605469 C 286.51693 81.412762 285.31901 82.141929 283.57422 82.792969 L 286.69922 87.597656 C 288.70443 86.92057 290.27995 86.100259 291.42578 85.136719 C 292.57161 84.199219 293.40495 82.975264 293.92578 81.464844 C 297.23307 81.25651 299.73307 80.332026 301.42578 78.691406 C 303.14453 77.02474 304.00391 74.654951 304.00391 71.582031 C 304.00391 65.670571 300.90495 62.402344 294.70703 61.777344 L 294.70703 58.808594 L 288.37891 58.808594 z M 160.25391 61.191406 L 166.58203 61.191406 L 166.58203 64.980469 L 158.14453 64.980469 C 158.95182 63.678382 159.65495 62.41536 160.25391 61.191406 z M 14.416016 62.597656 L 14.416016 63.476562 L 21.642578 63.476562 L 21.642578 63.515625 L 16.349609 68.710938 L 16.349609 69.550781 L 17.892578 69.550781 C 19.363933 69.550781 20.438151 69.817709 21.115234 70.351562 C 21.805338 70.872396 22.150391 71.673173 22.150391 72.753906 C 22.150391 75.279946 20.783203 76.542969 18.048828 76.542969 C 16.785807 76.542969 15.626953 76.217446 14.572266 75.566406 L 14.572266 76.5625 C 15.600912 77.122393 16.759766 77.402344 18.048828 77.402344 C 19.715495 77.402344 20.985026 77.011715 21.857422 76.230469 C 22.729818 75.436195 23.166016 74.27734 23.166016 72.753906 C 23.166016 71.4388 22.76888 70.442705 21.974609 69.765625 C 21.180338 69.088538 20.021484 68.75 18.498047 68.75 L 17.658203 68.75 L 17.658203 68.710938 L 22.951172 63.476562 L 22.951172 62.597656 L 14.416016 62.597656 z M 32.482422 62.597656 L 31.994141 69.941406 L 32.931641 69.941406 C 33.738932 69.303386 34.689453 68.984375 35.783203 68.984375 C 36.994141 68.984375 37.912109 69.283859 38.537109 69.882812 C 39.17513 70.481773 39.494141 71.354167 39.494141 72.5 C 39.494141 73.841147 39.142578 74.850264 38.439453 75.527344 C 37.749349 76.20443 36.733724 76.542969 35.392578 76.542969 C 34.194661 76.542969 33.009765 76.223958 31.837891 75.585938 L 31.837891 76.5625 C 32.944661 77.122393 34.129557 77.402344 35.392578 77.402344 C 37.059245 77.402344 38.328776 76.985677 39.201172 76.152344 C 40.073568 75.30599 40.509766 74.08854 40.509766 72.5 C 40.509766 71.119793 40.10612 70.052082 39.298828 69.296875 C 38.504557 68.528642 37.371745 68.144531 35.900391 68.144531 C 34.858724 68.144531 33.914713 68.411459 33.068359 68.945312 L 33.029297 68.945312 L 33.400391 63.476562 L 39.904297 63.476562 L 39.904297 62.597656 L 32.482422 62.597656 z M 294.70703 67.792969 C 296.6862 68.313802 297.67578 69.589847 297.67578 71.621094 C 297.67578 73.626307 296.6862 74.889323 294.70703 75.410156 L 294.70703 67.792969 z M 155.17578 72.597656 L 155.17578 87.988281 L 162.59766 87.988281 L 162.59766 86.386719 L 176.58203 86.386719 L 176.58203 87.988281 L 184.00391 87.988281 L 184.00391 72.597656 L 155.17578 72.597656 z M 26.857422 74.746094 L 26.857422 77.207031 L 27.990234 77.207031 L 27.990234 74.746094 L 26.857422 74.746094 z M 365.60547 77.988281 L 365.60547 84.394531 L 373.57422 84.394531 L 373.57422 77.988281 L 365.60547 77.988281 z M 403.57422 77.988281 L 403.57422 84.394531 L 411.58203 84.394531 L 411.58203 77.988281 L 403.57422 77.988281 z M 162.59766 78.183594 L 176.58203 78.183594 L 176.58203 80.996094 L 162.59766 80.996094 L 162.59766 78.183594 z "
       transform="translate(0,912.36214)"
       id="path6637" />
  </g>
</svg>
