<?xml version="1.0" encoding="UTF-8" standalone="no"?>
<!-- Created with Inkscape (http://www.inkscape.org/) -->

<svg
   xmlns:dc="http://purl.org/dc/elements/1.1/"
   xmlns:cc="http://creativecommons.org/ns#"
   xmlns:rdf="http://www.w3.org/1999/02/22-rdf-syntax-ns#"
   xmlns:svg="http://www.w3.org/2000/svg"
   xmlns="http://www.w3.org/2000/svg"
   xmlns:sodipodi="http://sodipodi.sourceforge.net/DTD/sodipodi-0.dtd"
   xmlns:inkscape="http://www.inkscape.org/namespaces/inkscape"
   width="520"
   height="140"
   viewBox="0 0 520.00001 140"
   id="svg2"
   version="1.1"
   inkscape:version="0.91 r13725"
   sodipodi:docname="7.svg">
  <defs
     id="defs4" />
  <sodipodi:namedview
     id="base"
     pagecolor="#ffffff"
     bordercolor="#666666"
     borderopacity="1.0"
     inkscape:pageopacity="0.0"
     inkscape:pageshadow="2"
     inkscape:zoom="1.4"
     inkscape:cx="198.07666"
     inkscape:cy="53.459593"
     inkscape:document-units="px"
     inkscape:current-layer="layer1"
     showgrid="false"
     units="px"
     inkscape:snap-object-midpoints="true"
     inkscape:snap-page="true"
     inkscape:snap-center="true"
     inkscape:snap-bbox="true"
     inkscape:snap-grids="true"
     inkscape:snap-to-guides="true"
     inkscape:bbox-paths="true"
     inkscape:bbox-nodes="true"
     inkscape:snap-bbox-edge-midpoints="true"
     inkscape:snap-bbox-midpoints="true"
     inkscape:window-width="1920"
     inkscape:window-height="965"
     inkscape:window-x="-8"
     inkscape:window-y="-8"
     inkscape:window-maximized="1" />
  <metadata
     id="metadata7">
    <rdf:RDF>
      <cc:Work
         rdf:about="">
        <dc:format>image/svg+xml</dc:format>
        <dc:type
           rdf:resource="http://purl.org/dc/dcmitype/StillImage" />
        <dc:title></dc:title>
      </cc:Work>
    </rdf:RDF>
  </metadata>
  <g
     inkscape:label="レイヤー 1"
     inkscape:groupmode="layer"
     id="layer1"
     transform="translate(0,-912.36214)">
    <path
       style="font-style:normal;font-variant:normal;font-weight:900;font-stretch:normal;font-size:medium;line-height:125%;font-family:'Mgen+ 1c';-inkscape-font-specification:'Mgen+ 1c Heavy';text-align:center;letter-spacing:0px;word-spacing:0px;text-anchor:middle;fill:#000000;fill-opacity:1;stroke:none;stroke-width:1px;stroke-linecap:butt;stroke-linejoin:miter;stroke-opacity:1"
       d="M 254.04297 12.595703 L 249.78516 16.072266 L 249.78516 17.224609 L 254.00391 13.767578 L 254.04297 13.767578 L 254.04297 27.205078 L 255.03906 27.205078 L 255.03906 12.595703 L 254.04297 12.595703 z M 261.46484 12.595703 L 261.46484 13.474609 L 268.69141 13.474609 L 268.69141 13.513672 L 263.39844 18.708984 L 263.39844 19.548828 L 264.94141 19.548828 C 266.41276 19.548828 267.48698 19.815756 268.16406 20.349609 C 268.85417 20.870443 269.19922 21.671226 269.19922 22.751953 C 269.19922 25.278 267.83203 26.541016 265.09766 26.541016 C 263.83463 26.541016 262.67578 26.2155 261.62109 25.564453 L 261.62109 26.560547 C 262.64974 27.12044 263.80859 27.400391 265.09766 27.400391 C 266.76432 27.400391 268.03386 27.009762 268.90625 26.228516 C 269.77864 25.434242 270.21484 24.275393 270.21484 22.751953 C 270.21484 21.436853 269.8177 20.440759 269.02344 19.763672 C 268.22916 19.086592 267.07031 18.748047 265.54688 18.748047 L 264.70703 18.748047 L 264.70703 18.708984 L 270 13.474609 L 270 12.595703 L 261.46484 12.595703 z M 112.40234 50.605469 L 112.40234 89.394531 L 125.99609 89.394531 C 123.47005 86.868485 121.5039 83.92578 120.09766 80.566406 C 118.6914 77.180986 117.98828 73.665365 117.98828 70.019531 C 117.98828 66.347658 118.6914 62.83203 120.09766 59.472656 C 121.5039 56.087236 123.47005 53.131509 125.99609 50.605469 L 112.40234 50.605469 z M 213.18359 50.605469 C 215.70964 53.131509 217.67578 56.087236 219.08203 59.472656 C 220.48828 62.83203 221.19141 66.347658 221.19141 70.019531 C 221.19141 73.665365 220.48828 77.180986 219.08203 80.566406 C 217.67578 83.92578 215.70964 86.868485 213.18359 89.394531 L 226.77734 89.394531 L 226.77734 50.605469 L 213.18359 50.605469 z M 146.58203 50.800781 L 146.58203 54.980469 L 132.98828 54.980469 L 132.98828 62.597656 C 132.98828 68.43099 132.77995 72.636724 132.36328 75.214844 C 131.94661 77.79297 131.15234 80.123698 129.98047 82.207031 L 134.78516 88.613281 C 136.08724 86.842475 137.1289 84.902342 137.91016 82.792969 L 138.18359 87.402344 C 145.50131 87.063804 152.97526 86.321615 160.60547 85.175781 C 161.36068 86.842421 161.89453 88.053327 162.20703 88.808594 L 168.80859 85.996094 C 166.72526 81.152347 164.3164 75.878908 161.58203 70.175781 L 154.98047 72.988281 C 156.20443 75.540368 157.23307 77.74089 158.06641 79.589844 C 155.25391 79.92839 152.49349 80.214845 149.78516 80.449219 C 152.1289 75.292965 154.26432 69.680988 156.19141 63.613281 L 148.80859 62.011719 C 146.64714 68.938799 144.23828 75.266927 141.58203 80.996094 C 140.90495 81.048194 139.85026 81.100277 138.41797 81.152344 C 139.45964 77.662764 139.98047 73.339847 139.98047 68.183594 L 139.98047 61.191406 L 167.59766 61.191406 L 167.59766 54.980469 L 154.19922 54.980469 L 154.19922 50.800781 L 146.58203 50.800781 z M 176.97266 51.386719 C 175.48828 55.084632 173.56119 58.886715 171.19141 62.792969 L 176.38672 64.980469 L 171.19141 64.980469 L 171.19141 70.996094 L 207.98828 70.996094 L 207.98828 64.980469 L 194.19922 64.980469 L 194.19922 61.191406 L 206.38672 61.191406 L 206.38672 55.410156 L 194.19922 55.410156 L 194.19922 51.582031 L 186.58203 51.582031 L 186.58203 55.410156 L 182.87109 55.410156 C 183.39193 54.029943 183.70443 53.157549 183.80859 52.792969 L 176.97266 51.386719 z M 259.98047 52.792969 L 259.19922 59.394531 C 267.11589 60.332031 273.91276 60.800781 279.58984 60.800781 L 279.58984 54.003906 C 272.97526 54.003906 266.4388 53.600262 259.98047 52.792969 z M 295.60547 53.183594 C 294.2513 58.496094 293.57422 64.095049 293.57422 69.980469 C 293.60026 75.865882 294.27734 81.464844 295.60547 86.777344 L 303.06641 85.996094 C 301.81641 81.02214 301.19141 75.683595 301.19141 69.980469 C 301.19141 64.277342 301.81641 58.95182 303.06641 54.003906 L 295.60547 53.183594 z M 389.58984 54.785156 C 385.42318 54.785156 381.42578 55.319012 377.59766 56.386719 L 379.00391 62.597656 C 382.54557 61.529943 385.67057 60.996094 388.37891 60.996094 C 391.32161 60.996094 392.79297 61.72526 392.79297 63.183594 C 392.79297 63.57422 392.6237 63.977865 392.28516 64.394531 C 391.97266 64.785158 391.64714 65.123696 391.30859 65.410156 C 390.97005 65.67057 390.44922 66.048175 389.74609 66.542969 C 388.86068 67.167969 388.17057 67.67578 387.67578 68.066406 C 387.20703 68.457026 386.63412 69.016927 385.95703 69.746094 C 385.27995 70.44922 384.78516 71.217448 384.47266 72.050781 C 384.16016 72.884115 384.00391 73.79557 384.00391 74.785156 L 391.19141 74.785156 C 391.26953 74.238276 391.42578 73.730465 391.66016 73.261719 C 391.89453 72.766925 392.25911 72.311198 392.75391 71.894531 C 393.24869 71.451825 393.66536 71.100264 394.00391 70.839844 C 394.36849 70.57943 394.91536 70.227863 395.64453 69.785156 C 396.52995 69.212236 397.20703 68.756509 397.67578 68.417969 C 398.17057 68.053382 398.73047 67.545571 399.35547 66.894531 C 400.00651 66.243491 400.47526 65.527347 400.76172 64.746094 C 401.04818 63.938807 401.19141 63.027345 401.19141 62.011719 C 401.19141 59.876299 400.16276 58.144526 398.10547 56.816406 C 396.04818 55.46224 393.20964 54.785156 389.58984 54.785156 z M 307.59766 55.800781 L 307.59766 62.402344 L 324.98047 62.402344 L 324.98047 55.800781 L 307.59766 55.800781 z M 348.37891 58.808594 L 348.37891 62.363281 C 345.64453 63.300781 343.41797 64.88932 341.69922 67.128906 L 341.66016 67.128906 L 341.66016 62.011719 L 335.83984 62.011719 L 335.83984 81.191406 L 341.50391 81.191406 C 341.50391 78.170573 342.12891 75.527345 343.37891 73.261719 C 344.65495 70.996092 346.32161 69.381509 348.37891 68.417969 L 348.37891 74.707031 C 347.49349 74.212238 346.67318 73.626299 345.91797 72.949219 L 342.71484 77.675781 C 344.1211 79.003908 345.60547 79.980469 347.16797 80.605469 C 346.51693 81.412762 345.31901 82.141929 343.57422 82.792969 L 346.69922 87.597656 C 348.70443 86.92057 350.27995 86.100259 351.42578 85.136719 C 352.57161 84.199219 353.40495 82.975264 353.92578 81.464844 C 357.23307 81.25651 359.73307 80.332026 361.42578 78.691406 C 363.14453 77.02474 364.00391 74.654951 364.00391 71.582031 C 364.00391 65.670571 360.90495 62.402344 354.70703 61.777344 L 354.70703 58.808594 L 348.37891 58.808594 z M 180.25391 61.191406 L 186.58203 61.191406 L 186.58203 64.980469 L 178.14453 64.980469 C 178.95182 63.678382 179.65495 62.41536 180.25391 61.191406 z M 14.416016 62.597656 L 14.416016 63.476562 L 21.642578 63.476562 L 21.642578 63.515625 L 16.349609 68.710938 L 16.349609 69.550781 L 17.892578 69.550781 C 19.363933 69.550781 20.438151 69.817709 21.115234 70.351562 C 21.805338 70.872396 22.150391 71.673173 22.150391 72.753906 C 22.150391 75.279946 20.783203 76.542969 18.048828 76.542969 C 16.785807 76.542969 15.626953 76.217446 14.572266 75.566406 L 14.572266 76.5625 C 15.600912 77.122393 16.759766 77.402344 18.048828 77.402344 C 19.715495 77.402344 20.985026 77.011715 21.857422 76.230469 C 22.729818 75.436195 23.166016 74.27734 23.166016 72.753906 C 23.166016 71.4388 22.76888 70.442705 21.974609 69.765625 C 21.180338 69.088538 20.021484 68.75 18.498047 68.75 L 17.658203 68.75 L 17.658203 68.710938 L 22.951172 63.476562 L 22.951172 62.597656 L 14.416016 62.597656 z M 32.482422 62.597656 L 31.994141 69.941406 L 32.931641 69.941406 C 33.738932 69.303386 34.689453 68.984375 35.783203 68.984375 C 36.994141 68.984375 37.912109 69.283859 38.537109 69.882812 C 39.17513 70.481773 39.494141 71.354167 39.494141 72.5 C 39.494141 73.841147 39.142578 74.850264 38.439453 75.527344 C 37.749349 76.20443 36.733724 76.542969 35.392578 76.542969 C 34.194661 76.542969 33.009765 76.223958 31.837891 75.585938 L 31.837891 76.5625 C 32.944661 77.122393 34.129557 77.402344 35.392578 77.402344 C 37.059245 77.402344 38.328776 76.985677 39.201172 76.152344 C 40.073568 75.30599 40.509766 74.08854 40.509766 72.5 C 40.509766 71.119793 40.10612 70.052082 39.298828 69.296875 C 38.504557 68.528642 37.371745 68.144531 35.900391 68.144531 C 34.858724 68.144531 33.914713 68.411459 33.068359 68.945312 L 33.029297 68.945312 L 33.400391 63.476562 L 39.904297 63.476562 L 39.904297 62.597656 L 32.482422 62.597656 z M 272.40234 63.183594 C 270.03256 63.183594 267.06381 63.457026 263.49609 64.003906 C 259.92839 64.52474 256.62109 65.188807 253.57422 65.996094 L 255.17578 72.597656 C 262.75391 70.852863 268.35286 69.980469 271.97266 69.980469 C 274.0039 69.980469 275.44922 70.214847 276.30859 70.683594 C 277.16797 71.152347 277.59766 71.855469 277.59766 72.792969 C 277.59766 74.641929 276.3086 76.17839 273.73047 77.402344 C 271.17838 78.600264 266.93359 79.524741 260.99609 80.175781 L 261.97266 86.777344 C 277.4414 85.709637 285.17578 80.91797 285.17578 72.402344 C 285.17578 69.511724 284.08203 67.259118 281.89453 65.644531 C 279.73307 64.003905 276.56901 63.183594 272.40234 63.183594 z M 309.00391 67.792969 C 307.49349 69.199215 306.28255 70.748693 305.37109 72.441406 C 304.45964 74.134113 304.00391 75.57943 304.00391 76.777344 C 304.00391 79.433597 305.08464 81.542969 307.24609 83.105469 C 309.43359 84.641929 312.48047 85.410156 316.38672 85.410156 C 319.79818 85.410156 323.06641 85.006512 326.19141 84.199219 L 325.17578 77.597656 C 321.97265 78.274736 319.04297 78.613281 316.38672 78.613281 C 314.5638 78.613281 313.27474 78.41797 312.51953 78.027344 C 311.76432 77.610677 311.38672 76.998693 311.38672 76.191406 C 311.38672 75.279946 312.32422 73.808597 314.19922 71.777344 L 309.00391 67.792969 z M 354.70703 67.792969 C 356.6862 68.313802 357.67578 69.589847 357.67578 71.621094 C 357.67578 73.626307 356.6862 74.889323 354.70703 75.410156 L 354.70703 67.792969 z M 175.17578 72.597656 L 175.17578 87.988281 L 182.59766 87.988281 L 182.59766 86.386719 L 196.58203 86.386719 L 196.58203 87.988281 L 204.00391 87.988281 L 204.00391 72.597656 L 175.17578 72.597656 z M 26.857422 74.746094 L 26.857422 77.207031 L 27.990234 77.207031 L 27.990234 74.746094 L 26.857422 74.746094 z M 383.57422 77.988281 L 383.57422 84.394531 L 391.58203 84.394531 L 391.58203 77.988281 L 383.57422 77.988281 z M 182.59766 78.183594 L 196.58203 78.183594 L 196.58203 80.996094 L 182.59766 80.996094 L 182.59766 78.183594 z "
       transform="translate(0,912.36214)"
       id="path6035" />
  </g>
</svg>
