<?xml version="1.0" encoding="UTF-8" standalone="no"?>
<!-- Created with Inkscape (http://www.inkscape.org/) -->

<svg
   xmlns:dc="http://purl.org/dc/elements/1.1/"
   xmlns:cc="http://creativecommons.org/ns#"
   xmlns:rdf="http://www.w3.org/1999/02/22-rdf-syntax-ns#"
   xmlns:svg="http://www.w3.org/2000/svg"
   xmlns="http://www.w3.org/2000/svg"
   xmlns:sodipodi="http://sodipodi.sourceforge.net/DTD/sodipodi-0.dtd"
   xmlns:inkscape="http://www.inkscape.org/namespaces/inkscape"
   width="520"
   height="140"
   viewBox="0 0 520.00001 140"
   id="svg2"
   version="1.1"
   inkscape:version="0.91 r13725"
   sodipodi:docname="8.svg">
  <defs
     id="defs4" />
  <sodipodi:namedview
     id="base"
     pagecolor="#ffffff"
     bordercolor="#666666"
     borderopacity="1.0"
     inkscape:pageopacity="0.0"
     inkscape:pageshadow="2"
     inkscape:zoom="1.4"
     inkscape:cx="198.07666"
     inkscape:cy="53.459593"
     inkscape:document-units="px"
     inkscape:current-layer="layer1"
     showgrid="false"
     units="px"
     inkscape:snap-object-midpoints="true"
     inkscape:snap-page="true"
     inkscape:snap-center="true"
     inkscape:snap-bbox="true"
     inkscape:snap-grids="true"
     inkscape:snap-to-guides="true"
     inkscape:bbox-paths="true"
     inkscape:bbox-nodes="true"
     inkscape:snap-bbox-edge-midpoints="true"
     inkscape:snap-bbox-midpoints="true"
     inkscape:window-width="1920"
     inkscape:window-height="965"
     inkscape:window-x="-8"
     inkscape:window-y="-8"
     inkscape:window-maximized="1" />
  <metadata
     id="metadata7">
    <rdf:RDF>
      <cc:Work
         rdf:about="">
        <dc:format>image/svg+xml</dc:format>
        <dc:type
           rdf:resource="http://purl.org/dc/dcmitype/StillImage" />
        <dc:title></dc:title>
      </cc:Work>
    </rdf:RDF>
  </metadata>
  <g
     inkscape:label="レイヤー 1"
     inkscape:groupmode="layer"
     id="layer1"
     transform="translate(0,-912.36214)">
    <path
       style="font-style:normal;font-variant:normal;font-weight:900;font-stretch:normal;font-size:medium;line-height:125%;font-family:'Mgen+ 1c';-inkscape-font-specification:'Mgen+ 1c Heavy';text-align:center;letter-spacing:0px;word-spacing:0px;text-anchor:middle;fill:#000000;fill-opacity:1;stroke:none;stroke-width:1px;stroke-linecap:butt;stroke-linejoin:miter;stroke-opacity:1"
       d="M 254.04297 12.595703 L 249.78516 16.072266 L 249.78516 17.224609 L 254.00391 13.767578 L 254.04297 13.767578 L 254.04297 27.205078 L 255.03906 27.205078 L 255.03906 12.595703 L 254.04297 12.595703 z M 261.46484 12.595703 L 261.46484 13.474609 L 268.69141 13.474609 L 268.69141 13.513672 L 263.39844 18.708984 L 263.39844 19.548828 L 264.94141 19.548828 C 266.41276 19.548828 267.48698 19.815756 268.16406 20.349609 C 268.85417 20.870443 269.19922 21.671226 269.19922 22.751953 C 269.19922 25.278 267.83203 26.541016 265.09766 26.541016 C 263.83463 26.541016 262.67578 26.2155 261.62109 25.564453 L 261.62109 26.560547 C 262.64974 27.12044 263.80859 27.400391 265.09766 27.400391 C 266.76432 27.400391 268.03386 27.009762 268.90625 26.228516 C 269.77864 25.434242 270.21484 24.275393 270.21484 22.751953 C 270.21484 21.436853 269.8177 20.440759 269.02344 19.763672 C 268.22916 19.086592 267.07031 18.748047 265.54688 18.748047 L 264.70703 18.748047 L 264.70703 18.708984 L 270 13.474609 L 270 12.595703 L 261.46484 12.595703 z M 266.07422 50.410156 L 262.24609 52.324219 C 262.92318 53.574219 263.70443 55.045575 264.58984 56.738281 C 264.40756 56.764348 264.13412 56.777344 263.76953 56.777344 C 263.43099 56.777344 263.17057 56.79034 262.98828 56.816406 C 261.6862 54.21224 260.6836 52.27214 259.98047 50.996094 L 256.23047 52.871094 C 257.19401 54.615887 257.92318 55.996092 258.41797 57.011719 C 258.02734 57.037719 257.42839 57.063777 256.62109 57.089844 C 255.83985 57.11591 255.25391 57.128906 254.86328 57.128906 C 254.75911 55.983073 254.66797 54.407557 254.58984 52.402344 L 247.40234 52.792969 C 247.50651 54.746095 247.59765 56.256512 247.67578 57.324219 C 242.02474 57.454425 236.9987 57.519531 232.59766 57.519531 L 232.59766 63.925781 C 237.3112 63.925781 242.66276 63.860675 248.65234 63.730469 C 248.9388 64.876302 249.32943 66.087241 249.82422 67.363281 L 249.74609 67.441406 C 247.92318 66.998693 246.33464 66.777344 244.98047 66.777344 C 241.67318 66.777344 239.04297 67.623693 237.08984 69.316406 C 235.16276 71.009113 234.19922 73.23568 234.19922 75.996094 C 234.19922 79.48568 235.55339 82.233075 238.26172 84.238281 C 240.97005 86.217448 244.8112 87.207031 249.78516 87.207031 C 253.76953 87.207031 257.50651 86.803387 260.99609 85.996094 L 259.78516 79.589844 C 258.35286 79.902344 256.60807 80.188799 254.55078 80.449219 C 252.51953 80.683592 250.93099 80.800781 249.78516 80.800781 C 247.1289 80.800781 245.1237 80.410153 243.76953 79.628906 C 242.4414 78.847653 241.77734 77.766925 241.77734 76.386719 C 241.77734 75.423179 242.10286 74.654951 242.75391 74.082031 C 243.40495 73.483071 244.27735 73.183594 245.37109 73.183594 C 248.02735 73.20964 250.63151 73.951823 253.18359 75.410156 L 260.17578 72.402344 C 258.11849 69.04297 256.72526 66.07422 255.99609 63.496094 C 260.21485 63.339847 263.41797 63.209635 265.60547 63.105469 L 265.44922 58.183594 L 269.19922 56.386719 C 268.33985 54.641925 267.29818 52.649736 266.07422 50.410156 z M 357.79297 50.410156 C 355.8138 53.873696 353.48307 57.20703 350.80078 60.410156 L 354.78516 62.207031 L 354.78516 62.988281 L 350.80078 62.988281 L 350.80078 69.199219 L 354.78516 69.199219 L 354.78516 72.792969 L 351.58203 72.792969 L 351.58203 78.378906 L 355.33203 78.378906 C 353.8737 80.957026 352.29818 83.365882 350.60547 85.605469 L 356.19141 89.003906 C 358.35286 86.191386 360.08463 83.457035 361.38672 80.800781 L 356.42578 78.378906 L 382.44141 78.378906 L 377.79297 80.800781 C 379.61588 83.483075 381.28255 86.152314 382.79297 88.808594 L 388.57422 85.800781 C 387.27213 83.457035 385.74869 80.983073 384.00391 78.378906 L 387.59766 78.378906 L 387.59766 72.792969 L 384.39453 72.792969 L 384.39453 69.199219 L 388.37891 69.199219 L 388.37891 62.988281 L 384.39453 62.988281 L 384.39453 59.589844 L 386.77734 59.589844 L 386.77734 53.808594 L 363.80859 53.808594 C 364.14714 53.131514 364.47266 52.45443 364.78516 51.777344 L 357.79297 50.410156 z M 52.402344 50.605469 L 52.402344 89.394531 L 65.996094 89.394531 C 63.470052 86.868485 61.503906 83.92578 60.097656 80.566406 C 58.691406 77.180986 57.988281 73.665365 57.988281 70.019531 C 57.988281 66.347658 58.691406 62.83203 60.097656 59.472656 C 61.503906 56.087236 63.470052 53.131509 65.996094 50.605469 L 52.402344 50.605469 z M 153.18359 50.605469 C 155.70964 53.131509 157.67578 56.087236 159.08203 59.472656 C 160.48828 62.83203 161.19141 66.347658 161.19141 70.019531 C 161.19141 73.665365 160.48828 77.180986 159.08203 80.566406 C 157.67578 83.92578 155.70964 86.868485 153.18359 89.394531 L 166.77734 89.394531 L 166.77734 50.605469 L 153.18359 50.605469 z M 86.582031 50.800781 L 86.582031 54.980469 L 72.988281 54.980469 L 72.988281 62.597656 C 72.988281 68.43099 72.779948 72.636724 72.363281 75.214844 C 71.946615 77.79297 71.152343 80.123698 69.980469 82.207031 L 74.785156 88.613281 C 76.08724 86.842475 77.128906 84.902342 77.910156 82.792969 L 78.183594 87.402344 C 85.501302 87.063804 92.975259 86.321615 100.60547 85.175781 C 101.36068 86.842421 101.89453 88.053327 102.20703 88.808594 L 108.80859 85.996094 C 106.72526 81.152347 104.3164 75.878908 101.58203 70.175781 L 94.980469 72.988281 C 96.204427 75.540368 97.233073 77.74089 98.066406 79.589844 C 95.253906 79.92839 92.49349 80.214845 89.785156 80.449219 C 92.128906 75.292965 94.264323 69.680988 96.191406 63.613281 L 88.808594 62.011719 C 86.647135 68.938799 84.238281 75.266927 81.582031 80.996094 C 80.904948 81.048194 79.85026 81.100277 78.417969 81.152344 C 79.459635 77.662764 79.980469 73.339847 79.980469 68.183594 L 79.980469 61.191406 L 107.59766 61.191406 L 107.59766 54.980469 L 94.199219 54.980469 L 94.199219 50.800781 L 86.582031 50.800781 z M 325.80078 50.996094 L 325.80078 53.378906 L 311.19141 53.378906 L 311.19141 59.003906 L 325.80078 59.003906 L 325.80078 60.800781 L 311.77734 60.800781 L 311.77734 88.613281 L 318.80859 88.613281 L 318.80859 66.582031 L 326.07422 66.582031 L 321.58203 67.792969 C 322.02474 69.277342 322.3763 70.540365 322.63672 71.582031 L 319.98047 71.582031 L 319.98047 77.011719 L 325.99609 77.011719 L 325.99609 78.378906 L 320.17578 78.378906 L 320.17578 83.808594 L 325.99609 83.808594 L 325.99609 87.988281 L 333.18359 87.988281 L 333.18359 83.808594 L 335.25391 83.808594 L 335.60547 88.378906 C 338.02734 88.535106 339.61589 88.613281 340.37109 88.613281 C 341.56901 88.613281 342.49349 88.587156 343.14453 88.535156 C 343.82162 88.48309 344.45964 88.352865 345.05859 88.144531 C 345.65755 87.936198 346.07422 87.68881 346.30859 87.402344 C 346.56901 87.11589 346.79036 86.634118 346.97266 85.957031 C 347.18096 85.279951 347.29815 84.563807 347.32422 83.808594 C 347.37629 83.027347 347.40234 81.959635 347.40234 80.605469 L 347.40234 60.800781 L 333.37891 60.800781 L 333.37891 59.003906 L 347.98828 59.003906 L 347.98828 53.378906 L 333.37891 53.378906 L 333.37891 50.996094 L 325.80078 50.996094 z M 116.97266 51.386719 C 115.48828 55.084632 113.56119 58.886715 111.19141 62.792969 L 116.38672 64.980469 L 111.19141 64.980469 L 111.19141 70.996094 L 147.98828 70.996094 L 147.98828 64.980469 L 134.19922 64.980469 L 134.19922 61.191406 L 146.38672 61.191406 L 146.38672 55.410156 L 134.19922 55.410156 L 134.19922 51.582031 L 126.58203 51.582031 L 126.58203 55.410156 L 122.87109 55.410156 C 123.39193 54.029943 123.70443 53.157549 123.80859 52.792969 L 116.97266 51.386719 z M 394.39453 53.808594 L 394.39453 60.605469 L 424.78516 60.605469 L 424.78516 53.808594 L 394.39453 53.808594 z M 444.78516 55.175781 L 445.99609 74.785156 L 453.18359 74.785156 L 454.39453 55.175781 L 444.78516 55.175781 z M 221.38672 55.605469 L 214.39453 57.597656 C 217.59766 65.33203 219.19922 73.600264 219.19922 82.402344 L 226.77734 82.402344 C 226.77734 72.324224 224.98047 63.391929 221.38672 55.605469 z M 195.37109 55.996094 C 193.91276 60.44922 193.18359 65.253903 193.18359 70.410156 C 193.18359 74.99349 194.23828 78.873701 196.34766 82.050781 C 198.45703 85.201821 200.73568 86.777344 203.18359 86.777344 C 205.34505 86.777344 207.54557 85.657549 209.78516 83.417969 C 212.02474 81.152342 213.82161 78.01432 215.17578 74.003906 L 208.80859 71.582031 C 207.84505 74.055991 206.89453 75.944014 205.95703 77.246094 C 205.04557 78.54818 204.32943 79.199219 203.80859 79.199219 C 203.52214 79.199219 203.20964 78.977863 202.87109 78.535156 C 202.53255 78.092443 202.19401 77.50651 201.85547 76.777344 C 201.54297 76.048177 201.28255 75.123693 201.07422 74.003906 C 200.89193 72.858073 200.80078 71.660156 200.80078 70.410156 C 200.80078 68.48307 200.98307 66.23047 201.34766 63.652344 C 201.71224 61.048177 202.19401 58.75651 202.79297 56.777344 L 195.37109 55.996094 z M 361.19141 59.589844 L 362.79297 59.589844 L 362.79297 62.988281 L 361.19141 62.988281 L 361.19141 59.589844 z M 368.80859 59.589844 L 370.37109 59.589844 L 370.37109 62.988281 L 368.80859 62.988281 L 368.80859 59.589844 z M 376.38672 59.589844 L 377.98828 59.589844 L 377.98828 62.988281 L 376.38672 62.988281 L 376.38672 59.589844 z M 120.25391 61.191406 L 126.58203 61.191406 L 126.58203 64.980469 L 118.14453 64.980469 C 118.95182 63.678382 119.65495 62.41536 120.25391 61.191406 z M 14.416016 62.597656 L 14.416016 63.476562 L 21.642578 63.476562 L 21.642578 63.515625 L 16.349609 68.710938 L 16.349609 69.550781 L 17.892578 69.550781 C 19.363933 69.550781 20.438151 69.817709 21.115234 70.351562 C 21.805338 70.872396 22.150391 71.673173 22.150391 72.753906 C 22.150391 75.279946 20.783203 76.542969 18.048828 76.542969 C 16.785807 76.542969 15.626953 76.217446 14.572266 75.566406 L 14.572266 76.5625 C 15.600912 77.122393 16.759766 77.402344 18.048828 77.402344 C 19.715495 77.402344 20.985026 77.011715 21.857422 76.230469 C 22.729818 75.436195 23.166016 74.27734 23.166016 72.753906 C 23.166016 71.4388 22.76888 70.442705 21.974609 69.765625 C 21.180338 69.088538 20.021484 68.75 18.498047 68.75 L 17.658203 68.75 L 17.658203 68.710938 L 22.951172 63.476562 L 22.951172 62.597656 L 14.416016 62.597656 z M 32.482422 62.597656 L 31.994141 69.941406 L 32.931641 69.941406 C 33.738932 69.303386 34.689453 68.984375 35.783203 68.984375 C 36.994141 68.984375 37.912109 69.283859 38.537109 69.882812 C 39.17513 70.481773 39.494141 71.354167 39.494141 72.5 C 39.494141 73.841147 39.142578 74.850264 38.439453 75.527344 C 37.749349 76.20443 36.733724 76.542969 35.392578 76.542969 C 34.194661 76.542969 33.009765 76.223958 31.837891 75.585938 L 31.837891 76.5625 C 32.944661 77.122393 34.129557 77.402344 35.392578 77.402344 C 37.059245 77.402344 38.328776 76.985677 39.201172 76.152344 C 40.073568 75.30599 40.509766 74.08854 40.509766 72.5 C 40.509766 71.119793 40.10612 70.052082 39.298828 69.296875 C 38.504557 68.528642 37.371745 68.144531 35.900391 68.144531 C 34.858724 68.144531 33.914713 68.411459 33.068359 68.945312 L 33.029297 68.945312 L 33.400391 63.476562 L 39.904297 63.476562 L 39.904297 62.597656 L 32.482422 62.597656 z M 396.77734 65.800781 L 396.77734 72.402344 L 422.40234 72.402344 L 422.40234 65.800781 L 396.77734 65.800781 z M 327.71484 66.582031 L 332.05078 66.582031 C 331.52995 68.170571 330.82682 69.837238 329.94141 71.582031 L 329.00391 71.582031 C 328.63932 70.045571 328.20964 68.378905 327.71484 66.582031 z M 333.45703 66.582031 L 340.37109 66.582031 L 340.37109 81.191406 C 340.37109 81.894526 340.31901 82.311193 340.21484 82.441406 C 340.11068 82.545573 339.70703 82.597656 339.00391 82.597656 L 339.00391 78.378906 L 333.18359 78.378906 L 333.18359 77.011719 L 339.19922 77.011719 L 339.19922 71.582031 L 336.50391 71.582031 C 336.99869 70.514325 337.49349 69.316408 337.98828 67.988281 L 333.45703 66.582031 z M 361.19141 69.199219 L 362.79297 69.199219 L 362.79297 72.792969 L 361.19141 72.792969 L 361.19141 69.199219 z M 368.80859 69.199219 L 370.37109 69.199219 L 370.37109 72.792969 L 368.80859 72.792969 L 368.80859 69.199219 z M 376.38672 69.199219 L 377.98828 69.199219 L 377.98828 72.792969 L 376.38672 72.792969 L 376.38672 69.199219 z M 115.17578 72.597656 L 115.17578 87.988281 L 122.59766 87.988281 L 122.59766 86.386719 L 136.58203 86.386719 L 136.58203 87.988281 L 144.00391 87.988281 L 144.00391 72.597656 L 115.17578 72.597656 z M 26.857422 74.746094 L 26.857422 77.207031 L 27.990234 77.207031 L 27.990234 74.746094 L 26.857422 74.746094 z M 277.40234 74.785156 L 272.40234 78.808594 C 275.52734 82.376307 277.92318 85.30599 279.58984 87.597656 L 284.78516 84.003906 C 282.67578 81.217446 280.21484 78.14453 277.40234 74.785156 z M 445.60547 77.988281 L 445.60547 84.394531 L 453.57422 84.394531 L 453.57422 77.988281 L 445.60547 77.988281 z M 122.59766 78.183594 L 136.58203 78.183594 L 136.58203 80.996094 L 122.59766 80.996094 L 122.59766 78.183594 z M 376.38672 79.003906 L 369.78516 80.175781 C 370.8789 83.483075 371.7513 86.360647 372.40234 88.808594 L 379.00391 87.597656 C 378.30078 85.07161 377.42839 82.207026 376.38672 79.003906 z M 368.57422 79.394531 L 361.77734 79.980469 C 362.35026 83.522135 362.75391 86.464814 362.98828 88.808594 L 369.78516 88.183594 C 369.44661 85.00648 369.04297 82.076825 368.57422 79.394531 z M 391.97266 79.394531 L 391.97266 86.191406 L 427.20703 86.191406 L 427.20703 79.394531 L 391.97266 79.394531 z "
       transform="translate(0,912.36214)"
       id="path5424" />
  </g>
</svg>
