<?xml version="1.0" encoding="UTF-8" standalone="no"?>
<!-- Created with Inkscape (http://www.inkscape.org/) -->

<svg
   xmlns:dc="http://purl.org/dc/elements/1.1/"
   xmlns:cc="http://creativecommons.org/ns#"
   xmlns:rdf="http://www.w3.org/1999/02/22-rdf-syntax-ns#"
   xmlns:svg="http://www.w3.org/2000/svg"
   xmlns="http://www.w3.org/2000/svg"
   xmlns:sodipodi="http://sodipodi.sourceforge.net/DTD/sodipodi-0.dtd"
   xmlns:inkscape="http://www.inkscape.org/namespaces/inkscape"
   width="520"
   height="140"
   viewBox="0 0 520.00001 140"
   id="svg2"
   version="1.1"
   inkscape:version="0.91 r13725"
   sodipodi:docname="9.svg">
  <defs
     id="defs4" />
  <sodipodi:namedview
     id="base"
     pagecolor="#ffffff"
     bordercolor="#666666"
     borderopacity="1.0"
     inkscape:pageopacity="0.0"
     inkscape:pageshadow="2"
     inkscape:zoom="1.4"
     inkscape:cx="172.1645"
     inkscape:cy="9.4784551"
     inkscape:document-units="px"
     inkscape:current-layer="layer1"
     showgrid="false"
     units="px"
     inkscape:snap-object-midpoints="true"
     inkscape:snap-page="true"
     inkscape:snap-center="true"
     inkscape:snap-bbox="true"
     inkscape:snap-grids="true"
     inkscape:snap-to-guides="true"
     inkscape:bbox-paths="true"
     inkscape:bbox-nodes="true"
     inkscape:snap-bbox-edge-midpoints="true"
     inkscape:snap-bbox-midpoints="true"
     inkscape:window-width="1920"
     inkscape:window-height="965"
     inkscape:window-x="-8"
     inkscape:window-y="-8"
     inkscape:window-maximized="1" />
  <metadata
     id="metadata7">
    <rdf:RDF>
      <cc:Work
         rdf:about="">
        <dc:format>image/svg+xml</dc:format>
        <dc:type
           rdf:resource="http://purl.org/dc/dcmitype/StillImage" />
        <dc:title></dc:title>
      </cc:Work>
    </rdf:RDF>
  </metadata>
  <g
     inkscape:label="レイヤー 1"
     inkscape:groupmode="layer"
     id="layer1"
     transform="translate(0,-912.36214)">
    <path
       style="font-style:normal;font-variant:normal;font-weight:900;font-stretch:normal;font-size:medium;line-height:125%;font-family:'Mgen+ 1c';-inkscape-font-specification:'Mgen+ 1c Heavy';text-align:center;letter-spacing:0px;word-spacing:0px;text-anchor:middle;fill:#000000;fill-opacity:1;stroke:none;stroke-width:1px;stroke-linecap:butt;stroke-linejoin:miter;stroke-opacity:1"
       d="M 254.04297 12.595703 L 249.78516 16.072266 L 249.78516 17.224609 L 254.00391 13.767578 L 254.04297 13.767578 L 254.04297 27.205078 L 255.03906 27.205078 L 255.03906 12.595703 L 254.04297 12.595703 z M 261.46484 12.595703 L 261.46484 13.474609 L 268.69141 13.474609 L 268.69141 13.513672 L 263.39844 18.708984 L 263.39844 19.548828 L 264.94141 19.548828 C 266.41276 19.548828 267.48698 19.815756 268.16406 20.349609 C 268.85417 20.870443 269.19922 21.671226 269.19922 22.751953 C 269.19922 25.278 267.83203 26.541016 265.09766 26.541016 C 263.83463 26.541016 262.67578 26.2155 261.62109 25.564453 L 261.62109 26.560547 C 262.64974 27.12044 263.80859 27.400391 265.09766 27.400391 C 266.76432 27.400391 268.03386 27.009762 268.90625 26.228516 C 269.77864 25.434242 270.21484 24.275393 270.21484 22.751953 C 270.21484 21.436853 269.8177 20.440759 269.02344 19.763672 C 268.22916 19.086592 267.07031 18.748047 265.54688 18.748047 L 264.70703 18.748047 L 264.70703 18.708984 L 270 13.474609 L 270 12.595703 L 261.46484 12.595703 z M 52.402344 50.605469 L 52.402344 89.394531 L 65.996094 89.394531 C 63.470052 86.868485 61.503906 83.92578 60.097656 80.566406 C 58.691406 77.180986 57.988281 73.665365 57.988281 70.019531 C 57.988281 66.347658 58.691406 62.83203 60.097656 59.472656 C 61.503906 56.087236 63.470052 53.131509 65.996094 50.605469 L 52.402344 50.605469 z M 153.18359 50.605469 C 155.70964 53.131509 157.67578 56.087236 159.08203 59.472656 C 160.48828 62.83203 161.19141 66.347658 161.19141 70.019531 C 161.19141 73.665365 160.48828 77.180986 159.08203 80.566406 C 157.67578 83.92578 155.70964 86.868485 153.18359 89.394531 L 166.77734 89.394531 L 166.77734 50.605469 L 153.18359 50.605469 z M 86.582031 50.800781 L 86.582031 54.980469 L 72.988281 54.980469 L 72.988281 62.597656 C 72.988281 68.43099 72.779948 72.636724 72.363281 75.214844 C 71.946615 77.79297 71.152343 80.123698 69.980469 82.207031 L 74.785156 88.613281 C 76.08724 86.842475 77.128906 84.902342 77.910156 82.792969 L 78.183594 87.402344 C 85.501302 87.063804 92.975259 86.321615 100.60547 85.175781 C 101.36068 86.842421 101.89453 88.053327 102.20703 88.808594 L 108.80859 85.996094 C 106.72526 81.152347 104.3164 75.878908 101.58203 70.175781 L 94.980469 72.988281 C 96.204427 75.540368 97.233073 77.74089 98.066406 79.589844 C 95.253906 79.92839 92.49349 80.214845 89.785156 80.449219 C 92.128906 75.292965 94.264323 69.680988 96.191406 63.613281 L 88.808594 62.011719 C 86.647135 68.938799 84.238281 75.266927 81.582031 80.996094 C 80.904948 81.048194 79.85026 81.100277 78.417969 81.152344 C 79.459635 77.662764 79.980469 73.339847 79.980469 68.183594 L 79.980469 61.191406 L 107.59766 61.191406 L 107.59766 54.980469 L 94.199219 54.980469 L 94.199219 50.800781 L 86.582031 50.800781 z M 116.97266 51.386719 C 115.48828 55.084632 113.56119 58.886715 111.19141 62.792969 L 116.38672 64.980469 L 111.19141 64.980469 L 111.19141 70.996094 L 147.98828 70.996094 L 147.98828 64.980469 L 134.19922 64.980469 L 134.19922 61.191406 L 146.38672 61.191406 L 146.38672 55.410156 L 134.19922 55.410156 L 134.19922 51.582031 L 126.58203 51.582031 L 126.58203 55.410156 L 122.87109 55.410156 C 123.39193 54.029943 123.70443 53.157549 123.80859 52.792969 L 116.97266 51.386719 z M 399.39453 51.582031 C 399.13412 52.753905 398.74349 54.485677 398.22266 56.777344 L 391.97266 56.777344 L 391.97266 63.183594 L 396.62109 63.183594 C 395.05859 69.042974 393.18359 74.915368 390.99609 80.800781 L 397.59766 82.988281 C 400.07161 76.477868 402.15494 69.876307 403.84766 63.183594 L 411.19141 63.183594 L 411.19141 56.777344 L 405.29297 56.777344 C 405.52734 55.839844 405.82682 54.38151 406.19141 52.402344 L 399.39453 51.582031 z M 279.98047 52.792969 L 279.19922 59.394531 C 287.11589 60.332031 293.91276 60.800781 299.58984 60.800781 L 299.58984 54.003906 C 292.97526 54.003906 286.4388 53.600262 279.98047 52.792969 z M 374.00391 52.792969 L 374.00391 58.378906 L 363.57422 58.378906 L 363.57422 64.785156 L 374.00391 64.785156 L 374.00391 70.136719 C 373.43099 70.032552 372.7539 69.980469 371.97266 69.980469 C 368.79557 69.980469 366.33464 70.73568 364.58984 72.246094 C 362.84506 73.756514 361.97266 75.80078 361.97266 78.378906 C 361.97266 81.035153 362.84506 83.092448 364.58984 84.550781 C 366.36068 86.035155 368.82161 86.777344 371.97266 86.777344 C 376.13932 86.80339 378.91276 85.39714 380.29297 82.558594 C 381.49088 83.83464 382.38932 84.785156 382.98828 85.410156 L 387.59766 80.800781 C 384.75911 77.753908 382.62369 75.592446 381.19141 74.316406 L 381.19141 64.785156 L 387.20703 64.785156 L 387.20703 58.378906 L 381.19141 58.378906 L 381.19141 52.792969 L 374.00391 52.792969 z M 354.39453 53.183594 C 353.0664 58.496094 352.40234 64.095049 352.40234 69.980469 C 352.40234 75.865882 353.0664 81.464844 354.39453 86.777344 L 361.46484 85.996094 C 360.21484 81.02214 359.58984 75.683595 359.58984 69.980469 C 359.58984 64.277342 360.21484 58.95182 361.46484 54.003906 L 354.39453 53.183594 z M 237.98828 53.613281 L 237.98828 59.980469 L 250.37109 59.980469 L 250.44922 60.058594 C 246.62109 62.714847 243.50911 64.498696 241.11328 65.410156 C 238.71745 66.32161 235.60547 66.920571 231.77734 67.207031 L 232.20703 73.613281 L 244.62891 72.675781 L 244.62891 72.753906 C 242.85807 74.368486 241.97266 76.243486 241.97266 78.378906 C 241.9987 83.97786 246.54297 86.777344 255.60547 86.777344 C 258.47005 86.777344 261.26953 86.516927 264.00391 85.996094 L 263.18359 79.394531 C 260.50131 79.915365 257.97526 80.175781 255.60547 80.175781 C 253.57422 80.175781 252.1289 79.954425 251.26953 79.511719 C 250.41016 79.069012 249.98047 78.36589 249.98047 77.402344 C 249.98047 76.49089 250.34505 75.55339 251.07422 74.589844 C 251.80339 73.626304 252.79297 72.79297 254.04297 72.089844 L 266.58203 71.191406 L 266.19141 64.785156 L 252.51953 65.800781 L 252.51953 65.722656 C 255.5664 64.08203 258.86068 62.167969 262.40234 59.980469 L 262.40234 53.613281 L 237.98828 53.613281 z M 345.52734 54.589844 C 334.17318 55.136724 323.04036 55.410156 312.12891 55.410156 L 312.12891 62.207031 C 316.60807 62.207031 321.16537 62.128903 325.80078 61.972656 L 325.80078 62.050781 C 323.95182 63.457035 322.48047 65.162762 321.38672 67.167969 C 320.31901 69.173175 319.78516 71.178387 319.78516 73.183594 C 319.78516 77.480474 321.25651 80.891929 324.19922 83.417969 C 327.16797 85.944009 331.10026 87.207031 335.99609 87.207031 C 337.97526 87.180991 339.96744 86.972658 341.97266 86.582031 L 341.15234 79.667969 C 339.19922 80.006509 337.61068 80.175781 336.38672 80.175781 C 333.88672 80.175781 331.85547 79.485675 330.29297 78.105469 C 328.75651 76.725262 327.98828 74.824224 327.98828 72.402344 C 327.98828 69.30339 329.47265 66.777345 332.44141 64.824219 C 335.43619 62.845052 339.86328 61.699219 345.72266 61.386719 L 345.52734 54.589844 z M 461.38672 55.605469 L 454.39453 57.597656 C 457.59766 65.33203 459.19922 73.600264 459.19922 82.402344 L 466.77734 82.402344 C 466.77734 72.324224 464.98047 63.391929 461.38672 55.605469 z M 435.37109 55.996094 C 433.91276 60.44922 433.18359 65.253903 433.18359 70.410156 C 433.18359 74.99349 434.23828 78.873701 436.34766 82.050781 C 438.45703 85.201821 440.73568 86.777344 443.18359 86.777344 C 445.34505 86.777344 447.54557 85.657549 449.78516 83.417969 C 452.02474 81.152342 453.82161 78.01432 455.17578 74.003906 L 448.80859 71.582031 C 447.84505 74.055991 446.89453 75.944014 445.95703 77.246094 C 445.04557 78.54818 444.32943 79.199219 443.80859 79.199219 C 443.52214 79.199219 443.20964 78.977863 442.87109 78.535156 C 442.53255 78.092443 442.19401 77.50651 441.85547 76.777344 C 441.54297 76.048177 441.28255 75.123693 441.07422 74.003906 C 440.89193 72.858073 440.80078 71.660156 440.80078 70.410156 C 440.80078 68.48307 440.98307 66.23047 441.34766 63.652344 C 441.71224 61.048177 442.19401 58.75651 442.79297 56.777344 L 435.37109 55.996094 z M 414.00391 56.777344 L 414.00391 70.761719 C 412.98828 70.527345 412.05078 70.410156 411.19141 70.410156 C 407.85807 70.410156 405.29297 71.17839 403.49609 72.714844 C 401.69922 74.251304 400.80078 76.282554 400.80078 78.808594 C 400.80078 81.38672 401.71224 83.430986 403.53516 84.941406 C 405.35807 86.45182 407.91015 87.207031 411.19141 87.207031 C 415.95703 87.207031 419.0039 85.566403 420.33203 82.285156 C 421.52995 83.300776 422.61068 84.264321 423.57422 85.175781 L 427.98828 80.410156 C 425.59245 77.936196 423.32682 75.930991 421.19141 74.394531 L 421.19141 63.378906 C 423.01432 63.483073 424.8763 63.691406 426.77734 64.003906 L 427.59766 57.597656 C 423.66536 57.050776 419.13411 56.777344 414.00391 56.777344 z M 120.25391 61.191406 L 126.58203 61.191406 L 126.58203 64.980469 L 118.14453 64.980469 C 118.95182 63.678382 119.65495 62.41536 120.25391 61.191406 z M 14.416016 62.597656 L 14.416016 63.476562 L 21.642578 63.476562 L 21.642578 63.515625 L 16.349609 68.710938 L 16.349609 69.550781 L 17.892578 69.550781 C 19.363933 69.550781 20.438151 69.817709 21.115234 70.351562 C 21.805338 70.872396 22.150391 71.673173 22.150391 72.753906 C 22.150391 75.279946 20.783203 76.542969 18.048828 76.542969 C 16.785807 76.542969 15.626953 76.217446 14.572266 75.566406 L 14.572266 76.5625 C 15.600912 77.122393 16.759766 77.402344 18.048828 77.402344 C 19.715495 77.402344 20.985026 77.011715 21.857422 76.230469 C 22.729818 75.436195 23.166016 74.27734 23.166016 72.753906 C 23.166016 71.4388 22.76888 70.442705 21.974609 69.765625 C 21.180338 69.088538 20.021484 68.75 18.498047 68.75 L 17.658203 68.75 L 17.658203 68.710938 L 22.951172 63.476562 L 22.951172 62.597656 L 14.416016 62.597656 z M 32.482422 62.597656 L 31.994141 69.941406 L 32.931641 69.941406 C 33.738932 69.303386 34.689453 68.984375 35.783203 68.984375 C 36.994141 68.984375 37.912109 69.283859 38.537109 69.882812 C 39.17513 70.481773 39.494141 71.354167 39.494141 72.5 C 39.494141 73.841147 39.142578 74.850264 38.439453 75.527344 C 37.749349 76.20443 36.733724 76.542969 35.392578 76.542969 C 34.194661 76.542969 33.009765 76.223958 31.837891 75.585938 L 31.837891 76.5625 C 32.944661 77.122393 34.129557 77.402344 35.392578 77.402344 C 37.059245 77.402344 38.328776 76.985677 39.201172 76.152344 C 40.073568 75.30599 40.509766 74.08854 40.509766 72.5 C 40.509766 71.119793 40.10612 70.052082 39.298828 69.296875 C 38.504557 68.528642 37.371745 68.144531 35.900391 68.144531 C 34.858724 68.144531 33.914713 68.411459 33.068359 68.945312 L 33.029297 68.945312 L 33.400391 63.476562 L 39.904297 63.476562 L 39.904297 62.597656 L 32.482422 62.597656 z M 292.40234 63.183594 C 290.03256 63.183594 287.06381 63.457026 283.49609 64.003906 C 279.92839 64.52474 276.62109 65.188807 273.57422 65.996094 L 275.17578 72.597656 C 282.75391 70.852863 288.35286 69.980469 291.97266 69.980469 C 294.0039 69.980469 295.44922 70.214847 296.30859 70.683594 C 297.16797 71.152347 297.59766 71.855469 297.59766 72.792969 C 297.59766 74.641929 296.3086 76.17839 293.73047 77.402344 C 291.17838 78.600264 286.93359 79.524741 280.99609 80.175781 L 281.97266 86.777344 C 297.4414 85.709637 305.17578 80.91797 305.17578 72.402344 C 305.17578 69.511724 304.08203 67.259118 301.89453 65.644531 C 299.73307 64.003905 296.56901 63.183594 292.40234 63.183594 z M 345.72266 64.003906 L 341.50391 66.113281 C 342.62369 68.118488 343.78255 70.279943 344.98047 72.597656 L 349.19922 70.605469 C 347.84505 67.949215 346.6862 65.748693 345.72266 64.003906 z M 339.31641 65.410156 L 335.17578 67.480469 C 336.39974 69.615882 337.53255 71.738276 338.57422 73.847656 L 342.71484 71.855469 C 341.67318 69.798175 340.54036 67.649736 339.31641 65.410156 z M 191.85547 65.800781 L 191.85547 74.199219 L 200.68359 74.199219 L 200.68359 65.800781 L 191.85547 65.800781 z M 205.17578 65.800781 L 205.17578 74.199219 L 214.00391 74.199219 L 214.00391 65.800781 L 205.17578 65.800781 z M 218.49609 65.800781 L 218.49609 74.199219 L 227.32422 74.199219 L 227.32422 65.800781 L 218.49609 65.800781 z M 115.17578 72.597656 L 115.17578 87.988281 L 122.59766 87.988281 L 122.59766 86.386719 L 136.58203 86.386719 L 136.58203 87.988281 L 144.00391 87.988281 L 144.00391 72.597656 L 115.17578 72.597656 z M 26.857422 74.746094 L 26.857422 77.207031 L 27.990234 77.207031 L 27.990234 74.746094 L 26.857422 74.746094 z M 371.58203 76.386719 C 372.4414 76.386719 373.24869 76.595052 374.00391 77.011719 L 374.00391 77.988281 C 374.00391 78.847655 373.8086 79.472655 373.41797 79.863281 C 373.05338 80.227868 372.4414 80.410156 371.58203 80.410156 C 369.7331 80.410156 368.7956 79.746095 368.76953 78.417969 C 368.76953 77.063802 369.70703 76.386719 371.58203 76.386719 z M 411.19141 76.386719 C 412.10286 76.412759 413.04036 76.686198 414.00391 77.207031 L 414.00391 77.402344 C 414.00391 78.886724 413.79557 79.889323 413.37891 80.410156 C 412.98828 80.93099 412.25911 81.191406 411.19141 81.191406 C 410.17578 81.191406 409.38151 80.983073 408.80859 80.566406 C 408.26172 80.14974 407.98828 79.563807 407.98828 78.808594 C 407.98828 78.079427 408.26172 77.493488 408.80859 77.050781 C 409.35547 76.608075 410.14974 76.386719 411.19141 76.386719 z M 122.59766 78.183594 L 136.58203 78.183594 L 136.58203 80.996094 L 122.59766 80.996094 L 122.59766 78.183594 z "
       transform="translate(0,912.36214)"
       id="path4813" />
  </g>
</svg>
